<?xml version="1.0" encoding="UTF-8"?>
<svg version="1.1" xmlns="http://www.w3.org/2000/svg" width="512" height="512">
<path d="M0 0 C0.67071533 0.29787415 1.34143066 0.59574829 2.0324707 0.90264893 C10.2738909 4.59452854 17.88520818 8.63792733 25.0625 14.1875 C25.85946289 14.80133545 26.65642578 15.4151709 27.47753906 16.04760742 C39.38067855 25.48378201 46.57481978 40.42318346 49.0625 55.1875 C50.59379357 72.10201811 47.63253007 85.98539043 40.0625 101.1875 C40.6915625 101.14109375 41.320625 101.0946875 41.96875 101.046875 C48.28755924 100.78041919 52.91373008 101.36056749 58.0625 105.1875 C63.11916678 109.96490313 66.67001521 114.36761899 67.3984375 121.45703125 C67.49233204 129.97326573 67.1802288 135.86345494 61.19140625 142.15234375 C55.14376768 147.74269396 50.53241365 149.51856962 42.25 149.3125 C41.55712891 149.30347656 40.86425781 149.29445312 40.15039062 149.28515625 C38.45427605 149.26176157 36.75834129 149.22589641 35.0625 149.1875 C35.10890625 149.95191406 35.1553125 150.71632812 35.203125 151.50390625 C35.88885685 171.85544808 27.10360929 190.25570761 13.49609375 204.9609375 C12.56387875 205.93611474 11.62760672 206.9074284 10.6875 207.875 C10.22061768 208.35557861 9.75373535 208.83615723 9.27270508 209.33129883 C6.3538247 212.22093494 3.63637345 213.97353157 -0.0625 215.6875 C-2.39640877 216.87427259 -2.39640877 216.87427259 -3.9375 219.1875 C-5.34425346 225.39452913 -5.0940378 231.863373 -4.9375 238.1875 C-4.33658539 238.22769257 -3.73567078 238.26788513 -3.11654663 238.30929565 C4.80819227 238.9275351 12.58375094 240.18901905 20.40681076 241.54614639 C22.76062984 241.95392118 25.11543939 242.35545917 27.47061157 242.75534058 C34.15788847 243.89161742 40.84359524 245.03689283 47.52783203 246.19091797 C51.63706071 246.89992826 55.74769746 247.60022242 59.85933304 248.29513168 C61.41879019 248.56051 62.97767993 248.82924595 64.53596115 249.10144424 C66.70935456 249.48092017 68.88436394 249.84931657 71.06005859 250.21533203 C72.29484955 250.42771515 73.5296405 250.64009827 74.80184937 250.85891724 C80.99852197 251.48336924 84.03166822 249.68720907 89.0625 246.1875 C93.009613 244.87179567 96.78920343 245.02343267 100.9050293 245.01049805 C102.26166435 245.00064125 102.26166435 245.00064125 103.64570618 244.99058533 C106.64271121 244.97085462 109.6396661 244.95918926 112.63671875 244.94921875 C114.1732054 244.94310546 114.1732054 244.94310546 115.74073219 244.93686867 C121.16398543 244.91600736 126.58721336 244.90170676 132.01049805 244.89233398 C137.60472895 244.88127879 143.19856108 244.84688911 148.79265118 244.80716228 C153.10017116 244.78098026 157.40759643 244.77264065 161.71518898 244.76905251 C163.77679953 244.76418946 165.83840593 244.75258356 167.89993858 244.73401451 C170.79127686 244.70959316 173.68158759 244.71059385 176.57299805 244.7175293 C177.84123917 244.69831421 177.84123917 244.69831421 179.13510132 244.67871094 C185.95052639 244.73804584 191.15193341 246.63695123 196.3046875 251.15234375 C196.84351563 251.80332031 197.38234375 252.45429688 197.9375 253.125 C198.49179687 253.77339844 199.04609375 254.42179687 199.6171875 255.08984375 C202.86523457 259.80390126 203.30450278 263.78416251 203.2578125 269.45703125 C203.25356766 270.47853523 203.25356766 270.47853523 203.24923706 271.52067566 C203.23810525 273.68063455 203.21301457 275.84016794 203.1875 278 C203.17746111 279.47069711 203.16833685 280.94140076 203.16015625 282.41210938 C203.13818913 286.00404286 203.1037082 289.59572985 203.0625 293.1875 C203.72569244 293.17861755 204.38888489 293.16973511 205.07217407 293.1605835 C211.98276134 293.07200044 218.89318696 293.01171985 225.80419922 292.96777344 C228.38239088 292.94767437 230.96053704 292.92039059 233.53857422 292.88574219 C237.24718461 292.83715153 240.95519156 292.81451342 244.6640625 292.796875 C245.81427887 292.77622986 246.96449524 292.75558472 248.14956665 292.73431396 C254.25321744 292.73260756 258.41871379 292.77732307 263.0625 297.1875 C266.63041286 301.71889127 267.56353523 304.65671432 267.57043457 310.3984375 C267.57667453 311.10170166 267.5829145 311.80496582 267.58934355 312.52954102 C267.60523434 314.87420686 267.59268563 317.21782738 267.58007812 319.5625 C267.58550102 321.24821578 267.59262462 322.93392682 267.60131836 324.61962891 C267.61953483 329.18989713 267.61249115 333.75980368 267.59980202 338.33007812 C267.58966566 343.11589524 267.59906946 347.90168166 267.60534668 352.6875 C267.61262123 360.72401481 267.60304043 368.76038253 267.58398438 376.796875 C267.562216 386.08440947 267.56926751 395.37159269 267.59129 404.65911865 C267.60944947 412.63721724 267.61199964 420.61521017 267.60153532 428.59332275 C267.59530341 433.35654456 267.59445646 438.11960134 267.60768127 442.8828125 C267.61924712 447.36123067 267.61120072 451.83919654 267.58810425 456.31756592 C267.58282107 457.95985158 267.58432428 459.60217538 267.59315491 461.2444458 C267.60411012 463.48899625 267.59034933 465.73210365 267.57043457 467.9765625 C267.56817242 469.85915771 267.56817242 469.85915771 267.56586456 471.77978516 C266.78297916 477.079821 264.53662001 479.98631042 260.43196452 483.33099699 C256.43510493 485.53318129 253.24940965 485.74585486 248.80781364 485.69086456 C247.98829285 485.69667833 247.16877205 485.70249209 246.32441729 485.70848203 C243.57241505 485.72310489 240.82130148 485.70918625 238.06930542 485.69543457 C236.07881944 485.70004256 234.08833685 485.70639479 232.09786141 485.71434355 C226.62348906 485.73107358 221.14939489 485.72277376 215.67502141 485.71039867 C209.77313536 485.70136569 203.87129786 485.71530913 197.96942139 485.72631836 C187.0749259 485.7430966 176.1805262 485.74161529 165.28602561 485.73067249 C155.22309532 485.72061438 145.16019762 485.71798154 135.09726334 485.72276306 C134.09642402 485.72322137 134.09642402 485.72322137 133.07536573 485.72368894 C130.36696996 485.72493427 127.65857421 485.72620787 124.95017848 485.727528 C99.54020543 485.73976587 74.13028902 485.72866668 48.7203247 485.70714041 C26.13594786 485.68815339 3.55166122 485.68985992 -19.03271484 485.70898438 C-44.39891853 485.73039262 -69.76507218 485.73890237 -95.13128364 485.72653532 C-97.83415404 485.72525242 -100.53702445 485.72400106 -103.23989487 485.72276306 C-103.9054247 485.72244675 -104.57095454 485.72213044 -105.25665195 485.72180455 C-115.31562718 485.71725083 -125.3745663 485.72258277 -135.43353653 485.73268127 C-146.86720288 485.7438798 -158.30075934 485.7409063 -169.73441304 485.7195583 C-175.57182993 485.70901961 -181.40906335 485.70497405 -187.24647903 485.71815491 C-192.58443115 485.73002606 -197.92202877 485.72360377 -203.25994848 485.7022447 C-205.19656684 485.69775622 -207.13321483 485.70009482 -209.06981434 485.70974785 C-211.69180746 485.72182028 -214.31256839 485.70953099 -216.93449593 485.69086456 C-217.69556729 485.70022923 -218.45663865 485.70959389 -219.24077278 485.71924233 C-222.68322125 485.66987956 -224.60363523 485.43435193 -227.40622747 483.3621797 C-229.56467318 480.29680239 -229.49234718 477.49981194 -229.44543457 473.88453674 C-229.45167453 473.14708487 -229.4579145 472.409633 -229.46434355 471.6498341 C-229.48030596 469.17712007 -229.46765678 466.70538746 -229.45507812 464.23266602 C-229.46049824 462.46008224 -229.46762028 460.68750297 -229.47631836 458.91493225 C-229.49457974 454.09615614 -229.48746943 449.27772201 -229.47480202 444.45893979 C-229.4646747 439.40946102 -229.47406828 434.36001154 -229.48034668 429.31053162 C-229.48762987 420.82065585 -229.47802406 412.33091911 -229.45898438 403.84106445 C-229.4372774 394.04929977 -229.44421925 384.25786906 -229.46629 374.46611267 C-229.48450035 366.0480352 -229.48697297 357.63005776 -229.47653532 349.21196693 C-229.47032314 344.18971831 -229.46940047 339.16762601 -229.48268127 334.14538765 C-229.49431901 329.41336453 -229.48607068 324.68176669 -229.46310425 319.94978905 C-229.45785645 318.22175423 -229.45926275 316.49368306 -229.46815491 314.76566315 C-229.55372014 296.43322594 -225.18692512 282.15490151 -212.421875 268.51171875 C-202.43848612 259.17191311 -190.36569074 255.08387772 -177.1484375 252.83203125 C-175.9966098 252.62737747 -174.8447821 252.42272369 -173.65805054 252.21186829 C-170.44653646 251.64566841 -167.23339478 251.09043947 -164.01872253 250.5424881 C-161.87627985 250.17705786 -159.73430977 249.80895076 -157.59240723 249.44036865 C-148.2040348 247.82708837 -138.81034006 246.24693395 -129.41357422 244.68334961 C-125.31233215 244.00081122 -121.21212847 243.31222694 -117.11213112 242.62225628 C-113.91444027 242.0850083 -110.71613983 241.55146369 -107.5176506 241.01899147 C-106.00321412 240.76630466 -104.48899057 240.51233803 -102.97499466 240.25702477 C-100.87929771 239.90405317 -98.78280679 239.5562389 -96.68603516 239.2097168 C-95.49950348 239.01161911 -94.3129718 238.81352142 -93.09048462 238.60942078 C-90.31923606 238.23858251 -87.72716295 238.10174016 -84.9375 238.1875 C-84.00586162 226.73674179 -84.00586162 226.73674179 -88.03125 216.56640625 C-90.75480949 214.6984795 -90.75480949 214.6984795 -93.7578125 213.046875 C-109.67188239 203.7408587 -118.90289374 185.34951376 -123.75 168.25 C-125.2488459 161.89253564 -125.22043706 155.68457327 -124.9375 149.1875 C-125.9275 149.23390625 -126.9175 149.2803125 -127.9375 149.328125 C-142.29983644 149.8083247 -142.29983644 149.8083247 -147.9375 145.1875 C-152.97980096 140.3762208 -156.54265587 136.03034349 -157.2734375 128.91796875 C-157.36733204 120.40173427 -157.0552288 114.51154506 -151.06640625 108.22265625 C-146.01115024 103.54965022 -142.25163387 101.09584635 -135.27734375 101.15234375 C-134.46515381 101.15741943 -133.65296387 101.16249512 -132.81616211 101.16772461 C-132.19620361 101.17425049 -131.57624512 101.18077637 -130.9375 101.1875 C-131.26024902 100.5483667 -131.58299805 99.9092334 -131.91552734 99.25073242 C-133.39569335 96.29918241 -134.85410536 93.33736412 -136.3125 90.375 C-136.82039063 89.37017578 -137.32828125 88.36535156 -137.8515625 87.33007812 C-144.82889838 73.05408168 -145.17038934 60.37106258 -140.9375 45.1875 C-137.10710528 34.52247941 -128.78787454 24.83042813 -118.9375 19.1875 C-116.78113765 18.28740509 -114.61311547 17.41500617 -112.4375 16.5625 C-106.56386467 14.18298888 -102.02308291 11.23126959 -97.0625 7.3125 C-67.23120423 -16.01558049 -33.43395354 -14.91826524 0 0 Z M-76.9375 14.1875 C-75.63793321 16.78663358 -74.60458433 16.88177912 -71.9375 17.9375 C-61.70178626 22.34048163 -52.35229965 29.26036732 -46.9375 39.1875 C-48.25375194 43.13625582 -49.99115398 43.73742713 -53.5 45.875 C-55.01787109 46.80892578 -55.01787109 46.80892578 -56.56640625 47.76171875 C-57.34886719 48.23222656 -58.13132812 48.70273438 -58.9375 49.1875 C-61.58459871 46.61603268 -63.91352482 44.21969524 -66.125 41.25 C-70.74338255 35.59394288 -77.9961184 32.05107289 -84.9375 30.1875 C-93.79084702 29.39849705 -102.23174504 29.2304913 -109.9375 34.1875 C-110.63230469 34.61160156 -111.32710937 35.03570312 -112.04296875 35.47265625 C-119.94783123 40.79694449 -124.38605998 48.15203368 -126.52734375 57.37109375 C-128.02387042 67.64724357 -124.47077915 76.1209417 -119.9375 85.1875 C-119.2775 85.1875 -118.6175 85.1875 -117.9375 85.1875 C-117.61475098 84.5262915 -117.29200195 83.86508301 -116.95947266 83.18383789 C-115.50004452 80.20279456 -114.03141114 77.2263812 -112.5625 74.25 C-112.05460937 73.20908203 -111.54671875 72.16816406 -111.0234375 71.09570312 C-110.53359375 70.10634766 -110.04375 69.11699219 -109.5390625 68.09765625 C-109.08869629 67.18121338 -108.63833008 66.26477051 -108.17431641 65.32055664 C-106.9375 63.1875 -106.9375 63.1875 -104.9375 62.1875 C-98.51399799 61.38806853 -95.52843172 62.60415591 -90.44360352 66.50634766 C-89.69908936 67.10237793 -88.9545752 67.6984082 -88.1875 68.3125 C-81.35637634 73.50110268 -74.94476538 77.97060736 -66.9375 81.1875 C-66.14472656 81.52265625 -65.35195312 81.8578125 -64.53515625 82.203125 C-50.15756536 87.20007602 -31.59060291 85.76458825 -17.9375 79.1875 C-11.87712708 75.95423928 -6.31762691 72.03768875 -0.90234375 67.828125 C7.02046568 61.68168137 7.02046568 61.68168137 11.5625 61.5 C15.23885068 62.22214031 15.80450944 62.45971845 18.0625 65.1875 C18.94005653 66.64112855 19.76342798 68.12825675 20.54296875 69.63671875 C20.98447266 70.48427734 21.42597656 71.33183594 21.88085938 72.20507812 C22.33267578 73.08615234 22.78449219 73.96722656 23.25 74.875 C23.71341797 75.76767578 24.17683594 76.66035156 24.65429688 77.58007812 C25.79542997 79.77999451 26.9312722 81.98247842 28.0625 84.1875 C31.87761713 78.46482431 32.42786214 72.55828545 32.375 65.875 C32.36654053 64.75134033 32.36654053 64.75134033 32.35791016 63.60498047 C32.06280339 50.09727158 26.28649729 38.86348178 16.796875 29.35546875 C8.89338639 23.08913136 -0.19814666 19.04273439 -9.375 15 C-10.52548828 14.47986328 -11.67597656 13.95972656 -12.86132812 13.42382812 C-23.03976938 8.90840631 -32.47292148 5.6104368 -43.6875 5.75 C-44.5444043 5.75612305 -45.40130859 5.76224609 -46.28417969 5.76855469 C-57.26048733 6.03427536 -67.36068344 8.7150334 -76.9375 14.1875 Z M-97.9375 82.1875 C-99.58366818 85.31232372 -101.22937754 88.43738886 -102.875 91.5625 C-103.34357422 92.45195313 -103.81214844 93.34140625 -104.29492188 94.2578125 C-104.74287109 95.10859375 -105.19082031 95.959375 -105.65234375 96.8359375 C-106.06605225 97.62145996 -106.47976074 98.40698242 -106.90600586 99.21630859 C-108.48645766 102.23656134 -109.06574512 103.97010368 -109.08276367 107.38330078 C-109.08914352 108.25246124 -109.09552338 109.1216217 -109.10209656 110.01712036 C-109.10320938 110.96279877 -109.1043222 111.90847717 -109.10546875 112.8828125 C-109.10879715 113.86305389 -109.11212555 114.84329529 -109.11555481 115.85324097 C-109.12062965 117.93975353 -109.12296296 120.02627424 -109.12280273 122.11279297 C-109.12495785 125.25112113 -109.14301897 128.38907934 -109.16210938 131.52734375 C-109.23347627 155.96570169 -107.31807155 176.29178969 -89.48828125 194.71875 C-76.50799269 206.94508146 -61.62306299 212.66186598 -43.9375 213.1875 C-25.20725293 212.62446652 -9.83738469 204.81266924 2.9375 191.25 C8.97196244 184.13717695 13.00858194 177.09751017 15.875 168.25 C16.1858252 167.30229736 16.1858252 167.30229736 16.50292969 166.33544922 C19.99873245 154.71323144 19.4950952 141.83764322 19.68725586 129.80297852 C19.72876462 127.78326222 19.78998465 125.76384563 19.87182617 123.74536133 C20.50337528 107.82120856 17.48195327 96.75819418 9.0625 83.1875 C5.37260827 83.1875 4.5708061 84.0997302 1.6875 86.3125 C-16.83893703 99.58397081 -38.07775327 102.53448689 -60.31738281 99.90625 C-73.82686375 97.65786357 -86.94022761 90.09947331 -97.9375 82.1875 Z M-138.9375 120.1875 C-140.35791821 123.02833641 -140.25202272 125.04227278 -139.9375 128.1875 C-137.70543569 131.03530619 -136.38757001 132.03747666 -132.9375 133.1875 C-130.2975 133.1875 -127.6575 133.1875 -124.9375 133.1875 C-124.9375 127.9075 -124.9375 122.6275 -124.9375 117.1875 C-132.72319784 117.0232309 -132.72319784 117.0232309 -138.9375 120.1875 Z M35.0625 117.1875 C35.0625 122.4675 35.0625 127.7475 35.0625 133.1875 C42.84819784 133.3517691 42.84819784 133.3517691 49.0625 130.1875 C50.48291821 127.34666359 50.37702272 125.33272722 50.0625 122.1875 C47.83043569 119.33969381 46.51257001 118.33752334 43.0625 117.1875 C40.4225 117.1875 37.7825 117.1875 35.0625 117.1875 Z M-68.9375 226.1875 C-70.33759266 235.85948015 -70.33759266 235.85948015 -66.78125 244.58154297 C-63.91542753 247.86407943 -60.69742922 250.74319213 -57.4375 253.625 C-56.32602136 254.66107194 -55.21791131 255.70077 -54.11328125 256.74414062 C-51.42554286 259.26822107 -48.69565803 261.74030451 -45.9375 264.1875 C-40.08331539 261.64385848 -35.72680233 256.87046467 -31.1875 252.5 C-30.70028473 252.03195953 -30.21306946 251.56391907 -29.71109009 251.08169556 C-22.21182003 243.94095291 -22.21182003 243.94095291 -19.46972656 234.3503418 C-19.6907844 231.53811067 -20.15136372 228.89530273 -20.9375 226.1875 C-21.58074219 226.32897461 -22.22398437 226.47044922 -22.88671875 226.61621094 C-30.29802352 228.12014546 -37.38873463 228.49066032 -44.9375 228.4375 C-46.03578125 228.44523438 -47.1340625 228.45296875 -48.265625 228.4609375 C-55.36213151 228.44412113 -62.00703695 227.71178521 -68.9375 226.1875 Z M-85.94506836 254.80596924 C-86.78319565 254.94322922 -87.62132294 255.0804892 -88.48484802 255.22190857 C-89.40637161 255.37458694 -90.3278952 255.52726532 -91.27734375 255.68457031 C-92.2466835 255.84395584 -93.21602325 256.00334137 -94.21473694 256.16755676 C-104.37580849 257.84116921 -114.53350176 259.53532481 -124.69091797 261.23095703 C-129.50666853 262.03421802 -134.32339534 262.83118449 -139.14111328 263.62255859 C-144.96118488 264.57862656 -150.77930299 265.54583706 -156.59622192 266.52089691 C-158.80901303 266.88992617 -161.02245134 267.25509713 -163.23654175 267.61624908 C-166.34707784 268.12446996 -169.45490054 268.6470123 -172.5625 269.17285156 C-173.46782974 269.31743301 -174.37315948 269.46201447 -175.30592346 269.61097717 C-186.65977192 271.57045213 -196.70869744 275.71667854 -204.125 284.8125 C-213.0436921 297.55696986 -213.08885468 310.8739614 -213.05102539 325.80493164 C-213.05074291 327.37274168 -213.05090244 328.94055185 -213.0514679 330.50836182 C-213.0517535 334.74117668 -213.04589513 338.9739629 -213.03889394 343.20677114 C-213.0326209 347.63902085 -213.03205348 352.07127131 -213.03086853 356.50352478 C-213.02776683 364.88619081 -213.01956915 373.26884372 -213.00951904 381.65150398 C-212.99832177 391.19929223 -212.99283836 400.74708112 -212.98782361 410.29487431 C-212.97738552 429.92575848 -212.95905453 449.55662467 -212.9375 469.1875 C-191.8175 469.1875 -170.6975 469.1875 -148.9375 469.1875 C-148.9375 424.3075 -148.9375 379.4275 -148.9375 333.1875 C-143.6575 333.1875 -138.3775 333.1875 -132.9375 333.1875 C-132.9375 378.0675 -132.9375 422.9475 -132.9375 469.1875 C-85.4175 469.1875 -37.8975 469.1875 11.0625 469.1875 C11.08828125 457.27398437 11.1140625 445.36046875 11.140625 433.0859375 C11.16578498 425.54816053 11.19194777 418.01040927 11.22265625 410.47265625 C11.27123379 398.50276861 11.31566264 386.53296648 11.33349609 374.56298828 C11.34650232 365.84573564 11.37344066 357.12865647 11.41711307 348.41150153 C11.43975104 343.79575096 11.45540928 339.18021455 11.45438385 334.56440353 C11.45363862 330.21899879 11.47153424 325.87406787 11.50366783 321.52878571 C11.51217989 319.9348962 11.51390788 318.34095362 11.50830269 316.74705124 C11.50166047 314.5678244 11.51958559 312.39010421 11.54351807 310.21102905 C11.54904882 308.38311357 11.54904882 308.38311357 11.55469131 306.51827049 C12.31072135 301.55939009 14.51929601 298.37342527 18.46720886 295.33952332 C21.37375121 294.04933876 23.41577117 293.79226263 26.5871582 293.75512695 C27.66790115 293.73533279 28.7486441 293.71553864 29.86213684 293.69514465 C31.0175145 293.68875473 32.17289215 293.68236481 33.36328125 293.67578125 C35.15054878 293.64885445 35.15054878 293.64885445 36.97392273 293.62138367 C40.77424598 293.56726309 44.57444348 293.53337824 48.375 293.5 C50.95379354 293.4668286 53.53257049 293.43233911 56.11132812 293.39648438 C62.42840372 293.30905784 68.74490592 293.24900058 75.0625 293.1875 C75.0625 284.9375 75.0625 276.6875 75.0625 268.1875 C64.31206127 266.31378065 53.55987447 264.45107213 42.80418015 262.60775566 C37.81012328 261.75141771 32.81699887 260.8902539 27.82568359 260.01806641 C23.01006834 259.17676343 18.19242988 258.34813125 13.37311554 257.52829361 C11.53351104 257.21305131 9.69468578 256.89322679 7.85668182 256.56878281 C5.28493891 256.11562015 2.71092401 255.67873195 0.13574219 255.24560547 C-0.62598801 255.10750458 -1.3877182 254.96940369 -2.17253113 254.82711792 C-5.16488835 254.3380141 -7.42241267 254.00907782 -10.32196045 255.01345825 C-12.30986612 256.45810518 -13.9829639 258.04240482 -15.6875 259.8125 C-16.60789063 260.75996094 -16.60789063 260.75996094 -17.546875 261.7265625 C-18.00578125 262.20867187 -18.4646875 262.69078125 -18.9375 263.1875 C-18.48138099 264.89642588 -18.02249109 266.60461229 -17.5625 268.3125 C-17.29050781 269.323125 -17.01851562 270.33375 -16.73828125 271.375 C-15.95805117 274.26777782 -15.95805117 274.26777782 -14.75 277.3125 C-13.32418254 282.35770024 -12.79292267 286.8671973 -15.17553711 291.69726562 C-16.8746652 294.32040996 -18.65146052 296.85495804 -20.5 299.375 C-21.74613455 301.08635811 -22.97730975 302.80873474 -24.19140625 304.54296875 C-24.74127197 305.29215576 -25.2911377 306.04134277 -25.85766602 306.81323242 C-27.76666111 311.01060464 -26.2625876 314.31093266 -24.72241211 318.46386719 C-24.22491455 319.62563477 -23.72741699 320.78740234 -23.21484375 321.984375 C-22.6705622 323.28618185 -22.12696393 324.58827455 -21.58398438 325.890625 C-20.7334045 327.91225056 -19.87772147 329.93118649 -19.00952148 331.9453125 C-18.16598172 333.91028094 -17.34544269 335.88370312 -16.52734375 337.859375 C-16.03097412 339.0256543 -15.53460449 340.19193359 -15.02319336 341.39355469 C-12.69956735 349.5134441 -14.07852764 357.26406666 -16.01708984 365.33129883 C-16.23820938 366.29033112 -16.45932892 367.2493634 -16.68714905 368.23745728 C-17.41360889 371.37573299 -18.15570869 374.51006971 -18.8984375 377.64453125 C-19.41016196 379.83766703 -19.92102281 382.03100448 -20.43106079 384.22453308 C-21.49874469 388.80616163 -22.57362487 393.38601748 -23.65429688 397.96459961 C-25.03879674 403.83100346 -26.41014047 409.70038 -27.77675438 415.5709734 C-28.83021095 420.09362562 -29.88808546 424.61523428 -30.94755936 429.13648033 C-31.45467908 431.3008361 -31.96100958 433.46537695 -32.46653366 435.63010597 C-33.17328567 438.65128048 -33.88536786 441.67114677 -34.59912109 444.69067383 C-34.80699753 445.58271011 -35.01487396 446.4747464 -35.22904968 447.39381409 C-37.20455944 455.70170964 -37.20455944 455.70170964 -38.9375 459.1875 C-42.05299872 460.74524936 -45.5419388 460.75230622 -48.9375 460.1875 C-52.21490629 457.72297498 -52.74834368 454.97876195 -53.671875 451.0859375 C-53.82678909 450.44542953 -53.98170319 449.80492157 -54.14131165 449.14500427 C-54.66785897 446.95333286 -55.17797501 444.75818713 -55.6875 442.5625 C-56.06116618 440.98252366 -56.43545639 439.40269481 -56.81030273 437.82299805 C-57.67826655 434.15208184 -58.53727085 430.47917425 -59.39208984 426.80517578 C-60.52436626 421.94408157 -61.67008269 417.08627232 -62.82275391 412.22998047 C-64.3734947 405.69601781 -65.914951 399.15993799 -67.44667625 392.62149048 C-68.3063626 388.95192547 -69.16908118 385.2831445 -70.03967285 381.6161499 C-70.87296569 378.10397759 -71.69492911 374.58932608 -72.50899315 371.072649 C-72.95873921 369.14178048 -73.41942144 367.21346944 -73.88044739 365.28526306 C-76.22042908 355.09735478 -77.32378697 346.87844553 -73.05859375 337.16796875 C-72.76767349 336.46150711 -72.47675323 335.75504547 -72.17701721 335.0271759 C-71.25942469 332.80249785 -70.31968435 330.58829503 -69.375 328.375 C-68.4284661 326.1432818 -67.48753175 323.90989311 -66.56227112 321.66926575 C-65.98972591 320.28377296 -65.40493929 318.90325619 -64.80625916 317.52885437 C-63.20931777 313.67655721 -62.48295214 311.15671137 -63.9375 307.1875 C-65.12657305 305.06845254 -65.12657305 305.06845254 -66.66015625 303.078125 C-67.19833984 302.32273437 -67.73652344 301.56734375 -68.29101562 300.7890625 C-69.42428108 299.22968923 -70.56745123 297.67746316 -71.72070312 296.1328125 C-75.53436993 290.73049937 -77.07588703 286.79475486 -75.9375 280.1875 C-75.07605917 276.82118023 -73.82193606 273.65502243 -72.5390625 270.43164062 C-71.13626732 266.7680726 -71.13626732 266.7680726 -71.5703125 262.97265625 C-73.09053618 260.98767848 -74.66115513 259.1987911 -76.4375 257.4375 C-77.0459375 256.82390625 -77.654375 256.2103125 -78.28125 255.578125 C-80.79613683 253.46656908 -82.86427475 254.29880999 -85.94506836 254.80596924 Z M112.0625 261.1875 C115.52107089 263.96288599 115.52107089 263.96288599 119.01953125 266.6875 C127.84002246 273.81817079 132.50901736 282.94216405 137.0625 293.1875 C153.5625 293.1875 170.0625 293.1875 187.0625 293.1875 C188.85135438 271.64717478 188.85135438 271.64717478 184.0625 263.1875 C180.26284858 260.90731541 176.70640244 260.94402014 172.34448242 260.96044922 C171.69026306 260.96015717 171.0360437 260.95986511 170.36199951 260.95956421 C168.21385121 260.96095018 166.06605596 260.97647629 163.91796875 260.9921875 C162.4229603 260.99592025 160.9279494 260.99876598 159.43293762 261.00076294 C155.50872986 261.00837882 151.58467145 261.02800959 147.66052246 261.0501709 C143.6519574 261.07067351 139.64336807 261.07977408 135.63476562 261.08984375 C127.77727541 261.11125755 119.91990631 261.14536862 112.0625 261.1875 Z M91.0625 271.1875 C91.0625 278.4475 91.0625 285.7075 91.0625 293.1875 C99.9725 293.1875 108.8825 293.1875 118.0625 293.1875 C114.60090099 284.53350246 108.37320658 278.41772452 100.0625 274.1875 C97.0925 273.1975 94.1225 272.2075 91.0625 271.1875 Z M-57.9375 278.1875 C-58.79900371 281.40768376 -59.44404725 283.99926636 -58.09863281 287.15527344 C-56.83397272 289.19599803 -55.48699177 291.13007954 -54.0625 293.0625 C-53.58941406 293.73796875 -53.11632812 294.4134375 -52.62890625 295.109375 C-50.4540885 298.28720067 -50.4540885 298.28720067 -47.9375 301.1875 C-45.07250199 301.70422959 -45.07250199 301.70422959 -41.9375 301.1875 C-39.57928182 298.97754151 -39.57928182 298.97754151 -37.75 296 C-37.09644531 295.03707031 -36.44289062 294.07414062 -35.76953125 293.08203125 C-35.16496094 292.12683594 -34.56039062 291.17164063 -33.9375 290.1875 C-33.35742188 289.32125 -32.77734375 288.455 -32.1796875 287.5625 C-30.4216375 284.20119685 -31.1576014 281.80339353 -31.9375 278.1875 C-34.48023114 279.31760273 -36.14003856 280.37878642 -38.1875 282.3125 C-41.16472536 284.34242638 -43.2650542 284.87697691 -46.875 284.7265625 C-50.15346214 283.86969171 -52.14208802 281.86103018 -54.4921875 279.5 C-55.85887937 277.96340855 -55.85887937 277.96340855 -57.9375 278.1875 Z M27.0625 309.1875 C26.06533355 338.54940278 26.06533355 338.54940278 39.8203125 362.14453125 C50.96455014 372.29860144 63.95691306 373.35877395 78.34375 373.28515625 C79.39784058 373.2837413 80.45193115 373.28232635 81.53796387 373.28086853 C84.87950571 373.27530508 88.22097867 373.26275941 91.5625 373.25 C93.83854069 373.24498027 96.11458245 373.2404182 98.390625 373.23632812 C103.94793987 373.22534764 109.50521501 373.20864622 115.0625 373.1875 C115.07708252 372.35500732 115.09166504 371.52251465 115.10668945 370.66479492 C115.1677863 367.57260347 115.24194556 364.48107918 115.32495117 361.3894043 C115.37451319 359.3945937 115.40901133 357.39942743 115.44335938 355.40429688 C115.4965332 353.52387695 115.4965332 353.52387695 115.55078125 351.60546875 C115.57696533 350.44813232 115.60314941 349.2907959 115.63012695 348.09838867 C116.11460308 344.83672359 116.53197795 344.16148806 119.0625 342.1875 C122.11112525 341.88902007 124.95110095 341.76728155 128 341.7890625 C128.87648193 341.78619232 129.75296387 341.78332214 130.65600586 341.78036499 C132.50863288 341.77832402 134.36128142 341.78385622 136.21386719 341.79638672 C139.05192179 341.81244016 141.88855227 341.79653945 144.7265625 341.77734375 C146.52604481 341.77932618 148.32552624 341.78316984 150.125 341.7890625 C150.97505615 341.78298981 151.8251123 341.77691711 152.70092773 341.7706604 C158.61884423 341.84141679 158.61884423 341.84141679 160.78327942 343.52983093 C162.76436831 346.09701116 162.50187846 348.40802801 162.57421875 351.60546875 C162.60966797 352.85908203 162.64511719 354.11269531 162.68164062 355.40429688 C162.70419922 356.71462891 162.72675781 358.02496094 162.75 359.375 C162.78317666 360.71032013 162.81766666 362.04560832 162.85351562 363.38085938 C162.93612057 366.64965504 163.00523229 369.91817812 163.0625 373.1875 C169.67867698 373.23862911 176.29480213 373.2734119 182.91113281 373.29736328 C185.15724593 373.3073589 187.40334625 373.32095988 189.64941406 373.33837891 C192.89651672 373.36291257 196.14344586 373.3740478 199.390625 373.3828125 C200.37863098 373.39313507 201.36663696 373.40345764 202.38458252 373.41409302 C217.09168306 373.41640706 229.08506157 370.68680065 240.01953125 360.4296875 C253.34682728 345.80278899 251.0625 328.31562704 251.0625 309.1875 C177.1425 309.1875 103.2225 309.1875 27.0625 309.1875 Z M-46.9375 317.1875 C-48.67246197 320.82424721 -50.31844583 324.49804639 -51.9375 328.1875 C-52.28006836 328.96464355 -52.62263672 329.74178711 -52.97558594 330.54248047 C-54.10976855 333.14451684 -55.21360153 335.75788654 -56.3125 338.375 C-56.68246094 339.21772461 -57.05242187 340.06044922 -57.43359375 340.92871094 C-57.77261719 341.75016602 -58.11164063 342.57162109 -58.4609375 343.41796875 C-58.76950684 344.14395264 -59.07807617 344.86993652 -59.39599609 345.61791992 C-60.99935486 353.22628375 -57.70842269 362.04403874 -55.99609375 369.4375 C-55.70896011 370.69135498 -55.42182648 371.94520996 -55.12599182 373.23706055 C-54.36831857 376.54546476 -53.60594131 379.85276706 -52.8425293 383.15985107 C-52.06205897 386.54470807 -51.28611138 389.93060134 -50.50976562 393.31640625 C-48.99006471 399.94111668 -47.46538436 406.56467231 -45.9375 413.1875 C-45.2775 413.1875 -44.6175 413.1875 -43.9375 413.1875 C-42.08145994 405.34080691 -40.23775161 397.49136088 -38.40956783 389.63813591 C-37.56021663 385.99136282 -36.70670632 382.34567042 -35.84350586 378.70214844 C-35.01009257 375.18366283 -34.18784764 371.66273507 -33.37317085 368.13986588 C-33.06095495 366.79858293 -32.74477574 365.45821597 -32.42451286 364.11883163 C-31.97546228 362.23780495 -31.54198938 360.35308036 -31.10913086 358.46826172 C-30.85820175 357.39792694 -30.60727264 356.32759216 -30.34873962 355.224823 C-29.32644354 347.67437496 -32.76448622 340.73447125 -35.43798828 333.8269043 C-36.18956409 331.86962462 -36.9129492 329.90324941 -37.63671875 327.93554688 C-38.11548073 326.68944707 -38.59589232 325.44397953 -39.078125 324.19921875 C-39.72056152 322.50478638 -39.72056152 322.50478638 -40.37597656 320.77612305 C-41.70120204 317.94187268 -41.70120204 317.94187268 -44.61621094 317.31176758 C-45.38223633 317.27075928 -46.14826172 317.22975098 -46.9375 317.1875 Z M131.0625 357.1875 C130.98813749 362.77422194 130.93379746 368.36065339 130.89770508 373.94775391 C130.88265309 375.84689353 130.86220684 377.74599859 130.83618164 379.64501953 C130.79964008 382.38062081 130.78273762 385.115761 130.76953125 387.8515625 C130.75404739 388.69554596 130.73856354 389.53952942 130.72261047 390.40908813 C130.72119405 395.41222858 131.25815332 398.86059889 134.0625 403.1875 C136.90333641 404.60791821 138.91727278 404.50202272 142.0625 404.1875 C144.91030619 401.95543569 145.91247666 400.63757001 147.0625 397.1875 C147.14794291 395.85221193 147.18024625 394.51306112 147.17602539 393.17504883 C147.17591209 391.9741436 147.17591209 391.9741436 147.17579651 390.74897766 C147.17063522 389.88951035 147.16547394 389.03004303 147.16015625 388.14453125 C147.1587413 387.2609343 147.15732635 386.37733734 147.15586853 385.46696472 C147.15027069 382.64460872 147.13771861 379.82233203 147.125 377 C147.11998472 375.08658969 147.11542186 373.17317813 147.11132812 371.25976562 C147.10030197 366.56897986 147.08303883 361.87825337 147.0625 357.1875 C141.7825 357.1875 136.5025 357.1875 131.0625 357.1875 Z M27.0625 373.1875 C27.0625 394.3075 27.0625 415.4275 27.0625 437.1875 C100.9825 437.1875 174.9025 437.1875 251.0625 437.1875 C251.0625 416.0675 251.0625 394.9475 251.0625 373.1875 C248.4225 375.1675 245.7825 377.1475 243.0625 379.1875 C240.74577237 380.50559476 238.39208266 381.76168485 236 382.9375 C234.85402344 383.50984375 233.70804688 384.0821875 232.52734375 384.671875 C224.3698573 388.24020053 217.32935617 388.52000667 208.47265625 388.6015625 C206.52316322 388.63061172 206.52316322 388.63061172 204.5342865 388.6602478 C201.10015821 388.71131345 197.66599099 388.7510748 194.23168945 388.78839111 C190.71881685 388.82859231 187.20610262 388.87961063 183.69335938 388.9296875 C176.81652232 389.02614336 169.9395833 389.11064397 163.0625 389.1875 C163.00916504 390.21738037 162.95583008 391.24726074 162.90087891 392.30834961 C162.82229369 393.67303473 162.74333519 395.03769839 162.6640625 396.40234375 C162.62998291 397.07954468 162.59590332 397.75674561 162.56079102 398.45446777 C162.10843279 405.96407119 160.14314609 410.5252381 154.625 415.5625 C147.90894572 421.14103233 140.43545666 420.93660937 132.0625 420.1875 C125.85655629 418.55538567 121.52631883 414.49354094 118.0625 409.1875 C116.01578037 404.98763132 115.64877106 400.97454699 115.4375 396.375 C115.39882813 395.68212891 115.36015625 394.98925781 115.3203125 394.27539062 C115.22676432 392.57982985 115.14357636 390.88370288 115.0625 389.1875 C114.34999084 389.18385437 113.63748169 389.18020874 112.90338135 389.17645264 C106.13744682 389.13834114 99.37190036 389.08123019 92.6063118 389.00359726 C89.12928834 388.96434765 85.6525096 388.93205064 82.17529297 388.91650391 C78.16333836 388.89824422 74.152294 388.84819686 70.140625 388.796875 C68.91200745 388.79564636 67.68338989 388.79441772 66.4175415 388.79315186 C56.17447463 388.62202914 47.15495283 386.29244622 38.1875 381.25 C37.34445312 380.78722656 36.50140625 380.32445312 35.6328125 379.84765625 C32.59365552 377.88467492 29.84190833 375.50367361 27.0625 373.1875 Z M27.0625 453.1875 C27.0625 458.4675 27.0625 463.7475 27.0625 469.1875 C100.9825 469.1875 174.9025 469.1875 251.0625 469.1875 C251.0625 463.9075 251.0625 458.6275 251.0625 453.1875 C177.1425 453.1875 103.2225 453.1875 27.0625 453.1875 Z " fill="#000000" transform="translate(236.9375,18.8125)"/>
</svg>
