<?xml version="1.0" encoding="UTF-8"?>
<svg version="1.1" xmlns="http://www.w3.org/2000/svg" width="320" height="506">
<path d="M0 0 C4.97396728 2.30934195 7.32690389 5.27531913 10 10 C10.50139666 13.4826355 10.50139666 13.4826355 10.50336456 17.40576172 C10.50917833 18.13351114 10.51499209 18.86126057 10.52098203 19.611063 C10.53558615 22.05094204 10.52169555 24.48981571 10.50793457 26.9296875 C10.51254334 28.69600946 10.51889609 30.4623276 10.52684355 32.2286377 C10.54356335 37.08347572 10.53527844 41.9379998 10.52289867 46.79283905 C10.51386137 52.02809288 10.52781136 57.26329211 10.53881836 62.49853516 C10.55662226 72.75481154 10.55275525 83.01097096 10.5411678 93.26725197 C10.53214111 101.60135484 10.53090616 109.93542489 10.53526306 118.26953125 C10.53587599 119.45484058 10.53648893 120.64014992 10.53712043 121.86137772 C10.53839931 124.26917013 10.53969616 126.67696254 10.5410108 129.08475494 C10.55242208 151.67254868 10.53929428 174.26027752 10.51780933 196.84806061 C10.49993787 216.23728124 10.50304182 235.62640609 10.52148438 255.015625 C10.54288139 277.52156146 10.55132339 300.02744102 10.53903532 322.53338623 C10.5377611 324.93241373 10.53650362 327.33144123 10.53526306 329.73046875 C10.53433741 331.50110624 10.53433741 331.50110624 10.53339306 333.30751419 C10.52993665 341.63340875 10.53577476 349.95926727 10.54518127 358.28515625 C10.55638964 368.42906404 10.55338565 378.57284799 10.5320583 388.71674156 C10.52153228 393.89417717 10.51745253 399.07140616 10.53065491 404.24884033 C10.54255242 408.98614249 10.53605989 413.72304602 10.5147447 418.46031189 C10.51026742 420.17624008 10.51257006 421.89220178 10.52224785 423.60810852 C10.53437938 425.93729994 10.52197117 428.26511893 10.50336456 430.59423828 C10.50271515 431.88886993 10.50206574 433.18350159 10.50139666 434.5173645 C9.74704732 439.75697621 7.26855526 442.7948725 3.5 446.375 C-1.7688031 448.82123001 -6.29791641 449.00751101 -12 448 C-16.09584952 446.26521358 -19.47618728 443.66906639 -23 441 C-24.42546157 439.95611514 -25.85268622 438.91463542 -27.28125 437.875 C-30.54270856 435.49300921 -33.79104777 433.09441323 -37.03125 430.68359375 C-41.68014978 427.2285995 -46.36270786 423.82283432 -51.0625 420.4375 C-51.80056885 419.90560059 -52.5386377 419.37370117 -53.29907227 418.82568359 C-54.78789793 417.75315693 -56.27691116 416.68089061 -57.76611328 415.60888672 C-61.51359784 412.90987872 -65.25655845 410.20461116 -69 407.5 C-70.49997854 406.41663696 -71.99997854 405.33330362 -73.5 404.25 C-136.5 358.75 -199.5 313.25 -262.5 267.75 C-263.6144751 266.9451416 -263.6144751 266.9451416 -264.75146484 266.12402344 C-266.24668511 265.04408802 -267.74180284 263.96401061 -269.23681641 262.88378906 C-273.05910435 260.1222756 -276.88331583 257.36349187 -280.7109375 254.609375 C-284.47094055 251.90337738 -288.2237739 249.18768764 -291.97265625 246.46630859 C-293.86117751 245.10040557 -295.75781044 243.7465932 -297.65625 242.39453125 C-298.7184375 241.62496094 -299.780625 240.85539063 -300.875 240.0625 C-301.77992188 239.41410156 -302.68484375 238.76570312 -303.6171875 238.09765625 C-307.26847187 234.88332886 -309.67221631 231.85101379 -310.53125 227 C-310.5209375 226.01 -310.510625 225.02 -310.5 224 C-310.51546875 222.515 -310.51546875 222.515 -310.53125 221 C-309.40419096 214.63543133 -305.30303403 211.09393829 -300.3125 207.375 C-299.75071045 206.95387939 -299.1889209 206.53275879 -298.61010742 206.09887695 C-292.64255651 201.65988791 -286.54444912 197.39931242 -280.453125 193.1328125 C-275.96095841 189.98197446 -271.50735683 186.77962391 -267.0625 183.5625 C-266.31653564 183.02262451 -265.57057129 182.48274902 -264.80200195 181.92651367 C-263.28986573 180.83161956 -261.77790301 179.73648578 -260.26611328 178.64111328 C-256.513552 175.92351827 -252.75656581 173.21205527 -249 170.5 C-247.49997854 169.41669638 -245.99997854 168.33336304 -244.5 167.25 C-73.5 43.75 -73.5 43.75 -71.25024414 42.12524414 C-69.7493445 41.04121584 -68.24853078 39.95706858 -66.74780273 38.87280273 C-63.01226033 36.17412345 -59.27527746 33.47748688 -55.53515625 30.78515625 C-54.04417205 29.71107461 -52.55328666 28.6368558 -51.0625 27.5625 C-50.32765381 27.03317871 -49.59280762 26.50385742 -48.83569336 25.95849609 C-44.04037664 22.49634322 -39.2803063 18.98977981 -34.53515625 15.45922852 C-31.38337411 13.12122109 -28.2159489 10.8052259 -25.04296875 8.49609375 C-23.78611993 7.57568629 -22.53478175 6.64762645 -21.29296875 5.70703125 C-14.37832336 0.47191213 -8.72035642 -1.59596567 0 0 Z " fill="#000000" transform="translate(310,32)"/>
</svg>
