<?xml version="1.0" encoding="UTF-8"?>
<svg version="1.1" xmlns="http://www.w3.org/2000/svg" width="512" height="512">
<path d="M0 0 C0.68825297 -0.00205263 1.37650595 -0.00410527 2.08561507 -0.0062201 C4.39687901 -0.01188433 6.70808325 -0.01043357 9.01935291 -0.00901413 C10.69121091 -0.0115981 12.36306828 -0.01461134 14.03492481 -0.01801753 C18.63336399 -0.02608708 23.23178756 -0.02787708 27.83023298 -0.028615 C32.78812381 -0.03046563 37.74600655 -0.03801301 42.70389271 -0.04475021 C53.54689636 -0.05833368 64.38989631 -0.06435826 75.23290706 -0.06876087 C82.00291793 -0.07152324 88.77292737 -0.07576058 95.54293728 -0.08026505 C114.28597613 -0.09245767 133.02901384 -0.10275704 151.77205658 -0.10614014 C152.97171552 -0.1063597 154.17137447 -0.10657927 155.40738671 -0.10680549 C156.6099205 -0.10702377 157.81245429 -0.10724204 159.0514285 -0.10746694 C161.48823114 -0.1079104 163.92503379 -0.10835697 166.36183643 -0.10880661 C167.57057542 -0.10902804 168.7793144 -0.10924947 170.02468184 -0.10947761 C189.61120067 -0.11342574 209.19768229 -0.13088028 228.78418674 -0.15416613 C248.89183546 -0.17787867 268.99946551 -0.19034194 289.10712844 -0.19150805 C300.39744709 -0.19242486 311.68771727 -0.19817866 322.97802258 -0.21632767 C332.59187586 -0.23172731 342.20566569 -0.2368499 351.81952896 -0.22858956 C356.72402073 -0.22468262 361.62838471 -0.22561493 366.53286076 -0.23964691 C371.02546928 -0.25238289 375.51785394 -0.25119093 380.01046214 -0.2390562 C381.63295846 -0.23709869 383.25547061 -0.24018015 384.87794467 -0.24890056 C397.40038921 -0.31192732 407.49978206 0.4462527 417.07204151 9.13142776 C417.90735401 9.86812698 417.90735401 9.86812698 418.75954151 10.61970901 C425.89102095 17.80467455 427.50953768 28.6131209 427.60235304 38.3530671 C427.59274803 39.43675397 427.58314302 40.52044084 427.57324696 41.63696671 C427.57878135 42.82524875 427.58431575 44.0135308 427.59001786 45.2378214 C427.60117789 48.49581738 427.59468636 51.75319301 427.58028114 55.01115739 C427.56908535 58.54014663 427.58114197 62.06907176 427.59012318 65.59805679 C427.60399828 72.49454692 427.59654272 79.39085294 427.58144759 86.28733417 C427.56452167 94.3285317 427.56780591 102.36968422 427.57154167 110.41089407 C427.57740946 124.76203024 427.56328973 139.11307845 427.53859425 153.46419144 C427.5146632 167.37275359 427.50759661 181.28119832 427.51808643 195.18977737 C427.52950722 210.35976992 427.53141241 225.52970827 427.51698834 240.69970018 C427.51546259 242.31849149 427.51394223 243.93728282 427.51242733 245.55607414 C427.51166952 246.35242416 427.5109117 247.14877417 427.51013092 247.96925601 C427.50539812 253.56773156 427.5072323 259.16618281 427.51149273 264.76465797 C427.51642975 271.58959235 427.51038861 278.41441594 427.49059843 285.23932501 C427.48075791 288.71809011 427.47558612 292.19668686 427.48349094 295.67546082 C427.48945897 299.45276645 427.47690858 303.22957852 427.45972157 307.00683975 C427.46873663 308.6424083 427.46873663 308.6424083 427.47793382 310.31101865 C427.38173739 321.96042088 424.60403661 330.50933619 416.37282276 338.85408401 C408.53846735 346.01943829 400.22351687 347.28214453 389.93898487 347.27669144 C388.57227398 347.28172935 388.57227398 347.28172935 387.17795277 347.28686905 C384.17258299 347.2963518 381.16726905 347.29832055 378.16188526 347.29939651 C376.07111049 347.30261001 373.98033595 347.30597415 371.88956165 347.30948257 C367.51084846 347.31546646 363.13215499 347.31732314 358.753438 347.3167305 C353.13882019 347.3166287 347.52432835 347.33030236 341.90974045 347.34750271 C337.59380987 347.35860996 333.27790992 347.36065013 328.96196651 347.36012077 C326.89149064 347.36130199 324.82101399 347.36573167 322.75055218 347.37345314 C319.85884544 347.38323096 316.96741463 347.38038413 314.07570362 347.37434769 C313.21897053 347.37996719 312.36223743 347.3855867 311.47954273 347.3913765 C310.29573772 347.38508476 310.29573772 347.38508476 309.08801746 347.37866592 C308.06350688 347.37948308 308.06350688 347.37948308 307.0182991 347.38031673 C304.67944205 347.08122183 303.08819082 346.33852061 301.07204151 345.13142776 C298.77235588 341.91186788 298.51855513 339.00583244 299.07204151 335.13142776 C301.05245969 332.45811912 302.64979809 330.46715675 305.99446011 329.67762947 C308.35988364 329.5036824 310.67828972 329.4933398 313.04982471 329.5354805 C313.94478657 329.53142197 314.83974842 329.52736343 315.76183033 329.52318192 C317.70101718 329.51767047 319.64026339 329.52365692 321.57939053 329.53984261 C324.65306501 329.56527171 327.72539886 329.56046075 330.79913807 329.54794693 C337.32775318 329.52719708 343.85595374 329.54687173 350.38454151 329.56892776 C357.94143798 329.59005505 365.49790201 329.59453914 373.05478954 329.56842613 C376.07503608 329.56507454 379.09445014 329.58625907 382.11459827 329.6088295 C383.97842557 329.60631679 385.84225184 329.60275531 387.70607471 329.5979805 C388.53907597 329.61086609 389.37207722 329.62375168 390.23032093 329.63702774 C395.92119643 329.5886295 400.33524336 328.37593363 405.07204151 325.13142776 C408.46457927 320.75395969 409.19560138 316.63899274 409.20346928 311.20783901 C409.20731042 310.21142397 409.21115157 309.21500893 409.21510911 308.18839949 C409.21380939 306.5496584 409.21380939 306.5496584 409.21248341 304.87781143 C409.21545453 303.71552027 409.21842565 302.55322911 409.22148681 301.355717 C409.22866606 298.12881163 409.23134604 294.90193869 409.23208427 291.67502654 C409.23393585 288.19503345 409.24148367 284.71505188 409.24821949 281.23506546 C409.2617987 273.62557246 409.26782678 266.01608474 409.27223015 258.40658164 C409.27499304 253.65525879 409.27923046 248.90393798 409.28373432 244.1526165 C409.29592603 230.99755576 409.30622581 217.84249665 409.30960941 204.68743038 C409.30982898 203.84556259 409.31004855 203.0036948 409.31027476 202.13631587 C409.31049304 201.29243631 409.31071132 200.44855675 409.31093621 199.57910508 C409.31137968 197.86908829 409.31182624 196.1590715 409.31227589 194.44905472 C409.31249732 193.60082769 409.31271875 192.75260066 409.31294689 191.87866978 C409.3168954 178.13256004 409.3343515 164.38650329 409.35763541 150.64041402 C409.3813477 136.5275266 409.39381119 122.41466578 409.39497733 108.30175811 C409.39589412 100.37784775 409.40164736 92.45400646 409.41979694 84.53011513 C409.43519623 77.78321606 409.4403194 71.03640742 409.43205884 64.28949412 C409.42815181 60.84760308 409.42908433 57.40589414 409.44311619 53.9640255 C409.45577689 50.23119114 409.44999034 46.4988258 409.43953419 42.76599503 C409.44759059 41.68019313 409.455647 40.59439124 409.46394753 39.47568625 C409.41798373 32.47117865 408.732069 27.41212834 404.19704151 21.81892776 C399.77355241 18.30615701 395.75047029 17.88059406 390.20096588 17.87415886 C389.51886721 17.87065278 388.83676854 17.86714671 388.13400021 17.86353439 C385.84362813 17.85421511 383.55351002 17.859145 381.26312733 17.86400223 C379.60634174 17.86026623 377.94955791 17.85566491 376.29277688 17.85027158 C371.7360657 17.83801991 367.17942781 17.8383046 362.62270391 17.84066033 C357.70983423 17.84106795 352.79698822 17.83003461 347.88412952 17.8205452 C338.25740777 17.80392238 328.6307105 17.79843507 319.00397559 17.79732044 C311.17997909 17.79637058 303.35599067 17.79226339 295.53199673 17.78591919 C273.35637225 17.76830334 251.18076714 17.75908087 229.00513562 17.76058014 C227.8092922 17.76066005 226.61344878 17.76073996 225.38136768 17.7608223 C224.18406654 17.76090406 222.98676539 17.76098582 221.75318239 17.76107006 C202.34635902 17.76188307 182.93961324 17.74274242 163.53281232 17.71454556 C143.61275126 17.68583102 123.69272806 17.67200448 103.77264577 17.67373312 C92.58633607 17.67439751 81.40010772 17.66888364 70.21381664 17.64737701 C60.68991846 17.62918405 51.16613849 17.62480239 41.64223047 17.63839586 C36.78250742 17.644935 31.92301127 17.64500858 27.06330967 17.62768936 C22.61391784 17.61199543 18.16493355 17.61478454 13.71555189 17.63225763 C12.10655036 17.63533564 10.49751869 17.63166499 8.88855269 17.62053747 C-2.82408529 17.13389523 -2.82408529 17.13389523 -12.92795849 22.13142776 C-17.72441623 27.9624215 -17.49507744 34.71907562 -17.43589306 41.93526077 C-17.44213302 43.10843117 -17.44837298 44.28160157 -17.45480204 45.49032259 C-17.46795305 48.72926118 -17.46327915 51.96759536 -17.45085716 55.20651841 C-17.44178223 58.70625463 -17.45578845 62.20591105 -17.46677685 65.70563126 C-17.48454071 72.55466901 -17.48073166 79.40353119 -17.46912628 86.25257576 C-17.46008381 91.82012296 -17.45887148 97.38762105 -17.46322155 102.95517349 C-17.46383448 103.74830847 -17.46444741 104.54144344 -17.46507892 105.35861281 C-17.46635785 106.9699737 -17.46765471 108.58133458 -17.46896929 110.19269544 C-17.48036883 125.29382788 -17.46727121 140.39486311 -17.44576782 155.49597961 C-17.42789739 168.44661386 -17.43100167 181.39710469 -17.44944286 194.34773636 C-17.47086064 209.39572304 -17.47927025 224.44362456 -17.46699381 239.49162436 C-17.46571964 241.0969769 -17.46446216 242.70232946 -17.46322155 244.30768204 C-17.4622959 245.49240311 -17.4622959 245.49240311 -17.46135154 246.70105794 C-17.45790136 252.26035264 -17.46371982 257.81959323 -17.47313976 263.37887955 C-17.48437123 270.15607264 -17.4812957 276.93308047 -17.46001679 283.7102524 C-17.44952165 287.16650754 -17.4453579 290.62245406 -17.4586134 294.07870674 C-17.46953983 297.82864413 -17.45583826 301.57771275 -17.43589306 305.32759476 C-17.44481595 306.41553723 -17.45373883 307.5034797 -17.46293211 308.62439013 C-17.39901392 314.81785769 -16.82189515 320.09837536 -12.92795849 325.13142776 C-7.72573987 329.0259515 -2.62810223 329.7111226 3.71950245 329.62971878 C4.95519726 329.63799698 4.95519726 329.63799698 6.2158556 329.64644241 C7.9896377 329.65571041 9.76348637 329.65591094 11.53727436 329.64784813 C14.3453626 329.63515801 17.15247673 329.64656043 19.96053028 329.66388321 C24.90407086 329.69050648 29.8473701 329.69618138 34.79097462 329.69478226 C42.71697763 329.69254783 50.64268389 329.70663021 58.56857014 329.75036812 C61.33402612 329.76020985 64.09901457 329.7514908 66.86446095 329.74167252 C68.55703 329.74781512 70.2495965 329.75472631 71.9421587 329.76253128 C72.71002201 329.75481201 73.47788532 329.74709274 74.26901722 329.73913956 C77.4877394 329.76981125 79.71209619 329.92644195 82.53767872 331.53558731 C85.19911611 334.30366112 85.13939714 337.42686814 85.07204151 341.13142776 C84.31544191 343.74513546 83.71925148 344.68444646 81.5018816 346.21582413 C77.99863635 347.53590445 74.57490289 347.41790478 70.88210011 347.40608597 C69.64710773 347.41375237 69.64710773 347.41375237 68.38716602 347.42157364 C65.66486302 347.43547344 62.9428133 347.43451167 60.22047901 347.43220901 C58.32201004 347.43609756 56.42354194 347.44043256 54.52507496 347.44519424 C50.54216668 347.45265863 46.55934702 347.45236492 42.57643604 347.44710159 C37.49252482 347.44132626 32.4089802 347.45818991 27.32512951 347.48144627 C23.40096919 347.49624389 19.47689573 347.49704679 15.55271244 347.49393654 C13.67977775 347.49444737 11.80683788 347.49964008 9.9339304 347.50974846 C-4.56118929 347.57834139 -15.82515102 347.11038751 -26.65061474 336.43220901 C-32.58682375 329.94175936 -35.04415366 322.81187712 -35.06217957 314.0234642 C-35.06663741 313.01134133 -35.07109525 311.99921845 -35.07568818 310.95642519 C-35.07550382 309.85148195 -35.07531946 308.74653871 -35.07512951 307.60811234 C-35.0788062 306.42878238 -35.08248289 305.24945243 -35.08627099 304.0343852 C-35.09537954 300.76431722 -35.10000351 297.49427873 -35.1026603 294.22420025 C-35.10657127 290.69570961 -35.11614911 287.16723339 -35.12487316 283.63875198 C-35.14461608 275.11864104 -35.15470142 266.59852895 -35.16360095 258.07840085 C-35.16798776 254.0624199 -35.17335358 250.04644027 -35.17858982 246.03046036 C-35.19560059 232.67378132 -35.21009337 219.31710309 -35.21733856 205.96041489 C-35.21924834 202.49593479 -35.22116869 199.03145471 -35.2231245 195.56697464 C-35.22360824 194.7059339 -35.22409198 193.84489316 -35.22459038 192.95776027 C-35.23288554 179.01852178 -35.25821444 165.07936924 -35.29070518 151.14016825 C-35.32381758 136.81703829 -35.34179113 122.49395195 -35.3449828 108.17078352 C-35.34714412 100.13377138 -35.35583718 92.09688456 -35.38144398 84.05990982 C-35.40320826 77.21327826 -35.4111734 70.36680246 -35.4014772 63.52014023 C-35.39694886 60.03086402 -35.39873213 56.54190881 -35.41823864 53.05267715 C-35.43599297 49.2583877 -35.42883266 45.4649032 -35.41570568 41.67061234 C-35.42667493 40.58351487 -35.43764417 39.4964174 -35.44894582 38.37637758 C-35.35255028 26.77209145 -32.6772835 16.59299522 -24.43577099 8.22908401 C-16.99698021 2.0069179 -9.54360695 0.00970307 0 0 Z " fill="#000000" transform="translate(59.927958488464355,39.86857223510742)"/>
<path d="M0 0 C4.67210417 1.3916906 7.48223838 4.54097563 10.9375 7.875 C12.72476831 9.48406561 14.5165031 11.08818287 16.3125 12.6875 C18.56674596 14.71492554 20.79376005 16.73126005 22.9375 18.875 C29.2011806 18.45606991 35.02031255 16.90898323 41.02539062 15.16015625 C45.67321496 13.90447582 49.28444031 13.54555437 53.9375 14.875 C58.62946702 18.86153142 59.65700803 24.76846376 61.1875 30.5 C61.5896875 31.93085938 61.5896875 31.93085938 62 33.390625 C63.9375 40.4091199 63.9375 40.4091199 63.9375 43.875 C65.06027344 44.12894531 66.18304688 44.38289063 67.33984375 44.64453125 C87.46346327 49.2457563 87.46346327 49.2457563 92.5 52.5625 C94.92996738 56.47157795 94.35218151 60.87301097 93.44702148 65.24291992 C92.7966773 67.7172122 92.10093465 70.17184154 91.375 72.625 C90.88553043 74.28382897 90.40470111 75.94523803 89.93359375 77.609375 C89.71888428 78.33350586 89.5041748 79.05763672 89.28295898 79.80371094 C88.88743606 82.17517136 89.13081811 83.62235643 89.9375 85.875 C91.54142422 87.80484057 91.54142422 87.80484057 93.5625 89.625 C97.07915468 93.00250648 100.32129626 96.50910633 103.4921875 100.2109375 C104.59152798 101.47666464 105.7520434 102.6895434 106.9375 103.875 C107.54622594 107.79790049 107.86976258 110.35930157 105.7578125 113.79296875 C103.03371203 116.95370733 100.1200412 119.71826305 96.953125 122.4375 C91.2785711 127.10067406 91.2785711 127.10067406 88.57421875 133.6015625 C89.09782402 136.50861898 89.92712332 139.10029131 90.9375 141.875 C91.50057675 143.95264894 92.04225453 146.03621442 92.5625 148.125 C92.81257812 149.12144531 93.06265625 150.11789062 93.3203125 151.14453125 C94.09741285 154.58246254 94.50845379 157.37790806 93.9375 160.875 C91.40947045 164.29527527 89.95674007 165.6721537 85.7578125 166.5078125 C84.82710937 166.62898437 83.89640625 166.75015625 82.9375 166.875 C84.30889754 170.33477134 85.68538885 173.79249928 87.0625 177.25 C87.4961084 178.3423999 87.9297168 179.4347998 88.37646484 180.56030273 C91.08383878 187.3475584 93.86416775 194.09752615 96.71875 200.82421875 C97.6822105 203.10940447 98.64465824 205.39501441 99.60687256 207.6807251 C100.2406101 209.17733655 100.87943858 210.67180312 101.52349854 212.16400146 C102.43743059 214.28249254 103.33342076 216.40783285 104.2265625 218.53515625 C104.63835754 219.46989021 104.63835754 219.46989021 105.05847168 220.42350769 C107.02095184 225.16676493 107.29099509 228.8338671 106.9375 233.875 C105.5 236.375 105.5 236.375 102.9375 237.875 C94.53104468 238.77076983 88.07939974 236.03009452 80.375 232.875 C79.17552734 232.39804687 77.97605469 231.92109375 76.74023438 231.4296875 C73.80022247 230.25836802 70.8666014 229.07328324 67.9375 227.875 C66.07672108 232.5878139 64.47297755 237.30835006 63.03515625 242.16796875 C62.70193359 243.29267578 62.36871094 244.41738281 62.02539062 245.57617188 C61.33893272 247.91012874 60.6592959 250.24610211 59.98632812 252.58398438 C59.65181641 253.70482422 59.31730469 254.82566406 58.97265625 255.98046875 C58.6775415 256.99262451 58.38242676 258.00478027 58.07836914 259.04760742 C56.79076389 262.2386531 55.30624807 264.38547375 52.9375 266.875 C49.29583513 267.93439342 47.06451312 268.31676202 43.50341797 266.92089844 C39.78820831 263.95862851 38.30635507 260.39231734 36.3203125 256.140625 C35.90006805 255.2704071 35.47982361 254.40018921 35.04684448 253.50360107 C33.70517708 250.71700126 32.3837301 247.9213384 31.0625 245.125 C30.18228844 243.28974107 29.30079011 241.4550987 28.41796875 239.62109375 C26.29609717 235.20337634 24.19455932 230.77643473 22.1036377 226.34399414 C20.98904021 223.98412303 19.86777054 221.62753118 18.74511719 219.27148438 C18.09797522 217.90510514 17.45114353 216.5385789 16.8046875 215.171875 C16.2463623 213.99463867 15.68803711 212.81740234 15.11279297 211.60449219 C13.9375 208.875 13.9375 208.875 13.9375 206.875 C13.27363281 207.44089844 12.60976563 208.00679687 11.92578125 208.58984375 C11.04277344 209.32332031 10.15976562 210.05679688 9.25 210.8125 C8.37988281 211.54339844 7.50976562 212.27429688 6.61328125 213.02734375 C3.88431237 214.91172664 2.21658571 215.62402173 -1.0625 215.875 C-6.25276837 213.95685734 -10.03688046 210.55522614 -14.0625 206.875 C-14.32281006 207.71780518 -14.58312012 208.56061035 -14.85131836 209.42895508 C-16.13957805 213.09430188 -17.72592702 216.53436522 -19.44140625 220.01171875 C-19.76960358 220.68510788 -20.0978009 221.35849701 -20.4359436 222.05229187 C-21.49528156 224.22418288 -22.55976175 226.3934975 -23.625 228.5625 C-25.08244793 231.53692169 -26.53800389 234.51226235 -27.9921875 237.48828125 C-28.34812485 238.21607788 -28.70406219 238.94387451 -29.07078552 239.69372559 C-31.08590226 243.82728036 -33.04846809 247.97835018 -34.9453125 252.16796875 C-35.34548584 253.04686768 -35.74565918 253.9257666 -36.15795898 254.83129883 C-36.86260917 256.3919895 -37.5557297 257.95796174 -38.23461914 259.5300293 C-40.14380988 263.73544264 -41.73112757 266.09069249 -46.0625 267.875 C-49.625 267.875 -49.625 267.875 -53.0625 266.875 C-56.75559492 263.13317309 -58.23090504 259.12123161 -59.640625 254.16796875 C-59.85692566 253.44257401 -60.07322632 252.71717926 -60.29608154 251.96980286 C-60.97904888 249.67040409 -61.64596713 247.36670992 -62.3125 245.0625 C-62.77498642 243.49513095 -63.23851748 241.92806974 -63.703125 240.36132812 C-64.835034 236.53600783 -65.95258148 232.70675585 -67.0625 228.875 C-70.9793693 228.875 -72.66302621 229.35106358 -76.16796875 230.84375 C-77.15216797 231.24980469 -78.13636719 231.65585937 -79.15039062 232.07421875 C-81.20020213 232.9344421 -83.24714927 233.80152628 -85.29101562 234.67578125 C-91.5475222 237.24025694 -96.29161272 238.52241552 -103.0625 237.875 C-105.625 236.375 -105.625 236.375 -107.0625 233.875 C-107.62550636 227.29539508 -106.2100842 222.74175132 -103.58984375 216.7578125 C-103.2291127 215.90178436 -102.86838165 215.04575623 -102.49671936 214.16378784 C-101.34446076 211.43664109 -100.17308376 208.71824481 -99 206 C-97.86022532 203.32571717 -96.72456005 200.64972139 -95.5897522 197.97332764 C-94.84277305 196.21163139 -94.09422948 194.45059762 -93.34408569 192.69024658 C-89.72245891 184.15957782 -86.36135912 175.53475336 -83.0625 166.875 C-83.99320313 166.75382813 -84.92390625 166.63265625 -85.8828125 166.5078125 C-90.08174007 165.6721537 -91.53447045 164.29527527 -94.0625 160.875 C-94.73238102 153.91716913 -92.59233765 147.62048597 -90.75195312 140.99414062 C-90.52314453 140.13626953 -90.29433594 139.27839844 -90.05859375 138.39453125 C-89.84388428 137.62214111 -89.6291748 136.84975098 -89.40795898 136.05395508 C-89.01206801 133.55690425 -89.12165278 132.21994831 -90.0625 129.875 C-91.6297551 127.91199638 -91.6297551 127.91199638 -93.625 126.0546875 C-94.33914062 125.35472656 -95.05328125 124.65476562 -95.7890625 123.93359375 C-96.53929687 123.21300781 -97.28953125 122.49242187 -98.0625 121.75 C-99.54373899 120.31202744 -101.02300745 118.87202138 -102.5 117.4296875 C-103.15871094 116.79530762 -103.81742188 116.16092773 -104.49609375 115.50732422 C-107.21446815 112.67455439 -107.60531666 110.0167265 -107.55322266 106.10791016 C-106.5575495 101.57734962 -102.9739576 98.69764334 -99.75 95.5625 C-99.05970703 94.86060547 -98.36941406 94.15871094 -97.65820312 93.43554688 C-92.67615781 88.38611157 -92.67615781 88.38611157 -90.30493164 86.41113281 C-88.85843851 84.95424269 -88.85843851 84.95424269 -89.07324219 82.94555664 C-89.33862793 81.87615845 -89.33862793 81.87615845 -89.609375 80.78515625 C-89.795 80.00076172 -89.980625 79.21636719 -90.171875 78.40820312 C-90.38328125 77.59287109 -90.5946875 76.77753906 -90.8125 75.9375 C-91.0084375 75.12603516 -91.204375 74.31457031 -91.40625 73.47851562 C-92.11558954 70.55728285 -92.86318377 67.64663477 -93.61499023 64.73608398 C-94.09274839 62.74920434 -94.29923758 60.91659772 -94.375 58.875 C-94.41238281 58.215 -94.44976562 57.555 -94.48828125 56.875 C-93.85931323 53.9205814 -92.33068822 52.82427271 -90.0625 50.875 C-87.43701172 49.77832031 -87.43701172 49.77832031 -84.4921875 48.953125 C-83.43128906 48.65019531 -82.37039062 48.34726563 -81.27734375 48.03515625 C-80.17519531 47.73480469 -79.07304687 47.43445313 -77.9375 47.125 C-76.82761719 46.80917969 -75.71773437 46.49335938 -74.57421875 46.16796875 C-66.42474973 43.875 -66.42474973 43.875 -64.0625 43.875 C-63.97613281 43.33875 -63.88976562 42.8025 -63.80078125 42.25 C-62.77501434 36.52829101 -61.3113639 30.99376421 -59.625 25.4375 C-59.41979736 24.73947266 -59.21459473 24.04144531 -59.00317383 23.32226562 C-56.91940217 16.62681474 -56.91940217 16.62681474 -54.0625 14.875 C-47.85260363 13.15973451 -42.92913581 14.64919648 -36.9375 16.375 C-29.50906084 18.89006934 -29.50906084 18.89006934 -22.0625 17.875 C-19.61185593 15.83378212 -19.61185593 15.83378212 -17.3125 13.25 C-6.24107143 1.78316327 -6.24107143 1.78316327 0 0 Z M-2.54296875 23.14428711 C-3.10628906 23.7244458 -3.66960937 24.30460449 -4.25 24.90234375 C-4.86617188 25.52947266 -5.48234375 26.15660156 -6.1171875 26.80273438 C-7.08011719 27.79756836 -7.08011719 27.79756836 -8.0625 28.8125 C-9.33108484 30.11547419 -10.60181966 31.41635962 -11.875 32.71484375 C-12.71998047 33.58677368 -12.71998047 33.58677368 -13.58203125 34.47631836 C-16.66976634 37.39347442 -19.48276024 37.08053179 -23.52685547 37.03515625 C-27.66878236 36.77354408 -31.60192907 35.85510617 -35.625 34.875 C-36.44291016 34.68421875 -37.26082031 34.4934375 -38.10351562 34.296875 C-40.09193044 33.83174873 -42.07753756 33.35464573 -44.0625 32.875 C-44.31157104 33.79780762 -44.31157104 33.79780762 -44.56567383 34.73925781 C-45.32634008 37.53707428 -46.10051082 40.33097992 -46.875 43.125 C-47.13603516 44.09308594 -47.39707031 45.06117188 -47.66601562 46.05859375 C-47.92705078 46.99316406 -48.18808594 47.92773438 -48.45703125 48.890625 C-48.69268799 49.74946289 -48.92834473 50.60830078 -49.17114258 51.49316406 C-50.15713935 54.12789004 -51.12298522 55.83328857 -53.0625 57.875 C-55.33081055 58.87988281 -55.33081055 58.87988281 -57.94921875 59.578125 C-58.88701172 59.8359375 -59.82480469 60.09375 -60.79101562 60.359375 C-61.76748047 60.61203125 -62.74394531 60.8646875 -63.75 61.125 C-64.73806641 61.393125 -65.72613281 61.66125 -66.74414062 61.9375 C-69.18037446 62.59657775 -71.61943901 63.24179006 -74.0625 63.875 C-75.39264779 68.1720818 -74.32647366 71.47650981 -73.125 75.6875 C-71.65843035 80.8422745 -70.53783014 85.45122535 -71.0625 90.875 C-72.27734375 92.9921875 -72.27734375 92.9921875 -74 94.75 C-74.94359375 95.73613281 -74.94359375 95.73613281 -75.90625 96.7421875 C-76.6178125 97.44601562 -77.329375 98.14984375 -78.0625 98.875 C-78.8771875 99.70257813 -79.691875 100.53015625 -80.53125 101.3828125 C-82.69207945 103.56415615 -84.86915944 105.72642149 -87.0625 107.875 C-82.92846566 112.85704139 -78.55774962 117.44159962 -73.91796875 121.95703125 C-71.45709082 124.50080191 -71.09092506 125.4036178 -70.875 128.984375 C-71.08187787 133.27709078 -71.92449235 137.00356689 -73.0625 141.125 C-74.55104645 146.42004409 -74.55104645 146.42004409 -75.0625 151.875 C-71.43899379 153.04634222 -67.81346001 154.21127802 -64.1875 155.375 C-62.63869141 155.87580078 -62.63869141 155.87580078 -61.05859375 156.38671875 C-60.07246094 156.70253906 -59.08632812 157.01835937 -58.0703125 157.34375 C-57.15910645 157.63701172 -56.24790039 157.93027344 -55.30908203 158.23242188 C-53.1314637 158.9666657 -53.1314637 158.9666657 -51.0625 158.875 C-48.63722879 166.84899776 -46.33843517 174.85723852 -44.0625 182.875 C-37.78739962 182.35207497 -32.09623469 181.18306797 -26.0546875 179.3984375 C-22.20103124 178.7242992 -19.85027453 178.77006254 -16.0625 179.875 C-13.11502669 182.12083375 -10.64259591 184.72719311 -8.125 187.4375 C-7.44115234 188.14841797 -6.75730469 188.85933594 -6.05273438 189.59179688 C-4.37489062 191.34003967 -2.7126846 193.10069351 -1.0625 194.875 C1.84801323 193.57120607 3.78647404 192.22767716 5.92578125 189.87109375 C6.46783203 189.29552734 7.00988281 188.71996094 7.56835938 188.12695312 C8.68601195 186.92103066 9.7954901 185.70747835 10.89648438 184.48632812 C13.68486737 181.55309406 15.39911441 180.03657735 19.34765625 178.8515625 C23.54676497 178.87897779 27.05463711 179.6419616 31.0625 180.8125 C35.43181014 182.04979063 39.36724972 182.98972402 43.9375 182.875 C44.114021 182.25455811 44.29054199 181.63411621 44.47241211 180.99487305 C45.27258216 178.18388435 46.07377934 175.37318942 46.875 172.5625 C47.15279297 171.58603516 47.43058594 170.60957031 47.71679688 169.60351562 C48.11801758 168.19682617 48.11801758 168.19682617 48.52734375 166.76171875 C48.89653931 165.46560669 48.89653931 165.46560669 49.27319336 164.14331055 C49.79080491 162.37589822 50.35511971 160.62214088 50.9375 158.875 C52.984375 158.06640625 52.984375 158.06640625 55.6875 157.4375 C60.21685162 156.31855374 64.66928861 155.07350442 69.125 153.6875 C70.23230469 153.34332031 71.33960938 152.99914062 72.48046875 152.64453125 C73.29128906 152.39058594 74.10210937 152.13664063 74.9375 151.875 C73.623771 144.19633708 73.623771 144.19633708 71.8125 136.625 C70.88494714 132.64977347 70.28756187 129.91905946 70.9375 125.875 C72.92433859 122.8574889 75.37553469 120.40911786 77.9375 117.875 C78.7521875 117.04742187 79.566875 116.21984375 80.40625 115.3671875 C82.56707945 113.18584385 84.74415944 111.02357851 86.9375 108.875 C83.05859111 104.22030934 79.02353494 99.88859974 74.671875 95.671875 C72.10603429 93.01357156 70.98176726 91.42868133 70.68359375 87.69921875 C71.01209306 82.75151383 72.24887426 78.32008634 73.60351562 73.57226562 C74.59654222 69.91026227 75.05795639 67.49466752 73.9375 63.875 C73.31705811 63.71418945 72.69661621 63.55337891 72.05737305 63.38769531 C69.24229184 62.64881225 66.43384835 61.88721847 63.625 61.125 C62.16030273 60.74601562 62.16030273 60.74601562 60.66601562 60.359375 C59.72822266 60.1015625 58.79042969 59.84375 57.82421875 59.578125 C56.96014404 59.34770508 56.09606934 59.11728516 55.20581055 58.87988281 C52.41347218 57.64285077 51.47599109 56.4948438 49.9375 53.875 C49.04614258 51.49316406 49.04614258 51.49316406 48.33203125 48.890625 C48.07099609 47.95605469 47.80996094 47.02148438 47.54101562 46.05859375 C47.27998047 45.09050781 47.01894531 44.12242187 46.75 43.125 C46.34104492 41.64966797 46.34104492 41.64966797 45.92382812 40.14453125 C45.25390025 37.72338839 44.59210804 35.30032121 43.9375 32.875 C42.74253906 33.16375 41.54757812 33.4525 40.31640625 33.75 C38.71105901 34.12551982 37.10558323 34.50049044 35.5 34.875 C34.71689453 35.06578125 33.93378906 35.2565625 33.12695312 35.453125 C19.96415096 38.48652797 19.96415096 38.48652797 14.58984375 35.625 C14.02394531 35.0475 13.45804687 34.47 12.875 33.875 C12.23175781 33.24464844 11.58851563 32.61429688 10.92578125 31.96484375 C10.26964844 31.27519531 9.61351562 30.58554688 8.9375 29.875 C7.48165317 28.39338597 6.02336912 26.9141623 4.5625 25.4375 C3.91539062 24.75816406 3.26828125 24.07882813 2.6015625 23.37890625 C0.46758047 21.45030746 -0.32978038 21.24679926 -2.54296875 23.14428711 Z M-66.0625 171.875 C-68.51274708 177.67287271 -70.9509155 183.4757134 -73.38061523 189.28222656 C-74.20919671 191.2583373 -75.04057178 193.23327903 -75.87475586 195.20703125 C-77.07094944 198.0386624 -78.25714582 200.87429864 -79.44140625 203.7109375 C-79.81842178 204.59743988 -80.19543732 205.48394226 -80.58387756 206.39730835 C-81.09452003 207.628358 -81.09452003 207.628358 -81.61547852 208.88427734 C-81.9197023 209.60819672 -82.22392609 210.33211609 -82.53736877 211.07797241 C-83.30657726 212.95362879 -83.30657726 212.95362879 -82.0625 214.875 C-81.55388428 214.6577124 -81.04526855 214.4404248 -80.52124023 214.21655273 C-78.18773429 213.23116513 -75.84434464 212.27179925 -73.5 211.3125 C-72.30020508 210.79913086 -72.30020508 210.79913086 -71.07617188 210.27539062 C-66.06051316 208.24865506 -62.43985877 207.20008497 -57.0625 208.875 C-54.42015175 211.75462868 -53.33272693 214.57988967 -52.23828125 218.296875 C-51.77905273 219.83408203 -51.77905273 219.83408203 -51.31054688 221.40234375 C-50.84745117 222.99755859 -50.84745117 222.99755859 -50.375 224.625 C-50.05466797 225.70394531 -49.73433594 226.78289062 -49.40429688 227.89453125 C-48.61628626 230.55259691 -47.83599445 233.21268098 -47.0625 235.875 C-44.27537453 232.47277743 -42.38815157 228.74680445 -40.48828125 224.80859375 C-40.15958542 224.13329117 -39.83088959 223.45798859 -39.49223328 222.76222229 C-38.80181247 221.34033741 -38.1136056 219.91737562 -37.42749023 218.4934082 C-36.37516624 216.31284448 -35.31204925 214.13777529 -34.24804688 211.96289062 C-33.57746576 210.57844412 -32.90752168 209.19368884 -32.23828125 207.80859375 C-31.91958572 207.15853867 -31.6008902 206.50848358 -31.27253723 205.83872986 C-29.9067485 202.98379434 -29.0625 201.08327271 -29.0625 197.875 C-33.0756584 198.29743773 -36.63744089 198.74361809 -40.5 199.9375 C-44.65227342 201.03020353 -48.81482005 201.80148103 -53.0625 200.875 C-56.52598701 197.99190602 -57.76793068 195.58833524 -58.9140625 191.26953125 C-59.35492188 189.67141602 -59.35492188 189.67141602 -59.8046875 188.04101562 C-60.09601563 186.93435547 -60.38734375 185.82769531 -60.6875 184.6875 C-61.27684907 182.48379173 -61.87284849 180.28184757 -62.4765625 178.08203125 C-62.7338916 177.1072583 -62.9912207 176.13248535 -63.25634766 175.12817383 C-63.83131068 172.70247216 -63.83131068 172.70247216 -66.0625 171.875 Z M64.9375 171.875 C61.95089408 178.37264561 60.06970945 185.04491072 58.1875 191.93164062 C57.94 192.79595703 57.6925 193.66027344 57.4375 194.55078125 C57.2209375 195.33364502 57.004375 196.11650879 56.78125 196.9230957 C55.9375 198.875 55.9375 198.875 52.9375 200.875 C46.83987655 201.85316043 41.21322333 200.33756312 35.41796875 198.53125 C32.72064297 197.70448865 32.72064297 197.70448865 28.9375 197.875 C29.53315982 201.55972211 30.56361011 204.4736928 32.265625 207.7890625 C32.97138672 209.17931641 32.97138672 209.17931641 33.69140625 210.59765625 C34.18511719 211.55542969 34.67882812 212.51320313 35.1875 213.5 C38.96392562 220.87980747 42.57055734 228.29845708 45.9375 235.875 C47.47743549 232.97750078 48.56273301 230.13116667 49.5234375 226.99609375 C49.81476563 226.07505859 50.10609375 225.15402344 50.40625 224.20507812 C51.01083829 222.27534696 51.60719165 220.34301662 52.1953125 218.40820312 C52.48921875 217.48845703 52.783125 216.56871094 53.0859375 215.62109375 C53.34552246 214.78247803 53.60510742 213.9438623 53.87255859 213.07983398 C55.16023824 210.41384707 56.38123165 209.34043925 58.9375 207.875 C65.56390434 207.875 71.03761774 210.34890694 77.08203125 212.9140625 C79.96065046 214.20189071 79.96065046 214.20189071 82.9375 212.875 C77.3275 199.345 71.7175 185.815 65.9375 171.875 C65.6075 171.875 65.2775 171.875 64.9375 171.875 Z " fill="#000000" transform="translate(256.0625,204.125)"/>
<path d="M0 0 C1.22856915 -0.00445784 2.45713829 -0.00891569 3.72293681 -0.01350862 C5.08841496 -0.01341932 6.4538931 -0.01322948 7.81937122 -0.01294994 C9.26833994 -0.01624957 10.71730774 -0.01997535 12.16627437 -0.02409142 C16.15321683 -0.03410817 20.14014423 -0.03782769 24.12709749 -0.04048073 C28.42513282 -0.04438471 32.72315624 -0.05396293 37.02118397 -0.0626936 C47.40303601 -0.08245458 57.78488902 -0.09252341 68.16675517 -0.10142139 C73.055425 -0.10580458 77.94409375 -0.11117128 82.83276272 -0.11641026 C99.08289045 -0.13342159 115.3330175 -0.14791615 131.58315277 -0.155159 C135.79997922 -0.1570689 140.01680566 -0.15898923 144.23363209 -0.16094494 C145.28170569 -0.16142868 146.32977929 -0.16191242 147.40961269 -0.16241082 C164.39087702 -0.17071261 181.37207095 -0.19605249 198.35330453 -0.22852562 C215.78617734 -0.26159076 233.21901437 -0.27960723 250.65191871 -0.28280324 C260.44044347 -0.28496875 270.22886553 -0.29372362 280.01735973 -0.31926441 C288.35292101 -0.34096389 296.68835463 -0.3490255 305.02394094 -0.33929763 C309.27621804 -0.33475085 313.52823173 -0.33666107 317.78047276 -0.35605907 C321.6760747 -0.37367656 325.57122079 -0.37270477 329.46682749 -0.35716178 C330.87332459 -0.35478355 332.27985313 -0.35912053 333.68630215 -0.37099043 C345.01703554 -0.46066612 352.91414855 1.41163694 361.30907154 9.20453358 C367.73950271 16.39148606 368.18493588 24.45510085 368.17607594 33.66563892 C368.18053262 35.11316649 368.18053262 35.11316649 368.18507934 36.58993703 C368.19375675 39.82630546 368.19527378 43.06263686 368.19676685 46.299016 C368.20139571 48.61847481 368.20642047 50.93793286 368.21181202 53.25739002 C368.22493175 59.56128306 368.23138019 65.86516545 368.23582268 72.16907001 C368.23875419 76.10816736 368.24285915 80.0472618 368.24732685 83.98635769 C368.25943448 94.90078537 368.26981685 105.81521051 368.27320194 116.72964478 C368.27342151 117.42777742 368.27364107 118.12591006 368.27386729 118.84519823 C368.27408557 119.54496581 368.27430385 120.24473339 368.27452874 120.96570605 C368.2749722 122.38361275 368.27541877 123.80151945 368.27586842 125.21942616 C368.27608985 125.92275124 368.27631128 126.62607633 368.27653942 127.3507143 C368.2804854 138.74092325 368.29793432 150.13106814 368.32122794 161.52125236 C368.34497113 173.22612993 368.35740515 184.9309754 368.35856986 196.63587743 C368.35961751 203.20339357 368.36551698 209.77081935 368.38338947 216.3383131 C368.39987963 222.51807976 368.40202094 228.69768823 368.39325047 234.87746906 C368.3924806 237.14214534 368.39681617 239.40683015 368.40670872 241.67148495 C368.41944893 244.77047228 368.41353985 247.86890105 368.40312672 250.96788502 C368.41521132 252.30230862 368.41521132 252.30230862 368.42754006 253.66369027 C368.35158149 263.3736129 365.99386936 272.09762726 359.03563404 279.13422108 C352.48458397 284.36707205 345.54660036 286.36375953 337.16991138 286.44061756 C336.52343143 286.44894108 335.87695148 286.4572646 335.21088123 286.46584034 C333.09771493 286.48971828 330.98485793 286.49868129 328.87157154 286.50531483 C327.39139693 286.5142926 325.91122318 286.52341464 324.4310503 286.53267384 C321.3395871 286.54910195 318.24823148 286.55685358 315.15672779 286.55975819 C311.20096926 286.56515986 307.24622321 286.60293795 303.29075146 286.64850235 C300.23834509 286.67826698 297.18618393 286.68548146 294.13364506 286.68648434 C292.67520057 286.69068182 291.21675503 286.70309742 289.75845432 286.72400188 C287.72000062 286.75091797 285.68117737 286.74298402 283.64256763 286.73358631 C282.48453632 286.73865696 281.32650501 286.74372761 280.13338184 286.74895191 C276.09925276 285.94840142 274.60662672 284.26695145 272.03563404 281.13422108 C271.06189554 278.05835298 271.50803965 276.45806572 272.03563404 273.13422108 C274.65501534 270.41758455 276.31640354 269.2510785 280.06418324 268.64215565 C281.18970097 268.64533802 282.3152187 268.64852039 283.47484303 268.6517992 C285.39725063 268.64158741 285.39725063 268.64158741 287.35849476 268.63116932 C288.37826058 268.63968166 288.37826058 268.63968166 289.41862774 268.64836597 C291.55923462 268.66569374 293.69849874 268.65808647 295.8391161 268.64410877 C301.15400374 268.61452358 306.46863123 268.6276333 311.78355885 268.63928699 C316.27900758 268.64750733 320.77386752 268.63948597 325.26923275 268.61015797 C327.37114245 268.60309073 329.47200016 268.61970554 331.57382679 268.63727283 C332.85858402 268.63046497 334.14334126 268.62365711 335.46703053 268.61664295 C337.15650051 268.62141651 337.15650051 268.62141651 338.8801012 268.62628651 C342.85322561 268.00672801 344.96922634 266.71248914 348.03563404 264.13422108 C350.62041223 259.53104923 350.31537117 254.85655736 350.28960133 249.7277422 C350.29272131 248.77623577 350.29584129 247.82472934 350.29905581 246.84438938 C350.30703735 243.65390906 350.30071147 240.46361885 350.2944231 237.27313709 C350.29713291 234.98659624 350.30069378 232.70005627 350.30504322 230.41351795 C350.3141712 224.20077767 350.31062111 217.98810372 350.30428505 211.77536225 C350.29922658 205.27721778 350.30391613 198.77907903 350.30705738 192.28093433 C350.31093101 180.66729654 350.30470939 169.05368904 350.29453871 157.44005602 C350.28560537 146.91353552 350.28715355 136.38705914 350.29637623 125.86053944 C350.30708361 113.63371032 350.31106081 101.40691262 350.3051517 89.18007892 C350.30203237 82.70885022 350.30162163 76.23765189 350.30822468 69.76642513 C350.31399925 63.68189816 350.30999909 57.59745455 350.29843616 51.51293659 C350.29579008 49.27883702 350.2965538 47.04473045 350.30096149 44.81063366 C350.30642034 41.76288871 350.29957844 38.71541146 350.28960133 35.6676836 C350.29406277 34.7819803 350.29852421 33.89627699 350.30312085 32.98373419 C350.27389682 28.38625253 350.17769513 24.31245586 348.03563404 20.13422108 C344.30559583 18.20218225 341.1778347 17.88254021 337.01513386 17.87695217 C335.79952384 17.87050328 334.58391383 17.86405439 333.33146715 17.85741007 C331.98582607 17.86035222 330.6401854 17.86348764 329.29454517 17.86679554 C327.8624852 17.8630588 326.43042726 17.85845718 324.99837255 17.85306489 C321.06295287 17.84082285 317.12761812 17.84109676 313.19218373 17.84345365 C308.94808753 17.8438615 304.70401867 17.83282583 300.45993519 17.82333851 C292.14567855 17.80672196 283.83145027 17.80122871 275.51717842 17.80011375 C268.76104286 17.79916378 262.00491666 17.79505604 255.24878407 17.7887125 C236.10152601 17.77109987 216.95429039 17.7618739 197.80702418 17.76337345 C196.77467735 17.76345336 195.74233052 17.76353327 194.67870045 17.76361561 C193.64509618 17.76369737 192.61149191 17.76377913 191.54656631 17.76386337 C174.78575359 17.76467673 158.02503064 17.7455266 141.2642439 17.71733887 C124.06187627 17.68863627 106.85955247 17.67479707 89.65716028 17.67652643 C79.99621604 17.67719114 70.33536595 17.67166309 60.67444324 17.65017033 C52.45113946 17.63199322 44.22797253 17.62758268 36.00465739 17.64118917 C31.80755511 17.64773587 27.61071567 17.64777495 23.41363811 17.63048267 C19.57317006 17.61482201 15.73317476 17.61754305 11.89271873 17.63505094 C10.50180386 17.63813634 9.11085431 17.63443075 7.7199803 17.62333079 C5.83207899 17.60925944 3.94403394 17.62215884 2.05613422 17.63644314 C1.00663955 17.6360084 -0.04285512 17.63557367 -1.12415266 17.63512576 C-4.69423891 18.2624777 -6.37267524 19.65198438 -8.96436596 22.13422108 C-10.68704653 25.57958222 -10.10450619 29.55335888 -10.09807873 33.34525013 C-10.10034428 34.31193863 -10.10260984 35.27862712 -10.10494405 36.27460921 C-10.11130612 39.53430296 -10.11045328 42.79395537 -10.10962963 46.05365467 C-10.11261975 48.38240583 -10.11602194 50.7111565 -10.11980724 53.0399065 C-10.12866653 59.38076616 -10.13098617 65.72161234 -10.13162303 72.06247759 C-10.13257058 77.34849555 -10.13624711 82.63451035 -10.13979512 87.9205271 C-10.1476231 99.67505354 -10.15046308 111.42957412 -10.14978977 123.18410294 C-10.14972984 124.24270732 -10.14972984 124.24270732 -10.14966869 125.32269764 C-10.14962781 126.0292931 -10.14958693 126.73588855 -10.14954481 127.46389599 C-10.14913832 138.91653232 -10.15870779 150.36913578 -10.17280706 161.82176261 C-10.18716127 173.57397655 -10.19407776 185.32617446 -10.19321328 197.07839739 C-10.1929578 203.6792791 -10.19583657 210.28012362 -10.20639133 216.88099766 C-10.21604437 223.08776692 -10.21617075 229.29446324 -10.2088747 235.50123501 C-10.20782536 237.78293876 -10.21021231 240.06464699 -10.21623516 242.34634304 C-10.22390882 245.45405715 -10.21934101 248.56151644 -10.21160412 251.66922474 C-10.21674768 252.57836388 -10.22189124 253.48750302 -10.22719067 254.42419183 C-10.22259188 255.25648738 -10.21799308 256.08878293 -10.21325493 256.94629955 C-10.2134723 257.66364627 -10.21368966 258.38099299 -10.21391362 259.12007749 C-9.91749758 261.51250413 -9.22214233 263.08423273 -7.96436596 265.13422108 C-2.4641557 269.13740972 3.56464877 268.5412451 10.07469654 268.50531483 C12.45230221 268.52268794 14.82990635 268.54027242 17.20750904 268.5580492 C20.94484152 268.56814611 24.6820775 268.57171133 28.4194231 268.57001209 C32.03397376 268.57357252 35.6477782 268.60087059 39.26219654 268.63031483 C40.38203938 268.6221323 41.50188221 268.61394978 42.65565968 268.60551929 C43.69709126 268.61555485 44.73852283 268.6255904 45.81151295 268.63593006 C47.18335239 268.63568081 47.18335239 268.63568081 48.58290577 268.63542652 C51.79366494 269.28837663 52.99597824 270.62864673 55.03563404 273.13422108 C55.96429913 276.87813074 55.53938057 280.19869181 53.72313404 283.57172108 C50.76633424 286.30949867 47.84520047 286.26929131 44.00438404 286.31122303 C42.97901539 286.32405827 41.95364674 286.3368935 40.89720631 286.35011768 C39.78788746 286.35750462 38.67856861 286.36489155 37.53563404 286.37250233 C36.38957691 286.38057407 35.24351978 286.38864582 34.06273365 286.39696217 C31.63167807 286.41080501 29.20060304 286.42152626 26.76952076 286.42938709 C23.07789312 286.4465249 19.38717859 286.49040198 15.69579029 286.5346117 C13.32991144 286.54474551 10.96402499 286.55325946 8.59813404 286.56000233 C6.95844654 286.58626446 6.95844654 286.58626446 5.28563404 286.61305714 C-4.65711626 286.58536955 -13.857235 284.42619634 -21.1153031 277.25439113 C-26.98175464 270.52780808 -28.70540838 263.44519967 -28.59255505 254.72905445 C-28.59964943 253.73047352 -28.60674382 252.73189259 -28.61405319 251.70305163 C-28.63154677 248.38275104 -28.61357179 245.06363449 -28.59546947 241.74335194 C-28.60061153 239.35256387 -28.60789495 236.96177959 -28.61715221 234.57100391 C-28.63371995 228.76725661 -28.62705768 222.96388329 -28.60906399 217.16014712 C-28.59500206 212.44123582 -28.59115287 207.72241592 -28.59450626 203.00348568 C-28.59498371 202.33025094 -28.59546115 201.6570162 -28.59595306 200.96338041 C-28.59697945 199.59545932 -28.59803481 198.22753824 -28.59911882 196.85961718 C-28.60767348 184.7817322 -28.59105044 172.70400984 -28.56128979 160.62616444 C-28.53244892 148.92134238 -28.52537344 137.21675448 -28.54078197 125.51190662 C-28.55756266 112.74735347 -28.56155985 99.98291132 -28.54407161 87.21835524 C-28.54222734 85.85595041 -28.54039261 84.49354557 -28.53856754 83.13114071 C-28.53765545 82.46091409 -28.53674336 81.79068747 -28.53580363 81.10015095 C-28.53021032 76.38939623 -28.53349408 71.67869591 -28.5401125 66.96794415 C-28.54778314 60.62223432 -28.53562305 54.27686108 -28.50826359 47.93120861 C-28.50138726 45.60484535 -28.50127367 43.27845062 -28.50847912 40.95208836 C-28.51719311 37.77182013 -28.5011837 34.59258604 -28.47902966 31.41240406 C-28.48727042 30.49604945 -28.49551119 29.57969483 -28.50400168 28.6355719 C-28.39023812 19.76220681 -25.36908943 12.39661736 -18.96436596 6.13422108 C-12.63706287 1.95003678 -7.5978353 0.01278514 0 0 Z " fill="#000000" transform="translate(89.96436595916748,70.86577892303467)"/>
<path d="M0 0 C10.51038152 8.81803196 18.3689083 21.48663684 19.69897461 35.33691406 C19.7949226 37.56091368 19.82122414 39.77011779 19.8046875 41.99609375 C19.79731567 43.17848633 19.79731567 43.17848633 19.78979492 44.38476562 C19.66383796 50.68390573 18.8209067 56.29108564 16.4921875 62.18359375 C16.16347656 63.02019531 15.83476562 63.85679687 15.49609375 64.71875 C9.59218056 77.93616119 -1.95689665 88.04022873 -15.33984375 93.1796875 C-29.17096658 97.5626697 -43.20895774 97.05651082 -56.5078125 91.18359375 C-70.09450182 84.08606948 -79.64095812 73.65662721 -84.8828125 59.24609375 C-88.80656853 45.28213848 -87.58395269 30.42364601 -81.15234375 17.44921875 C-73.16434805 3.31496363 -62.00559386 -5.05693532 -46.5078125 -9.81640625 C-30.0575919 -13.22734438 -13.61336133 -9.86014489 0 0 Z M-61.3203125 19.05859375 C-69.15903367 28.55235814 -70.52987693 38.13274104 -69.5078125 50.18359375 C-67.04798053 59.99993254 -61.79687876 67.76277257 -53.30078125 73.2578125 C-44.05570299 78.49263419 -34.26088512 80.91088911 -23.7890625 78.02734375 C-12.54224037 73.86756022 -4.737926 67.42787991 0.4921875 56.55859375 C3.76663842 47.85632419 4.04198535 38.36358606 0.7421875 29.62109375 C0.02926281 28.12370522 -0.71694761 26.64132032 -1.5078125 25.18359375 C-2.0646875 24.15234375 -2.6215625 23.12109375 -3.1953125 22.05859375 C-9.47806904 14.24759914 -16.40356341 9.36951655 -25.9453125 6.43359375 C-40.05788376 5.05675753 -51.52369493 8.44906536 -61.3203125 19.05859375 Z " fill="#000000" transform="translate(289.5078125,269.81640625)"/>
<path d="M0 0 C1.00672867 -0.01064158 1.00672867 -0.01064158 2.0337953 -0.02149814 C4.27592062 -0.03905828 6.51630766 -0.02098637 8.75840759 -0.00291443 C10.36840605 -0.00805403 11.97839888 -0.01533562 13.58837891 -0.02459717 C17.95619261 -0.04311299 22.32339598 -0.0301723 26.69118428 -0.01050687 C31.26173061 0.00587673 35.83223819 -0.00293273 40.40280151 -0.00802612 C48.07710015 -0.01254695 55.75115504 0.00332317 63.42539978 0.03126526 C72.30000623 0.06332857 81.17417333 0.06329701 90.04881102 0.04605049 C98.58489817 0.03019249 107.12082413 0.03691352 115.65690422 0.0539875 C119.2904279 0.06086306 122.92382255 0.05982044 126.55734444 0.05244255 C130.83468138 0.044787 135.11151763 0.05688155 139.38876915 0.08429146 C140.95932148 0.09118368 142.5299205 0.09126427 144.1004715 0.08407593 C146.24291587 0.07539921 148.38380858 0.09130366 150.52612305 0.11352539 C151.72533418 0.11633231 152.92454531 0.11913923 154.16009617 0.12203121 C157.82891347 0.73299253 158.98458184 1.68995189 161.1995697 4.62818909 C162.1995697 8.06568909 162.1995697 8.06568909 162.1995697 11.62818909 C160.43315798 14.43008355 159.16907148 16.1434382 156.1995697 17.62818909 C154.08244461 17.72892573 151.9620735 17.7633163 149.84255981 17.76863098 C148.85298506 17.77308766 148.85298506 17.77308766 147.8434189 17.77763438 C145.62252353 17.78633818 143.40168196 17.78783104 141.18077087 17.7893219 C139.59254846 17.79394891 138.00432717 17.79897341 136.41610718 17.80436707 C132.09371412 17.81750491 127.7713366 17.82393879 123.44892669 17.82837772 C120.74962323 17.8313064 118.05032404 17.83541083 115.35102272 17.8398819 C106.90895774 17.85356087 98.46690248 17.8632254 90.02482718 17.86708379 C80.27345877 17.87156479 70.52223051 17.88911291 60.77090472 17.91808438 C53.23793696 17.93968952 45.70500866 17.94978745 38.17201024 17.95112491 C33.67089507 17.95217383 29.16991157 17.95810014 24.66882896 17.97594452 C20.43433425 17.99240491 16.20007047 17.99459065 11.96555519 17.98580551 C10.41152962 17.98503403 8.85749173 17.98939255 7.30349731 17.99926376 C5.1812326 18.01195377 3.05978943 18.00612331 0.93753052 17.99568176 C-0.24990659 17.99714832 -1.43734369 17.99861488 -2.66076374 18.00012589 C-6.13342528 17.58874124 -8.01740707 16.71025615 -10.8004303 14.62818909 C-12.36978624 11.48947721 -12.15244133 9.08963087 -11.8004303 5.62818909 C-8.18308128 0.98894702 -5.81147591 0.00284041 0 0 Z " fill="#000000" transform="translate(245.80043029785156,164.37181091308594)"/>
<path d="M0 0 C0.98729434 -0.00701996 0.98729434 -0.00701996 1.99453402 -0.01418173 C4.19248592 -0.02611508 6.3898124 -0.01668153 8.58776855 -0.00723267 C10.16658389 -0.01129912 11.74539638 -0.01664142 13.32420349 -0.02316284 C17.60723543 -0.03683348 21.89005046 -0.03153887 26.17308617 -0.02202559 C30.65641233 -0.01442768 35.13971998 -0.02147496 39.62304688 -0.02618408 C47.15184868 -0.03164125 54.68056219 -0.02445104 62.20935059 -0.01016235 C70.91232584 0.0061641 79.61509025 0.00087556 88.3180604 -0.01564157 C95.79165657 -0.02925754 103.26518928 -0.03117556 110.73879385 -0.02332556 C115.20183868 -0.01864966 119.66478442 -0.01802193 124.12782288 -0.02793503 C128.32381111 -0.03660403 132.51952763 -0.03058408 136.71548653 -0.01325226 C138.25499076 -0.00928705 139.79451787 -0.01042207 141.33401299 -0.01704025 C143.43644383 -0.02524484 145.53800533 -0.01494852 147.64038086 0 C148.81654716 0.00113108 149.99271347 0.00226215 151.20452118 0.00342751 C154.65955449 0.42207143 156.54786107 1.31148566 159.32019043 3.38095093 C160.88490276 6.51037558 161.01721001 9.99177316 160.32019043 13.38095093 C158.09671493 16.28378917 156.91505779 17.2830286 153.26230621 17.88431549 C152.05442192 17.88582359 150.84653763 17.8873317 149.60205078 17.8888855 C148.92766921 17.89512546 148.25328763 17.90136542 147.55847025 17.90779448 C145.29965109 17.92374431 143.04190813 17.91111361 140.78308105 17.89852905 C139.16337962 17.90394933 137.54368312 17.91107146 135.92399597 17.91976929 C131.52522144 17.93801693 127.12682185 17.93092926 122.7280407 17.91825294 C118.12678891 17.9081327 113.52556944 17.91751591 108.92431641 17.92379761 C101.19700348 17.93107686 93.46984343 17.92147903 85.74255371 17.9024353 C76.80606348 17.880666 67.86993828 17.88771717 58.9334569 17.90974092 C51.26370635 17.92788702 43.59406575 17.93045713 35.92430067 17.91998625 C31.34219853 17.91374695 26.76026802 17.91292762 22.17817688 17.9261322 C17.87050586 17.93767862 13.56330589 17.92968737 9.25568581 17.90655518 C7.67383927 17.90126158 6.09195315 17.90279301 4.5101223 17.91160583 C2.3523213 17.92252009 0.1960343 17.90885045 -1.96166992 17.8888855 C-3.16955421 17.8873774 -4.37743851 17.88586929 -5.62192535 17.88431549 C-9.28617775 17.28113542 -10.44113241 16.28486761 -12.67980957 13.38095093 C-13.74270703 10.42002229 -13.78374299 8.81747129 -13.05480957 5.75595093 C-10.03566112 0.54105815 -5.65860526 0.00544168 0 0 Z " fill="#000000" transform="translate(124.6798095703125,115.61904907226563)"/>
<path d="M0 0 C1.33438362 -0.01248528 1.33438362 -0.01248528 2.69572449 -0.02522278 C5.64769827 -0.04939247 8.59945132 -0.05810393 11.55151367 -0.06469727 C13.5993405 -0.0736592 15.64716663 -0.08278096 17.69499207 -0.09205627 C21.99329217 -0.10856841 26.29151418 -0.11625027 30.58984375 -0.11914062 C36.0982157 -0.12452277 41.60585371 -0.1621866 47.11401844 -0.20788479 C51.34594907 -0.23762792 55.57770254 -0.24486361 59.80972862 -0.24586678 C61.84033248 -0.25007552 63.87093657 -0.26253595 65.90143776 -0.28338432 C68.7434337 -0.31023797 71.58372325 -0.30549094 74.42578125 -0.29296875 C75.26493073 -0.30780304 76.1040802 -0.32263733 76.96865845 -0.33792114 C81.24436893 -0.28426827 82.92578086 -0.06168851 86.43315125 2.62120056 C88.40698242 5.30639648 88.40698242 5.30639648 88.96948242 8.86889648 C88.32827053 12.7874136 87.51199023 13.93197875 84.40698242 16.30639648 C81.15439356 17.93269092 77.57264733 17.47176767 73.99755859 17.48339844 C72.69243568 17.49325523 72.69243568 17.49325523 71.36094666 17.50331116 C68.47394734 17.52306468 65.58700008 17.53471111 62.69995117 17.54467773 C61.71509546 17.54875326 60.73023975 17.55282879 59.71553993 17.55702782 C54.50323317 17.57789699 49.29095281 17.59219523 44.07861328 17.6015625 C38.69143718 17.61263072 33.3046737 17.64703305 27.91764355 17.6867342 C23.77837855 17.71286349 19.63921243 17.72125104 15.49987221 17.72484398 C13.51393153 17.72971922 11.52799553 17.74135979 9.54213524 17.75988197 C6.76261964 17.7841957 3.98417894 17.78332268 1.20458984 17.77636719 C0.38414185 17.78917725 -0.43630615 17.8019873 -1.28161621 17.81518555 C-5.21247392 17.77933016 -7.15644007 17.57614247 -10.58036804 15.46061707 C-13.16647082 12.69260617 -13.59301758 11.0783149 -13.59301758 7.30639648 C-10.30065407 0.40811105 -7.2066596 0.00566723 0 0 Z " fill="#000000" transform="translate(124.593017578125,164.693603515625)"/>
<path d="M0 0 C0.85072083 -0.0049649 1.70144165 -0.00992981 2.57794189 -0.01504517 C5.39458014 -0.02966017 8.21116208 -0.03646743 11.02783203 -0.04199219 C12.98454795 -0.04774385 14.94126385 -0.05350158 16.89797974 -0.05926514 C21.00197614 -0.06977301 25.10595297 -0.07561719 29.20996094 -0.07910156 C34.46812006 -0.08458813 39.72602048 -0.10862056 44.98409843 -0.13707352 C49.02642574 -0.15569815 53.06869069 -0.16090539 57.11105728 -0.16243744 C59.04953553 -0.16546451 60.98801266 -0.17349486 62.92644882 -0.18662262 C65.63866618 -0.20368061 68.35025074 -0.20180358 71.0625 -0.1953125 C71.86267548 -0.20452728 72.66285095 -0.21374207 73.48727417 -0.22323608 C78.05948347 -0.18896435 81.05096977 0.28181472 84.66064453 3.16113281 C86.73974643 6.27978566 86.94223827 6.69852803 86.53564453 10.16113281 C86.47119141 10.84175781 86.40673828 11.52238281 86.34033203 12.22363281 C85.34980211 15.04721235 84.28746972 15.69251906 81.66064453 17.16113281 C78.64564257 17.4521469 75.83900894 17.5711183 72.82470703 17.54931641 C71.9332196 17.55457336 71.04173218 17.55983032 70.12322998 17.56524658 C67.1771898 17.57844745 64.23169019 17.56970813 61.28564453 17.55957031 C59.23828019 17.56159102 57.19091656 17.56450243 55.14355469 17.56826782 C50.85295763 17.5726913 46.56254794 17.56625928 42.27197266 17.55224609 C36.77044764 17.53515429 31.26936169 17.54499534 25.76785278 17.56296349 C21.54024951 17.57380063 17.31275044 17.57035528 13.08514404 17.56258011 C11.05653837 17.56057791 9.02792326 17.56303804 6.99932861 17.57001877 C4.16482457 17.577632 1.33103297 17.56603071 -1.50341797 17.54931641 C-2.34302063 17.5553891 -3.18262329 17.56146179 -4.04766846 17.56771851 C-7.41983576 17.53085367 -9.87128037 17.42410577 -12.84472656 15.75357056 C-15.10521146 13.34515904 -15.25166869 11.36826738 -15.51123047 8.16503906 C-15.23117423 4.89983797 -13.68884317 3.31482987 -11.33935547 1.16113281 C-7.5365177 -0.10647978 -3.9627185 0.00550812 0 0 Z " fill="#000000" transform="translate(321.33935546875,115.8388671875)"/>
</svg>
