<?xml version="1.0" encoding="UTF-8"?>
<svg version="1.1" xmlns="http://www.w3.org/2000/svg" width="512" height="512">
<path d="M0 0 C1.21171875 0.14453613 2.4234375 0.28907227 3.671875 0.43798828 C73.75159552 8.85314621 73.75159552 8.85314621 97 30 C98.64453125 32.1328125 98.64453125 32.1328125 99.8125 34.125 C100.40998047 35.11886719 100.40998047 35.11886719 101.01953125 36.1328125 C102.75549735 39.4387559 103.12883171 42.10715075 103.14717102 45.77561951 C103.15790398 47.24981857 103.15790398 47.24981857 103.16885376 48.75379944 C103.17154266 49.83076584 103.17423157 50.90773224 103.17700195 52.01733398 C103.18357315 53.15251465 103.19014435 54.28769531 103.19691467 55.45727539 C103.21665423 59.22021547 103.22830979 62.9831157 103.23828125 66.74609375 C103.24235678 68.02915972 103.2464323 69.31222569 103.25063133 70.63417244 C103.26934044 76.72103961 103.28390812 82.80788675 103.2922433 88.89477676 C103.30202401 95.92100147 103.32836917 102.94691183 103.36874419 109.97302574 C103.40251943 116.05936907 103.41438613 122.14557994 103.41844749 128.2320118 C103.42333085 130.82164712 103.43499409 133.41127867 103.45348549 136.00085258 C103.47771953 139.61858344 103.47694068 143.23548506 103.4699707 146.85327148 C103.48918579 148.46568474 103.48918579 148.46568474 103.50878906 150.110672 C103.45795841 157.3256756 103.45795841 157.3256756 101.16593933 160.70057678 C99 162 99 162 95.875 161.9375 C93 161 93 161 91 158 C90.5859375 155.73828125 90.5859375 155.73828125 90.375 153.3125 C90.30023438 152.50425781 90.22546875 151.69601563 90.1484375 150.86328125 C90.09945313 150.24839844 90.05046875 149.63351563 90 149 C89.09121094 149.51949219 88.18242187 150.03898438 87.24609375 150.57421875 C66.19102818 162.35815866 66.19102818 162.35815866 56.69140625 161.80859375 C54 161 54 161 52 158 C51.8125 155.0625 51.8125 155.0625 53 152 C55.73367518 150.0958041 58.88681851 149.1356759 62 148 C77.96626295 142.36151082 77.96626295 142.36151082 90 131 C90.33005636 127.98682413 90.33005636 127.98682413 90.31884766 124.5090332 C90.32889328 123.8551059 90.3389389 123.20117859 90.34928894 122.5274353 C90.38015014 120.36855946 90.39716381 118.20980779 90.4140625 116.05078125 C90.43277183 114.5529015 90.45234507 113.05503232 90.4727478 111.55717468 C90.52410001 107.6166303 90.56370905 103.67605173 90.60089111 99.73535156 C90.64091149 95.71345543 90.69201278 91.69170187 90.7421875 87.66992188 C90.83898331 79.78004527 90.92337626 71.89009817 91 64 C89.55197998 64.80207886 89.55197998 64.80207886 88.07470703 65.62036133 C80.8374 69.58484822 73.78376135 73.22877622 65.875 75.6875 C64.54335815 76.11264893 64.54335815 76.11264893 63.18481445 76.54638672 C-13.0005518 100.33036499 -104.86958162 99.19473746 -218.05029297 69.94482422 C-219.36660696 69.23578928 -220.68058469 68.52239994 -221.9921875 67.8046875 C-222.6720874 67.43722412 -223.3519873 67.06976074 -224.05249023 66.69116211 C-225.70376661 65.79799151 -227.35219443 64.89955776 -229 64 C-229.09289648 72.35399521 -229.16386382 80.70777271 -229.20724869 89.06215763 C-229.2280769 92.94193396 -229.25630607 96.82135554 -229.30175781 100.70092773 C-229.34538759 104.44866331 -229.36917293 108.1960588 -229.37950897 111.94402885 C-229.38686982 113.37012519 -229.40124386 114.79620403 -229.42292023 116.22215462 C-229.70079353 126.8536846 -229.70079353 126.8536846 -225 136 C-203.77517169 153.50730598 -168.52087477 156.78565922 -142.375 160.25 C-141.23538818 160.40114258 -140.09577637 160.55228516 -138.92163086 160.70800781 C-116.9803635 163.40220265 -95.05124252 164.3317671 -72.95703125 164.26074219 C-69.00244834 164.25000665 -65.04831947 164.26072499 -61.09375 164.2734375 C-46.1551398 164.28038612 -31.38419898 163.70988469 -16.5 162.42871094 C-4.91911552 161.46632002 -4.91911552 161.46632002 -2.0625 163.125 C-0.47774599 165.92162472 -0.54052577 167.8493196 -1 171 C-3.71867491 173.55656428 -5.7814031 174.39896595 -9.46484375 174.6953125 C-10.33463867 174.77088379 -11.20443359 174.84645508 -12.10058594 174.92431641 C-13.03676758 174.99054199 -13.97294922 175.05676758 -14.9375 175.125 C-15.92911133 175.20282715 -16.92072266 175.2806543 -17.94238281 175.36083984 C-20.96067932 175.58987698 -23.97985902 175.79693118 -27 176 C-28.19230225 176.08894531 -28.19230225 176.08894531 -29.40869141 176.1796875 C-88.08433266 180.4852161 -172.30625957 182.33071079 -224.2199707 150.89453125 C-225.11633743 150.3528833 -226.01270416 149.81123535 -226.93623352 149.25317383 C-227.61727646 148.83962646 -228.2983194 148.4260791 -229 148 C-229.0928245 156.50165072 -229.16382753 165.00308845 -229.20724869 173.50512123 C-229.22809247 177.45330373 -229.25635049 181.40113863 -229.30175781 185.34912109 C-229.34533152 189.16169001 -229.36916124 192.97392532 -229.37950897 196.78672409 C-229.38687981 198.23876571 -229.40127356 199.69078979 -229.42292023 201.14268875 C-229.45210976 203.18227333 -229.45594986 205.22049289 -229.45410156 207.26025391 C-229.46298401 208.41941315 -229.47186646 209.57857239 -229.48101807 210.77285767 C-228.75808397 215.62301066 -226.45404584 218.75948537 -222.765625 221.90625 C-215.44262651 226.54566519 -207.93750252 229.46969371 -199.81494141 232.33886719 C-190.13499788 235.86500212 -190.13499788 235.86500212 -188 238 C-187.75 241.4375 -187.75 241.4375 -188 245 C-191.43068142 247.28712095 -193.09418125 247.22280555 -197.08984375 246.6640625 C-200.74466045 245.83007748 -204.23572923 244.66287762 -207.75 243.375 C-208.36834717 243.15199219 -208.98669434 242.92898438 -209.6237793 242.69921875 C-214.20670961 240.93982034 -218.46489321 238.7189871 -222.77832031 236.37744141 C-223.67824203 235.88991142 -223.67824203 235.88991142 -224.59634399 235.39253235 C-226.06506913 234.59656924 -227.53265144 233.79849798 -229 233 C-229.06957382 241.38856185 -229.12284852 249.77700273 -229.15543652 258.16578197 C-229.17107878 262.06122736 -229.19229041 265.95647503 -229.22631836 269.85180664 C-229.25896368 273.61248525 -229.27686385 277.37297394 -229.28463173 281.13378334 C-229.290166 282.56709087 -229.30097321 284.00038826 -229.31719017 285.43361473 C-229.33903055 287.44416503 -229.34022597 289.45490728 -229.34057617 291.46557617 C-229.34723801 292.60919113 -229.35389984 293.75280609 -229.36076355 294.93107605 C-228.88058893 299.0157997 -227.329108 301.60426126 -224.51953125 304.5546875 C-186.14145572 334.2384164 -118.38575734 333.23056786 -72.12182617 333.13037109 C-69.20030486 333.12502344 -66.27893851 333.13035005 -63.35742188 333.13671875 C-55.49028808 333.13721325 -47.64746234 333.12691204 -39.79150391 332.66308594 C-38.7866243 332.60490692 -37.78174469 332.54672791 -36.74641418 332.48678589 C-34.82801231 332.3681907 -32.91042757 332.2352243 -30.9941864 332.08572388 C-24.64624207 331.68545362 -24.64624207 331.68545362 -21.41479492 333.25830078 C-20 335 -20 335 -19.5625 338.5625 C-19.7790625 340.2640625 -19.7790625 340.2640625 -20 342 C-25.85297829 345.90198552 -33.83869639 345.16850629 -40.72265625 345.3515625 C-41.53273636 345.37525909 -42.34281647 345.39895569 -43.17744446 345.42337036 C-45.80567646 345.49690725 -48.43398444 345.56244608 -51.0625 345.625 C-51.97082581 345.64679321 -52.87915161 345.66858643 -53.81500244 345.69104004 C-195.81236075 348.94376625 -195.81236075 348.94376625 -235 312 C-238.86849874 307.50066693 -241.12065619 303.55614602 -241.13422108 297.56145191 C-241.13867892 296.64776272 -241.14313676 295.73407352 -241.14772969 294.79269677 C-241.14754533 293.7874638 -241.14736097 292.78223083 -241.14717102 291.74653625 C-241.15084771 290.67972679 -241.1545244 289.61291732 -241.1583125 288.5137803 C-241.16936988 284.92104729 -241.17319667 281.32834319 -241.17700195 277.7355957 C-241.18326503 275.16688444 -241.18991169 272.59817408 -241.19691467 270.02946472 C-241.21667637 262.30795949 -241.22674506 254.58645295 -241.23564246 246.86492875 C-241.24002598 243.22834852 -241.24539264 239.59176974 -241.25063133 235.95519066 C-241.26764356 223.86560652 -241.28213751 211.77602329 -241.28938007 199.68642902 C-241.29128996 196.54917207 -241.29321029 193.41191513 -241.29516602 190.2746582 C-241.29564976 189.49491212 -241.2961335 188.71516604 -241.2966319 187.91179129 C-241.30493136 175.28174847 -241.33026686 162.6518004 -241.36274669 150.02179895 C-241.39582413 137.05364112 -241.41382946 124.08553144 -241.41702431 111.11733121 C-241.41918882 103.8366532 -241.42792859 96.55611333 -241.45348549 89.27547646 C-241.47747353 82.42596447 -241.48101385 75.57670481 -241.47072411 68.7271595 C-241.47022776 66.21330693 -241.47657708 63.69944226 -241.49028015 61.18562698 C-241.50794503 57.75291285 -241.50091848 54.32109641 -241.48774719 50.88838196 C-241.49871644 49.8943026 -241.50968568 48.90022323 -241.52098733 47.87602025 C-241.45489435 40.73804353 -239.84502493 35.58211372 -235.38671875 29.96875 C-210.20113345 8.19914064 -170.68861061 3.83288615 -139 0 C-137.81277344 -0.15098145 -136.62554687 -0.30196289 -135.40234375 -0.45751953 C-91.39793451 -5.81925552 -43.95651827 -5.67005198 0 0 Z M-227.71484375 39.359375 C-229.20322563 41.25943697 -229.69805699 42.61321236 -230 45 C-226.04478725 54.39363028 -215.97449343 58.49005397 -207.15380859 62.14746094 C-164.48348759 79.0375948 -115.24108001 81.24171311 -69.8125 81.1875 C-68.86322632 81.18689575 -67.91395264 81.1862915 -66.93591309 81.18566895 C16.32352067 82.48325774 16.32352067 82.48325774 89 50 C91.20009864 46.69985205 91.62319003 45.8281673 91 42 C80.94971367 26.25455141 54.21083864 21.57026535 37.27880859 17.69970703 C15.41851896 13.03465937 -6.74108442 10.67843831 -29 9 C-29.92796387 8.92797363 -30.85592773 8.85594727 -31.81201172 8.78173828 C-86.46834086 4.75172927 -184.48838104 0.21805053 -227.71484375 39.359375 Z " fill="#000000" transform="translate(271,38)"/>
<path d="M0 0 C15.74957639 13.2355595 24.92059203 32.62909802 27.24609375 52.91015625 C28.61594663 77.33041808 21.93068468 97.67131848 5.74609375 116.16015625 C3.14021642 119.01421237 0.54911583 121.54738264 -2.50390625 123.91015625 C-7.21115439 127.88394945 -10.20607391 132.77830052 -11.02587891 138.96142578 C-11.27611383 141.98207165 -11.42838289 144.99012383 -11.47802734 148.02075195 C-11.59900558 154.87958922 -11.59900558 154.87958922 -13.75390625 157.91015625 C-16.71055144 159.38847885 -19.49620362 158.97048408 -22.75390625 158.91015625 C-22.72248535 160.3782373 -22.72248535 160.3782373 -22.69042969 161.87597656 C-22.61792662 165.51368529 -22.57206992 169.15133041 -22.53417969 172.78955078 C-22.51408745 174.36290229 -22.48680826 175.93617933 -22.45214844 177.50927734 C-22.40352131 179.77329897 -22.3809149 182.03633198 -22.36328125 184.30078125 C-22.34263611 185.00197083 -22.32199097 185.7031604 -22.30072021 186.42559814 C-22.29917931 189.79370882 -22.53977624 191.61588812 -24.54394531 194.37011719 C-27.64310176 196.52980332 -30.07186244 196.19339039 -33.75390625 195.91015625 C-33.84671875 197.67359375 -33.84671875 197.67359375 -33.94140625 199.47265625 C-34.54019401 204.16316034 -36.29396584 207.66389387 -39.75390625 210.91015625 C-44.20052206 213.63140901 -47.56794133 214.31927444 -52.75390625 214.28515625 C-53.92953125 214.29289063 -55.10515625 214.300625 -56.31640625 214.30859375 C-61.52773154 213.70455377 -64.74008773 211.87789211 -68.50390625 208.28515625 C-71.39642498 204.60207774 -72.07718076 200.45532744 -72.75390625 195.91015625 C-73.66140625 195.97203125 -74.56890625 196.03390625 -75.50390625 196.09765625 C-79.21300405 195.88366984 -80.25755102 195.6123102 -82.75390625 192.91015625 C-83.11023083 190.19385182 -83.22133242 187.88872701 -83.14453125 185.1796875 C-83.13887146 184.42926682 -83.13321167 183.67884613 -83.12738037 182.90568542 C-83.10500293 180.51069121 -83.05480796 178.11719756 -83.00390625 175.72265625 C-82.98384284 174.09832891 -82.96559178 172.4739781 -82.94921875 170.84960938 C-82.90513419 166.86921418 -82.83610052 162.88993954 -82.75390625 158.91015625 C-83.85919678 158.94028809 -84.9644873 158.97041992 -86.10327148 159.00146484 C-89.75390625 158.91015625 -89.75390625 158.91015625 -92.1640625 157.44921875 C-94.47339506 153.7610955 -94.213697 150.54880937 -94.19140625 146.28515625 C-94.49622995 136.84312492 -95.77799568 130.56970886 -102.8828125 123.87890625 C-104.70092211 122.21554003 -106.53386524 120.57109326 -108.37768555 118.9362793 C-123.25610744 105.57674104 -131.97655165 86.03232407 -133.1015625 66.12890625 C-133.78067959 43.90182974 -127.18612669 22.90295613 -112.12890625 6.22265625 C-81.60204537 -26.19867837 -34.48334378 -26.16821123 0 0 Z M-106.91015625 18.47265625 C-119.8640699 35.59816922 -122.78777108 54.61297557 -120.328125 75.53125 C-116.97157638 90.70779194 -108.16094372 103.26576584 -96.62890625 113.34765625 C-85.92487256 122.74384438 -83.14346514 133.01456738 -81.75390625 146.91015625 C-74.16390625 146.91015625 -66.57390625 146.91015625 -58.75390625 146.91015625 C-58.4816424 138.86859909 -58.26203216 130.83068186 -58.13216019 122.78573799 C-58.0697925 119.04908834 -57.98539308 115.31578039 -57.84863281 111.58105469 C-57.71721476 107.96917443 -57.64629977 104.36048306 -57.61537933 100.74639511 C-57.59338113 99.37535251 -57.55041359 98.00446481 -57.48514557 96.63479996 C-57.00817809 89.07966812 -57.00817809 89.07966812 -59.97288513 82.38661957 C-62.50501735 79.95222841 -65.15466748 78.03698064 -68.07244873 76.06710815 C-70.75390625 73.91015625 -70.75390625 73.91015625 -71.69073486 71.32327271 C-71.75390625 68.91015625 -71.75390625 68.91015625 -70.75390625 65.91015625 C-68.31640625 64.97265625 -68.31640625 64.97265625 -64.75390625 64.91015625 C-61.48295207 66.93503265 -58.66610425 69.40843949 -55.75390625 71.91015625 C-54.26890625 72.90015625 -54.26890625 72.90015625 -52.75390625 73.91015625 C-52.09003906 73.34425781 -51.42617188 72.77835937 -50.7421875 72.1953125 C-49.85917969 71.46183594 -48.97617187 70.72835937 -48.06640625 69.97265625 C-47.19628906 69.24175781 -46.32617188 68.51085937 -45.4296875 67.7578125 C-42.69744881 65.87117177 -41.05237871 65.07972946 -37.75390625 64.91015625 C-36.26890625 65.90015625 -36.26890625 65.90015625 -34.75390625 66.91015625 C-34.34546702 69.62219277 -34.62053758 72.15387045 -34.75390625 74.91015625 C-35.32725708 75.18403671 -35.90060791 75.45791718 -36.49133301 75.74009705 C-40.66126257 77.89651982 -43.99639206 80.03410375 -46.75390625 83.91015625 C-47.85301954 88.72395597 -47.68915295 93.46976594 -47.53515625 98.375 C-47.52021489 99.77743793 -47.50883681 101.17991792 -47.50085449 102.58241272 C-47.47046581 106.25454211 -47.39203038 109.92409577 -47.30322266 113.59521484 C-47.22103641 117.34892942 -47.18477399 121.10306482 -47.14453125 124.85742188 C-47.05901053 132.20963763 -46.91843489 139.55920634 -46.75390625 146.91015625 C-39.16390625 146.91015625 -31.57390625 146.91015625 -23.75390625 146.91015625 C-23.52703125 144.64140625 -23.30015625 142.37265625 -23.06640625 140.03515625 C-21.51509133 127.40750744 -15.53670349 118.64072573 -5.81640625 110.59765625 C6.43671286 100.0983685 14.04535446 83.79512791 15.42626953 67.82666016 C16.65267911 47.93596722 10.85690999 29.55298341 -2.39453125 14.3671875 C-14.95513299 1.2866933 -31.80991542 -6.84992445 -49.95605469 -7.48779297 C-72.72359379 -7.83275568 -92.10499876 0.99771626 -106.91015625 18.47265625 Z M-70.75390625 158.91015625 C-70.75390625 167.16015625 -70.75390625 175.41015625 -70.75390625 183.91015625 C-58.87390625 183.91015625 -46.99390625 183.91015625 -34.75390625 183.91015625 C-34.75390625 175.66015625 -34.75390625 167.41015625 -34.75390625 158.91015625 C-46.63390625 158.91015625 -58.51390625 158.91015625 -70.75390625 158.91015625 Z M-60.75390625 195.91015625 C-59.27751622 200.97024264 -59.27751622 200.97024264 -55.75390625 202.91015625 C-52.40487635 203.26643603 -50.42554821 203.27320596 -47.44140625 201.66015625 C-45.37517784 199.80857312 -45.37517784 199.80857312 -44.75390625 195.91015625 C-50.03390625 195.91015625 -55.31390625 195.91015625 -60.75390625 195.91015625 Z " fill="#000000" transform="translate(420.75390625,263.08984375)"/>
<path d="M0 0 C1.10171036 0.10235207 1.10171036 0.10235207 2.22567749 0.20677185 C3.80836945 0.35470936 5.39041481 0.50969939 6.97180176 0.67098999 C11.16007905 1.09580156 15.3533675 1.46305379 19.546875 1.83203125 C20.39366821 1.90746658 21.24046143 1.98290192 22.11291504 2.06062317 C30.01189943 2.74708975 37.89515241 3.12249562 45.8203125 3.359375 C46.9635498 3.39514648 48.10678711 3.43091797 49.28466797 3.46777344 C61.75474504 3.80446009 74.19251986 3.80609479 86.65625 3.3125 C88.36458015 3.24861274 90.07291349 3.1848108 91.78125 3.12109375 C94.3932251 3.02330601 97.00425792 2.91912608 99.61523438 2.79736328 C102.19106391 2.67954889 104.76673422 2.58742718 107.34375 2.5 C108.12801361 2.45748108 108.91227722 2.41496216 109.7203064 2.37115479 C115.06950641 2.22135551 115.06950641 2.22135551 117.58837891 4.48730469 C118.99229878 7.6106948 118.61909356 9.45561309 117.5703125 12.671875 C106.78654368 20.25456718 80.48043403 15.91348574 67.9453125 15.921875 C66.62736694 15.92354675 65.30942139 15.92521851 63.95153809 15.92694092 C47.2038551 15.9356597 30.52029599 15.64751458 13.8203125 14.296875 C13.02647156 14.23375122 12.23263062 14.17062744 11.41473389 14.10559082 C-3.96981956 12.84172808 -3.96981956 12.84172808 -10.4296875 10.671875 C-11.84410624 7.84303753 -11.74869082 5.79810755 -11.4296875 2.671875 C-8.05891795 -1.03861732 -4.61397849 -0.51859432 0 0 Z " fill="#000000" transform="translate(135.4296875,283.328125)"/>
<path d="M0 0 C5.14977273 4.06511364 7.8640768 8.01882084 8.8203125 14.55859375 C9.17077126 21.19469997 7.22774167 26.57628251 2.8203125 31.55859375 C-2.80514993 35.91297854 -8.19865918 37.02399564 -15.1796875 36.55859375 C-22.44442323 34.87111576 -27.93083597 30.93187105 -32.0546875 24.74609375 C-34.58925578 17.56481695 -34.8355473 11.92987695 -31.6875 4.86328125 C-28.75319064 0.37819699 -24.19620155 -2.51717356 -19.1015625 -4.078125 C-11.88148575 -5.44289561 -6.01592019 -3.9782698 0 0 Z M-21.1796875 10.55859375 C-22.32470903 14.0699931 -22.48836652 15.82119387 -21.0546875 19.24609375 C-18.8603811 21.95240498 -17.42947266 23.25867969 -14.1796875 24.55859375 C-10.37159203 24.74489979 -7.19336699 24.35725032 -4.1171875 21.93359375 C-2.70200013 18.34845241 -3.08382401 16.23295956 -4.1796875 12.55859375 C-7.31595393 9.04896227 -9.11916195 7.70487314 -13.8046875 7.05859375 C-17.3499103 7.58381194 -18.84331848 7.86278334 -21.1796875 10.55859375 Z " fill="#000000" transform="translate(111.1796875,308.44140625)"/>
<path d="M0 0 C5.90017215 3.56494612 9.14012705 8.4959884 11.05859375 15.0078125 C12.07687753 20.4686972 11.33062823 24.80273942 8.75 29.6875 C4.62855147 34.6103413 0.405942 37.80500846 -6.04296875 38.74609375 C-13.22569318 38.92645758 -18.60872729 37.5967243 -24.5 33.375 C-28.96886714 28.95858436 -31.44236715 23.48854467 -31.53125 17.14453125 C-31.13078022 11.16751974 -29.40363068 7.17981602 -25.0078125 2.93359375 C-18.3052813 -2.91861633 -8.13706803 -3.74958584 0 0 Z M-17.5 12.375 C-19.77891715 15.1730017 -19.77891715 15.1730017 -19.4375 18.25 C-18.2472437 22.21752099 -16.75674225 23.84197825 -13.5 26.375 C-9.83965804 27.59511399 -8.27578781 27.72763082 -4.75 26.125 C-2.28918149 24.40135231 -2.28918149 24.40135231 -0.5 21.375 C-0.57576511 17.20791868 -0.83014684 15.10226915 -3.6875 12 C-9.03091861 8.91269147 -12.52668729 8.50686789 -17.5 12.375 Z " fill="#000000" transform="translate(108.5,221.625)"/>
<path d="M0 0 C4.90191686 4.1540141 8.09178384 8.52895987 9 15 C9.27672977 21.26101115 7.61737989 25.98704016 3.9375 31.046875 C-0.36896711 35.38807169 -5.70163402 36.722611 -11.625 37.4375 C-19.17606211 36.45865862 -24.81243432 33.62788956 -30 28 C-33.28906471 22.95676744 -34.67413027 17.59937412 -33.5625 11.6640625 C-31.73661345 5.41870054 -28.8386214 1.93857071 -23.4375 -1.75 C-15.51644949 -5.81207718 -7.51709502 -4.30064571 0 0 Z M-21 11 C-22.26006315 14.31809464 -22.26006315 14.31809464 -22 18 C-20.28511167 21.03143645 -18.15648712 23.42175644 -15 25 C-10.64522829 25.49299302 -8.65865977 25.45282859 -5 22.9375 C-2.7029187 20.10856383 -2.7029187 20.10856383 -2.8125 16.5 C-4.33723348 12.00604869 -5.96775037 10.46415255 -10 8 C-14.57545607 7.36890261 -17.91398483 7.32052037 -21 11 Z " fill="#000000" transform="translate(111,142)"/>
<path d="M0 0 C1.08087891 -0.0309375 1.08087891 -0.0309375 2.18359375 -0.0625 C5.40972212 -0.08626522 7.73594826 0.04168883 10.60546875 1.578125 C12.125 3.25 12.125 3.25 12.5625 6.25 C12.07766442 9.57458686 11.69884486 10.24824267 9.125 12.25 C6.20614448 12.52145356 3.53612363 12.62324966 0.625 12.5625 C-0.53322266 12.56733398 -0.53322266 12.56733398 -1.71484375 12.57226562 C-5.59931666 12.53523859 -7.57817851 12.44788099 -10.875 10.25 C-11.85368153 7.38923862 -12.09635111 5.86297231 -11.0625 3 C-8.44597345 -0.85593386 -4.2104958 0.02980882 0 0 Z " fill="#000000" transform="translate(469.875,317.75)"/>
<path d="M0 0 C3 0.4375 3 0.4375 4.66796875 1.9609375 C6.53174386 5.42613814 6.39871549 8.66858355 6.3125 12.5 C6.31572266 13.21994141 6.31894531 13.93988281 6.32226562 14.68164062 C6.28374156 18.45349709 6.13773952 20.23089072 4 23.4375 C1.13923862 24.41618153 -0.38702769 24.65885111 -3.25 23.625 C-5 22.4375 -5 22.4375 -6 20.4375 C-6.15071519 17.61159019 -6.23132601 14.82677538 -6.25 12 C-6.270625 11.22333984 -6.29125 10.44667969 -6.3125 9.64648438 C-6.3521545 3.89162452 -6.3521545 3.89162452 -4.66699219 1.71850586 C-3 0.4375 -3 0.4375 0 0 Z " fill="#000000" transform="translate(368,209.5625)"/>
<path d="M0 0 C3.140625 0.98828125 3.140625 0.98828125 6.25 2.3125 C7.28640625 2.74175781 8.3228125 3.17101562 9.390625 3.61328125 C12 5 12 5 14 8 C14.35384949 10.83079592 14.3920891 12.36830089 12.875 14.8125 C10.13919655 16.54517552 8.21228699 16.2275528 5 16 C1.60546875 14.93359375 1.60546875 14.93359375 -1.8125 13.4375 C-2.95332031 12.96183594 -4.09414063 12.48617188 -5.26953125 11.99609375 C-8 10 -8 10 -8.953125 6.40625 C-9 3 -9 3 -7.9375 1.0625 C-5.16580901 -0.45745957 -3.14147227 -0.20267563 0 0 Z " fill="#000000" transform="translate(271,277)"/>
<path d="M0 0 C4.57623184 0.52987948 5.93358244 1.76653868 9.0859375 5.0546875 C9.93929688 5.91320312 10.79265625 6.77171875 11.671875 7.65625 C13.93378927 10.73280006 14.55844406 12.63838497 14.7109375 16.4296875 C13.1484375 18.8671875 13.1484375 18.8671875 10.7109375 20.4296875 C5.37511028 20.2375386 3.03850239 18.38981925 -0.6015625 14.6171875 C-1.46394531 13.74449219 -2.32632812 12.87179688 -3.21484375 11.97265625 C-5.14431796 9.60714268 -6.05464901 8.4263789 -6.2890625 5.4296875 C-4.86077323 1.50189202 -4.22294879 0.55169165 0 0 Z " fill="#000000" transform="translate(291.2890625,241.5703125)"/>
<path d="M0 0 C3.52734375 1.07421875 3.52734375 1.07421875 5.5234375 3.8046875 C5.99910156 4.94550781 6.47476562 6.08632812 6.96484375 7.26171875 C7.45855469 8.38964844 7.95226562 9.51757812 8.4609375 10.6796875 C9.52406038 14.06376729 9.82304534 16.55638952 9.52734375 20.07421875 C8.46484375 22.01171875 8.46484375 22.01171875 6.52734375 23.07421875 C3.15234375 23.38671875 3.15234375 23.38671875 -0.47265625 22.07421875 C-4.35491848 17.03322009 -5.99817308 11.22172232 -6.72265625 4.984375 C-6.47265625 3.07421875 -6.47265625 3.07421875 -5.41015625 1.2578125 C-3.47265625 0.07421875 -3.47265625 0.07421875 0 0 Z " fill="#000000" transform="translate(327.47265625,217.92578125)"/>
<path d="M0 0 C4.6450669 1.44682412 9.08298201 2.93704713 13.14453125 5.66796875 C14.45703125 9.29296875 14.45703125 9.29296875 14.14453125 12.66796875 C13.15453125 14.15296875 13.15453125 14.15296875 12.14453125 15.66796875 C5.39669128 16.79260875 0.64687903 14.43378535 -5.4140625 11.56640625 C-7.85546875 9.66796875 -7.85546875 9.66796875 -8.796875 6.609375 C-8.85546875 3.66796875 -8.85546875 3.66796875 -7.35546875 1.23046875 C-4.6043326 -0.48899135 -3.15673697 -0.69461968 0 0 Z " fill="#000000" transform="translate(459.85546875,355.33203125)"/>
<path d="M0 0 C2 2 2 2 2.4140625 5.2890625 C1.90263286 9.87263005 0.66620696 11.21971309 -2.625 14.375 C-3.91277344 15.65503906 -3.91277344 15.65503906 -5.2265625 16.9609375 C-8.30311256 19.22285177 -10.20869747 19.84750656 -14 20 C-16.4375 18.4375 -16.4375 18.4375 -18 16 C-17.78885214 10.75042723 -16.02188255 8.29391809 -12.375 4.625 C-11.53710938 3.75101563 -10.69921875 2.87703125 -9.8359375 1.9765625 C-6.28677573 -0.4970957 -4.24123764 -0.53393253 0 0 Z " fill="#000000" transform="translate(448,242)"/>
<path d="M0 0 C1.66015625 1.26171875 1.66015625 1.26171875 3 3 C3.77612805 8.93010339 1.27377936 14.88542114 -1.46875 20.01171875 C-3 22 -3 22 -6.625 23.3125 C-10 23 -10 23 -11.9375 21.9375 C-13.47086111 19.14137092 -13.23626563 17.17270988 -13 14 C-11.7578125 10.60546875 -11.7578125 10.60546875 -10.125 7.1875 C-9.59132813 6.04667969 -9.05765625 4.90585938 -8.5078125 3.73046875 C-6.29942018 -0.26866657 -4.39176655 -0.42846503 0 0 Z " fill="#000000" transform="translate(412,218)"/>
<path d="M0 0 C2 3 2 3 2.25 5.875 C0.47642005 10.30894988 -2.33274973 11.11781293 -6.5546875 13.01953125 C-10.92828513 14.77316225 -14.26722863 15.34420155 -19 15 C-21 12 -21 12 -21.0078125 8.53125 C-20 5 -20 5 -17.3046875 2.96875 C-16.17289062 2.4840625 -15.04109375 1.999375 -13.875 1.5 C-12.75867188 0.9946875 -11.64234375 0.489375 -10.4921875 -0.03125 C-6.507593 -1.13659612 -3.9840796 -1.0520308 0 0 Z " fill="#000000" transform="translate(283,356)"/>
<path d="M0 0 C1.15822266 -0.01740234 1.15822266 -0.01740234 2.33984375 -0.03515625 C7.99691045 -0.00574342 7.99691045 -0.00574342 10.22070312 1.67724609 C12.33464565 4.48265761 11.86763297 7.00503111 11.5 10.375 C7.65681569 12.93712287 4.45306045 12.70608539 0 12.6875 C-1.15822266 12.71166992 -1.15822266 12.71166992 -2.33984375 12.73632812 C-8.02799767 12.7412572 -8.02799767 12.7412572 -10.22070312 11.03979492 C-12.19278208 8.47345782 -11.89141799 6.50634389 -11.5 3.375 C-8.42618237 -0.61978971 -4.67597402 -0.0702567 0 0 Z " fill="#000000" transform="translate(265.5,317.625)"/>
<path d="M0 0 C1.9375 1.0625 1.9375 1.0625 3 3 C2.953125 6.40625 2.953125 6.40625 2 10 C-0.73046875 11.99609375 -0.73046875 11.99609375 -4.1875 13.4375 C-5.31542969 13.93121094 -6.44335938 14.42492187 -7.60546875 14.93359375 C-10.99569585 15.99864783 -13.47598095 16.34218736 -17 16 C-19.62470818 13.79863185 -19.95135174 12.45729362 -20.3125 9.0625 C-18.20587518 4.14704209 -13.78045868 2.91676538 -9 1 C-5.72429875 -0.09190042 -3.43202271 -0.28600189 0 0 Z " fill="#000000" transform="translate(471,277)"/>
<path d="M0 0 C0.5 3.4375 0.5 3.4375 0 7 C-3.32250564 9.93162262 -6.66398883 10.58307585 -11 11 C-12.12728516 11.11408203 -12.12728516 11.11408203 -13.27734375 11.23046875 C-15.6188893 11.37088558 -17.68809012 11.40187496 -20 11 C-22.1875 8.8125 -22.1875 8.8125 -23 6 C-22.5 3.3125 -22.5 3.3125 -21 1 C-14.93454824 -2.27862257 -5.89495533 -3.92997022 0 0 Z " fill="#000000" transform="translate(307,197)"/>
<path d="M0 0 C4.01924994 0.10981557 7.5333875 0.81393725 11.3125 2.25 C13.3125 5.25 13.3125 5.25 13.125 8.3125 C12.3125 11.25 12.3125 11.25 9.3125 13.25 C4.75863793 13.41208662 0.46195469 12.66380369 -3.8125 11.125 C-5.6875 9.25 -5.6875 9.25 -6.125 5.6875 C-5.5117349 0.86898848 -4.85612913 0.32922909 0 0 Z " fill="#000000" transform="translate(95.6875,277.75)"/>
</svg>
