<?xml version="1.0" encoding="UTF-8"?>
<svg version="1.1" xmlns="http://www.w3.org/2000/svg" width="512" height="512">
<path d="M0 0 C1.7850905 -0.00679667 1.7850905 -0.00679667 3.60624343 -0.01373065 C6.89237255 -0.02416741 10.17836331 -0.02570622 13.46450365 -0.02334189 C17.01544457 -0.02293243 20.56635328 -0.03398526 24.11727905 -0.04345703 C31.06820813 -0.06004057 38.01910327 -0.0655654 44.97005048 -0.06668179 C50.62335736 -0.06763361 56.27665309 -0.07175058 61.92995644 -0.07808304 C77.97540159 -0.09568895 94.02082003 -0.10492304 110.0662749 -0.10342209 C111.36267102 -0.10330222 111.36267102 -0.10330222 112.68525696 -0.10317993 C113.55058242 -0.10309817 114.41590789 -0.10301641 115.30745534 -0.10293217 C129.32410649 -0.10211966 143.34065009 -0.12125017 157.35727014 -0.14945666 C171.76638196 -0.17822302 186.17544138 -0.19199487 200.58458263 -0.19026911 C208.66737304 -0.18960646 216.75005071 -0.19504374 224.83281517 -0.21662521 C231.71598012 -0.23488656 238.59898124 -0.23914396 245.48215999 -0.22560637 C248.98967734 -0.21910128 252.49688084 -0.21886939 256.00436783 -0.23631287 C259.81821192 -0.25181161 263.63124107 -0.24242513 267.44506836 -0.22705078 C268.53790137 -0.23733791 269.63073437 -0.24762503 270.75668353 -0.25822389 C282.6886518 -0.15250652 293.33403013 3.33459471 303.03999329 10.26742554 C303.77604797 10.7843396 304.51210266 11.30125366 305.27046204 11.83383179 C313.16451439 18.0792148 317.86727371 26.80390343 323.03999329 35.26742554 C324.05942621 36.91152386 325.08028482 38.55473895 326.10249329 40.19711304 C328.27536551 43.69253007 330.43976085 47.19300458 332.59858704 50.69711304 C336.15668851 56.46640059 339.75345025 62.21112171 343.35249329 67.95492554 C349.37131147 77.56568202 355.32552202 87.21481433 361.25215149 96.88265991 C364.7918181 102.64771957 368.37154317 108.38213867 372.01997375 114.07894897 C382.61649783 130.64261301 390.51948991 144.45129218 390.47358704 164.60336304 C390.47816212 165.97280126 390.48347157 167.3422372 390.48947144 168.71166992 C390.49835106 171.56759019 390.49603955 174.42323007 390.48603821 177.27914429 C390.47456431 180.9056078 390.49476087 184.53109516 390.52395535 188.15743065 C390.54246713 190.98195353 390.54199533 193.80624898 390.53631783 196.63081741 C390.53609372 198.6069174 390.55285074 200.58299654 390.57012939 202.559021 C390.44794641 218.55482699 384.43282558 232.02140809 373.03999329 243.26742554 C372.37999329 243.59742554 371.71999329 243.92742554 371.03999329 244.26742554 C372.54519251 247.79023224 374.62181516 250.04479479 377.28999329 252.76742554 C388.10218737 264.57204323 390.34944521 276.94838396 390.37593079 292.40805054 C390.38237362 293.78034599 390.38910303 295.15264013 390.39610291 296.52493286 C390.40802616 299.3927427 390.41178897 302.26043254 390.41059875 305.12826538 C390.41039606 308.77043564 390.43766843 312.41182135 390.47214317 316.0538063 C390.49458256 318.88688563 390.49843112 321.71978136 390.4973793 324.55294037 C390.50083059 326.53792632 390.5223847 328.52285497 390.54447937 330.50772095 C390.46665365 346.12254099 384.86320284 358.23333737 374.55561829 369.77133179 C373.03999329 371.26742554 373.03999329 371.26742554 371.03999329 372.26742554 C372.54519251 375.79023224 374.62181516 378.04479479 377.28999329 380.76742554 C388.06112024 392.52720666 390.34702756 404.89660808 390.41108704 420.30258179 C390.4200789 421.66768985 390.42920109 423.03279707 390.43844604 424.39790344 C390.45486793 427.25311659 390.4626228 430.10821352 390.4655304 432.96347046 C390.47088659 436.57860087 390.50847893 440.19259924 390.55427456 443.80741215 C390.58439174 446.62774886 390.59126144 449.44782531 390.59225655 452.26830864 C390.5983765 454.23492798 390.62766428 456.20143309 390.65777588 458.16783142 C390.58052715 473.85662015 385.4337119 486.19818504 374.75874329 497.73226929 C365.30238341 506.95836066 352.81491692 512.51016024 339.55917835 512.52469444 C338.83544941 512.52820052 338.11172047 512.53170659 337.36606035 512.53531891 C334.94608076 512.54460708 332.52634319 512.53971632 330.10635376 512.53485107 C328.35169774 512.53858864 326.59704339 512.54319059 324.84239167 512.54858172 C320.02428493 512.56081406 315.20624761 512.56055097 310.38812888 512.55819297 C305.1902806 512.55778486 299.9924546 512.56882344 294.7946167 512.57830811 C284.61203038 512.59492068 274.42946721 512.60041778 264.24686847 512.60153286 C255.96910227 512.60248327 247.69134372 512.60659321 239.41357994 512.61293411 C215.94193396 512.63054769 192.47030627 512.63977287 168.99865363 512.63827316 C167.10062921 512.6381533 167.10062921 512.6381533 165.16426086 512.63803101 C163.89736521 512.63794924 162.63046955 512.63786748 161.32518312 512.63778324 C140.79601536 512.63697045 120.266921 512.6561063 99.73777447 512.68430774 C78.65597834 512.7130397 57.57421799 512.72684784 36.49240178 512.72512019 C24.65765642 512.72445637 12.82298799 512.7299452 0.98826027 512.75147629 C-9.08883184 512.76969221 -19.16581217 512.77403203 -29.24291363 512.76045744 C-34.38262846 512.75392976 -39.52212886 512.75380351 -44.66182327 512.77116394 C-49.37162939 512.78690843 -54.08105129 512.78401686 -58.79084811 512.76659568 C-60.49003532 512.76352882 -62.18925131 512.76714628 -63.88840457 512.77831583 C-81.13548165 512.88413603 -94.88687898 508.70885544 -107.60453796 496.70101929 C-119.17619067 484.74556384 -122.75996746 470.73263256 -122.58891296 454.47836304 C-122.58974566 453.11846731 -122.59222002 451.75857173 -122.59622192 450.39868164 C-122.59904864 447.57661919 -122.58468868 444.75536416 -122.55693054 441.93344116 C-122.5227854 438.35533641 -122.52891728 434.77866529 -122.54759312 431.20049095 C-122.55826683 428.40161627 -122.54913378 425.60306322 -122.5342083 422.80421829 C-122.52666691 420.85645079 -122.5337993 418.90864357 -122.54144287 416.96087646 C-122.34010949 401.55339901 -117.59300231 388.59907695 -106.52250671 377.70492554 C-105.84317078 377.08488647 -105.16383484 376.46484741 -104.46391296 375.82601929 C-102.72855032 374.38852918 -102.72855032 374.38852918 -102.96000671 372.26742554 C-103.97063171 371.46305054 -104.98125671 370.65867554 -106.02250671 369.82992554 C-114.33742253 362.91205023 -119.77351256 351.78533866 -121.96000671 341.26742554 C-122.06612888 339.25902639 -122.11852493 337.24753563 -122.13700867 335.23641968 C-122.1498439 334.01737442 -122.16267914 332.79832916 -122.17590332 331.54234314 C-122.18329025 330.22572189 -122.19067719 328.90910065 -122.19828796 327.55258179 C-122.20440125 326.53984601 -122.20440125 326.53984601 -122.21063805 325.50665092 C-122.23147816 321.92552883 -122.2457827 318.34444469 -122.25517273 314.76327515 C-122.26616863 311.09871319 -122.30049354 307.43477 -122.34034443 303.77042484 C-122.36675102 300.92445404 -122.37488608 298.0786245 -122.37845421 295.23254204 C-122.38557967 293.23594818 -122.41192233 291.23945182 -122.43884277 289.24302673 C-122.40545356 275.00640647 -118.58164875 262.43633083 -108.72953796 251.87680054 C-107.33192104 250.50144653 -105.91221002 249.14789952 -104.46391296 247.82601929 C-102.72855032 246.38852918 -102.72855032 246.38852918 -102.96000671 244.26742554 C-103.97063171 243.46305054 -104.98125671 242.65867554 -106.02250671 241.82992554 C-114.33742253 234.91205023 -119.77351256 223.78533866 -121.96000671 213.26742554 C-122.06612888 211.25902639 -122.11852493 209.24753563 -122.13700867 207.23641968 C-122.1498439 206.01737442 -122.16267914 204.79832916 -122.17590332 203.54234314 C-122.18329025 202.22572189 -122.19067719 200.90910065 -122.19828796 199.55258179 C-122.20440125 198.53984601 -122.20440125 198.53984601 -122.21063805 197.50665092 C-122.23147816 193.92552883 -122.2457827 190.34444469 -122.25517273 186.76327515 C-122.26616863 183.09871319 -122.30049354 179.43477 -122.34034443 175.77042484 C-122.36675102 172.92445404 -122.37488608 170.0786245 -122.37845421 167.23254204 C-122.38557967 165.23594818 -122.41192233 163.23945182 -122.43884277 161.24302673 C-122.40960982 148.77856925 -119.34107016 138.42532291 -112.64750671 127.95492554 C-111.87298157 126.70376953 -111.87298157 126.70376953 -111.08280945 125.42733765 C-109.3889509 122.69852474 -107.67475328 119.98315186 -105.96000671 117.26742554 C-104.73732479 115.30731564 -103.51599951 113.34635893 -102.29594421 111.38461304 C-99.76581427 107.32119075 -97.2275837 103.26300624 -94.68266296 99.20883179 C-91.25293539 93.74195744 -87.85129388 88.25820541 -84.46000671 82.76742554 C-79.18946371 74.23799097 -73.88469479 65.73038803 -68.55912781 57.23519897 C-65.49265857 52.33931558 -62.44322843 47.43467995 -59.43656921 42.50180054 C-47.88872158 23.57011251 -37.35254885 6.30471987 -14.37504613 0.69497561 C-9.61578971 -0.14758639 -4.81967987 -0.01352148 0 0 Z M-25.96000671 32.26742554 C-29.45563075 36.83487369 -32.40044124 41.78064954 -35.38529968 46.68930054 C-37.04528206 49.40703913 -38.73511904 52.10425022 -40.43266296 54.79867554 C-47.23471606 65.60273434 -53.94838256 76.46183766 -60.64750671 87.32992554 C-61.65430481 88.96175781 -61.65430481 88.96175781 -62.68144226 90.6265564 C-63.62950745 92.16775146 -63.62950745 92.16775146 -64.59672546 93.74008179 C-65.15061951 94.63992798 -65.70451355 95.53977417 -66.27519226 96.46688843 C-68.22207724 99.70304515 -70.0862645 102.98837666 -71.96000671 106.26742554 C63.99999329 106.26742554 199.95999329 106.26742554 340.03999329 106.26742554 C333.44996394 94.69842023 333.44996394 94.69842023 326.47749329 83.39242554 C325.44559521 81.77304665 324.41437948 80.15323282 323.38374329 78.53305054 C322.84491516 77.68678101 322.30608704 76.84051147 321.75093079 75.96859741 C319.2821217 72.07092279 316.84411608 68.15429618 314.40596008 64.23739624 C312.49432383 61.16943666 310.57463945 58.10664337 308.65327454 55.04476929 C306.3964065 51.44745842 304.16449005 47.83719988 301.95796204 44.20883179 C295.19495423 33.21271212 289.06931727 25.4734896 276.03999329 22.26742554 C272.10081294 21.85791157 268.19430848 21.86178294 264.23652649 21.88647461 C263.07545789 21.88179464 261.91438929 21.87711467 260.71813679 21.87229288 C257.51768151 21.86244194 254.31757134 21.86592656 251.11712503 21.87525153 C247.65693798 21.88206554 244.19679601 21.87154919 240.73661804 21.86331177 C233.96694913 21.84999722 227.19738021 21.85284197 220.42770743 21.86154969 C214.92408159 21.86833482 209.42048369 21.86923937 203.91685486 21.86597824 C203.13247018 21.86551854 202.3480855 21.86505884 201.5399316 21.86458521 C199.94628897 21.863626 198.35264636 21.86265336 196.75900376 21.86166744 C181.82810365 21.85312022 166.89725887 21.86293718 151.96636784 21.87906854 C139.1650356 21.89247112 126.36378499 21.89014284 113.56245422 21.87631226 C98.68366115 21.86024462 83.80491653 21.85394413 68.92611599 21.86314905 C67.33845457 21.86410466 65.75079315 21.86504777 64.16313171 21.86597824 C63.3820457 21.86644107 62.60095968 21.86690389 61.79620439 21.86738075 C56.30149724 21.86996709 50.80682091 21.86560732 45.31211853 21.85853958 C38.61259528 21.85011123 31.91317743 21.85243272 25.2136662 21.86838181 C21.79783025 21.87624663 18.38216981 21.8793869 14.9663353 21.86943436 C11.25853554 21.86122874 7.55122851 21.87152954 3.84346008 21.88647461 C2.77078542 21.87978244 1.69811075 21.87309028 0.59293079 21.86619532 C-9.95520318 21.9485797 -18.56836667 24.47193761 -25.96000671 32.26742554 Z M-93.28179932 140.05859375 C-99.45728175 148.1866725 -100.70733883 157.20638784 -100.58891296 167.11898804 C-100.59132492 168.2990744 -100.59373688 169.47916077 -100.59622192 170.69500732 C-100.59524927 173.17067858 -100.58199648 175.64637318 -100.55693054 178.12191772 C-100.52252952 181.88992777 -100.53632976 185.65559917 -100.55570984 189.42367554 C-100.54881248 191.84295625 -100.53914111 194.26223098 -100.52641296 196.68148804 C-100.53137283 197.79528839 -100.5363327 198.90908875 -100.54144287 200.05664062 C-100.38417419 210.59979277 -97.51938418 218.58429089 -90.25297546 226.28695679 C-83.77639984 231.88086452 -76.53193509 234.38969492 -68.09073544 234.40164661 C-67.38452967 234.40399884 -66.6783239 234.40635107 -65.95071796 234.40877458 C-63.56634269 234.41547172 -61.18202183 234.41500615 -58.79763794 234.41459656 C-57.0780083 234.41789475 -55.35837944 234.42162022 -53.63875157 234.42573804 C-48.89897673 234.43577143 -44.15921456 234.43947699 -39.41943061 234.44212735 C-34.31289942 234.44602648 -29.20637829 234.45560514 -24.09985352 234.46434021 C-11.75982974 234.48411655 0.58019487 234.49417269 12.92023054 234.503068 C18.72926045 234.50744932 24.53828946 234.51281657 30.34731865 234.51805687 C49.65473142 234.53507095 68.96214361 234.54956525 88.26956272 234.55680561 C93.28166263 234.55871556 98.29376254 234.56063588 103.30586243 234.56259155 C104.55161979 234.56307529 105.79737716 234.56355903 107.08088475 234.56405743 C127.26246235 234.57235815 147.44398068 234.597695 167.6255324 234.63017223 C188.33880416 234.66323373 209.05204579 234.68125358 229.76534408 234.68444985 C241.39776434 234.68661588 253.03009819 234.69537804 264.66249275 234.72091103 C274.56918789 234.74260563 284.47577564 234.75067455 294.38249183 234.74094424 C299.43687556 234.73639587 304.49103767 234.73831711 309.54539108 234.75770569 C314.17506257 234.77531171 318.80435034 234.77436037 323.43402576 234.7588084 C325.10638216 234.75642843 326.77876495 234.76077604 328.45108099 234.77263705 C340.98589378 234.85601396 350.6146298 233.47035693 360.05952454 224.56039429 C365.0643908 218.76580553 368.12764424 211.7119075 368.23286438 204.06845093 C368.24892731 203.00626846 368.26499023 201.944086 368.28153992 200.84971619 C368.3262252 195.96706873 368.36710134 191.08455642 368.39009094 186.20175171 C368.40658947 183.63655486 368.4337976 181.07140281 368.47212219 178.50643921 C368.52729407 174.79241266 368.54883301 171.07946473 368.56343079 167.36508179 C368.59743484 165.66751488 368.59743484 165.66751488 368.63212585 163.93565369 C368.60597825 153.93040623 366.11212538 145.23529038 359.22749329 137.76742554 C347.89065899 127.572735 333.95982148 127.96956556 319.45381165 128.01345825 C317.78573693 128.0111507 316.11766323 128.0079722 314.44959164 128.00400376 C309.88941748 127.99568764 305.3293275 127.99976652 300.76915312 128.0059762 C295.84202231 128.01051275 290.91490568 128.00351097 285.98777771 127.99801636 C276.34482315 127.98913355 266.70189976 127.99103942 257.05894399 127.99684164 C249.22033893 128.0013625 241.38174259 128.0019692 233.5431366 127.99979401 C232.426557 127.99948754 231.3099774 127.99918107 230.15956205 127.99886532 C227.89109397 127.99822586 225.62262588 127.99757743 223.35415781 127.99692014 C202.09387908 127.9912201 180.83361762 127.99776962 159.57334173 128.00852087 C141.33988621 128.01745608 123.10645616 128.01590395 104.8730011 128.00668335 C83.68763211 127.99597496 62.50227824 127.9917694 41.31690693 127.99790788 C39.05688795 127.99854496 36.79686896 127.9991737 34.53684998 127.99979401 C32.8689882 128.00025683 32.8689882 128.00025683 31.16743225 128.00072901 C23.34027075 128.00245424 15.51311887 127.99954455 7.68595886 127.9948349 C-1.85561711 127.98921976 -11.39716018 127.99075586 -20.93873239 128.00139639 C-25.80488028 128.00664454 -30.67097336 128.00872441 -35.53712082 128.00209808 C-39.99558142 127.99611883 -44.45393663 127.99944628 -48.91238773 128.01005319 C-50.52126044 128.01227884 -52.13014214 128.01116977 -53.73900902 128.00630161 C-68.55275413 127.96493215 -82.66195317 128.3788146 -93.28179932 140.05859375 Z M-93.28179932 268.05859375 C-99.45728175 276.1866725 -100.70733883 285.20638784 -100.58891296 295.11898804 C-100.59132492 296.2990744 -100.59373688 297.47916077 -100.59622192 298.69500732 C-100.59524927 301.17067858 -100.58199648 303.64637318 -100.55693054 306.12191772 C-100.52252952 309.88992777 -100.53632976 313.65559917 -100.55570984 317.42367554 C-100.54881248 319.84295625 -100.53914111 322.26223098 -100.52641296 324.68148804 C-100.53137283 325.79528839 -100.5363327 326.90908875 -100.54144287 328.05664062 C-100.38417419 338.59979277 -97.51938418 346.58429089 -90.25297546 354.28695679 C-83.77639984 359.88086452 -76.53193509 362.38969492 -68.09073544 362.40164661 C-67.38452967 362.40399884 -66.6783239 362.40635107 -65.95071796 362.40877458 C-63.56634269 362.41547172 -61.18202183 362.41500615 -58.79763794 362.41459656 C-57.0780083 362.41789475 -55.35837944 362.42162022 -53.63875157 362.42573804 C-48.89897673 362.43577143 -44.15921456 362.43947699 -39.41943061 362.44212735 C-34.31289942 362.44602648 -29.20637829 362.45560514 -24.09985352 362.46434021 C-11.75982974 362.48411655 0.58019487 362.49417269 12.92023054 362.503068 C18.72926045 362.50744932 24.53828946 362.51281657 30.34731865 362.51805687 C49.65473142 362.53507095 68.96214361 362.54956525 88.26956272 362.55680561 C93.28166263 362.55871556 98.29376254 362.56063588 103.30586243 362.56259155 C104.55161979 362.56307529 105.79737716 362.56355903 107.08088475 362.56405743 C127.26246235 362.57235815 147.44398068 362.597695 167.6255324 362.63017223 C188.33880416 362.66323373 209.05204579 362.68125358 229.76534408 362.68444985 C241.39776434 362.68661588 253.03009819 362.69537804 264.66249275 362.72091103 C274.56918789 362.74260563 284.47577564 362.75067455 294.38249183 362.74094424 C299.43687556 362.73639587 304.49103767 362.73831711 309.54539108 362.75770569 C314.17506257 362.77531171 318.80435034 362.77436037 323.43402576 362.7588084 C325.10638216 362.75642843 326.77876495 362.76077604 328.45108099 362.77263705 C340.98589378 362.85601396 350.6146298 361.47035693 360.05952454 352.56039429 C365.0643908 346.76580553 368.12764424 339.7119075 368.23286438 332.06845093 C368.24892731 331.00626846 368.26499023 329.944086 368.28153992 328.84971619 C368.3262252 323.96706873 368.36710134 319.08455642 368.39009094 314.20175171 C368.40658947 311.63655486 368.4337976 309.07140281 368.47212219 306.50643921 C368.52729407 302.79241266 368.54883301 299.07946473 368.56343079 295.36508179 C368.59743484 293.66751488 368.59743484 293.66751488 368.63212585 291.93565369 C368.60597825 281.93040623 366.11212538 273.23529038 359.22749329 265.76742554 C347.89065899 255.572735 333.95982148 255.96956556 319.45381165 256.01345825 C317.78573693 256.0111507 316.11766323 256.0079722 314.44959164 256.00400376 C309.88941748 255.99568764 305.3293275 255.99976652 300.76915312 256.0059762 C295.84202231 256.01051275 290.91490568 256.00351097 285.98777771 255.99801636 C276.34482315 255.98913355 266.70189976 255.99103942 257.05894399 255.99684164 C249.22033893 256.0013625 241.38174259 256.0019692 233.5431366 255.99979401 C232.426557 255.99948754 231.3099774 255.99918107 230.15956205 255.99886532 C227.89109397 255.99822586 225.62262588 255.99757743 223.35415781 255.99692014 C202.09387908 255.9912201 180.83361762 255.99776962 159.57334173 256.00852087 C141.33988621 256.01745608 123.10645616 256.01590395 104.8730011 256.00668335 C83.68763211 255.99597496 62.50227824 255.9917694 41.31690693 255.99790788 C39.05688795 255.99854496 36.79686896 255.9991737 34.53684998 255.99979401 C32.8689882 256.00025683 32.8689882 256.00025683 31.16743225 256.00072901 C23.34027075 256.00245424 15.51311887 255.99954455 7.68595886 255.9948349 C-1.85561711 255.98921976 -11.39716018 255.99075586 -20.93873239 256.00139639 C-25.80488028 256.00664454 -30.67097336 256.00872441 -35.53712082 256.00209808 C-39.99558142 255.99611883 -44.45393663 255.99944628 -48.91238773 256.01005319 C-50.52126044 256.01227884 -52.13014214 256.01116977 -53.73900902 256.00630161 C-68.55275413 255.96493215 -82.66195317 256.3788146 -93.28179932 268.05859375 Z M-93.28179932 396.05859375 C-99.45728175 404.1866725 -100.70733883 413.20638784 -100.58891296 423.11898804 C-100.59132492 424.2990744 -100.59373688 425.47916077 -100.59622192 426.69500732 C-100.59524927 429.17067858 -100.58199648 431.64637318 -100.55693054 434.12191772 C-100.52252952 437.88992777 -100.53632976 441.65559917 -100.55570984 445.42367554 C-100.54881248 447.84295625 -100.53914111 450.26223098 -100.52641296 452.68148804 C-100.53137283 453.79528839 -100.5363327 454.90908875 -100.54144287 456.05664062 C-100.38417419 466.59979277 -97.51938418 474.58429089 -90.25297546 482.28695679 C-83.77639984 487.88086452 -76.53193509 490.38969492 -68.09073544 490.40164661 C-67.38452967 490.40399884 -66.6783239 490.40635107 -65.95071796 490.40877458 C-63.56634269 490.41547172 -61.18202183 490.41500615 -58.79763794 490.41459656 C-57.0780083 490.41789475 -55.35837944 490.42162022 -53.63875157 490.42573804 C-48.89897673 490.43577143 -44.15921456 490.43947699 -39.41943061 490.44212735 C-34.31289942 490.44602648 -29.20637829 490.45560514 -24.09985352 490.46434021 C-11.75982974 490.48411655 0.58019487 490.49417269 12.92023054 490.503068 C18.72926045 490.50744932 24.53828946 490.51281657 30.34731865 490.51805687 C49.65473142 490.53507095 68.96214361 490.54956525 88.26956272 490.55680561 C93.28166263 490.55871556 98.29376254 490.56063588 103.30586243 490.56259155 C104.55161979 490.56307529 105.79737716 490.56355903 107.08088475 490.56405743 C127.26246235 490.57235815 147.44398068 490.597695 167.6255324 490.63017223 C188.33880416 490.66323373 209.05204579 490.68125358 229.76534408 490.68444985 C241.39776434 490.68661588 253.03009819 490.69537804 264.66249275 490.72091103 C274.56918789 490.74260563 284.47577564 490.75067455 294.38249183 490.74094424 C299.43687556 490.73639587 304.49103767 490.73831711 309.54539108 490.75770569 C314.17506257 490.77531171 318.80435034 490.77436037 323.43402576 490.7588084 C325.10638216 490.75642843 326.77876495 490.76077604 328.45108099 490.77263705 C340.98589378 490.85601396 350.6146298 489.47035693 360.05952454 480.56039429 C365.0643908 474.76580553 368.12764424 467.7119075 368.23286438 460.06845093 C368.24892731 459.00626846 368.26499023 457.944086 368.28153992 456.84971619 C368.3262252 451.96706873 368.36710134 447.08455642 368.39009094 442.20175171 C368.40658947 439.63655486 368.4337976 437.07140281 368.47212219 434.50643921 C368.52729407 430.79241266 368.54883301 427.07946473 368.56343079 423.36508179 C368.59743484 421.66751488 368.59743484 421.66751488 368.63212585 419.93565369 C368.60597825 409.93040623 366.11212538 401.23529038 359.22749329 393.76742554 C347.89065899 383.572735 333.95982148 383.96956556 319.45381165 384.01345825 C317.78573693 384.0111507 316.11766323 384.0079722 314.44959164 384.00400376 C309.88941748 383.99568764 305.3293275 383.99976652 300.76915312 384.0059762 C295.84202231 384.01051275 290.91490568 384.00351097 285.98777771 383.99801636 C276.34482315 383.98913355 266.70189976 383.99103942 257.05894399 383.99684164 C249.22033893 384.0013625 241.38174259 384.0019692 233.5431366 383.99979401 C232.426557 383.99948754 231.3099774 383.99918107 230.15956205 383.99886532 C227.89109397 383.99822586 225.62262588 383.99757743 223.35415781 383.99692014 C202.09387908 383.9912201 180.83361762 383.99776962 159.57334173 384.00852087 C141.33988621 384.01745608 123.10645616 384.01590395 104.8730011 384.00668335 C83.68763211 383.99597496 62.50227824 383.9917694 41.31690693 383.99790788 C39.05688795 383.99854496 36.79686896 383.9991737 34.53684998 383.99979401 C32.8689882 384.00025683 32.8689882 384.00025683 31.16743225 384.00072901 C23.34027075 384.00245424 15.51311887 383.99954455 7.68595886 383.9948349 C-1.85561711 383.98921976 -11.39716018 383.99075586 -20.93873239 384.00139639 C-25.80488028 384.00664454 -30.67097336 384.00872441 -35.53712082 384.00209808 C-39.99558142 383.99611883 -44.45393663 383.99944628 -48.91238773 384.01005319 C-50.52126044 384.01227884 -52.13014214 384.01116977 -53.73900902 384.00630161 C-68.55275413 383.96493215 -82.66195317 384.3788146 -93.28179932 396.05859375 Z " fill="#000000" transform="translate(121.96000671386719,-0.267425537109375)"/>
<path d="M0 0 C0.72505334 -0.00297112 1.45010668 -0.00594224 2.19713134 -0.0090034 C4.63913811 -0.01771051 7.08109598 -0.01920034 9.52311707 -0.02069092 C11.26897283 -0.02531769 13.01482759 -0.03034215 14.76068115 -0.03573608 C19.51281261 -0.04887607 24.26492994 -0.0553082 29.01707673 -0.05974674 C31.98439554 -0.06267501 34.95171047 -0.06677935 37.91902733 -0.07125092 C47.19830394 -0.08493031 56.47757169 -0.09459469 65.75685769 -0.09845281 C76.4771893 -0.10293422 87.19739344 -0.12048414 97.91768628 -0.1494534 C106.19799367 -0.17105421 114.47826515 -0.18115624 122.75860041 -0.18249393 C127.70684146 -0.18354314 132.65496277 -0.18947563 137.60317421 -0.20731354 C142.25789983 -0.22376647 146.91241535 -0.22596327 151.56715965 -0.21717453 C153.27599016 -0.21640265 154.98483183 -0.22076669 156.69363403 -0.23063278 C159.02606932 -0.24331009 161.35775574 -0.2374989 163.69018555 -0.22705078 C164.99561215 -0.22851734 166.30103876 -0.2299839 167.64602375 -0.2314949 C171.29651926 0.16907621 173.14408763 0.91830284 176.03556824 3.14044189 C178.85282057 7.36632039 178.83515207 11.17668878 178.03556824 16.14044189 C175.84533906 18.96468478 174.20539617 20.55552793 171.03556824 22.14044189 C168.71582632 22.24166247 166.39307966 22.27558821 164.07113647 22.28088379 C163.34608313 22.28385491 162.62102979 22.28682603 161.87400514 22.28988719 C159.43199837 22.2985943 156.9900405 22.30008413 154.54801941 22.30157471 C152.80216364 22.30620148 151.05630889 22.31122594 149.31045532 22.31661987 C144.55832386 22.32975986 139.80620654 22.33619199 135.05405974 22.34063053 C132.08674093 22.3435588 129.11942601 22.34766314 126.15210915 22.3521347 C116.87283253 22.3658141 107.59356478 22.37547848 98.31427878 22.3793366 C87.59394718 22.38381801 76.87374303 22.40136793 66.15345019 22.43033719 C57.87314281 22.451938 49.59287133 22.46204003 41.31253606 22.46337771 C36.36429501 22.46442693 31.41617371 22.47035942 26.46796227 22.48819733 C21.81323664 22.50465025 17.15872112 22.50684706 12.50397682 22.49805832 C10.79514631 22.49728644 9.08630464 22.50165048 7.37750244 22.51151657 C5.04506716 22.52419388 2.71338073 22.51838269 0.38095093 22.50793457 C-0.92447568 22.50940113 -2.22990229 22.51086769 -3.57488728 22.51237869 C-7.22538279 22.11180758 -9.07295116 21.36258095 -11.96443176 19.14044189 C-14.78168409 14.9145634 -14.7640156 11.10419501 -13.96443176 6.14044189 C-9.6398025 0.56394627 -6.80895989 0.01552896 0 0 Z " fill="#000000" transform="translate(269.9644317626953,404.85955810546875)"/>
<path d="M0 0 C0.72505334 -0.00297112 1.45010668 -0.00594224 2.19713134 -0.0090034 C4.63913811 -0.01771051 7.08109598 -0.01920034 9.52311707 -0.02069092 C11.26897283 -0.02531769 13.01482759 -0.03034215 14.76068115 -0.03573608 C19.51281261 -0.04887607 24.26492994 -0.0553082 29.01707673 -0.05974674 C31.98439554 -0.06267501 34.95171047 -0.06677935 37.91902733 -0.07125092 C47.19830394 -0.08493031 56.47757169 -0.09459469 65.75685769 -0.09845281 C76.4771893 -0.10293422 87.19739344 -0.12048414 97.91768628 -0.1494534 C106.19799367 -0.17105421 114.47826515 -0.18115624 122.75860041 -0.18249393 C127.70684146 -0.18354314 132.65496277 -0.18947563 137.60317421 -0.20731354 C142.25789983 -0.22376647 146.91241535 -0.22596327 151.56715965 -0.21717453 C153.27599016 -0.21640265 154.98483183 -0.22076669 156.69363403 -0.23063278 C159.02606932 -0.24331009 161.35775574 -0.2374989 163.69018555 -0.22705078 C164.99561215 -0.22851734 166.30103876 -0.2299839 167.64602375 -0.2314949 C171.29651926 0.16907621 173.14408763 0.91830284 176.03556824 3.14044189 C178.85282057 7.36632039 178.83515207 11.17668878 178.03556824 16.14044189 C175.84533906 18.96468478 174.20539617 20.55552793 171.03556824 22.14044189 C168.71582632 22.24166247 166.39307966 22.27558821 164.07113647 22.28088379 C163.34608313 22.28385491 162.62102979 22.28682603 161.87400514 22.28988719 C159.43199837 22.2985943 156.9900405 22.30008413 154.54801941 22.30157471 C152.80216364 22.30620148 151.05630889 22.31122594 149.31045532 22.31661987 C144.55832386 22.32975986 139.80620654 22.33619199 135.05405974 22.34063053 C132.08674093 22.3435588 129.11942601 22.34766314 126.15210915 22.3521347 C116.87283253 22.3658141 107.59356478 22.37547848 98.31427878 22.3793366 C87.59394718 22.38381801 76.87374303 22.40136793 66.15345019 22.43033719 C57.87314281 22.451938 49.59287133 22.46204003 41.31253606 22.46337771 C36.36429501 22.46442693 31.41617371 22.47035942 26.46796227 22.48819733 C21.81323664 22.50465025 17.15872112 22.50684706 12.50397682 22.49805832 C10.79514631 22.49728644 9.08630464 22.50165048 7.37750244 22.51151657 C5.04506716 22.52419388 2.71338073 22.51838269 0.38095093 22.50793457 C-0.92447568 22.50940113 -2.22990229 22.51086769 -3.57488728 22.51237869 C-7.22538279 22.11180758 -9.07295116 21.36258095 -11.96443176 19.14044189 C-14.78168409 14.9145634 -14.7640156 11.10419501 -13.96443176 6.14044189 C-9.6398025 0.56394627 -6.80895989 0.01552896 0 0 Z " fill="#000000" transform="translate(269.9644317626953,276.85955810546875)"/>
<path d="M0 0 C0.72505334 -0.00297112 1.45010668 -0.00594224 2.19713134 -0.0090034 C4.63913811 -0.01771051 7.08109598 -0.01920034 9.52311707 -0.02069092 C11.26897283 -0.02531769 13.01482759 -0.03034215 14.76068115 -0.03573608 C19.51281261 -0.04887607 24.26492994 -0.0553082 29.01707673 -0.05974674 C31.98439554 -0.06267501 34.95171047 -0.06677935 37.91902733 -0.07125092 C47.19830394 -0.08493031 56.47757169 -0.09459469 65.75685769 -0.09845281 C76.4771893 -0.10293422 87.19739344 -0.12048414 97.91768628 -0.1494534 C106.19799367 -0.17105421 114.47826515 -0.18115624 122.75860041 -0.18249393 C127.70684146 -0.18354314 132.65496277 -0.18947563 137.60317421 -0.20731354 C142.25789983 -0.22376647 146.91241535 -0.22596327 151.56715965 -0.21717453 C153.27599016 -0.21640265 154.98483183 -0.22076669 156.69363403 -0.23063278 C159.02606932 -0.24331009 161.35775574 -0.2374989 163.69018555 -0.22705078 C164.99561215 -0.22851734 166.30103876 -0.2299839 167.64602375 -0.2314949 C171.29651926 0.16907621 173.14408763 0.91830284 176.03556824 3.14044189 C178.85282057 7.36632039 178.83515207 11.17668878 178.03556824 16.14044189 C175.84533906 18.96468478 174.20539617 20.55552793 171.03556824 22.14044189 C168.71582632 22.24166247 166.39307966 22.27558821 164.07113647 22.28088379 C163.34608313 22.28385491 162.62102979 22.28682603 161.87400514 22.28988719 C159.43199837 22.2985943 156.9900405 22.30008413 154.54801941 22.30157471 C152.80216364 22.30620148 151.05630889 22.31122594 149.31045532 22.31661987 C144.55832386 22.32975986 139.80620654 22.33619199 135.05405974 22.34063053 C132.08674093 22.3435588 129.11942601 22.34766314 126.15210915 22.3521347 C116.87283253 22.3658141 107.59356478 22.37547848 98.31427878 22.3793366 C87.59394718 22.38381801 76.87374303 22.40136793 66.15345019 22.43033719 C57.87314281 22.451938 49.59287133 22.46204003 41.31253606 22.46337771 C36.36429501 22.46442693 31.41617371 22.47035942 26.46796227 22.48819733 C21.81323664 22.50465025 17.15872112 22.50684706 12.50397682 22.49805832 C10.79514631 22.49728644 9.08630464 22.50165048 7.37750244 22.51151657 C5.04506716 22.52419388 2.71338073 22.51838269 0.38095093 22.50793457 C-0.92447568 22.50940113 -2.22990229 22.51086769 -3.57488728 22.51237869 C-7.22538279 22.11180758 -9.07295116 21.36258095 -11.96443176 19.14044189 C-14.78168409 14.9145634 -14.7640156 11.10419501 -13.96443176 6.14044189 C-9.6398025 0.56394627 -6.80895989 0.01552896 0 0 Z " fill="#000000" transform="translate(269.9644317626953,148.85955810546875)"/>
<path d="M0 0 C1.09983067 -0.00551503 1.09983067 -0.00551503 2.22188014 -0.01114148 C4.69152144 -0.02220014 7.1611207 -0.02602583 9.63078308 -0.02983093 C11.39634333 -0.0360939 13.16190225 -0.04274055 14.92745972 -0.04974365 C19.73330427 -0.06716799 24.53913886 -0.07770915 29.34500718 -0.08594918 C32.34582776 -0.09109592 35.34664522 -0.09717177 38.34746361 -0.10346031 C47.73138927 -0.12251573 57.11530703 -0.13674655 66.49924833 -0.14507228 C77.34073754 -0.15484934 88.18202284 -0.18117964 99.02344018 -0.22157317 C107.39716417 -0.25170466 115.77082961 -0.2665383 124.14460677 -0.26985329 C129.14878132 -0.27220703 134.15273811 -0.28120944 139.15685463 -0.30631447 C143.86415258 -0.32954857 148.57108867 -0.33384727 153.27842903 -0.32355309 C155.00661674 -0.32305649 156.73482197 -0.32941332 158.46295547 -0.34310913 C160.82184979 -0.36075856 163.17943565 -0.35375728 165.53833008 -0.34057617 C166.22277232 -0.35154542 166.90721457 -0.36251466 167.61239749 -0.37381631 C172.30530533 -0.31047315 174.65682754 0.8508928 177.9596405 4.14717102 C179.70440621 7.63670244 179.53453183 11.34011289 178.9596405 15.14717102 C177.41788635 18.13200707 175.47651672 20.57944083 172.22858334 21.79506397 C169.10359767 22.28001646 166.06953797 22.27671972 162.90655518 22.28088379 C161.8409132 22.28428212 161.8409132 22.28428212 160.75374311 22.28774911 C158.37322168 22.29407925 155.99275732 22.29326038 153.61222839 22.29243469 C151.90548631 22.29542677 150.19874491 22.29882941 148.49200439 22.3026123 C143.85568615 22.31145084 139.21938636 22.31379034 134.5830605 22.31442809 C130.71367302 22.31537741 126.84428983 22.31905592 122.974904 22.32260019 C113.84717398 22.33074394 104.71945382 22.33318447 95.59172058 22.33247375 C86.17251932 22.33187274 76.75337529 22.34242948 67.33418852 22.35821742 C59.24916821 22.37128673 51.16416663 22.37665792 43.07913584 22.37601835 C38.24944354 22.37576321 33.4198021 22.37862308 28.59012032 22.3891964 C24.04866702 22.3988673 19.50731333 22.39896349 14.96585655 22.39167976 C13.29895508 22.39063272 11.63204743 22.39300391 9.96515656 22.39904022 C7.68988993 22.40674613 5.41496854 22.40212479 3.13970947 22.39440918 C1.22971208 22.39522633 1.22971208 22.39522633 -0.71887112 22.39605999 C-5.23715795 22.05749137 -7.97717727 21.09541463 -11.3528595 18.08467102 C-13.66660257 14.05704418 -13.88034166 10.69295685 -13.0403595 6.14717102 C-9.33770619 0.22292573 -6.72076493 0.02177415 0 0 Z " fill="#000000" transform="translate(269.0403594970703,447.8528289794922)"/>
<path d="M0 0 C1.09983067 -0.00551503 1.09983067 -0.00551503 2.22188014 -0.01114148 C4.69152144 -0.02220014 7.1611207 -0.02602583 9.63078308 -0.02983093 C11.39634333 -0.0360939 13.16190225 -0.04274055 14.92745972 -0.04974365 C19.73330427 -0.06716799 24.53913886 -0.07770915 29.34500718 -0.08594918 C32.34582776 -0.09109592 35.34664522 -0.09717177 38.34746361 -0.10346031 C47.73138927 -0.12251573 57.11530703 -0.13674655 66.49924833 -0.14507228 C77.34073754 -0.15484934 88.18202284 -0.18117964 99.02344018 -0.22157317 C107.39716417 -0.25170466 115.77082961 -0.2665383 124.14460677 -0.26985329 C129.14878132 -0.27220703 134.15273811 -0.28120944 139.15685463 -0.30631447 C143.86415258 -0.32954857 148.57108867 -0.33384727 153.27842903 -0.32355309 C155.00661674 -0.32305649 156.73482197 -0.32941332 158.46295547 -0.34310913 C160.82184979 -0.36075856 163.17943565 -0.35375728 165.53833008 -0.34057617 C166.22277232 -0.35154542 166.90721457 -0.36251466 167.61239749 -0.37381631 C172.30530533 -0.31047315 174.65682754 0.8508928 177.9596405 4.14717102 C179.70440621 7.63670244 179.53453183 11.34011289 178.9596405 15.14717102 C177.41788635 18.13200707 175.47651672 20.57944083 172.22858334 21.79506397 C169.10359767 22.28001646 166.06953797 22.27671972 162.90655518 22.28088379 C161.8409132 22.28428212 161.8409132 22.28428212 160.75374311 22.28774911 C158.37322168 22.29407925 155.99275732 22.29326038 153.61222839 22.29243469 C151.90548631 22.29542677 150.19874491 22.29882941 148.49200439 22.3026123 C143.85568615 22.31145084 139.21938636 22.31379034 134.5830605 22.31442809 C130.71367302 22.31537741 126.84428983 22.31905592 122.974904 22.32260019 C113.84717398 22.33074394 104.71945382 22.33318447 95.59172058 22.33247375 C86.17251932 22.33187274 76.75337529 22.34242948 67.33418852 22.35821742 C59.24916821 22.37128673 51.16416663 22.37665792 43.07913584 22.37601835 C38.24944354 22.37576321 33.4198021 22.37862308 28.59012032 22.3891964 C24.04866702 22.3988673 19.50731333 22.39896349 14.96585655 22.39167976 C13.29895508 22.39063272 11.63204743 22.39300391 9.96515656 22.39904022 C7.68988993 22.40674613 5.41496854 22.40212479 3.13970947 22.39440918 C1.22971208 22.39522633 1.22971208 22.39522633 -0.71887112 22.39605999 C-5.23715795 22.05749137 -7.97717727 21.09541463 -11.3528595 18.08467102 C-13.66660257 14.05704418 -13.88034166 10.69295685 -13.0403595 6.14717102 C-9.33770619 0.22292573 -6.72076493 0.02177415 0 0 Z " fill="#000000" transform="translate(269.0403594970703,319.8528289794922)"/>
<path d="M0 0 C1.09983067 -0.00551503 1.09983067 -0.00551503 2.22188014 -0.01114148 C4.69152144 -0.02220014 7.1611207 -0.02602583 9.63078308 -0.02983093 C11.39634333 -0.0360939 13.16190225 -0.04274055 14.92745972 -0.04974365 C19.73330427 -0.06716799 24.53913886 -0.07770915 29.34500718 -0.08594918 C32.34582776 -0.09109592 35.34664522 -0.09717177 38.34746361 -0.10346031 C47.73138927 -0.12251573 57.11530703 -0.13674655 66.49924833 -0.14507228 C77.34073754 -0.15484934 88.18202284 -0.18117964 99.02344018 -0.22157317 C107.39716417 -0.25170466 115.77082961 -0.2665383 124.14460677 -0.26985329 C129.14878132 -0.27220703 134.15273811 -0.28120944 139.15685463 -0.30631447 C143.86415258 -0.32954857 148.57108867 -0.33384727 153.27842903 -0.32355309 C155.00661674 -0.32305649 156.73482197 -0.32941332 158.46295547 -0.34310913 C160.82184979 -0.36075856 163.17943565 -0.35375728 165.53833008 -0.34057617 C166.22277232 -0.35154542 166.90721457 -0.36251466 167.61239749 -0.37381631 C172.30530533 -0.31047315 174.65682754 0.8508928 177.9596405 4.14717102 C179.70440621 7.63670244 179.53453183 11.34011289 178.9596405 15.14717102 C177.41788635 18.13200707 175.47651672 20.57944083 172.22858334 21.79506397 C169.10359767 22.28001646 166.06953797 22.27671972 162.90655518 22.28088379 C161.8409132 22.28428212 161.8409132 22.28428212 160.75374311 22.28774911 C158.37322168 22.29407925 155.99275732 22.29326038 153.61222839 22.29243469 C151.90548631 22.29542677 150.19874491 22.29882941 148.49200439 22.3026123 C143.85568615 22.31145084 139.21938636 22.31379034 134.5830605 22.31442809 C130.71367302 22.31537741 126.84428983 22.31905592 122.974904 22.32260019 C113.84717398 22.33074394 104.71945382 22.33318447 95.59172058 22.33247375 C86.17251932 22.33187274 76.75337529 22.34242948 67.33418852 22.35821742 C59.24916821 22.37128673 51.16416663 22.37665792 43.07913584 22.37601835 C38.24944354 22.37576321 33.4198021 22.37862308 28.59012032 22.3891964 C24.04866702 22.3988673 19.50731333 22.39896349 14.96585655 22.39167976 C13.29895508 22.39063272 11.63204743 22.39300391 9.96515656 22.39904022 C7.68988993 22.40674613 5.41496854 22.40212479 3.13970947 22.39440918 C1.22971208 22.39522633 1.22971208 22.39522633 -0.71887112 22.39605999 C-5.23715795 22.05749137 -7.97717727 21.09541463 -11.3528595 18.08467102 C-13.66660257 14.05704418 -13.88034166 10.69295685 -13.0403595 6.14717102 C-9.33770619 0.22292573 -6.72076493 0.02177415 0 0 Z " fill="#000000" transform="translate(269.0403594970703,191.8528289794922)"/>
<path d="M0 0 C0.66644531 0.41378906 1.33289063 0.82757813 2.01953125 1.25390625 C2.71691406 1.67800781 3.41429687 2.10210937 4.1328125 2.5390625 C10.5201771 6.85745025 14.41148161 12.45306166 17.39453125 19.50390625 C19.16269363 30.11288051 18.31937527 38.76997485 13.01953125 48.25390625 C10.54174256 51.71259273 8.1496623 54.13512136 4.58203125 56.44140625 C3.47021484 57.17423828 3.47021484 57.17423828 2.3359375 57.921875 C-5.64387558 62.51060394 -14.87166426 63.30663883 -23.79296875 61.19140625 C-32.79677495 58.30809131 -38.23904092 52.38104809 -43.66796875 44.94140625 C-47.53564345 37.02188186 -47.59189441 28.83084929 -45.98046875 20.25390625 C-43.84794351 14.18567807 -40.91409858 9.4474916 -35.98046875 5.25390625 C-35.25859375 4.57328125 -34.53671875 3.89265625 -33.79296875 3.19140625 C-23.87272673 -3.64253825 -10.97553377 -5.84411538 0 0 Z M-21.98046875 22.25390625 C-24.43712072 25.93888421 -24.68133366 28.97362411 -23.98046875 33.25390625 C-22.18682964 36.06394085 -20.9616594 37.76331093 -17.98046875 39.25390625 C-12.0828414 39.88446867 -12.0828414 39.88446867 -7.04296875 37.12890625 C-4.72788537 33.90182032 -3.98046875 32.21630471 -3.98046875 28.25390625 C-5.32634889 24.21626584 -6.35083003 22.64743045 -9.98046875 20.37890625 C-15.01188827 18.49212393 -17.45203458 19.65246534 -21.98046875 22.25390625 Z " fill="#000000" transform="translate(88.98046875,407.74609375)"/>
<path d="M0 0 C0.66644531 0.41378906 1.33289063 0.82757813 2.01953125 1.25390625 C2.71691406 1.67800781 3.41429687 2.10210937 4.1328125 2.5390625 C10.5201771 6.85745025 14.41148161 12.45306166 17.39453125 19.50390625 C19.16269363 30.11288051 18.31937527 38.76997485 13.01953125 48.25390625 C10.54174256 51.71259273 8.1496623 54.13512136 4.58203125 56.44140625 C3.47021484 57.17423828 3.47021484 57.17423828 2.3359375 57.921875 C-5.64387558 62.51060394 -14.87166426 63.30663883 -23.79296875 61.19140625 C-32.79677495 58.30809131 -38.23904092 52.38104809 -43.66796875 44.94140625 C-47.53564345 37.02188186 -47.59189441 28.83084929 -45.98046875 20.25390625 C-43.84794351 14.18567807 -40.91409858 9.4474916 -35.98046875 5.25390625 C-35.25859375 4.57328125 -34.53671875 3.89265625 -33.79296875 3.19140625 C-23.87272673 -3.64253825 -10.97553377 -5.84411538 0 0 Z M-21.98046875 22.25390625 C-24.43712072 25.93888421 -24.68133366 28.97362411 -23.98046875 33.25390625 C-22.18682964 36.06394085 -20.9616594 37.76331093 -17.98046875 39.25390625 C-12.0828414 39.88446867 -12.0828414 39.88446867 -7.04296875 37.12890625 C-4.72788537 33.90182032 -3.98046875 32.21630471 -3.98046875 28.25390625 C-5.32634889 24.21626584 -6.35083003 22.64743045 -9.98046875 20.37890625 C-15.01188827 18.49212393 -17.45203458 19.65246534 -21.98046875 22.25390625 Z " fill="#000000" transform="translate(88.98046875,279.74609375)"/>
<path d="M0 0 C0.66644531 0.41378906 1.33289063 0.82757813 2.01953125 1.25390625 C2.71691406 1.67800781 3.41429687 2.10210937 4.1328125 2.5390625 C10.5201771 6.85745025 14.41148161 12.45306166 17.39453125 19.50390625 C19.16269363 30.11288051 18.31937527 38.76997485 13.01953125 48.25390625 C10.54174256 51.71259273 8.1496623 54.13512136 4.58203125 56.44140625 C3.47021484 57.17423828 3.47021484 57.17423828 2.3359375 57.921875 C-5.64387558 62.51060394 -14.87166426 63.30663883 -23.79296875 61.19140625 C-32.79677495 58.30809131 -38.23904092 52.38104809 -43.66796875 44.94140625 C-47.53564345 37.02188186 -47.59189441 28.83084929 -45.98046875 20.25390625 C-43.84794351 14.18567807 -40.91409858 9.4474916 -35.98046875 5.25390625 C-35.25859375 4.57328125 -34.53671875 3.89265625 -33.79296875 3.19140625 C-23.87272673 -3.64253825 -10.97553377 -5.84411538 0 0 Z M-21.98046875 22.25390625 C-24.43712072 25.93888421 -24.68133366 28.97362411 -23.98046875 33.25390625 C-22.18682964 36.06394085 -20.9616594 37.76331093 -17.98046875 39.25390625 C-12.0828414 39.88446867 -12.0828414 39.88446867 -7.04296875 37.12890625 C-4.72788537 33.90182032 -3.98046875 32.21630471 -3.98046875 28.25390625 C-5.32634889 24.21626584 -6.35083003 22.64743045 -9.98046875 20.37890625 C-15.01188827 18.49212393 -17.45203458 19.65246534 -21.98046875 22.25390625 Z " fill="#000000" transform="translate(88.98046875,151.74609375)"/>
</svg>
