<?xml version="1.0" encoding="UTF-8"?>
<svg version="1.1" xmlns="http://www.w3.org/2000/svg" width="512" height="512">
<path d="M0 0 C1.7832288 -0.00697832 3.56645735 -0.01401928 5.34968567 -0.02111816 C11.01698108 -0.0403973 16.68423787 -0.04529362 22.3515625 -0.046875 C23.31548038 -0.04746414 24.27939827 -0.04805328 25.27252579 -0.04866028 C53.18557208 -0.06071143 80.95880904 0.09486786 108.75177002 2.97528076 C111.02353683 3.20793571 113.29631233 3.42622455 115.56982422 3.64111328 C228.19568898 14.37709924 228.19568898 14.37709924 256.56640625 47.30859375 C260.85184634 53.06604097 261.10103962 59.04767915 261.10519695 66.07230949 C261.10694999 66.74205502 261.10870303 67.41180055 261.11050919 68.10184139 C261.11515788 70.34410935 261.11270661 72.58631214 261.11027527 74.82858276 C261.11214381 76.45323143 261.11444468 78.07787966 261.11714059 79.70252717 C261.12325963 84.16575138 261.12312487 88.62895686 261.12194622 93.09218431 C261.12174224 97.90618571 261.12726066 102.72018109 261.13200378 107.53417969 C261.14031127 116.96491167 261.14305866 126.3956374 261.14361616 135.82637273 C261.14409124 143.49111305 261.14614557 151.15585131 261.14931679 158.82059097 C261.15812333 180.54760401 261.16273612 202.27461211 261.16198631 224.00162695 C261.16192638 225.75870003 261.16192638 225.75870003 261.16186523 227.55126953 C261.16182435 228.72408026 261.16178347 229.89689099 261.16174135 231.10524143 C261.1613348 250.11751828 261.17090678 269.12977532 261.1850036 288.14204644 C261.19936118 307.65985061 261.20627414 327.17764513 261.20540982 346.69545472 C261.20507766 357.65480582 261.20783333 368.61413616 261.21858788 379.57348251 C261.2276847 388.9033612 261.22987483 398.23320971 261.22307845 407.56309091 C261.21980923 412.3235212 261.21977111 417.08389358 261.2284317 421.84431839 C261.23627971 426.20289589 261.23488267 430.56136939 261.22614757 434.9199443 C261.22460884 436.49594039 261.22644275 438.07194418 261.23200765 439.6479312 C261.27330009 452.17240645 260.74582571 461.13917609 251.8515625 470.703125 C247.70356891 474.71845355 243.02810703 477.46304479 237.9765625 480.203125 C237.22890625 480.62335938 236.48125 481.04359375 235.7109375 481.4765625 C182.51260538 509.88519564 107.60573917 512.27816625 48.296875 512.40625 C47.38640285 512.40907738 46.47593071 512.41190475 45.5378685 512.41481781 C40.69549031 512.42969311 35.85314089 512.43898937 31.01074219 512.44335938 C27.1177404 512.44769055 23.22496694 512.46138831 19.33203125 512.484375 C-2.02809568 512.60774327 -23.27444386 512.31828232 -44.58984375 510.8359375 C-45.91673281 510.74421642 -45.91673281 510.74421642 -47.2704277 510.6506424 C-174.6575216 501.6332864 -174.6575216 501.6332864 -207.2109375 467.3359375 C-212.60674504 460.98656052 -213.14729706 454.4020512 -213.15207195 446.33394051 C-213.15382499 445.66419498 -213.15557803 444.99444945 -213.15738419 444.30440861 C-213.16203288 442.06214065 -213.15958161 439.81993786 -213.15715027 437.57766724 C-213.15901881 435.95301857 -213.16131968 434.32837034 -213.16401559 432.70372283 C-213.17013463 428.24049862 -213.16999987 423.77729314 -213.16882122 419.31406569 C-213.16861724 414.50006429 -213.17413566 409.68606891 -213.17887878 404.87207031 C-213.18718627 395.44133833 -213.18993366 386.0106126 -213.19049116 376.57987727 C-213.19096624 368.91513695 -213.19302057 361.25039869 -213.19619179 353.58565903 C-213.20499833 331.85864599 -213.20961112 310.13163789 -213.20886131 288.40462305 C-213.20882136 287.233241 -213.2087814 286.06185895 -213.20874023 284.85498047 C-213.20869935 283.68216974 -213.20865847 282.50935901 -213.20861635 281.30100857 C-213.2082098 262.28873172 -213.21778178 243.27647468 -213.2318786 224.26420356 C-213.24623618 204.74639939 -213.25314914 185.22860487 -213.25228482 165.71079528 C-213.25195266 154.75144418 -213.25470833 143.79211384 -213.26546288 132.83276749 C-213.2745597 123.5028888 -213.27674983 114.17304029 -213.26995345 104.84315909 C-213.26668423 100.0827288 -213.26664611 95.32235642 -213.2753067 90.56193161 C-213.28315471 86.20335411 -213.28175767 81.84488061 -213.27302257 77.4863057 C-213.27148384 75.91030961 -213.27331775 74.33430582 -213.27888265 72.7583188 C-213.31811497 60.85870127 -213.10508183 51.96050759 -204.7734375 42.703125 C-189.85852042 29.14410948 -166.97762152 19.23762708 -146.8984375 16.828125 C-143.05011451 17.33008017 -141.53971863 18.24279426 -139.0234375 21.203125 C-138.3083282 24.01742613 -138.10443451 26.43530423 -139.0234375 29.203125 C-142.61920523 32.54216972 -145.88198267 34.07371496 -150.546875 35.5 C-151.82200153 35.90115769 -153.09698 36.30278623 -154.37182617 36.70483398 C-155.03072845 36.90857635 -155.68963074 37.11231873 -156.36849976 37.32223511 C-175.71173482 42.95624789 -175.71173482 42.95624789 -192.0234375 54.203125 C-192.6834375 54.203125 -193.3434375 54.203125 -194.0234375 54.203125 C-194.91822658 57.285953 -195.3472558 59.99578189 -195.0234375 63.203125 C-185.96222363 77.94679502 -156.52062657 83.69846481 -141.11108398 87.51977539 C-114.85272123 93.7368798 -87.89243271 97.86523018 -61.0234375 100.203125 C-59.56391565 100.33931755 -58.1044452 100.47606181 -56.64501953 100.61328125 C-2.07236958 105.64653233 54.43607786 105.54804449 108.9765625 100.203125 C109.75598206 100.12815796 110.53540161 100.05319092 111.33843994 99.97595215 C181.05724214 95.05607633 181.05724214 95.05607633 241.75 64.86328125 C243.23206496 63.10529831 243.23206496 63.10529831 243.6015625 60.015625 C243.00452934 57.32897579 242.57356939 55.43893465 240.9765625 53.203125 C239.65497402 52.51346848 238.31844068 51.8524209 236.9765625 51.203125 C236.07808594 50.66558594 235.17960937 50.12804688 234.25390625 49.57421875 C199.7084835 29.57423716 156.09024403 24.96392828 116.9765625 21.015625 C115.81877792 20.89740387 115.81877792 20.89740387 114.63760376 20.77679443 C108.75578543 20.1846677 102.86882754 19.67909499 96.9765625 19.203125 C95.9116156 19.11452209 94.8466687 19.02591919 93.74945068 18.93463135 C72.34243325 17.19974536 51.02934715 16.88820697 29.56201172 16.94238281 C25.0191788 16.95375919 20.47658076 16.94699755 15.93375587 16.93550873 C-13.0599137 16.873254 -41.82483846 17.85367364 -70.6484375 21.203125 C-72.15356647 21.37050685 -73.65877582 21.53716747 -75.1640625 21.703125 C-80.84860917 22.33681723 -86.52865132 22.98676834 -92.19433594 23.7734375 C-92.86451752 23.86625 -93.5346991 23.9590625 -94.22518921 24.0546875 C-96.04070457 24.3097004 -97.85511917 24.57251617 -99.66943359 24.8359375 C-109.10332891 25.86873547 -109.10332891 25.86873547 -112.9609375 23.078125 C-115.0234375 20.203125 -115.0234375 20.203125 -115.6484375 17.203125 C-114.80106249 13.13572497 -113.20999672 11.82904387 -110.0234375 9.203125 C-106.63061523 8.22412109 -106.63061523 8.22412109 -102.70703125 7.7265625 C-101.63211929 7.58273636 -101.63211929 7.58273636 -100.53549194 7.43600464 C-98.17953506 7.12780665 -95.82110691 6.85204119 -93.4609375 6.578125 C-91.8087221 6.3716929 -90.15662376 6.16432186 -88.50463867 5.95605469 C-59.15353004 2.33721418 -29.57633604 0.07215365 0 0 Z M-197.0234375 84.203125 C-197.11696363 98.05050089 -197.18719101 111.89782766 -197.23068619 125.74545479 C-197.25156162 132.1754667 -197.27987918 138.60526645 -197.32519531 145.03515625 C-197.36865355 151.24025432 -197.39257494 157.4451483 -197.40294647 163.65038681 C-197.41033779 166.0178842 -197.42477121 168.3853704 -197.44635773 170.75278091 C-197.47539044 174.06866861 -197.47939342 177.3837127 -197.47753906 180.69970703 C-197.49192017 181.6786644 -197.50630127 182.65762177 -197.52111816 183.66624451 C-197.47979659 190.49395327 -196.23297905 193.83920044 -191.48046875 198.8203125 C-153.84178543 227.60809404 -91.51712764 229.55441493 -46.0234375 233.203125 C-45.28099792 233.26371094 -44.53855835 233.32429687 -43.77362061 233.38671875 C1.6767711 237.05094427 48.53586245 236.91126167 93.9765625 233.203125 C95.15789764 233.10837891 95.15789764 233.10837891 96.36309814 233.01171875 C140.68317295 229.42488172 190.21344308 225.17116765 230.3515625 204.703125 C231.03581299 204.35975098 231.72006348 204.01637695 232.42504883 203.66259766 C237.82531015 200.74576689 242.20046418 196.75532163 244.9765625 191.203125 C245.06846087 189.77129677 245.09849708 188.33525552 245.09681702 186.90048218 C245.09819168 185.99741837 245.09956635 185.09435455 245.10098267 184.16392517 C245.09738739 183.1705867 245.09379211 182.17724823 245.09008789 181.15380859 C245.09030693 179.58792244 245.09030693 179.58792244 245.0905304 177.99040222 C245.08983172 174.52743477 245.08204141 171.0645206 245.07421875 167.6015625 C245.07235441 165.20545481 245.07093058 162.80934673 245.06993103 160.41323853 C245.06610711 154.09703525 245.05627788 147.78085486 245.04522705 141.46466064 C245.03501024 135.02331858 245.03043283 128.58197283 245.02539062 122.140625 C245.01465552 109.49478189 244.99777195 96.84895466 244.9765625 84.203125 C243.82451324 84.75157578 242.67246399 85.30002655 241.48550415 85.86509705 C239.9508423 86.59239523 238.41612027 87.31956643 236.88134766 88.04663086 C236.12479385 88.40721336 235.36824005 88.76779587 234.58876038 89.13930511 C228.30765839 92.10987319 221.95946403 94.60900189 215.3515625 96.765625 C213.64830811 97.3239502 213.64830811 97.3239502 211.91064453 97.89355469 C181.27656501 107.63413376 149.40661621 112.02678284 117.5390625 115.390625 C116.8071167 115.46952972 116.0751709 115.54843445 115.32104492 115.62973022 C86.63235495 118.68002488 57.92848276 119.54137627 29.09960938 119.46386719 C24.83155072 119.45247376 20.56374168 119.45926909 16.29569149 119.47074413 C-12.42758138 119.53619245 -41.01168415 118.47096725 -69.5859375 115.390625 C-70.38153076 115.30664459 -71.17712402 115.22266418 -71.99682617 115.13613892 C-104.29949184 111.70749064 -136.4375663 106.91456958 -167.3984375 96.765625 C-168.93733643 96.26337402 -168.93733643 96.26337402 -170.50732422 95.75097656 C-176.8508147 93.57228055 -182.8815042 90.9285685 -188.92822266 88.04663086 C-189.70982254 87.67636528 -190.49142242 87.3060997 -191.29670715 86.92461395 C-193.20658709 86.01949456 -195.11514909 85.11159506 -197.0234375 84.203125 Z M-197.0234375 215.203125 C-197.11696363 229.05050089 -197.18719101 242.89782766 -197.23068619 256.74545479 C-197.25156162 263.1754667 -197.27987918 269.60526645 -197.32519531 276.03515625 C-197.36865355 282.24025432 -197.39257494 288.4451483 -197.40294647 294.65038681 C-197.41033779 297.0178842 -197.42477121 299.3853704 -197.44635773 301.75278091 C-197.47539044 305.06866861 -197.47939342 308.3837127 -197.47753906 311.69970703 C-197.49192017 312.6786644 -197.50630127 313.65762177 -197.52111816 314.66624451 C-197.48573276 320.51309863 -196.84972885 323.71488424 -193.0234375 328.203125 C-139.35436611 378.02383274 -6.47014283 368.21392092 60.66513062 365.79296875 C157.71643867 364.19247012 157.71643867 364.19247012 242.9765625 326.203125 C245.72580034 321.41360532 245.24317677 316.2597315 245.20361328 310.9050293 C245.20405136 309.35311638 245.20405136 309.35311638 245.20449829 307.76985168 C245.20310674 304.35559659 245.18755354 300.94156065 245.171875 297.52734375 C245.16814425 295.15794494 245.16529757 292.78854458 245.16329956 290.41914368 C245.15566798 284.18679536 245.13602346 277.95454045 245.1138916 271.722229 C245.09342301 265.36105615 245.08429567 258.99986818 245.07421875 252.63867188 C245.05277722 240.16011524 245.0186469 227.68162789 244.9765625 215.203125 C242.27795197 216.26154846 239.68118341 217.35081454 237.0859375 218.6484375 C189.88793582 242.24743834 131.04056749 246.41267526 78.9765625 249.203125 C77.82948822 249.26667679 77.82948822 249.26667679 76.65924072 249.33151245 C59.43461902 250.2635214 42.22298094 250.40539769 24.9765625 250.390625 C24.27587646 250.39035812 23.57519043 250.39009125 22.85327148 250.38981628 C-135.05745315 250.31452866 -135.05745315 250.31452866 -191.9375 216.9609375 C-194.72116613 215.03814034 -194.72116613 215.03814034 -197.0234375 215.203125 Z M-197.0234375 345.203125 C-197.09355135 359.06780118 -197.14623776 372.93244982 -197.17887402 386.79726696 C-197.19453693 393.23510571 -197.21578696 399.67282545 -197.24975586 406.1105957 C-197.28232649 412.32216374 -197.3002858 418.53361722 -197.30806923 424.74526405 C-197.31361683 427.11636471 -197.32444976 429.48745902 -197.34062767 431.85851097 C-197.36237097 435.17688982 -197.36540566 438.49479392 -197.36401367 441.81323242 C-197.3747995 442.79578506 -197.38558533 443.77833771 -197.396698 444.79066467 C-197.36908894 450.86404959 -196.51964633 454.20092789 -192.578125 458.94140625 C-159.48536067 489.95625282 -90.87552589 490.86399015 -48.0703125 494.44140625 C-47.32142258 494.50466599 -46.57253265 494.56792572 -45.8009491 494.63310242 C-30.70718322 495.84508963 -15.66518072 496.37319547 -0.52734375 496.40625 C0.82368785 496.41049107 0.82368785 496.41049107 2.20201302 496.41481781 C6.99136757 496.42968989 11.78069307 496.43898844 16.57006836 496.44335938 C20.42140445 496.4476924 24.27250996 496.46139814 28.1237793 496.484375 C141.51598398 499.47903259 141.51598398 499.47903259 241.3515625 458.390625 C244.41460218 455.08411294 245.10202969 452.22664088 245.09681702 447.78022766 C245.09819168 446.87578918 245.09956635 445.97135071 245.10098267 445.039505 C245.09738739 444.04976181 245.09379211 443.06001862 245.09008789 442.0402832 C245.09030693 440.47417801 245.09030693 440.47417801 245.0905304 438.87643433 C245.08983268 435.41890397 245.08204681 431.96142722 245.07421875 428.50390625 C245.07235407 426.1092278 245.0709304 423.71454896 245.06993103 421.31987 C245.06610978 415.01190135 245.05628281 408.70395566 245.04522705 402.39599609 C245.03500452 395.96126618 245.0304316 389.52653256 245.02539062 383.09179688 C245.01466022 370.46222978 244.99778024 357.83267861 244.9765625 345.203125 C244.1675244 345.5897111 244.1675244 345.5897111 243.34214211 345.98410702 C240.86522306 347.16634516 238.38697081 348.34576285 235.90869141 349.52514648 C235.06041275 349.93054405 234.21213409 350.33594162 233.33815002 350.75362396 C222.70891789 355.80605893 212.02472023 359.74598277 200.6015625 362.640625 C199.44293701 362.93501465 198.28431152 363.2294043 197.09057617 363.53271484 C156.65657149 373.57980513 115.48237174 377.73993257 73.9765625 380.203125 C72.80689941 380.27515137 71.63723633 380.34717773 70.43212891 380.42138672 C-12.29394974 385.29675512 -116.61784894 385.45116028 -192.25048828 347.59228516 C-193.14583282 347.14422516 -194.04117737 346.69616516 -194.96365356 346.23452759 C-195.64338226 345.89416473 -196.32311096 345.55380188 -197.0234375 345.203125 Z " fill="#000000" transform="translate(232.0234375,-0.203125)"/>
<path d="M0 0 C4.6999436 0.73967045 9.34290323 1.71761357 14 2.6875 C42.929617 8.46512767 72.55207251 11.51210877 102 13 C102.77193695 13.04130035 103.5438739 13.08260071 104.33920288 13.12515259 C120.70709124 13.98903115 137.04877766 14.19706052 153.4375 14.1875 C154.7158371 14.1882251 155.99417419 14.1889502 157.31124878 14.18969727 C177.03579962 14.18846848 196.66258695 13.65059748 216.34765625 12.4375 C233.14469443 11.41839221 233.14469443 11.41839221 237.125 14.125 C239.35696906 17.54735256 239.83328611 19.00022668 239 23 C236.9074624 26.03213692 235.18598282 27.72421193 231.5390625 28.57226562 C228.41976099 28.91814736 225.3227073 29.10909181 222.1875 29.25 C221.17107422 29.31445312 220.15464844 29.37890625 219.10742188 29.4453125 C216.14348419 29.62332678 213.17964606 29.76923427 210.21328735 29.8999939 C207.72989157 30.01220469 205.24723978 30.13701028 202.7644043 30.26098633 C186.98744499 31.01703068 171.2310024 31.20131647 155.4375 31.1875 C154.1497467 31.18689575 152.86199341 31.1862915 151.53521729 31.18566895 C129.63377418 31.15793747 107.83764653 30.70232567 86 29 C85.18541321 28.93683594 84.37082642 28.87367188 83.53155518 28.80859375 C63.75323159 27.25185382 44.10100282 25.07826742 24.5 22 C23.73283661 21.88047974 22.96567322 21.76095947 22.17526245 21.63781738 C17.10113651 20.83788618 12.04633857 19.95964274 7 19 C6.22688477 18.85449707 5.45376953 18.70899414 4.65722656 18.55908203 C2.31759592 18.10620392 -0.01299493 17.62136335 -2.34375 17.125 C-3.05366089 16.98779541 -3.76357178 16.85059082 -4.49499512 16.70922852 C-7.98746646 15.92520866 -9.89188478 15.10479776 -12.48242188 12.59375 C-14 10 -14 10 -13.9375 6.375 C-11.79286945 -1.34566999 -7.01737811 -0.63804798 0 0 Z " fill="#000000" transform="translate(100,284)"/>
<path d="M0 0 C1.82096191 0.36774536 1.82096191 0.36774536 3.67871094 0.74291992 C4.64665588 0.9404335 4.64665588 0.9404335 5.63415527 1.14193726 C25.52577908 5.15603746 45.54845513 7.75800347 65.72265625 9.86328125 C66.51327454 9.94791626 67.30389282 10.03255127 68.11846924 10.11975098 C96.32599339 13.11546173 124.57771669 13.12673643 152.91015625 13.11328125 C154.29453573 13.11298101 154.29453573 13.11298101 155.70688248 13.11267471 C161.10843434 13.11034953 166.50987426 13.09928511 171.91138077 13.07679939 C173.57209946 13.07000875 175.23282365 13.06442636 176.89355087 13.06020927 C186.63804329 13.0309467 196.32199839 12.74274952 206.04576111 12.09472656 C211.06466402 11.77880742 216.06991873 11.64393819 221.09765625 11.61328125 C221.99742187 11.59265625 222.8971875 11.57203125 223.82421875 11.55078125 C225.11585938 11.54304687 225.11585938 11.54304687 226.43359375 11.53515625 C227.18946777 11.52581055 227.9453418 11.51646484 228.72412109 11.50683594 C231.27286063 11.96141201 232.11860767 12.8750113 233.72265625 14.86328125 C235.14307446 17.70411766 235.03717897 19.71805403 234.72265625 22.86328125 C232.32764708 26.0281148 230.53976289 27.13615026 226.72265625 27.86328125 C222.02182246 28.35032348 217.30266869 28.61744965 212.5859375 28.90625 C211.86762568 28.95049795 211.14931385 28.9947459 210.409235 29.0403347 C191.8417911 30.15231499 173.27468804 30.21855595 154.67950821 30.18113708 C151.86701575 30.17569782 149.0545317 30.17332994 146.24203491 30.17126465 C119.73070162 30.14092861 93.33586187 29.84850065 66.94213867 27.09436035 C64.67631539 26.85845652 62.40962033 26.63304198 60.14257812 26.40917969 C40.52991369 24.44813561 21.07095584 21.64401921 1.72265625 17.86328125 C0.37131592 17.6003125 0.37131592 17.6003125 -1.00732422 17.33203125 C-13.27555818 14.8634379 -13.27555818 14.8634379 -16.6796875 11.46484375 C-18.27734375 8.86328125 -18.27734375 8.86328125 -18.27734375 5.23828125 C-17.27734375 1.86328125 -17.27734375 1.86328125 -15.65234375 -0.07421875 C-10.6750032 -2.30092373 -5.17545673 -1.0827731 0 0 Z " fill="#000000" transform="translate(104.27734375,156.13671875)"/>
<path d="M0 0 C4.22603611 0.65323981 8.4085022 1.47361186 12.59649658 2.33578491 C29.6199925 5.81193822 46.718964 8.22944145 64 10 C64.68398865 10.07047546 65.36797729 10.14095093 66.07269287 10.21356201 C83.14670571 11.95065767 100.20346096 13.00296946 117.359375 13.48828125 C118.70708825 13.52757222 120.05480045 13.56689925 121.4025116 13.60626221 C126.79425433 13.76124957 132.18568992 13.91504574 137.57876587 14.01568604 C141.36683521 14.08759559 145.15388566 14.18125534 148.94140625 14.27734375 C150.08554993 14.29090408 151.2296936 14.30446442 152.4085083 14.31843567 C160.23273601 14.54134443 160.23273601 14.54134443 164.2121582 16.92016602 C166.13765106 19.16013237 166.68200933 20.08112219 166.625 23 C166.63789063 23.66 166.65078125 24.32 166.6640625 25 C165.61690142 28.15380278 163.74350232 29.20461304 161 31 C157.65478516 31.48583984 157.65478516 31.48583984 153.7890625 31.4609375 C153.08165421 31.46092743 152.37424591 31.46091736 151.645401 31.46090698 C149.3045608 31.45384562 146.96548008 31.41575485 144.625 31.375 C142.96460514 31.35848377 141.30420446 31.34254402 139.64379883 31.32714844 C97.22226489 30.82259153 54.77674513 27.50689289 13 20 C11.25130615 19.68844971 11.25130615 19.68844971 9.46728516 19.37060547 C6.22139009 18.77727979 2.98521599 18.1488002 -0.25 17.5 C-1.19109619 17.32283447 -2.13219238 17.14566895 -3.10180664 16.96313477 C-7.22109218 16.08128678 -9.47409152 15.48896125 -12.61328125 12.5703125 C-14.55072591 8.9792179 -14.07486916 6.86952898 -13 3 C-9.56623283 -1.48921243 -5.18465007 -0.47209277 0 0 Z " fill="#000000" transform="translate(100,415)"/>
<path d="M0 0 C6.42927552 6.17003054 10.28960394 12.60578962 10.9921875 21.6171875 C11.02029926 30.19127336 8.25312791 37.25596217 3 44 C-3.05082112 50.05082112 -10.37404672 53.02052286 -18.875 53.4375 C-27.45207618 53.11785741 -35.06065684 49.97672666 -41.27734375 44.06640625 C-47.40249236 36.71900577 -49.79410432 28.39690117 -49 19 C-47.51755711 10.87169024 -44.32840712 4.36404698 -37.73828125 -0.7578125 C-25.95191908 -8.41802276 -11.19223051 -9.55198983 0 0 Z M-31.9375 16.6875 C-33.35197764 21.09734204 -33.30298612 24.55872415 -32 29 C-30.20240678 32.25640926 -27.89777071 34.42642427 -24.75 36.4375 C-19.52698073 37.50584485 -14.85477013 36.96770615 -10.125 34.5 C-7.13315621 30.98018378 -5.76287682 27.54643758 -5 23 C-5.46394107 18.43791283 -6.83755442 15.76990926 -10 12.5625 C-13.75019715 9.64220034 -16.95718034 9.23421875 -21.6328125 9.546875 C-26.51544168 10.48150369 -29.09424742 12.74363352 -31.9375 16.6875 Z " fill="#000000" transform="translate(414,271)"/>
<path d="M0 0 C7.07359602 4.63395501 12.51269511 9.75863574 14.77734375 18.0859375 C16.76880102 27.81918491 15.6697344 35.76548547 10.49609375 44.29296875 C5.8704826 50.70239271 -0.34089478 54.40661464 -7.97265625 56.328125 C-18.03564756 57.48374594 -25.97886902 55.5841324 -33.97265625 49.328125 C-39.98252252 43.84412203 -43.15172997 36.97314618 -44.3203125 28.9375 C-44.66147862 20.452847 -41.47473947 11.78118556 -35.97265625 5.328125 C-25.96849028 -3.01176197 -12.00787099 -6.3505314 0 0 Z M-25.97265625 19.328125 C-28.30293664 23.09008093 -28.17443222 25.79341649 -27.58203125 30.07421875 C-26.40344206 34.43348774 -23.73124357 36.99402427 -20.16015625 39.703125 C-15.03980862 41.16608146 -11.31910703 41.01405276 -6.66015625 38.640625 C-3.25832674 35.71346938 -1.60305827 33.17083859 -0.16015625 28.953125 C0.10482555 25.24337982 -0.55861588 22.77100589 -1.97265625 19.328125 C-5.47625073 15.52199172 -8.98071579 13.18481009 -14.16015625 12.890625 C-19.56417012 12.93420576 -22.59652043 15.25057592 -25.97265625 19.328125 Z " fill="#000000" transform="translate(408.97265625,396.671875)"/>
<path d="M0 0 C6.42927552 6.17003054 10.28960394 12.60578962 10.9921875 21.6171875 C11.02029926 30.19127336 8.25312791 37.25596217 3 44 C-3.05082112 50.05082112 -10.37404672 53.02052286 -18.875 53.4375 C-27.45207618 53.11785741 -35.06065684 49.97672666 -41.27734375 44.06640625 C-47.40249236 36.71900577 -49.79410432 28.39690117 -49 19 C-47.51755711 10.87169024 -44.32840712 4.36404698 -37.73828125 -0.7578125 C-25.95191908 -8.41802276 -11.19223051 -9.55198983 0 0 Z M-29.875 14.125 C-32.73728974 17.99750964 -33.28645506 21.23136574 -33 26 C-31.40594023 30.69362043 -29.28109703 33.48718218 -25 36 C-20.37871513 37.34642698 -16.46614926 37.63754813 -12.125 35.375 C-8.282506 32.45470456 -6.7278078 30.12743819 -5.1875 25.625 C-4.8735534 21.22974754 -5.57260566 17.67906651 -8.484375 14.25390625 C-15.84730796 7.46111191 -21.88578592 8.21992872 -29.875 14.125 Z " fill="#000000" transform="translate(414,142)"/>
<path d="M0 0 C1.44430855 2.88861709 1.37688506 4.79647701 1 8 C-1.08364384 11.00870986 -2.80491775 12.70973128 -6.41943359 13.58764648 C-9.40734617 13.94957223 -12.36912683 14.15974556 -15.375 14.3125 C-16.97843262 14.41522217 -16.97843262 14.41522217 -18.61425781 14.52001953 C-21.74211563 14.70825713 -24.86968359 14.85939842 -28 15 C-29.24861816 15.06791748 -29.24861816 15.06791748 -30.52246094 15.13720703 C-42.02062674 15.73331584 -42.02062674 15.73331584 -45.36328125 13.23046875 C-48.02098562 9.60863296 -47.4902701 7.4124309 -47 3 C-45.18836733 0.32568511 -44.12238923 0.04079641 -41 -1 C-38.95825901 -1.21790746 -36.91146204 -1.38974183 -34.86328125 -1.53515625 C-33.03700195 -1.66567383 -33.03700195 -1.66567383 -31.17382812 -1.79882812 C-29.2624707 -1.9293457 -29.2624707 -1.9293457 -27.3125 -2.0625 C-26.05759766 -2.15337891 -24.80269531 -2.24425781 -23.50976562 -2.33789062 C-4.64432701 -3.65916674 -4.64432701 -3.65916674 0 0 Z " fill="#000000" transform="translate(338,430)"/>
</svg>
