<?xml version="1.0" encoding="UTF-8"?>
<svg version="1.1" xmlns="http://www.w3.org/2000/svg" width="512" height="512">
<path d="M0 0 C1.45740918 -0.00374221 2.91481636 -0.008346 4.3722204 -0.01373065 C8.3549175 -0.02590571 12.33753025 -0.0257067 16.32024169 -0.02334189 C20.62444701 -0.02293233 24.92862578 -0.03398624 29.2328186 -0.04345703 C37.65769831 -0.06003823 46.08255003 -0.06556529 54.50744469 -0.06668179 C61.35966662 -0.06763371 68.21187935 -0.07175118 75.06409836 -0.07808304 C94.51345599 -0.09568822 113.96279159 -0.10492314 133.41215725 -0.10342209 C134.98346549 -0.10330222 134.98346549 -0.10330222 136.58651733 -0.10317993 C138.1597558 -0.10305729 138.1597558 -0.10305729 139.76477687 -0.10293217 C156.75386826 -0.10211966 173.74287091 -0.12125049 190.73193665 -0.14945666 C208.19780847 -0.17822441 225.66363707 -0.19199479 243.12953317 -0.19026911 C252.92656922 -0.18960652 262.72351225 -0.19504145 272.52052689 -0.21662521 C280.86343515 -0.23488835 289.20620824 -0.23914242 297.54912789 -0.22560637 C301.80028358 -0.2191023 306.05118032 -0.21886604 310.30231094 -0.23631287 C314.2048317 -0.25216326 318.10689081 -0.24905976 322.00940113 -0.2317446 C323.41045647 -0.22870075 324.81154731 -0.23220667 326.21256073 -0.24346475 C345.47540374 -0.38782579 362.40104683 4.66508222 376.46591187 18.26742554 C379.43564647 21.7644497 382.0158229 25.39151283 384.46591187 29.26742554 C384.87454468 29.89906616 385.28317749 30.53070679 385.70419312 31.18148804 C392.0441688 42.29480449 393.05805375 56.0670679 392.97384644 68.52304077 C392.97847022 69.98563218 392.98483294 71.44821891 392.99275541 72.91079617 C393.00926941 76.88004387 393.00128542 80.848901 392.98881054 84.81814909 C392.97968787 89.11817124 392.99376522 93.41813039 393.00473022 97.71813965 C393.02244367 106.12218572 393.01870763 114.52608826 393.00707966 122.93013978 C392.99801722 129.76506358 392.99683345 136.59994739 393.00117493 143.43487549 C393.00178786 144.41056596 393.00240079 145.38625644 393.0030323 146.39151329 C393.0043113 148.37409505 393.00560815 150.35667681 393.00692266 152.33925855 C393.01830744 170.89575159 393.00524782 189.45216538 392.9837212 208.00864542 C392.96585214 223.90386439 392.96895684 239.79896648 392.98739624 255.69418335 C393.00884017 274.1878314 393.017209 292.68141011 393.00494719 311.17506886 C393.00367309 313.15003775 393.00241561 315.12500667 393.00117493 317.09997559 C393.00024927 318.55726134 393.00024927 318.55726134 392.99930492 320.04398721 C392.99586258 326.86448589 393.00165621 333.68494031 393.01109314 340.50543213 C393.02235374 348.82625096 393.01918817 357.14691901 392.99797016 365.46772075 C392.98751411 369.7067562 392.98324399 373.94554097 392.99656677 378.18457413 C393.00861068 382.07576969 393.00173411 385.96648557 392.98065656 389.85763848 C392.97417176 391.90890499 392.98701836 393.96020562 393.00088549 396.01143551 C392.85457671 413.61607903 387.9754432 430.26136736 375.63388062 443.27133179 C371.86735592 446.73924912 367.81465425 449.57936795 363.46591187 452.26742554 C362.85489624 452.65672241 362.24388062 453.04601929 361.61434937 453.44711304 C350.42591228 459.80529975 336.75464658 460.86016488 324.21029663 460.77536011 C322.74770523 460.7799839 321.28511849 460.78634661 319.82254124 460.79426908 C315.85329353 460.81078308 311.8844364 460.80279909 307.91518831 460.79032421 C303.61516616 460.78120154 299.31520701 460.79527889 295.01519775 460.8062439 C286.61115168 460.82395734 278.20724914 460.8202213 269.80319762 460.80859333 C262.96827382 460.79953089 256.13339001 460.79834712 249.29846191 460.8026886 C248.32277144 460.80330153 247.34708097 460.80391446 246.34182411 460.80454597 C244.35924235 460.80582497 242.37666059 460.80712183 240.39407885 460.80843633 C221.83758581 460.81982111 203.28117203 460.8067615 184.72469199 460.78523487 C168.82947301 460.76736581 152.93437092 460.77047051 137.03915405 460.78890991 C118.54550601 460.81035385 100.05192729 460.81872267 81.55826855 460.80646086 C79.58329965 460.80518677 77.60833074 460.80392928 75.63336182 460.8026886 C74.17607606 460.80176295 74.17607606 460.80176295 72.68935019 460.80081859 C65.86885151 460.79737625 59.04839709 460.80316988 52.22790527 460.81260681 C43.90708644 460.82386741 35.58641839 460.82070184 27.26561666 460.79948384 C23.0265812 460.78902778 18.78779643 460.78475766 14.54876328 460.79808044 C10.65756771 460.81012435 6.76685183 460.80324779 2.87569892 460.78217024 C0.82443241 460.77568543 -1.22686822 460.78853203 -3.27809811 460.80239916 C-20.88274163 460.65609038 -37.52802995 455.77695688 -50.53799438 443.43539429 C-54.00591172 439.66886959 -56.84603054 435.61616792 -59.53408813 431.26742554 C-59.92338501 430.65640991 -60.31268188 430.04539429 -60.71377563 429.41586304 C-67.07196235 418.22742595 -68.12682748 404.55616025 -68.04202271 392.0118103 C-68.04664649 390.5492189 -68.05300921 389.08663216 -68.06093168 387.62405491 C-68.07744568 383.6548072 -68.06946169 379.68595007 -68.05698681 375.71670198 C-68.04786414 371.41667983 -68.06194149 367.11672068 -68.07290649 362.81671143 C-68.09061994 354.41266535 -68.0868839 346.00876281 -68.07525593 337.60471129 C-68.06619349 330.76978749 -68.06500972 323.93490369 -68.0693512 317.09997559 C-68.06996413 316.12428511 -68.07057706 315.14859464 -68.07120857 314.14333779 C-68.07248757 312.16075602 -68.07378442 310.17817427 -68.07509893 308.19559252 C-68.08648371 289.63909948 -68.07342409 271.0826857 -68.05189747 252.52620566 C-68.03402841 236.63098668 -68.03713311 220.73588459 -68.05557251 204.84066772 C-68.07701644 186.34701968 -68.08538527 167.85344096 -68.07312346 149.35978222 C-68.07184936 147.38481332 -68.07059188 145.40984441 -68.0693512 143.43487549 C-68.06873409 142.46335165 -68.06811699 141.49182781 -68.06748119 140.49086386 C-68.06403885 133.67036518 -68.06983248 126.84991077 -68.07926941 120.02941895 C-68.09053001 111.70860011 -68.08736444 103.38793206 -68.06614643 95.06713033 C-68.05569038 90.82809487 -68.05142026 86.5893101 -68.06474304 82.35027695 C-68.07678694 78.45908138 -68.06991038 74.56836551 -68.04883283 70.6772126 C-68.04234803 68.62594609 -68.05519463 66.57464545 -68.06906176 64.52341557 C-67.91483862 45.96647406 -62.54968659 29.79653774 -49.53408813 16.26742554 C-35.00868133 3.16408653 -18.96763641 -0.04646044 0 0 Z M-27.53408813 41.26742554 C-38.07493634 55.71052907 -34.53408813 66.04818391 -34.53408813 86.26742554 C95.48591187 86.26742554 225.50591187 86.26742554 359.46591187 86.26742554 C361.26288696 62.77738906 361.26288696 62.77738906 353.11825562 41.90414429 C346.60738012 35.45483736 339.3917979 33.14661998 330.44096756 33.13599777 C329.22434095 33.13215663 328.00771433 33.12831548 326.75422025 33.12435794 C325.40740532 33.12513812 324.06059044 33.1260169 322.71377563 33.12698364 C321.28044325 33.12439912 319.84711159 33.12138572 318.41378093 33.11798024 C314.47470189 33.10991726 310.53564107 33.10812106 306.59655476 33.10738277 C302.34830042 33.10553101 298.10005552 33.09798309 293.85180664 33.09124756 C284.56253978 33.07766901 275.27327724 33.07164035 265.98400211 33.0672369 C260.18354514 33.06447384 254.38308982 33.06023639 248.58263397 33.05573273 C232.5220462 33.04354101 216.46145976 33.03324129 200.40086746 33.02985764 C199.37307841 33.02963807 198.34528936 33.0294185 197.28635518 33.02919228 C195.74099178 33.02886487 195.74099178 33.02886487 194.16440892 33.02853084 C192.07675886 33.02808737 189.9891088 33.02764081 187.90145874 33.02719116 C186.8659131 33.02696973 185.83036746 33.0267483 184.76344165 33.02652016 C167.98271687 33.02257187 151.20203551 33.00511647 134.4213275 32.98183164 C117.19182495 32.95811706 99.96234418 32.94565575 82.73282504 32.94448972 C73.05947171 32.94357305 63.38617496 32.93782281 53.71283722 32.9196701 C45.47612765 32.90426775 37.23949216 32.89914949 29.00277093 32.90740821 C24.80116253 32.91131414 20.59970329 32.9103879 16.39811325 32.89635086 C12.54887496 32.88360869 8.69989788 32.88481213 4.85065994 32.89694157 C3.46101935 32.89889802 2.07136025 32.89582252 0.68174568 32.88709721 C-9.64643564 32.82637283 -19.87337574 33.53357985 -27.53408813 41.26742554 Z M-34.53408813 118.26742554 C-34.59596313 165.27180054 -34.65783813 212.27617554 -34.72158813 260.70492554 C-34.74890015 275.55420044 -34.77621216 290.40347534 -34.80435181 305.70272827 C-34.81438426 318.9975957 -34.81438426 318.9975957 -34.82041931 332.29246521 C-34.82321758 338.2204393 -34.83422491 344.14832863 -34.85081482 350.07627869 C-34.86992358 356.91439272 -34.87859298 363.75242541 -34.87442299 370.59056634 C-34.87261727 374.08788422 -34.87546172 377.58502036 -34.89173353 381.08230484 C-34.90664989 384.83084099 -34.90306004 388.57892232 -34.89485168 392.32746887 C-34.90358968 393.41375108 -34.91232767 394.50003328 -34.92133045 395.61923313 C-34.86789486 404.6955852 -33.22529117 413.63949629 -26.53408813 420.26742554 C-19.6262328 425.3089081 -14.05527271 427.38871136 -5.50914383 427.3988533 C-4.29251722 427.40269445 -3.0758906 427.40653559 -1.82239652 427.41049314 C-0.47558159 427.40971295 0.87123329 427.40883418 2.2180481 427.40786743 C3.65138048 427.41045195 5.08471214 427.41346535 6.5180428 427.41687083 C10.45712184 427.42493382 14.39618266 427.42673001 18.33526897 427.4274683 C22.58352331 427.42932006 26.83176821 427.43686799 31.08001709 427.44360352 C40.36928395 427.45718207 49.65854649 427.46321073 58.94782162 427.46761417 C64.74827859 427.47037723 70.54873391 427.47461468 76.34918976 427.47911835 C92.40977753 427.49131006 108.47036397 427.50160978 124.53095627 427.50499344 C125.55874532 427.505213 126.58653437 427.50543257 127.64546855 427.50565879 C129.19083195 427.50598621 129.19083195 427.50598621 130.76741481 427.50632024 C132.85506487 427.5067637 134.94271493 427.50721027 137.03036499 427.50765991 C138.06591063 427.50788134 139.10145627 427.50810277 140.16838208 427.50833091 C156.94910686 427.5122792 173.72978822 427.5297346 190.51049623 427.55301943 C207.73999878 427.57673401 224.96947955 427.58919533 242.19899869 427.59036136 C251.87235202 427.59127802 261.54564877 427.59702827 271.21898651 427.61518097 C279.45569608 427.63058333 287.69233157 427.63570159 295.9290528 427.62744287 C300.1306612 427.62353694 304.33212044 427.62446317 308.53371048 427.63850021 C312.38294877 427.65124238 316.23192585 427.65003894 320.08116379 427.6379095 C321.47080438 427.63595306 322.86046348 427.63902855 324.25007805 427.64775386 C334.00894482 427.70513097 342.84947028 427.03941687 350.82919312 420.91976929 C356.91848476 414.77234598 359.592692 407.70646196 359.58895969 399.1856184 C359.59095057 398.17909788 359.59294144 397.17257736 359.59499264 396.13555622 C359.59207997 395.03762336 359.58916731 393.93969049 359.58616638 392.80848694 C359.5870224 391.63914612 359.58787842 390.4698053 359.58876038 389.26502991 C359.59012756 386.01681031 359.58699119 382.76863054 359.58198459 379.52041565 C359.57761857 375.96477895 359.57907917 372.40914378 359.57980251 368.85350513 C359.58033424 361.95108259 359.57571626 355.04867305 359.56930118 348.14625384 C359.56210309 340.16243251 359.56130654 332.178619 359.56051636 324.1947937 C359.55526535 303.11483558 359.54130425 282.03488037 359.52841187 260.95492554 C359.50778687 213.86805054 359.48716187 166.78117554 359.46591187 118.26742554 C229.44591187 118.26742554 99.42591187 118.26742554 -34.53408813 118.26742554 Z " fill="#000000" transform="translate(93.53408813476563,25.732574462890625)"/>
<path d="M0 0 C4.59753227 3.49412453 6.72056051 6.35414442 7.86083984 12.05175781 C8.34014674 16.59812658 7.3437838 20.48482207 5.9765625 24.796875 C5.71235504 25.67470642 5.44814758 26.55253784 5.17593384 27.45697021 C4.54620282 29.53840326 3.9084475 31.61741744 3.26477051 33.69458008 C1.96707079 37.88496742 0.6915692 42.08183381 -0.58300781 46.27929688 C-3.57098533 56.10360772 -6.58835242 65.91880523 -9.60969162 75.73289871 C-11.41552841 81.59902671 -13.21985533 87.46561937 -15.0244379 93.33213329 C-15.32544124 94.31066422 -15.62644457 95.28919516 -15.93656921 96.29737854 C-16.2376679 97.27624086 -16.53876659 98.25510319 -16.84898949 99.26362801 C-17.76149349 102.22973655 -18.67436266 105.19573255 -19.5872345 108.16172791 C-23.15944689 119.77185352 -26.71119613 131.38798263 -30.24193573 143.01078415 C-31.61864566 147.53983802 -32.99973224 152.06755925 -34.38098907 156.5952282 C-35.65365844 160.76876857 -36.91921754 164.94437841 -38.17958927 169.12164783 C-39.13252071 172.27196357 -40.09640724 175.41890532 -41.05859375 178.56640625 C-41.55526299 180.22583 -41.55526299 180.22583 -42.06196594 181.91877747 C-44.1543765 188.71687189 -46.17600682 194.74348165 -51.375 199.8125 C-56.44737443 202.07695287 -61.40062552 202.1928406 -66.875 201.375 C-71.14201311 199.21370537 -74.52715841 196.59918808 -76.875 192.375 C-79.69500596 183.30213582 -75.94596825 174.42871187 -73.1875 165.8125 C-72.64847945 164.07958828 -72.11136135 162.34608391 -71.57592773 160.61206055 C-70.36801205 156.71003599 -69.14930175 152.81158414 -67.92382812 148.91503906 C-65.29911644 140.55653292 -62.73160243 132.18053009 -60.16033936 123.8054657 C-59.75305817 122.47895107 -59.34577052 121.15243844 -58.93847656 119.82592773 C-58.73420925 119.16054332 -58.52994194 118.4951589 -58.31948471 117.80961132 C-56.84808645 113.01867357 -55.37012284 108.22979031 -53.88964844 103.44165039 C-49.47387045 89.15240599 -45.1032014 74.85133618 -40.81915474 60.52198601 C-39.39082923 55.74846875 -37.95605196 50.97688457 -36.52188015 46.20512104 C-35.14415986 41.61736703 -33.77828192 37.02629288 -32.42082405 32.43250561 C-31.57446462 29.57842564 -30.71714945 26.72772121 -29.85693359 23.87779045 C-29.2729677 21.93074185 -28.70253457 19.97965034 -28.13256836 18.02845764 C-25.85407755 10.52285412 -23.77598401 4.18733731 -17.1875 -0.5625 C-11.40677433 -2.41669503 -5.52835249 -2.84145429 0 0 Z " fill="#000000" transform="translate(290.875,198.625)"/>
<path d="M0 0 C6.38959552 4.19574576 11.61639075 9.88364268 16.98754883 15.27294922 C18.17925896 16.46009089 19.37133798 17.64686236 20.56376648 18.83328247 C23.05065103 21.3112711 25.53183218 23.79480194 28.00927734 26.28222656 C31.17594394 29.46040757 34.35823682 32.62240778 37.54519367 35.78022575 C40.00671787 38.22336429 42.45882277 40.67578959 44.90831566 43.13098526 C46.07776267 44.30058504 47.25029423 45.46710951 48.42601967 46.6303978 C50.07002461 48.25944141 51.70065601 49.90083799 53.32861328 51.54589844 C54.72138237 52.93891678 54.72138237 52.93891678 56.14228821 54.3600769 C59.55900248 58.50334645 61.29428296 62.30507193 61.87426758 67.71826172 C61.1083207 74.86709929 58.02317455 79.28984442 52.98974609 84.21362305 C52.43977966 84.76738617 51.88981323 85.32114929 51.32318115 85.89169312 C49.51777816 87.70445592 47.69846999 89.50249575 45.87817383 91.30029297 C44.61335999 92.5627202 43.34928722 93.82589029 42.08592224 95.08976746 C39.44330398 97.72926584 36.79412862 100.36193413 34.13964844 102.98950195 C30.73871874 106.35638361 27.35117329 109.73635103 23.96798801 113.12105274 C21.36148455 115.72701235 18.74980127 118.32772699 16.13633537 120.9267025 C14.88523119 122.17144801 13.63532965 123.41740351 12.38665962 124.66459084 C10.64213319 126.40477843 8.89117805 128.13822145 7.13818359 129.86987305 C6.62428574 130.38467728 6.11038788 130.89948151 5.58091736 131.42988586 C1.00487732 135.92473639 -1.96896902 137.51175073 -8.37573242 137.59326172 C-13.56711712 137.50473628 -16.57394074 136.8429925 -20.50073242 133.21826172 C-23.76425722 129.50459557 -24.66061841 126.29444689 -24.75073242 121.40576172 C-24.77651367 120.57431641 -24.80229492 119.74287109 -24.82885742 118.88623047 C-24.15034605 113.36928678 -21.15732179 109.4995665 -17.3046875 105.68164062 C-16.46404251 104.84122223 -15.62339752 104.00080383 -14.75727844 103.13491821 C-13.40245613 101.80332169 -13.40245613 101.80332169 -12.02026367 100.44482422 C-11.09227463 99.52108002 -10.16428558 98.59733582 -9.20817566 97.64559937 C-6.75375298 95.20257247 -4.29045326 92.76869405 -1.82513428 90.33666992 C0.69406926 87.8482814 3.2046888 85.35126457 5.71606445 82.85498047 C10.63547566 77.9676403 15.56432775 73.08992021 20.49926758 68.21826172 C15.90629375 62.69567072 11.00473471 57.62062918 5.88989258 52.58154297 C4.23220891 50.93649326 2.57466077 49.29130697 0.91723633 47.64599609 C-1.67705967 45.07660257 -4.27293428 42.50884323 -6.87133789 39.94360352 C-9.39279608 37.45228134 -11.90805439 34.95483174 -14.42260742 32.45654297 C-15.20279236 31.68981766 -15.98297729 30.92309235 -16.7868042 30.13313293 C-17.50805481 29.41526108 -18.22930542 28.69738922 -18.97241211 27.95776367 C-19.60717468 27.33045853 -20.24193726 26.70315338 -20.89593506 26.05683899 C-24.75697748 21.63333669 -24.94226112 17.6777906 -24.80541992 11.97607422 C-24.32293106 7.60893147 -23.30696428 5.65589575 -20.50073242 2.21826172 C-14.16973787 -2.58357613 -7.09843521 -3.61283075 0 0 Z " fill="#000000" transform="translate(342.500732421875,230.78173828125)"/>
<path d="M0 0 C3.83084349 2.61193874 6.65161815 5.67823629 8.75 9.875 C8.953125 12.046875 8.953125 12.046875 9 14.625 C9.02578125 15.46546875 9.0515625 16.3059375 9.078125 17.171875 C8.40607363 22.70829818 5.42032842 26.58007995 1.55395508 30.41162109 C0.71331009 31.25203949 -0.1273349 32.09245789 -0.99345398 32.95834351 C-1.89666885 33.84607452 -2.79988373 34.73380554 -3.73046875 35.6484375 C-4.65845779 36.5721817 -5.58644684 37.4959259 -6.54255676 38.44766235 C-8.99697944 40.89068925 -11.46027916 43.32456766 -13.92559814 45.7565918 C-16.44480168 48.24498032 -18.95542122 50.74199715 -21.46679688 53.23828125 C-26.38620808 58.12562142 -31.31506017 63.00334151 -36.25 67.875 C-31.73612682 73.30063197 -26.93194825 78.28349884 -21.89453125 83.22265625 C-20.28682238 84.81286094 -18.67940923 86.40336465 -17.07226562 87.99414062 C-14.5606162 90.47477291 -12.04672014 92.9529911 -9.52758789 95.42602539 C-7.08061317 97.83063444 -4.64321539 100.24462213 -2.20703125 102.66015625 C-1.45388138 103.39468521 -0.70073151 104.12921417 0.07524109 104.88600159 C5.04123843 109.82753361 9.15348143 114.39045932 9.25 121.75 C9.08195171 127.05552471 7.37798408 130.99619233 3.75 134.875 C0.0545869 137.59332082 -2.62236915 138.30662467 -7.1875 138.3125 C-8.18652344 138.33183594 -9.18554688 138.35117187 -10.21484375 138.37109375 C-16.42781374 137.355589 -20.73985557 132.68115512 -25.04003906 128.35961914 C-25.58390259 127.82086655 -26.12776611 127.28211395 -26.68811035 126.72703552 C-28.469107 124.95984334 -30.24267456 123.18541816 -32.015625 121.41015625 C-33.25757354 120.17209817 -34.49974422 118.93426288 -35.74212646 117.69664001 C-38.33768304 115.10852485 -40.92935659 112.5165948 -43.51855469 109.92211914 C-46.83450584 106.60036019 -50.16171504 103.29013713 -53.49213028 99.98288822 C-56.05727578 97.43247795 -58.6154573 94.87517078 -61.17168427 92.31582451 C-62.39573332 91.09228824 -63.62214274 89.87110855 -64.85095978 88.65236092 C-66.56708752 86.94858296 -68.27338471 85.23551817 -69.97753906 83.51977539 C-70.4845636 83.02039459 -70.99158813 82.52101379 -71.51397705 82.00650024 C-75.55927805 77.90021327 -77.53159517 74.21670398 -77.5625 68.4375 C-77.57925781 67.71691406 -77.59601563 66.99632812 -77.61328125 66.25390625 C-76.69261992 60.22505945 -72.94646887 56.13381455 -68.75634766 51.99316406 C-68.20798752 51.43954697 -67.65962738 50.88592987 -67.09465027 50.3155365 C-65.29189349 48.49964655 -63.47846924 46.69486894 -61.6640625 44.890625 C-60.40193543 43.62647558 -59.14025387 42.36188122 -57.8789978 41.09686279 C-55.23928497 38.45273589 -52.59424463 35.81408904 -49.9453125 33.17919922 C-46.55342346 29.80441882 -43.1752044 26.41632501 -39.80085182 23.02402115 C-37.20002357 20.4123454 -34.59208365 17.80786568 -31.98194504 15.20549774 C-30.73343153 13.95898264 -29.48713488 12.71024297 -28.2431221 11.45923615 C-26.50339188 9.71187387 -24.75431024 7.97443868 -23.00244141 6.23925781 C-22.49213882 5.72288254 -21.98183624 5.20650726 -21.45606995 4.67448425 C-15.20148411 -1.4703617 -8.2426688 -2.85323151 0 0 Z " fill="#000000" transform="translate(185.25,230.125)"/>
</svg>
