<svg width="394" height="176" viewBox="0 0 394 176" fill="none" xmlns="http://www.w3.org/2000/svg">
<path d="M368 56C368 53.2386 370.239 51 373 51H389C391.761 51 394 53.2386 394 56V120C394 122.761 391.761 125 389 125H373C370.239 125 368 122.761 368 120V56Z" fill="#F4E3C1"/>
<path d="M346 0C355.389 1.86835e-06 363 7.61116 363 17V159C363 168.389 355.389 176 346 176H17C7.61116 176 0 168.389 0 159V17C2.5772e-06 7.61116 7.61116 4.06688e-07 17 0H346ZM19 13C15.134 13 12 16.134 12 20V156C12 159.866 15.134 163 19 163H29C32.866 163 36 159.866 36 156V20C36 16.134 32.866 13 29 13H19ZM57 13C53.134 13 50 16.134 50 20V156C50 159.866 53.134 163 57 163H67C70.866 163 74 159.866 74 156V20C74 16.134 70.866 13 67 13H57ZM97 13C93.134 13 90 16.134 90 20V156C90 159.866 93.134 163 97 163H107C110.866 163 114 159.866 114 156V20C114 16.134 110.866 13 107 13H97ZM136 13C132.134 13 129 16.134 129 20V156C129 159.866 132.134 163 136 163H146C149.866 163 153 159.866 153 156V20C153 16.134 149.866 13 146 13H136ZM175 13C171.134 13 168 16.134 168 20V156C168 159.866 171.134 163 175 163H185C188.866 163 192 159.866 192 156V20C192 16.134 188.866 13 185 13H175ZM214 13C210.134 13 207 16.134 207 20V156C207 159.866 210.134 163 214 163H224C227.866 163 231 159.866 231 156V20C231 16.134 227.866 13 224 13H214Z" fill="#F4E3C1"/>
</svg>
