<?xml version="1.0" encoding="UTF-8"?>
<svg version="1.1" xmlns="http://www.w3.org/2000/svg" width="512" height="512">
<path d="M0 0 C0.68999084 -0.0065712 1.37998169 -0.0131424 2.09088135 -0.01991272 C4.368206 -0.03957863 6.64546488 -0.05129381 8.92285156 -0.0612793 C9.70354256 -0.06535482 10.48423355 -0.06943035 11.28858185 -0.07362938 C15.42155184 -0.09446243 19.55448892 -0.10877557 23.6875 -0.11816406 C27.94216034 -0.1292175 32.19629612 -0.16361259 36.45077133 -0.20333576 C39.73489308 -0.22956135 43.01889098 -0.23786117 46.30310822 -0.24144554 C47.87070505 -0.24629686 49.43829689 -0.25786915 51.00579071 -0.27648354 C66.26873819 -0.44645749 66.26873819 -0.44645749 73.06347656 4.17700195 C77.24640039 8.47000273 79.13214698 12.53649715 79.43847656 18.48950195 C79.19518708 26.27476524 74.97645087 31.41364491 70.40332031 37.4387207 C69.77677551 38.26889709 69.77677551 38.26889709 69.13757324 39.11584473 C68.11456268 40.47084013 67.08925185 41.82409833 66.06347656 43.17700195 C66.79547429 43.17846851 67.52747202 43.17993507 68.2816515 43.18144608 C86.12766674 43.21856618 103.97348707 43.27764966 121.81934834 43.36090469 C130.44963691 43.40064236 139.079835 43.43306155 147.71020508 43.44799805 C155.2361599 43.46104199 162.76191517 43.48807627 170.28775758 43.53161502 C174.26930807 43.55416849 178.25061301 43.56991633 182.23223305 43.5688858 C185.98754403 43.56813554 189.74231348 43.58623131 193.49748421 43.61816978 C195.51709359 43.63061751 197.53679422 43.62363337 199.556427 43.61585999 C210.11737515 43.73563283 219.60165122 45.54818094 227.35591125 53.19216919 C235.95035037 63.1821381 234.71360649 74.47854526 234.55175781 86.93481445 C234.54242036 89.05043702 234.53530866 91.16607047 234.53031921 93.28170776 C234.51132296 98.8221272 234.46228588 104.36188047 234.40679932 109.90203857 C234.35544733 115.56651806 234.3327712 121.23110627 234.30761719 126.89575195 C234.25415986 137.98979298 234.16893688 149.08334184 234.06347656 160.17700195 C235.03517288 160.15366287 236.0068692 160.13032379 237.00801086 160.10627747 C238.277108 160.08812485 239.54620514 160.06997223 240.85375977 160.05126953 C242.11420609 160.02793045 243.3746524 160.00459137 244.67329407 159.98054504 C248.06347656 160.17700195 248.06347656 160.17700195 251.41894531 162.1887207 C253.45537137 165.88911484 253.63129977 168.88469032 253.37597656 172.98950195 C253.35341797 173.68237305 253.33085937 174.37524414 253.30761719 175.08911133 C253.24910318 176.78601768 253.15943136 178.48180056 253.06347656 180.17700195 C254.67222656 180.51731445 254.67222656 180.51731445 256.31347656 180.86450195 C261.20962515 182.07105286 265.71720633 184.04268451 270.32910156 186.0559082 C273.60812291 187.49843481 273.60812291 187.49843481 277.06347656 188.17700195 C278.97615872 186.83384586 278.97615872 186.83384586 280.62597656 184.86450195 C283.62003174 181.5770427 285.70243792 179.41718524 290.25097656 178.61450195 C298.9950528 179.90461156 305.91232716 189.86920509 312.01147461 195.99462891 C313.51919752 197.50778861 315.03229415 199.0154308 316.54589844 200.52270508 C317.50911049 201.48657669 318.47201296 202.45075779 319.43457031 203.4152832 C320.30009521 204.28193604 321.16562012 205.14858887 322.05737305 206.04150391 C324.52238232 208.66550732 324.9910142 209.72411218 325.56347656 213.30200195 C324.93788129 218.15036528 323.14365321 219.89435436 319.79003906 223.2824707 C317.32686511 225.89844929 317.32686511 225.89844929 316.06347656 229.17700195 C317.04620625 231.95697602 318.0816293 234.42474214 319.37597656 237.05200195 C321.65260153 241.78071432 323.49081035 245.88191436 324.06347656 251.17700195 C325.01609375 251.14219727 325.96871094 251.10739258 326.95019531 251.0715332 C328.20445312 251.04446289 329.45871094 251.01739258 330.75097656 250.98950195 C331.99234375 250.95469727 333.23371094 250.91989258 334.51269531 250.8840332 C338.28014588 251.19487896 340.09142574 251.89971625 343.06347656 254.17700195 C344.22171684 256.49348251 344.21396509 257.8912767 344.25634766 260.47143555 C344.28044205 261.80324356 344.28044205 261.80324356 344.30502319 263.16195679 C344.34943552 267.21937319 344.39052674 271.27662605 344.41357422 275.33422852 C344.43014892 277.4759405 344.45745869 279.61759683 344.49560547 281.7590332 C344.55028591 284.84396102 344.57223346 287.92759275 344.58691406 291.01293945 C344.60958344 291.97034027 344.63225281 292.92774109 344.65560913 293.91415405 C344.63452874 300.5279604 344.63452874 300.5279604 341.76635742 303.7878418 C338.22515292 305.6078629 335.12800924 305.61992607 331.25097656 305.42700195 C330.55810547 305.40895508 329.86523438 305.3909082 329.15136719 305.37231445 C327.45479993 305.3255126 325.7589518 305.25377819 324.06347656 305.17700195 C323.75410156 307.00231445 323.75410156 307.00231445 323.43847656 308.86450195 C322.25139779 314.44554394 319.73308595 319.22410503 317.11035156 324.2590332 C315.79861769 327.02998345 315.79861769 327.02998345 316.66503906 329.3293457 C318.73703663 332.06692908 321.14367616 334.39776728 323.60253906 336.78637695 C325.69096392 340.20379944 325.84284153 343.33168419 325.06347656 347.17700195 C323.36340489 350.02786775 321.15073993 352.21301233 318.78222656 354.52075195 C318.1353186 355.17531372 317.48841064 355.82987549 316.82189941 356.50427246 C315.45293428 357.87866575 314.07387664 359.24307092 312.68554688 360.59790039 C310.56952091 362.67108 308.49958209 364.78348916 306.43066406 366.90356445 C305.09207565 368.23686612 303.75100755 369.56768384 302.40722656 370.89575195 C301.79230347 371.5268689 301.17738037 372.15798584 300.54382324 372.80822754 C297.37547561 375.84341736 295.2453252 377.56192822 290.75390625 377.66088867 C286.80978252 377.14373776 285.53100546 376.59945817 282.81347656 373.80200195 C279.40916005 370.24098028 279.40916005 370.24098028 275.06347656 368.17700195 C272.02541685 369.1926635 272.02541685 369.1926635 268.87597656 370.92700195 C263.55395903 373.55797676 258.89991037 375.18777588 253.06347656 376.17700195 C253.10988281 377.20180664 253.15628906 378.22661133 253.20410156 379.2824707 C253.24163667 380.64311851 253.27803497 382.00379801 253.31347656 383.36450195 C253.34699219 384.03803711 253.38050781 384.71157227 253.41503906 385.40551758 C253.48483757 388.98269101 253.1594679 391.01793665 251.29785156 394.1027832 C247.62101538 397.51606994 244.19443217 397.29760857 239.31347656 397.23950195 C238.32863281 397.23047852 237.34378906 397.22145508 236.32910156 397.2121582 C235.58144531 397.20055664 234.83378906 397.18895508 234.06347656 397.17700195 C234.07457962 398.332435 234.08568268 399.48786804 234.09712219 400.67831421 C234.19870655 411.59449104 234.27354189 422.51057132 234.32253742 433.42711449 C234.34857389 439.03876907 234.38386343 444.6500405 234.44067383 450.26147461 C234.49520544 455.6820614 234.52494181 461.10228084 234.53786278 466.52312088 C234.54706473 468.58590091 234.56503387 470.64866201 234.59212685 472.71128464 C234.86148571 494.07761484 234.86148571 494.07761484 226.92285156 503.7980957 C225.87871094 504.6972168 225.87871094 504.6972168 224.81347656 505.61450195 C224.12769531 506.23196289 223.44191406 506.84942383 222.73535156 507.4855957 C214.54320241 512.67156146 206.04448978 512.60677493 196.60253906 512.55795288 C195.14100292 512.56141357 193.6794694 512.56618089 192.21794128 512.57213461 C188.21942215 512.58461788 184.22111878 512.57848649 180.22259903 512.56917596 C175.9035117 512.56237481 171.58446088 512.57287198 167.26538086 512.58111572 C158.81127561 512.59444388 150.35725034 512.5915794 141.90314198 512.5828778 C135.0312872 512.57609806 128.15945482 512.57518579 121.28759766 512.57844925 C119.81960771 512.5791388 119.81960771 512.5791388 118.3219614 512.57984228 C116.33372878 512.58080147 114.34549617 512.58177411 112.35726357 512.58276005 C93.7209091 512.59131126 75.08459893 512.58148403 56.44825172 512.56535895 C40.46320032 512.55195602 24.47821428 512.55428419 8.49316406 512.56811523 C-10.07726619 512.58417579 -28.64765764 512.59048731 -47.21809387 512.58127844 C-49.19894409 512.58032281 -51.17979431 512.5793797 -53.16064453 512.57844925 C-54.13521827 512.57798642 -55.109792 512.5775236 -56.11389828 512.57704674 C-62.97616954 512.57445829 -69.83841615 512.57882475 -76.70068359 512.58588791 C-85.06539906 512.59430838 -93.43003009 512.59201123 -101.79473591 512.57604568 C-106.06117207 512.56817035 -110.32746752 512.56505877 -114.59390259 512.57499313 C-118.50220599 512.58395585 -122.41023872 512.57898137 -126.31851768 512.56306048 C-127.72956768 512.55971933 -129.14064071 512.56139172 -130.5516758 512.56868784 C-140.73842452 512.61730573 -149.43792255 512.18554417 -157.24902344 505.05200195 C-158.04953125 504.34817383 -158.85003906 503.6443457 -159.67480469 502.91918945 C-166.89178203 494.16907184 -166.50827347 484.78299981 -166.45118713 473.98939514 C-166.45651597 472.23158369 -166.4635836 470.4737768 -166.47223419 468.71597856 C-166.49084366 463.89845008 -166.48456235 459.08122937 -166.47408116 454.26368821 C-166.46708438 449.06317038 -166.48309072 443.86271546 -166.49607849 438.66221619 C-166.5177156 428.47920976 -166.51759233 418.2963151 -166.50945295 408.11329324 C-166.50315201 399.83650354 -166.50429085 391.55974643 -166.51072502 383.28295708 C-166.51162668 382.10475983 -166.51252833 380.92656258 -166.51345731 379.71266238 C-166.51530852 377.31913149 -166.51717108 374.92560061 -166.51904487 372.53206974 C-166.53562231 350.08911998 -166.52690456 327.6462331 -166.51005929 305.20328712 C-166.49536218 284.67287186 -166.50999104 264.14260294 -166.53882945 243.61220653 C-166.56822498 222.52808596 -166.57919528 201.44403294 -166.56964725 180.35989279 C-166.56862471 177.97488273 -166.5676301 175.58987267 -166.56666374 173.20486259 C-166.56618735 172.03141363 -166.56571096 170.85796467 -166.56522014 169.64895665 C-166.56305623 161.38350448 -166.57285886 153.11811628 -166.58743477 144.8526783 C-166.60495393 134.77774285 -166.60484658 124.70299399 -166.58208311 114.62806589 C-166.57093732 109.48854892 -166.56778632 104.34936075 -166.58638382 99.20985794 C-166.6031979 94.50261632 -166.59682481 89.79599003 -166.57216703 85.0887882 C-166.56728642 83.38835489 -166.57079214 81.68787185 -166.58365447 79.98748017 C-166.65534426 69.77074523 -166.33074302 60.88603446 -158.92847925 53.05176598 C-152.15495454 46.68965338 -145.4876943 44.04808802 -136.24809265 44.05674744 C-135.11372269 44.05537277 -133.97935272 44.05399811 -132.81060791 44.05258179 C-130.95807404 44.0579747 -130.95807404 44.0579747 -129.06811523 44.06347656 C-127.76040665 44.06333054 -126.45269806 44.06318451 -125.10536194 44.06303406 C-121.52724594 44.06274752 -117.94916356 44.06862101 -114.37105536 44.07560802 C-110.62878576 44.0818655 -106.88651536 44.08244725 -103.14424133 44.08363342 C-96.06120697 44.08673967 -88.97818806 44.09494355 -81.8951605 44.10498291 C-73.82990388 44.11616597 -65.76464653 44.12166003 -57.69938409 44.12667835 C-41.11175483 44.13712675 -24.52414111 44.15471253 -7.93652344 44.17700195 C-8.25927246 43.71326172 -8.58202148 43.24952148 -8.91455078 42.77172852 C-10.38291132 40.65868326 -11.84724804 38.5428799 -13.31152344 36.42700195 C-13.81941406 35.69739258 -14.32730469 34.9677832 -14.85058594 34.21606445 C-15.34042969 33.50708008 -15.83027344 32.7980957 -16.33496094 32.06762695 C-16.78532715 31.41826172 -17.23569336 30.76889648 -17.69970703 30.09985352 C-21.3356359 24.44715399 -21.53619459 19.82174526 -20.93652344 13.17700195 C-19.21059822 7.79617629 -15.59357231 4.25165572 -10.93652344 1.17700195 C-7.31852653 -0.03737657 -3.79234918 0.02996057 0 0 Z M-3.93652344 17.17700195 C-3.05030803 20.72186359 -2.49029068 22.12153293 -0.45996094 24.93481445 C0.04301514 25.63815918 0.54599121 26.34150391 1.06420898 27.06616211 C1.60021729 27.80398926 2.13622559 28.54181641 2.68847656 29.30200195 C3.23028564 30.06174316 3.77209473 30.82148438 4.33032227 31.60424805 C6.64817398 34.85180084 8.98847089 38.07682575 11.37988281 41.27075195 C14.83695261 45.94753949 17.18209009 49.2463255 17.06347656 55.17700195 C16.10704774 57.97271698 15.71048678 58.85349684 13.06347656 60.17700195 C11.43012465 60.29572769 9.79220302 60.35409288 8.15478516 60.38232422 C7.13387787 60.40226944 6.11297058 60.42221466 5.06112671 60.44276428 C3.95588654 60.45947678 2.85064636 60.47618927 1.71191406 60.4934082 C0.58274567 60.5141893 -0.54642273 60.5349704 -1.70980835 60.55638123 C-5.32698316 60.6219153 -8.94423224 60.68077969 -12.56152344 60.73950195 C-15.00944787 60.7826835 -17.45736472 60.82629766 -19.90527344 60.87036133 C-25.91561499 60.97841699 -31.9260106 61.0774621 -37.93652344 61.17700195 C-37.93652344 71.07700195 -37.93652344 80.97700195 -37.93652344 91.17700195 C6.28347656 91.17700195 50.50347656 91.17700195 96.06347656 91.17700195 C96.06347656 81.27700195 96.06347656 71.37700195 96.06347656 61.17700195 C92.42832031 61.1512207 88.79316406 61.12543945 85.04785156 61.09887695 C81.52970614 61.06047179 78.01170803 61.01530643 74.49365234 60.96948242 C72.04743474 60.9412456 69.60112544 60.92004465 67.15478516 60.90600586 C63.63949543 60.88461464 60.12531145 60.83798158 56.61035156 60.78637695 C55.51543396 60.78514832 54.42051636 60.78391968 53.29241943 60.78265381 C52.27166321 60.76293518 51.25090698 60.74321655 50.19921875 60.72290039 C48.85352814 60.70957672 48.85352814 60.70957672 47.48065186 60.69598389 C44.28118237 60.00903873 43.07478534 58.71048362 41.06347656 56.17700195 C40.12799542 51.42943516 41.11155528 48.67077684 43.62597656 44.72387695 C44.75500137 43.11300614 45.90169198 41.51440813 47.06347656 39.92700195 C47.65346436 39.09450928 48.24345215 38.2620166 48.85131836 37.40429688 C50.57273193 34.9832135 52.31502809 32.5786035 54.06347656 30.17700195 C54.9457529 28.9496876 55.82735897 27.72189087 56.70800781 26.4934082 C58.47714957 24.04211088 60.25929746 21.60255997 62.06347656 19.17700195 C61.56847656 18.18700195 61.56847656 18.18700195 61.06347656 17.17700195 C39.61347656 17.17700195 18.16347656 17.17700195 -3.93652344 17.17700195 Z M-145.93652344 64.17700195 C-149.01340666 68.23388622 -149.3127595 71.29326887 -149.31684017 76.32195282 C-149.32150009 77.03365263 -149.32616001 77.74535245 -149.33096114 78.47861892 C-149.34293729 80.86976252 -149.3335059 83.26034065 -149.32420349 85.65148926 C-149.32837526 87.38053595 -149.33385191 89.1095799 -149.3405233 90.83861876 C-149.35501706 95.59498271 -149.35072095 100.35117396 -149.34335649 105.10754752 C-149.33863687 110.2350909 -149.35112391 115.36259627 -149.3613739 120.49012756 C-149.37859047 130.53696669 -149.37939606 140.58374336 -149.374161 150.63059342 C-149.37012368 158.79405422 -149.37155764 166.95749651 -149.37690926 175.12095642 C-149.37765768 176.28171172 -149.3784061 177.44246701 -149.3791772 178.63839671 C-149.38070864 180.99626339 -149.38224698 183.35413006 -149.38379217 185.71199673 C-149.39752734 207.83477194 -149.39207218 229.9575118 -149.38060696 252.0802862 C-149.37067164 272.33301976 -149.38361862 292.585662 -149.40754115 312.83838147 C-149.43190475 333.62063149 -149.44154688 354.40283892 -149.43488842 375.18510294 C-149.43139034 386.85812441 -149.4336671 398.5310756 -149.45113945 410.2040863 C-149.46582713 420.14016613 -149.46654186 430.07612619 -149.44906854 440.01220357 C-149.44052814 445.08420017 -149.43848288 450.15598252 -149.45372009 455.22796822 C-149.46748681 459.86779837 -149.46290809 464.50722909 -149.44348086 469.14703566 C-149.43969579 470.82865866 -149.44271432 472.51031306 -149.45309251 474.1919083 C-149.46617017 476.47244219 -149.45476352 478.75157851 -149.43709469 481.03205109 C-149.43698735 482.30026467 -149.43688002 483.56847825 -149.43676943 484.87512255 C-148.83696863 488.8341146 -147.81563743 490.42759839 -144.93652344 493.17700195 C-141.23503489 495.19954724 -138.08042702 495.42803576 -133.9031992 495.43147755 C-132.68472249 495.43730974 -131.46624578 495.44314193 -130.21084553 495.44915086 C-128.86196312 495.44551781 -127.51308122 495.44169345 -126.16419983 495.43769836 C-124.72872816 495.44071897 -123.2932581 495.44460799 -121.85779089 495.44929093 C-117.91289593 495.4595914 -113.96809165 495.45738391 -110.02318919 495.45311034 C-105.76885214 495.45064684 -101.51453714 495.45965257 -97.26020813 495.46714783 C-88.92555939 495.47990715 -80.59094284 495.481687 -72.25628597 495.47934756 C-65.48299699 495.47756569 -58.70971779 495.47931123 -51.93642998 495.48357201 C-50.97301405 495.4841672 -50.00959813 495.48476238 -49.01698778 495.48537561 C-47.05991384 495.48658734 -45.10283989 495.48780147 -43.14576595 495.48901799 C-24.78612941 495.49989819 -6.42651124 495.4977287 11.93312634 495.49163314 C28.73528047 495.48646305 45.53737665 495.497721 62.33951931 495.51673136 C79.58596133 495.53609506 96.83237591 495.54436837 114.07882887 495.54060811 C123.76381911 495.53869389 133.44876 495.54120506 143.13374138 495.55532265 C151.37822768 495.56721869 159.62263427 495.56866131 167.86712163 495.55653248 C172.07443013 495.5506314 176.2815927 495.54957821 180.4888916 495.56153488 C184.3398299 495.57235176 188.19049966 495.56934066 192.04142518 495.5552732 C193.4350474 495.55261466 194.82869039 495.55502896 196.2222923 495.56300906 C198.11627543 495.57310229 200.01033414 495.56290985 201.90431118 495.55173206 C202.95646389 495.55178708 204.00861661 495.55184209 205.09265274 495.55189878 C209.36855635 495.01231017 212.69262007 493.38761206 215.91719055 490.53997803 C217.67490584 486.91658986 217.45486099 483.31001304 217.40405273 479.36938477 C217.40470985 478.03714622 217.40470985 478.03714622 217.40538025 476.67799377 C217.40329183 473.74514714 217.37995817 470.81287361 217.35644531 467.88012695 C217.35084955 465.84560458 217.34657936 463.81107816 217.34358215 461.77655029 C217.33213186 456.42365341 217.30266294 451.07100102 217.26947021 445.71820068 C217.2387734 440.25528267 217.22507764 434.79232512 217.20996094 429.3293457 C217.17779355 418.61179041 217.12659483 407.89441652 217.06347656 397.17700195 C216.32742188 397.12801758 215.59136719 397.0790332 214.83300781 397.02856445 C213.8571875 396.95379883 212.88136719 396.8790332 211.87597656 396.80200195 C210.91304688 396.73239258 209.95011719 396.6627832 208.95800781 396.59106445 C206.04838719 396.17484342 203.73456882 395.378261 201.06347656 394.17700195 C201.06984131 395.07418945 201.07620605 395.97137695 201.08276367 396.89575195 C201.08992988 400.25909442 201.06564594 403.61927862 201.02075195 406.98217773 C201.00769794 408.4310123 201.0067991 409.88001374 201.01879883 411.32885742 C201.03397238 413.42569818 201.00389688 415.51802889 200.96582031 417.61450195 C200.9605835 418.87133789 200.95534668 420.12817383 200.94995117 421.4230957 C199.69570069 426.7344026 196.85613524 429.38507284 193.06347656 433.17700195 C192.31638931 433.94953308 191.56930206 434.72206421 190.79957581 435.51800537 C188.25825035 438.13107015 185.69008859 440.7151448 183.11425781 443.29418945 C182.16970415 444.24196494 181.22522207 445.18981175 180.2808075 446.13772583 C178.31681174 448.10766032 176.35081062 450.07556762 174.38354492 452.04223633 C171.86676421 454.55891468 169.35697956 457.08245037 166.84882832 459.60772514 C164.44179625 462.02854025 162.02759796 464.44216299 159.61425781 466.85668945 C158.71628983 467.76184296 157.81832184 468.66699646 156.8931427 469.59957886 C156.05514633 470.4344986 155.21714996 471.26941833 154.35375977 472.12963867 C153.61986526 472.86495819 152.88597076 473.60027771 152.12983704 474.35787964 C148.64908112 477.42216626 145.94409686 478.42686522 141.31891632 478.42868423 C140.36245193 478.43389973 139.40598754 478.43911522 138.42053938 478.44448876 C137.37269034 478.44002732 136.3248413 478.43556588 135.24523926 478.43096924 C134.12983403 478.43408922 133.0144288 478.4372092 131.86522341 478.44042373 C128.11419732 478.448424 124.36333209 478.44207209 120.61230469 478.43579102 C117.92857893 478.43849998 115.24486439 478.44198781 112.56114197 478.44641113 C106.02041743 478.45531215 99.47973875 478.45337997 92.93901241 478.44758585 C87.62401571 478.44307215 82.30903188 478.44245519 76.99403381 478.44463348 C76.23805705 478.44493995 75.48208028 478.44524642 74.70319512 478.44556217 C73.16752318 478.44620161 71.63185124 478.44685004 70.09617931 478.44750735 C55.69052359 478.45321272 41.28489331 478.44664951 26.87924176 478.43590662 C14.51404557 478.42697092 2.14888692 478.4285229 -10.21630859 478.43774414 C-24.56983003 478.44844312 -38.92332917 478.45266338 -53.27685404 478.44651961 C-54.80692958 478.4458825 -56.33700513 478.44525376 -57.86708069 478.44463348 C-58.99636964 478.44417066 -58.99636964 478.44417066 -60.14847252 478.44369848 C-65.45811289 478.44197042 -70.76773913 478.44488903 -76.07737732 478.44959259 C-82.54657749 478.45519729 -89.01572912 478.45369366 -95.48492372 478.4430311 C-98.78666344 478.43776882 -102.08830527 478.43680066 -105.39004707 478.44232941 C-108.96620842 478.44776695 -112.54213958 478.44097234 -116.11828613 478.43096924 C-117.16613517 478.43543068 -118.21398421 478.43989213 -119.29358625 478.44448876 C-120.25005064 478.43927327 -121.20651504 478.43405777 -122.1919632 478.42868423 C-123.43039624 478.42819718 -123.43039624 478.42819718 -124.69384813 478.42770028 C-127.20216704 478.14730688 -128.80539286 477.51564622 -130.93652344 476.17700195 C-132.35131443 473.34741996 -132.06463042 470.98332886 -132.0679512 467.81727695 C-132.07000384 467.15402557 -132.07205647 466.49077419 -132.0741713 465.80742428 C-132.07986971 463.5632127 -132.07838058 461.31906194 -132.07696533 459.07484436 C-132.07954733 457.45833386 -132.08256003 455.841824 -132.08596873 454.22531503 C-132.09406121 449.76620545 -132.09582955 445.30711194 -132.0965662 440.84799588 C-132.09841283 436.04560672 -132.10595811 431.24322599 -132.11270142 426.44084167 C-132.12630056 415.93283048 -132.13231173 405.42482309 -132.13671207 394.91680455 C-132.13947147 388.36077433 -132.14370822 381.80474558 -132.14821625 375.24871635 C-132.16041029 357.11141712 -132.17070979 338.97411908 -132.17409134 320.83681583 C-132.17431091 319.67533715 -132.17453047 318.51385847 -132.17475669 317.31718346 C-132.17497497 316.15286643 -132.17519325 314.98854939 -132.17541814 313.78895003 C-132.17586161 311.42944976 -132.17630817 309.06994949 -132.17675781 306.71044922 C-132.17697924 305.54004616 -132.17720067 304.36964311 -132.17742881 303.16377329 C-132.18137929 284.18665427 -132.1988403 265.20957359 -132.22211733 246.23246939 C-132.24580039 226.76792645 -132.25829177 207.30340278 -132.25945926 187.83884519 C-132.26037766 176.90249669 -132.26617158 165.96619814 -132.28427887 155.02986336 C-132.29963873 145.71986436 -132.30482472 136.40993078 -132.29654077 127.09992153 C-132.29261978 122.34618618 -132.29363402 117.59258271 -132.30759811 112.83886337 C-132.32025063 108.49206519 -132.31921646 104.14549916 -132.3070074 99.7987017 C-132.30503529 98.22132739 -132.30819785 96.64393711 -132.31685176 95.06658531 C-132.32782871 92.93162595 -132.32054043 90.79750279 -132.30846024 88.66256809 C-132.30905732 87.47398844 -132.30965441 86.28540879 -132.31026959 85.06081158 C-131.93652344 82.17700195 -131.93652344 82.17700195 -130.5231216 80.31382078 C-126.77191124 77.62602833 -122.52570332 78.02794487 -118.05664062 77.97167969 C-117.37330658 77.96178009 -116.68997253 77.95188049 -115.9859314 77.94168091 C-113.7351219 77.91018151 -111.48429133 77.88535444 -109.23339844 77.8605957 C-107.66969261 77.84001618 -106.10599222 77.81901944 -104.54229736 77.79762268 C-100.43241793 77.7425051 -96.32248915 77.69305047 -92.21252441 77.64477539 C-88.0163129 77.59448493 -83.82017279 77.53883829 -79.62402344 77.48364258 C-71.39491558 77.37618718 -63.16574686 77.27520949 -54.93652344 77.17700195 C-54.93652344 71.89700195 -54.93652344 66.61700195 -54.93652344 61.17700195 C-65.91551532 61.10918746 -76.89436776 61.05416342 -87.8735218 61.02156544 C-92.97175003 61.00591895 -98.06982736 60.98469912 -103.16796875 60.95068359 C-108.08925736 60.91805406 -113.01040095 60.90014128 -117.9317894 60.89237022 C-119.80804603 60.88683319 -121.68429486 60.87602067 -123.56048965 60.85981178 C-126.19137895 60.83798975 -128.82167128 60.83503702 -131.45263672 60.83642578 C-132.22587784 60.82563995 -132.99911896 60.81485413 -133.79579163 60.80374146 C-138.59320424 60.83108884 -141.93888934 61.48226151 -145.93652344 64.17700195 Z M113.06347656 61.17700195 C113.06347656 66.45700195 113.06347656 71.73700195 113.06347656 77.17700195 C116.65935669 77.20673096 116.65935669 77.20673096 120.32788086 77.23706055 C128.25085821 77.30398518 136.17370451 77.38162452 144.09652996 77.46452904 C148.89985456 77.51446217 153.70315748 77.56079254 158.5065918 77.59887695 C163.14268412 77.63576734 167.7785938 77.68213763 172.4145298 77.73506546 C174.18270474 77.75358943 175.9509188 77.76870477 177.71915245 77.78034592 C180.19699151 77.79724254 182.67441411 77.82628568 185.15209961 77.8581543 C185.88218231 77.86031448 186.61226501 77.86247467 187.36447144 77.86470032 C192.52752276 77.94946084 196.34155788 78.45508327 200.06347656 82.17700195 C200.28077982 84.73465537 200.37485866 87.18737558 200.38232422 89.74780273 C200.39236984 90.52838043 200.40241547 91.30895813 200.4127655 92.1131897 C200.4437165 94.69955695 200.46066548 97.28582015 200.47753906 99.87231445 C200.49624115 101.66308495 200.51581383 103.45384655 200.53622437 105.24459839 C200.58765301 109.96277633 200.62722112 114.68098287 200.66436768 119.39929199 C200.70434022 124.21198667 200.75546326 129.02456127 200.80566406 133.8371582 C200.90255033 143.28368856 200.9869143 152.73028655 201.06347656 162.17700195 C202.05347656 161.84700195 203.04347656 161.51700195 204.06347656 161.17700195 C206.28921992 160.95248737 208.51929175 160.76917318 210.75097656 160.61450195 C211.93046875 160.53071289 213.10996094 160.44692383 214.32519531 160.3605957 C215.22882813 160.30000977 216.13246094 160.23942383 217.06347656 160.17700195 C217.13298055 148.39846709 217.18628996 136.619981 217.21891308 124.84128284 C217.23457037 119.37197947 217.25581002 113.90281638 217.28979492 108.43359375 C217.32238579 103.15569873 217.3403291 97.87793867 217.34810829 92.59995079 C217.35365226 90.58610599 217.36447823 88.57226858 217.38066673 86.55848122 C217.40243721 83.73820648 217.40544363 80.91848975 217.40405273 78.09814453 C217.41483856 77.2652037 217.42562439 76.43226288 217.43673706 75.57408142 C217.41226167 70.98902467 217.20261912 67.78389574 214.06347656 64.17700195 C209.05454868 60.72605507 204.51528342 60.76358274 198.66162109 60.83642578 C197.27042305 60.83576866 197.27042305 60.83576866 195.85112 60.83509827 C192.79929219 60.83718077 189.74802037 60.86048663 186.69628906 60.8840332 C184.57494405 60.88963106 182.45359515 60.89390027 180.33224487 60.89689636 C174.75908632 60.9083301 169.18616372 60.93778481 163.61309814 60.9710083 C157.92211091 61.00174079 152.23108542 61.0154085 146.54003906 61.03051758 C135.38108145 61.06265577 124.22229865 61.11383449 113.06347656 61.17700195 Z M-115.93652344 94.17700195 C-115.93652344 215.61700195 -115.93652344 337.05700195 -115.93652344 462.17700195 C-33.10652344 462.17700195 49.72347656 462.17700195 135.06347656 462.17700195 C135.39347656 447.98700195 135.72347656 433.79700195 136.06347656 419.17700195 C136.39347656 417.85700195 136.72347656 416.53700195 137.06347656 415.17700195 C139.825178 414.25643481 141.58526512 414.02900046 144.44311523 413.97167969 C145.32380173 413.95173447 146.20448822 413.93178925 147.11186218 413.91123962 C148.53230583 413.88617088 148.53230583 413.88617088 149.98144531 413.8605957 C150.95382645 413.83981461 151.92620758 413.81903351 152.92805481 413.79762268 C156.03562321 413.73221447 159.14327641 413.67328266 162.25097656 413.61450195 C164.35710514 413.57130844 166.46322513 413.52769388 168.56933594 413.48364258 C173.73396381 413.37574929 178.89865564 413.27661073 184.06347656 413.17700195 C184.06347656 399.31700195 184.06347656 385.45700195 184.06347656 371.17700195 C178.0431121 366.67915079 178.0431121 366.67915079 174.86035156 367.70043945 C172.2139774 369.87506865 169.8390287 372.2609924 167.45410156 374.71606445 C164.04290686 376.80068344 160.90426835 376.93623078 157.06347656 376.17700195 C154.28772939 374.54547462 152.17558281 372.41269478 149.93847656 370.11450195 C149.30611084 369.48979004 148.67374512 368.86507813 148.0222168 368.22143555 C146.69490197 366.89954773 145.3775688 365.56757007 144.06982422 364.22631836 C142.06903259 362.18267697 140.02912956 360.18524974 137.98144531 358.1887207 C136.69371631 356.89570493 135.40847134 355.60020953 134.12597656 354.30200195 C133.5167334 353.70895264 132.90749023 353.11590332 132.27978516 352.50488281 C129.29499894 349.3844245 127.69001788 347.29465868 127.59326172 342.88110352 C128.09604548 338.92044141 128.63207107 337.65322443 131.43847656 334.92700195 C134.9170341 331.49057314 134.9170341 331.49057314 137.06347656 327.17700195 C136.219497 324.73796777 136.219497 324.73796777 134.68847656 322.42700195 C133.9653125 321.22817383 133.9653125 321.22817383 133.22753906 320.00512695 C132.84339844 319.4018457 132.45925781 318.79856445 132.06347656 318.17700195 C131.45810153 318.1746136 130.8527265 318.17222525 130.22900677 318.16976452 C115.50690924 318.11065887 100.78495948 318.03513741 86.06304455 317.94128704 C78.94365607 317.89629877 71.82431795 317.85689123 64.70483398 317.83056641 C57.83829373 317.80516126 50.97198633 317.7642772 44.1055851 317.71381569 C41.48168016 317.69708902 38.8577365 317.68561103 36.23378563 317.67938805 C32.56764478 317.66981009 28.90208351 317.64182584 25.23608398 317.609375 C24.14348267 317.61081009 23.05088135 317.61224518 21.9251709 317.61372375 C20.92817673 317.60118561 19.93118256 317.58864746 18.90397644 317.57572937 C18.03656924 317.57112041 17.16916204 317.56651144 16.27546978 317.56176281 C13.59024492 317.0946866 12.70191928 316.31648193 11.06347656 314.17700195 C10.50728989 311.47240795 10.63717723 308.89963372 11.06347656 306.17700195 C12.87510923 303.50268706 13.94108733 303.21779836 17.06347656 302.17700195 C19.96859205 302.05653396 22.85148004 301.99158834 25.75756836 301.97167969 C26.64558136 301.96178009 27.53359436 301.95188049 28.44851685 301.94168091 C31.38654912 301.91006906 34.32459758 301.88530967 37.26269531 301.8605957 C39.2986544 301.84002591 41.33460923 301.81902943 43.37055969 301.79762268 C48.73154241 301.74240466 54.09256365 301.69299415 59.45361328 301.64477539 C64.923212 301.59455843 70.39275471 301.53887338 75.86230469 301.48364258 C86.59598081 301.37606429 97.32970555 301.27461854 108.06347656 301.17700195 C108.05300293 299.93088135 108.0425293 298.68476074 108.03173828 297.40087891 C107.99548912 292.76972333 107.97255812 288.13858026 107.95361328 283.50732422 C107.94356693 281.50437307 107.92992747 279.50143653 107.91259766 277.49853516 C107.88828944 274.61658108 107.8769797 271.73482124 107.86816406 268.8527832 C107.85784149 267.9598909 107.84751892 267.0669986 107.83688354 266.14704895 C107.83609207 261.74336782 107.87500425 258.1337638 110.06347656 254.17700195 C113.41204081 251.62646002 117.22584496 251.7790926 121.31347656 251.55200195 C123.20839844 251.43985352 123.20839844 251.43985352 125.14160156 251.32543945 C126.10582031 251.27645508 127.07003906 251.2274707 128.06347656 251.17700195 C129.38347656 247.21700195 130.70347656 243.25700195 132.06347656 239.17700195 C130.64637894 239.1689151 129.22928131 239.16082825 127.76924133 239.15249634 C114.42317444 239.07505683 101.077207 238.98744038 87.7312746 238.88947487 C80.86978188 238.83936946 74.00830098 238.79292634 67.14672852 238.75512695 C60.52661231 238.7186474 53.90661959 238.67193265 47.28661156 238.61893845 C44.75925141 238.60038668 42.23186356 238.58528163 39.70446205 238.57365799 C36.1681555 238.55680926 32.63214531 238.52777674 29.09594727 238.49584961 C27.52393555 238.49260933 27.52393555 238.49260933 25.92016602 238.48930359 C24.95407913 238.47814011 23.98799225 238.46697662 22.99263 238.45547485 C22.15656377 238.4499441 21.32049753 238.44441334 20.45909595 238.43871498 C16.5665378 238.01346664 13.8351942 236.94871959 11.06347656 234.17700195 C10.48824368 226.92906762 10.48824368 226.92906762 12.28602314 224.5786314 C14.60228539 222.75211863 15.93430401 222.79398573 18.86601257 222.77827454 C19.85459259 222.76573639 20.84317261 222.75319824 21.86170959 222.74028015 C22.94496017 222.74171524 24.02821075 222.74315033 25.14428711 222.74462891 C26.28589294 222.73443726 27.42749878 222.72424561 28.60369873 222.71374512 C32.3859134 222.68349451 36.16787531 222.67433053 39.95019531 222.6652832 C42.56908518 222.64844551 45.18796693 222.63029652 47.80683899 222.61088562 C54.00096479 222.56719161 60.19506421 222.53866258 66.38929731 222.51556224 C73.44130606 222.48852602 80.493178 222.44461362 87.54508913 222.39927351 C102.05113811 222.30638582 116.55724558 222.23472401 131.06347656 222.17700195 C130.3403125 221.04198242 130.3403125 221.04198242 129.60253906 219.8840332 C127.5201018 216.22126919 127.35708821 214.34469323 128.06347656 210.17700195 C132.98158565 203.17575422 139.83767716 197.25279805 145.87597656 191.23950195 C146.83903569 190.27287293 147.80192737 189.30607705 148.76464844 188.33911133 C150.12879883 186.97689453 150.12879883 186.97689453 151.52050781 185.5871582 C152.34526611 184.76352783 153.17002441 183.93989746 154.01977539 183.09130859 C156.79141481 180.49515226 159.05372038 179.56049987 162.91113281 179.54418945 C167.86485227 181.00063692 171.52187001 185.58551362 175.06347656 189.17700195 C178.46660395 188.11825121 181.07700888 187.16798041 184.06347656 185.17700195 C184.34958749 182.24643126 184.44153017 179.52812669 184.40405273 176.59643555 C184.40470985 175.26463509 184.40470985 175.26463509 184.40538025 173.90592957 C184.40328509 170.96221152 184.37991986 168.01905837 184.35644531 165.07543945 C184.35085194 163.03805859 184.34658063 161.00067369 184.34358215 158.96328735 C184.33211299 153.59392204 184.30262799 148.22479914 184.26947021 142.85552979 C184.23342653 136.41703298 184.21961805 129.97845524 184.20211029 123.53988647 C184.1729919 113.75208956 184.11551894 103.96482483 184.06347656 94.17700195 C160.63347656 94.17700195 137.20347656 94.17700195 113.06347656 94.17700195 C112.40347656 97.47700195 111.74347656 100.77700195 111.06347656 104.17700195 C107.51370379 107.72677473 103.64920547 107.30345797 98.80763245 107.31071472 C97.52199402 107.31497971 96.23635559 107.31924469 94.91175842 107.32363892 C93.48910519 107.32328941 92.06645199 107.32282789 90.64379883 107.32226562 C89.14395056 107.32525813 87.64410307 107.32866088 86.14425659 107.33244324 C82.07196944 107.34127736 77.99970331 107.34362108 73.9274075 107.34425902 C70.52774678 107.34520876 67.12809096 107.34888774 63.72843212 107.35243112 C55.70819376 107.36057318 47.68796663 107.36301555 39.66772461 107.36230469 C31.3936831 107.36170371 23.11970675 107.37226014 14.84568173 107.38804835 C7.74154464 107.40112129 0.63742886 107.4064887 -6.46672016 107.40584928 C-10.70955608 107.40559425 -14.95233407 107.40844818 -19.195158 107.41902733 C-23.18505436 107.42870435 -27.17483736 107.42879023 -31.1647377 107.4215107 C-32.62845716 107.42046441 -34.09218367 107.42283035 -35.55589104 107.42887115 C-37.55514496 107.43658738 -39.55443746 107.43074856 -41.55369568 107.42424011 C-42.67216605 107.42478488 -43.79063643 107.42532965 -44.94299984 107.42589092 C-48.02012001 107.17005153 -50.19583106 106.58251418 -52.93652344 105.17700195 C-53.93652344 103.17700195 -53.93652344 103.17700195 -54.93652344 94.17700195 C-75.06652344 94.17700195 -95.19652344 94.17700195 -115.93652344 94.17700195 Z M216.06347656 177.17700195 C215.98097656 179.23950195 215.89847656 181.30200195 215.81347656 183.42700195 C215.57322233 189.43335789 215.57322233 189.43335789 213.49707031 192.4621582 C210.32785144 194.6953638 207.0868582 195.47873558 203.37597656 196.36450195 C195.88691396 198.31011409 189.53014632 201.25623812 182.94946289 205.31835938 C179.44904092 207.37122223 176.92763431 208.50165323 172.81738281 208.1574707 C169.03743229 207.17019955 167.58022908 206.49828088 165.06347656 203.61450195 C164.48597656 202.97383789 163.90847656 202.33317383 163.31347656 201.6730957 C162.69472656 200.9325293 162.69472656 200.9325293 162.06347656 200.17700195 C158.1606189 201.76367773 155.72826674 204.31050677 152.81347656 207.30200195 C151.47542969 208.66711914 151.47542969 208.66711914 150.11035156 210.05981445 C149.43488281 210.75848633 148.75941406 211.4571582 148.06347656 212.17700195 C149.57095181 215.45137843 151.39560745 217.74452905 153.94238281 220.3215332 C155.76563013 223.3391028 155.9841229 225.65658508 156.06347656 229.17700195 C155.00844621 232.11307156 153.47369581 234.69298592 151.87597656 237.36450195 C147.66998784 244.81427747 144.62920129 252.0856893 142.49316406 260.39575195 C141.29924389 265.01982374 141.29924389 265.01982374 138.06347656 267.17700195 C133.40439927 267.75192884 128.75447691 267.91878175 124.06347656 268.17700195 C124.06347656 274.77700195 124.06347656 281.37700195 124.06347656 288.17700195 C126.31160156 288.28012695 128.55972656 288.38325195 130.87597656 288.48950195 C137.58845611 288.79741386 137.58845611 288.79741386 139.68823242 290.4753418 C142.02561201 293.36750152 142.75895125 296.97793266 143.81347656 300.48950195 C146.79819999 309.95290961 150.53371592 318.88236099 156.06347656 327.17700195 C156.13442235 331.43374938 156.08632895 333.87518982 153.43066406 337.25512695 C151.69884308 338.97993652 149.93870935 340.61022782 148.06347656 342.17700195 C149.65015234 346.07985962 152.19698138 348.51221177 155.18847656 351.42700195 C156.55359375 352.76504883 156.55359375 352.76504883 157.94628906 354.13012695 C158.64496094 354.8055957 159.34363281 355.48106445 160.06347656 356.17700195 C162.874557 354.88004424 164.56313936 353.73165033 166.93847656 351.61450195 C170.32942495 348.96956221 171.8447169 348.43108033 176.06347656 348.17700195 C178.52832031 349.1809082 178.52832031 349.1809082 181.00097656 350.73950195 C190.06490722 356.04943408 199.91729648 359.89045693 210.11035156 362.4387207 C212.55690795 363.36351902 213.57523664 364.00153197 215.06347656 366.17700195 C215.77459034 370.83995413 215.84692935 375.45627272 216.06347656 380.17700195 C222.66347656 380.17700195 229.26347656 380.17700195 236.06347656 380.17700195 C236.16660156 377.92887695 236.26972656 375.68075195 236.37597656 373.36450195 C236.68325114 366.66591613 236.68325114 366.66591613 238.31640625 364.56591797 C240.35023909 362.94902654 242.03998869 362.33491613 244.52832031 361.59887695 C245.40536621 361.32833496 246.28241211 361.05779297 247.18603516 360.77905273 C248.11496582 360.49787598 249.04389648 360.21669922 250.00097656 359.92700195 C257.60628351 357.53424841 263.9398298 354.81819587 270.68847656 350.5715332 C274.08327894 348.57820352 276.12308045 347.94057819 280.06347656 348.17700195 C284.02612804 350.27487627 287.02314232 352.90279585 290.06347656 356.17700195 C293.96633423 354.59032617 296.39868638 352.04349714 299.31347656 349.05200195 C300.20550781 348.14192383 301.09753906 347.2318457 302.01660156 346.29418945 C302.69207031 345.59551758 303.36753906 344.8968457 304.06347656 344.17700195 C302.77962309 341.33461007 301.91936 340.05046058 299.50097656 337.92700195 C297.04422307 335.15528006 295.92985891 333.25304288 295.66503906 329.5246582 C296.38081881 325.30717165 298.88902828 322.02443829 301.14941406 318.45825195 C305.67902916 310.69319749 308.07849351 301.74148094 310.29003906 293.06762695 C311.06347656 291.17700195 311.06347656 291.17700195 314.06347656 289.17700195 C318.38917691 288.60598796 322.70395425 288.43598348 327.06347656 288.17700195 C327.06347656 281.57700195 327.06347656 274.97700195 327.06347656 268.17700195 C325.00097656 268.09450195 322.93847656 268.01200195 320.81347656 267.92700195 C314.80712063 267.68674772 314.80712063 267.68674772 311.77832031 265.6105957 C309.54509707 262.44135178 308.76184147 259.20037573 307.87597656 255.48950195 C305.92304781 247.97961804 302.95857884 241.59514058 298.92211914 234.97509766 C296.87495405 231.46720617 296.06109723 229.6295508 296.08300781 225.4621582 C297.11163004 222.01565904 298.15076522 220.30472098 300.62597656 217.73950195 C301.26664063 217.06016602 301.90730469 216.38083008 302.56738281 215.6809082 C303.06109375 215.18461914 303.55480469 214.68833008 304.06347656 214.17700195 C302.47680078 210.27414429 299.92997175 207.84179213 296.93847656 204.92700195 C296.02839844 204.0349707 295.11832031 203.14293945 294.18066406 202.22387695 C293.48199219 201.5484082 292.78332031 200.87293945 292.06347656 200.17700195 C289.22108468 201.46085543 287.93693519 202.32111851 285.81347656 204.73950195 C282.41188952 207.75454501 279.50563172 208.40966721 275.06347656 208.17700195 C272.22648438 207.18974012 269.79835429 205.69047146 267.25097656 204.11450195 C260.11558236 199.98268009 253.07606464 197.29673383 245.13256836 195.11816406 C239.25367833 193.4623046 239.25367833 193.4623046 237.06347656 190.17700195 C236.49246257 185.8513016 236.32245809 181.53652427 236.06347656 177.17700195 C229.46347656 177.17700195 222.86347656 177.17700195 216.06347656 177.17700195 Z M152.06347656 430.17700195 C152.06347656 436.44700195 152.06347656 442.71700195 152.06347656 449.17700195 C156.72945 445.17759615 161.18813791 441.20980865 165.50097656 436.86450195 C166.04173828 436.32760742 166.5825 435.79071289 167.13964844 435.23754883 C169.83546566 433.06967369 169.83546566 433.06967369 171.06347656 430.17700195 C164.79347656 430.17700195 158.52347656 430.17700195 152.06347656 430.17700195 Z " fill="#000000" transform="translate(166.9365234375,-0.177001953125)"/>
<path d="M0 0 C1.62148732 1.54451799 3.2263883 3.10667534 4.8125 4.6875 C5.5240625 5.37585938 6.235625 6.06421875 6.96875 6.7734375 C16.8383742 16.98470254 22.91446112 31.53658433 23.8125 45.6875 C23.89177734 46.75484375 23.89177734 46.75484375 23.97265625 47.84375 C24.664048 65.88005663 18.12298116 82.72212252 6.28125 96.2265625 C-6.99768593 109.46347648 -23.45451105 116.45902116 -42.1875 117.0625 C-60.43351979 116.42828006 -77.2148239 109.7013592 -90.1875 96.6875 C-101.99727323 83.34058169 -109.24577925 66.40292282 -108.4609375 48.3515625 C-106.48374316 29.08804054 -99.58199932 12.38437442 -84.5625 -0.5 C-75.54784057 -7.34061714 -65.27700989 -12.06245452 -54.1875 -14.3125 C-52.3621875 -14.68375 -52.3621875 -14.68375 -50.5 -15.0625 C-32.30491526 -16.81131183 -13.85983111 -12.10889354 0 0 Z M-78.0703125 17.30859375 C-87.21560166 27.58438913 -91.83716698 41.00908504 -91.1875 54.6875 C-88.90336672 68.83210171 -83.47059289 80.40033329 -72.1875 89.6875 C-60.91530415 97.71301161 -48.0196145 101.50237934 -34.2265625 99.19140625 C-19.40231166 95.81879391 -8.04814965 88.16910607 0.34375 75.34375 C7.00893057 63.28970004 8.15716266 50.29909515 4.87890625 37.0390625 C0.95537135 24.70795281 -7.17299703 14.15508418 -18.59375 7.93359375 C-39.57596313 -2.14671648 -61.14046816 0.90607243 -78.0703125 17.30859375 Z " fill="#000000" transform="translate(435.1875,227.3125)"/>
<path d="M0 0 C1.67820076 -0.01908669 1.67820076 -0.01908669 3.39030457 -0.03855896 C4.61328751 -0.03203308 5.83627045 -0.0255072 7.09631348 -0.01878357 C8.3876973 -0.02739914 9.67908112 -0.03601471 11.00959778 -0.04489136 C14.54890705 -0.06739286 18.08776932 -0.06444435 21.62712288 -0.05556989 C24.58203274 -0.0504602 27.53685857 -0.05775227 30.49175978 -0.06504196 C37.46206982 -0.08204296 44.43216095 -0.07847278 51.40246582 -0.06175232 C58.59404536 -0.04482422 65.78501822 -0.06067393 72.97653151 -0.0929752 C79.15161618 -0.11966055 85.32651188 -0.12695022 91.50164843 -0.11846012 C95.18956499 -0.11352849 98.87711638 -0.11575885 102.56498718 -0.13624763 C106.67607587 -0.15799454 110.7860118 -0.13921852 114.89709473 -0.11643982 C116.73156914 -0.13397812 116.73156914 -0.13397812 118.60310364 -0.15187073 C126.81422988 -0.05900049 126.81422988 -0.05900049 130.25292969 2.83145142 C131.88816819 6.35917476 132.05583863 8.67061383 131.4967041 12.5146637 C129.62961905 14.87963809 128.17608979 16.17497085 125.4967041 17.5146637 C123.79756402 17.61405713 122.09453804 17.6497363 120.39250183 17.65510559 C119.31155243 17.66081573 118.23060303 17.66652588 117.11689758 17.67240906 C115.92569809 17.67352692 114.7344986 17.67464478 113.50720215 17.67579651 C112.25673096 17.68076141 111.00625977 17.68572632 109.71789551 17.69084167 C106.28182178 17.70296437 102.84580902 17.71041226 99.40972114 17.71485233 C97.26319919 17.71778218 95.1166826 17.72188684 92.97016335 17.72635651 C86.25484736 17.74003426 79.53954359 17.74969922 72.82421464 17.7535584 C65.07132844 17.75803821 57.31861863 17.77558122 49.56578606 17.80455899 C43.57420607 17.82617648 37.5826757 17.83626273 31.59105712 17.83759952 C28.01213512 17.83864762 24.43337886 17.84455624 20.85449791 17.86241913 C16.86101968 17.88196302 12.86791039 17.87761061 8.87438965 17.87110901 C7.09669945 17.88493118 7.09669945 17.88493118 5.28309631 17.89903259 C4.19368744 17.89346344 3.10427856 17.88789429 1.9818573 17.88215637 C0.56573166 17.88435621 0.56573166 17.88435621 -0.87900257 17.88660049 C-4.03929676 17.43869717 -5.92922467 16.37247544 -8.5032959 14.5146637 C-10.06800822 11.38523904 -10.20031548 7.90384146 -9.5032959 4.5146637 C-6.53908771 0.82013373 -4.69326626 0.01355444 0 0 Z " fill="#000000" transform="translate(186.5032958984375,141.48533630371094)"/>
<path d="M0 0 C1.08232407 -0.00571014 2.16464813 -0.01142029 3.2797699 -0.01730347 C4.46737411 -0.01842133 5.65497833 -0.01953918 6.87857056 -0.02069092 C8.12918777 -0.02565582 9.37980499 -0.03062073 10.6683197 -0.03573608 C14.10020212 -0.04784603 17.53202359 -0.05530308 20.96392012 -0.05974674 C23.10826982 -0.06267872 25.25261419 -0.06678374 27.39696121 -0.07125092 C34.10693441 -0.08492278 40.81689541 -0.09459121 47.52688158 -0.09845281 C55.27126769 -0.1029343 63.01547738 -0.12048758 70.75980985 -0.1494534 C76.74716376 -0.17107006 82.73446802 -0.18115706 88.72186053 -0.18249393 C92.29741425 -0.18354188 95.87280205 -0.18944763 99.44831467 -0.20731354 C103.43684332 -0.22685584 107.4251514 -0.22250529 111.41372681 -0.21600342 C113.18906044 -0.22982559 113.18906044 -0.22982559 115.0002594 -0.243927 C116.08822311 -0.23835785 117.17618683 -0.2327887 118.29711914 -0.22705078 C119.71129655 -0.22925062 119.71129655 -0.22925062 121.1540432 -0.2314949 C124.3126392 0.21664474 126.2026405 1.28382529 128.77554321 3.14044189 C130.34489915 6.27915377 130.12755424 8.67900011 129.77554321 12.14044189 C128.03421021 14.83047485 128.03421021 14.83047485 124.77554321 17.14044189 C120.61023171 17.89706048 116.48555037 17.8230646 112.26187134 17.78741455 C110.99145493 17.79617615 109.72103851 17.80493774 108.41212463 17.81396484 C104.93467968 17.83672439 101.45797789 17.82793655 97.98052025 17.81206942 C94.33799644 17.79939268 90.6955354 17.81115543 87.05300903 17.81900024 C80.93647867 17.82809172 74.82025036 17.81612238 68.70376587 17.79229736 C61.63656358 17.76508665 54.57008255 17.7739012 47.50289774 17.80142939 C41.43051949 17.82413407 35.35835812 17.82731403 29.28595114 17.81423604 C25.66119155 17.80644884 22.03677077 17.80537934 18.41203308 17.82191849 C14.37066067 17.83907127 10.33052763 17.815286 6.28921509 17.78741455 C5.09009995 17.79753571 3.8909848 17.80765686 2.65553284 17.81808472 C-5.41891985 17.71476998 -5.41891985 17.71476998 -9.47531128 14.82266235 C-11.76526399 11.31114316 -11.82342607 9.25835575 -11.22445679 5.14044189 C-8.51579426 0.23905256 -5.26778408 0.01663415 0 0 Z " fill="#000000" transform="translate(188.22445678710938,380.85955810546875)"/>
<path d="M0 0 C2.5 1.5 2.5 1.5 4 4 C4.77074376 7.43870292 4.99785084 8.75290684 4 12 C2.44189453 14.12036133 2.44189453 14.12036133 0.3203125 16.39453125 C-0.49493896 17.26883789 -1.31019043 18.14314453 -2.15014648 19.04394531 C-7.06875521 24.17327836 -12.07100106 29.21898921 -17.10473633 34.23510742 C-18.96229592 36.08722325 -20.8143423 37.94473554 -22.66601562 39.80273438 C-23.84863715 40.98469645 -25.03156811 42.16634902 -26.21484375 43.34765625 C-26.76687973 43.90171646 -27.31891571 44.45577667 -27.88768005 45.02662659 C-32.62119751 49.73096537 -32.62119751 49.73096537 -36.5625 50.5 C-46.68365924 49.02783138 -56.3829692 36.38241441 -63 29 C-64.56935594 25.86128812 -64.35201103 23.46144178 -64 20 C-61.54449835 16.50277038 -59.93233832 15.25593601 -55.8125 14.125 C-50.68535433 15.30172196 -48.13554017 18.01765082 -44.4296875 21.640625 C-42.06283697 23.93898147 -39.58804083 25.95819777 -37 28 C-36.19256348 27.18732666 -35.38512695 26.37465332 -34.55322266 25.53735352 C-31.56274972 22.52880861 -28.5689915 19.52355141 -25.57421875 16.51928711 C-24.27741787 15.21745106 -22.98151508 13.91471977 -21.68652344 12.61108398 C-19.82721402 10.73967339 -17.9647206 8.87148418 -16.1015625 7.00390625 C-15.52129303 6.41847549 -14.94102356 5.83304474 -14.34317017 5.22987366 C-9.6713104 0.55736092 -6.69635523 -0.91313935 0 0 Z " fill="#000000" transform="translate(148,143)"/>
<path d="M0 0 C3.38619831 2.22776205 3.91863179 3.66290312 4.875 7.625 C4.67152646 12.00375064 2.47012087 13.99969016 -0.5625 17 C-1.40941406 17.763125 -2.25632813 18.52625 -3.12890625 19.3125 C-5.35199539 21.39343242 -7.29030604 23.42845659 -9.265625 25.7265625 C-13.36605676 30.4859024 -17.74874123 34.93258191 -22.1875 39.375 C-22.98091797 40.18066406 -23.77433594 40.98632812 -24.59179688 41.81640625 C-25.35943359 42.58597656 -26.12707031 43.35554688 -26.91796875 44.1484375 C-27.60656982 44.84114746 -28.2951709 45.53385742 -29.00463867 46.24755859 C-32.24243505 49.09117812 -34.09086762 50.02270251 -38.44140625 49.9140625 C-42.61294008 48.84255985 -44.06957162 47.53401596 -46.9375 44.375 C-49.97527528 41.13378163 -52.9787191 38.05251908 -56.375 35.1875 C-63.70753687 28.81977062 -63.70753687 28.81977062 -64.5625 23.5 C-64 20 -64 20 -61.9375 17.0625 C-59 15 -59 15 -55.6875 14.25 C-51.25880094 15.15075235 -49.37127803 16.79509673 -46.1875 19.8828125 C-44.29604657 21.71346921 -42.36508829 23.42549891 -40.36328125 25.13232422 C-39.41835815 25.93898026 -39.41835815 25.93898026 -38.4543457 26.76193237 C-37.73444458 27.37477585 -37.73444458 27.37477585 -37 28 C-36.16750732 27.15703369 -35.33501465 26.31406738 -34.47729492 25.44555664 C-31.39057305 22.32266478 -28.29726155 19.2063719 -25.2019043 16.09204102 C-23.86252749 14.74259981 -22.52495031 13.39136995 -21.18920898 12.03833008 C-19.27015721 10.09504966 -17.344749 8.15827025 -15.41796875 6.22265625 C-14.5224958 5.31169945 -14.5224958 5.31169945 -13.6089325 4.38233948 C-8.96875946 -0.25908447 -6.4699065 -1.71650581 0 0 Z " fill="#000000" transform="translate(148,223)"/>
<path d="M0 0 C2.98628848 2.33303787 2.99112025 3.92908815 3.46386719 7.7043457 C3.39094524 12.22224432 1.65313357 14.24796058 -1.47137451 17.35209656 C-2.11503967 17.95133438 -2.75870483 18.5505722 -3.421875 19.16796875 C-4.40646698 20.13202385 -4.40646698 20.13202385 -5.41094971 21.11555481 C-7.50586026 23.15924988 -9.62648573 25.17358181 -11.75 27.1875 C-13.85293389 29.21791062 -15.95026668 31.25394991 -18.04620361 33.2915802 C-19.34972755 34.55484995 -20.65837708 35.81285884 -21.97283936 37.06474304 C-24.57911555 39.55858778 -26.97626363 41.97008977 -29.22363281 44.80200195 C-31.75733607 47.93709409 -34.16762128 48.87671658 -38 50 C-44.5397486 49.0019279 -48.26364288 44.18322394 -52.625 39.625 C-53.75035156 38.47257812 -53.75035156 38.47257812 -54.8984375 37.296875 C-56.29715719 35.86343532 -57.69171029 34.4259087 -59.08056641 32.98291016 C-60.43142426 31.58737881 -61.81104887 30.21940801 -63.21044922 28.87255859 C-65.24977869 26.73863539 -65.54530299 25.89939146 -65.5 23 C-65.32990133 20.15084726 -65.0090396 19.01506601 -63.5 16.5 C-60.68800004 14.81280003 -58.43497055 14.25314155 -55.14453125 14.41796875 C-51.72406848 15.34629107 -49.63815658 17.43507558 -47.15234375 19.8828125 C-45.2788465 21.72570816 -43.36428586 23.42916927 -41.36547852 25.13232422 C-40.42007957 25.93898026 -40.42007957 25.93898026 -39.45558167 26.76193237 C-38.73506874 27.37477585 -38.73506874 27.37477585 -38 28 C-37.16227051 27.15703369 -36.32454102 26.31406738 -35.46142578 25.44555664 C-32.35913552 22.32519605 -29.25356127 19.20812177 -26.14697266 16.09204102 C-24.80166944 14.74170225 -23.45726419 13.39046825 -22.11376953 12.03833008 C-20.18496072 10.09742173 -18.25296869 8.15973265 -16.3203125 6.22265625 C-15.41709763 5.31169945 -15.41709763 5.31169945 -14.49563599 4.38233948 C-9.53514388 -0.57882117 -6.95158204 -1.79120519 0 0 Z " fill="#000000" transform="translate(149,303)"/>
<path d="M0 0 C3.51812713 2.52387381 4.79040457 4.07428687 5.75 8.3125 C4.9719084 12.13811703 4.4087712 13.0100054 1.88842773 15.77148438 C1.25323212 16.47144531 0.6180365 17.17140625 -0.03640747 17.89257812 C-0.68439301 18.58802734 -1.33237854 19.28347656 -2 20 C-2.57168915 20.61552734 -3.1433783 21.23105469 -3.73239136 21.86523438 C-7.40277623 25.76948999 -11.15100772 29.59818945 -14.90600586 33.42089844 C-16.26664325 34.81342194 -17.61915216 36.21393187 -18.96362305 37.62207031 C-20.92419881 39.67380796 -22.90972207 41.69818019 -24.90234375 43.71875 C-25.49530746 44.34986694 -26.08827118 44.98098389 -26.69920349 45.63122559 C-29.80576502 48.7236729 -31.82811 50.38277091 -36.31835938 50.45532227 C-41.14112751 49.85887249 -41.14112751 49.85887249 -43.5625 47.4375 C-44.20316406 46.80585938 -44.84382813 46.17421875 -45.50390625 45.5234375 C-46.73947266 44.27433594 -46.73947266 44.27433594 -48 43 C-49.27695924 41.82227207 -50.55720948 40.64810734 -51.83984375 39.4765625 C-53.22806712 38.17347607 -54.61477006 36.86876811 -56 35.5625 C-56.68392822 34.94238037 -57.36785645 34.32226074 -58.07250977 33.68334961 C-61.34471918 30.51392778 -63.43352828 28.37702648 -63.5390625 23.6796875 C-63 20 -63 20 -61.375 17.5625 C-58.4340868 15.62768868 -56.52349544 15.07190807 -53 15 C-48.66472181 17.12399536 -45.50489405 20.25494941 -42.1875 23.6875 C-41.68541016 24.19861328 -41.18332031 24.70972656 -40.66601562 25.23632812 C-39.43936491 26.48634362 -38.21902509 27.7425468 -37 29 C-30.47854246 23.64602018 -24.60578929 17.68698091 -18.6875 11.6875 C-16.71511498 9.68853383 -14.73943603 7.6929078 -12.76171875 5.69921875 C-11.89506592 4.82096436 -11.02841309 3.94270996 -10.13549805 3.0378418 C-6.78432345 -0.1600837 -4.60248439 -0.54146875 0 0 Z " fill="#000000" transform="translate(147,382)"/>
<path d="M0 0 C0.64750214 -0.00335861 1.29500427 -0.00671722 1.96212769 -0.01017761 C4.10180583 -0.01967372 6.24140561 -0.02162999 8.38110352 -0.02270508 C9.86939018 -0.0259184 11.35767653 -0.02928253 12.84596252 -0.03279114 C15.96551241 -0.03877891 19.08503461 -0.04063138 22.20458984 -0.04003906 C26.20055814 -0.03993741 30.19634885 -0.05359379 34.19227505 -0.07081127 C37.26606562 -0.08193286 40.33981327 -0.08395823 43.4136219 -0.08342934 C44.886807 -0.08460905 46.35999321 -0.08903037 47.83315849 -0.0967617 C49.89410706 -0.10656571 51.95467014 -0.10368225 54.015625 -0.09765625 C55.77410011 -0.09979378 55.77410011 -0.09979378 57.56809998 -0.10197449 C60.49597263 0.1389653 62.13877063 0.54905935 64.57250977 2.14526367 C66.8721954 5.36482356 67.12599615 8.270859 66.57250977 12.14526367 C64.00137675 15.38950589 62.49559401 16.96137337 58.38537598 17.78018188 C57.18578247 17.78415985 55.98618896 17.78813782 54.75024414 17.79223633 C54.0845491 17.80099792 53.41885406 17.80975952 52.73298645 17.81878662 C50.54340466 17.84070436 48.35586025 17.82625844 46.16625977 17.80932617 C44.63838312 17.81269659 43.11050909 17.81755109 41.5826416 17.82382202 C38.38483076 17.83118289 35.18771956 17.82051437 31.98999023 17.79711914 C27.89727846 17.76863041 23.80620604 17.7850388 19.71355438 17.81498146 C16.55983192 17.83307654 13.40649615 17.8272866 10.25276184 17.8143425 C8.74412338 17.81101452 7.23544945 17.81507422 5.72685242 17.82674026 C3.61521865 17.83948725 1.50621397 17.82002619 -0.60522461 17.79223633 C-1.80481812 17.78825836 -3.00441162 17.7842804 -4.24035645 17.78018188 C-8.36185013 16.95912711 -9.86300357 15.4131883 -12.42749023 12.14526367 C-12.96165926 8.33930936 -12.98318379 6.1508044 -11.11499023 2.77026367 C-7.84259905 -0.38092784 -4.30836845 0.01401821 0 0 Z " fill="#000000" transform="translate(189.427490234375,415.854736328125)"/>
<path d="M0 0 C0.67530258 -0.00861557 1.35060516 -0.01723114 2.04637146 -0.02610779 C4.27357568 -0.04876793 6.49952154 -0.04202947 8.72680664 -0.03295898 C10.27853265 -0.03819496 11.83025546 -0.04447135 13.38197327 -0.05174255 C16.63273097 -0.06214702 19.88305095 -0.05758557 23.13378906 -0.04296875 C27.29485627 -0.02578812 31.45454169 -0.04926515 35.61545467 -0.08445835 C38.81975921 -0.10644589 42.02373386 -0.10498763 45.22809029 -0.09669304 C46.76186195 -0.09587409 48.29565797 -0.10272675 49.82935905 -0.11746407 C51.97694011 -0.13493547 54.12204856 -0.12035144 56.26953125 -0.09765625 C57.48990585 -0.09669449 58.71028046 -0.09573273 59.96763611 -0.09474182 C64.11351215 0.71111637 65.60630333 2.26669381 68.19946289 5.53344727 C68.94409529 9.50482007 68.57213167 10.9744441 66.32446289 14.34594727 C63.81526661 16.92894343 63.02981266 17.49104831 59.44902039 17.67388916 C58.27829483 17.68071716 57.10756927 17.68754517 55.90136719 17.69458008 C54.93274246 17.70202744 54.93274246 17.70202744 53.94454956 17.70962524 C51.80424947 17.72425191 49.66402354 17.7310503 47.52368164 17.73657227 C46.03636167 17.74232411 44.54904173 17.74808184 43.0617218 17.75384521 C39.94039565 17.76435719 36.81909527 17.77019829 33.69775391 17.77368164 C29.70290007 17.77916127 25.70838795 17.80317676 21.71364117 17.83165359 C18.63980626 17.85030251 15.56605321 17.8554868 12.49216652 17.85701752 C11.01979521 17.86004043 9.54742521 17.8680568 8.07510948 17.8812027 C6.01172506 17.89830812 3.94916926 17.89637241 1.88574219 17.88989258 C0.12607368 17.89536102 0.12607368 17.89536102 -1.66914368 17.90093994 C-5.13960566 17.49365501 -7.01872123 16.61237215 -9.80053711 14.53344727 C-11.36524944 11.40402261 -11.49755669 7.92262503 -10.80053711 4.53344727 C-7.5812634 0.32024454 -5.17980277 0.02632663 0 0 Z " fill="#000000" transform="translate(187.800537109375,176.466552734375)"/>
<path d="M0 0 C1.28498383 -0.00960754 2.56996765 -0.01921509 3.89389038 -0.02911377 C5.29856183 -0.03396167 6.70323535 -0.03824052 8.10791016 -0.04199219 C9.54896038 -0.04774597 10.99001059 -0.05350367 12.43106079 -0.05926514 C15.45225378 -0.06976647 18.47342023 -0.07561485 21.49462891 -0.07910156 C25.36054334 -0.08458556 29.22610544 -0.10861485 33.09190941 -0.13707352 C36.06880714 -0.15572285 39.04562036 -0.1609067 42.02257156 -0.16243744 C43.44749503 -0.16545916 44.87241719 -0.17347151 46.29728317 -0.18662262 C48.29316965 -0.20372968 50.28920185 -0.19995132 52.28515625 -0.1953125 C53.4197226 -0.19895813 54.55428894 -0.20260376 55.72323608 -0.20635986 C59.17075635 0.20920193 61.00891414 1.0881646 63.77197266 3.16113281 C66.1174694 6.67937793 66.35188668 8.01888975 65.77197266 12.16113281 C63.18699874 15.43936574 61.68855434 16.98297147 57.54014587 17.7893219 C56.31977127 17.79028366 55.09939667 17.79124542 53.84204102 17.79223633 C52.82645866 17.80296928 52.82645866 17.80296928 51.7903595 17.81391907 C49.56348164 17.83075997 47.33863015 17.81143648 45.11181641 17.79003906 C43.55912612 17.79086811 42.00643592 17.79332884 40.45375061 17.79734802 C37.20465581 17.80020269 33.95625164 17.78553664 30.70727539 17.75805664 C26.54513838 17.72394494 22.38423364 17.73000406 18.22203732 17.74871922 C15.01776374 17.75929238 11.81377645 17.7503492 8.6095295 17.7353344 C7.07495537 17.73015629 5.54035131 17.7306299 4.00578117 17.73687935 C1.86070415 17.74233696 -0.28261378 17.7219446 -2.42749023 17.69458008 C-3.64706924 17.6883815 -4.86664825 17.68218292 -6.1231842 17.67579651 C-9.80424252 17.06561848 -10.98261471 16.08162012 -13.22802734 13.16113281 C-13.95607686 10.42024053 -13.80245975 7.93092075 -13.22802734 5.16113281 C-9.572783 0.24545938 -5.82420983 0.03510026 0 0 Z " fill="#000000" transform="translate(190.22802734375,335.8388671875)"/>
<path d="M0 0 C0.68666245 -0.00861557 1.37332489 -0.01723114 2.08079529 -0.02610779 C4.34526513 -0.0487675 6.60849751 -0.04203036 8.87304688 -0.03295898 C10.4495887 -0.03819436 12.02612739 -0.04447053 13.60266113 -0.05174255 C16.9046911 -0.06214647 20.20629011 -0.05758539 23.50830078 -0.04296875 C27.73895962 -0.02577385 31.96826122 -0.04928321 36.19876862 -0.08445835 C39.45364371 -0.10642244 42.70819347 -0.10499355 45.96311951 -0.09669304 C47.52283721 -0.09587309 49.0825787 -0.10274498 50.64222717 -0.11746407 C52.82353078 -0.13489533 55.00238842 -0.1203853 57.18359375 -0.09765625 C58.42395386 -0.09669449 59.66431396 -0.09573273 60.94226074 -0.09474182 C64.09179688 0.53344727 64.09179688 0.53344727 66.49230957 2.88539124 C68.46239919 6.14700369 68.7169142 7.78274331 68.09179688 11.53344727 C65.23495888 16.12479405 65.23495888 16.12479405 62.33604431 17.16108704 C59.50885435 17.63016771 56.80075738 17.66873297 53.93383789 17.67871094 C52.6889711 17.68509079 51.44410431 17.69147064 50.16151428 17.69804382 C48.80624429 17.69957254 47.45097378 17.70068648 46.09570312 17.70141602 C44.7009223 17.70463093 43.30614181 17.70799518 41.91136169 17.71150208 C38.99029763 17.71748356 36.06926311 17.71934295 33.14819336 17.71875 C29.41129896 17.71864836 25.67459448 17.73230675 21.93774509 17.74952221 C19.05778641 17.76065757 16.17787344 17.76266875 13.29789543 17.76214027 C11.92043337 17.76331783 10.54297004 17.76772703 9.16552925 17.77547264 C7.23676133 17.78530426 5.30793751 17.78112205 3.37915039 17.77636719 C2.28313004 17.77779221 1.18710968 17.77921722 0.05787659 17.78068542 C-3.70300256 17.4671966 -6.53195228 16.38767193 -9.72070312 14.40844727 C-11.31640142 11.88892364 -11.31960872 9.49881357 -11.40429688 6.56860352 C-9.94465251 0.58061366 -5.43480337 0.0271599 0 0 Z " fill="#000000" transform="translate(187.908203125,256.466552734375)"/>
</svg>
