<?xml version="1.0" encoding="UTF-8"?>
<svg version="1.1" xmlns="http://www.w3.org/2000/svg" width="512" height="512">
<path d="M0 0 C2.04097873 -0.00570836 4.08195426 -0.01267441 6.1229248 -0.02079773 C11.64326694 -0.03868651 17.16344977 -0.03756956 22.68381214 -0.03185534 C27.29652919 -0.02875927 31.90921583 -0.03486016 36.52192855 -0.04089409 C47.40071264 -0.05492178 58.27941815 -0.05339083 69.15820312 -0.04199219 C80.37938986 -0.03049463 91.60033806 -0.04461822 102.82149339 -0.07138866 C112.46418892 -0.09353149 122.10680949 -0.10018676 131.74952865 -0.09431225 C137.50532104 -0.09094028 143.26096027 -0.09337464 149.01673126 -0.11056328 C154.42427657 -0.12600913 159.83146723 -0.12210297 165.23899841 -0.10325813 C167.22315655 -0.09956666 169.20734085 -0.10269691 171.19147491 -0.11314392 C173.89989079 -0.12631634 176.60712581 -0.11484009 179.31549072 -0.09715271 C180.10050972 -0.10675772 180.88552872 -0.11636272 181.69433618 -0.12625879 C186.91054182 -0.05616217 189.83711146 1.12881342 193.86621094 4.40405273 C197.49454757 8.22335445 198.17621552 11.2868428 198.36621094 16.40405273 C198.17621552 21.52126267 197.49454757 24.58475101 193.86621094 28.40405273 C189.18615098 32.17510201 185.54644326 32.9797744 179.68840027 32.90284729 C178.88108044 32.90823184 178.07376062 32.9136164 177.24197656 32.91916412 C174.5450392 32.93240611 171.84901675 32.91730525 169.15209961 32.90234375 C167.2150989 32.90616793 165.27810103 32.91178782 163.34111023 32.91906738 C159.17336606 32.93101446 155.00587384 32.93053116 150.83812523 32.9204731 C144.24431172 32.90490604 137.6507567 32.91859543 131.05696106 32.93650818 C118.24613091 32.96732938 105.43537972 32.96882966 92.62451935 32.96685791 C76.32881447 32.96546521 60.03317056 32.97584635 43.7375105 33.01543564 C37.18677437 33.03035185 30.63626734 33.03011173 24.08552778 33.01795781 C20.00428659 33.01323832 15.92313259 33.02078011 11.84190559 33.03150177 C9.9541505 33.03390268 8.06638066 33.03119112 6.17864227 33.02289391 C3.59385679 33.01221556 1.00973729 33.02006744 -1.57502747 33.03224182 C-2.68517667 33.02087774 -2.68517667 33.02087774 -3.81775314 33.00928408 C-10.25366653 33.07319 -16.73600591 34.19071444 -21.57128906 38.65405273 C-25.71553507 45.94792572 -25.41990146 53.13878516 -25.39448547 61.33370972 C-25.39831102 62.64007735 -25.40213657 63.94644499 -25.40607804 65.29239953 C-25.41634795 68.90774253 -25.4141788 72.52298626 -25.40989745 76.13833737 C-25.40742839 80.04163761 -25.41644663 83.94491406 -25.42393494 87.84820557 C-25.43667901 95.49109449 -25.43847599 103.13394828 -25.43613467 110.77684604 C-25.43435101 116.98989764 -25.4361022 123.20293859 -25.44035912 129.41598892 C-25.4409543 130.30055758 -25.44154949 131.18512624 -25.44216272 132.09650002 C-25.44337448 133.8935577 -25.44458862 135.69061538 -25.4458051 137.48767306 C-25.45667954 154.33756661 -25.45451861 171.18744014 -25.44842025 188.03733481 C-25.44325133 203.44703402 -25.45450606 218.85667 -25.47351847 234.26635669 C-25.4928975 250.09471144 -25.50115274 265.92303628 -25.49739522 281.75140297 C-25.49548325 290.63553773 -25.49797028 299.51961867 -25.51210976 308.40374374 C-25.52402535 315.96701304 -25.52542645 323.53019541 -25.51331959 331.09346591 C-25.50743212 334.9507936 -25.50632775 338.8079623 -25.51832199 342.66527939 C-25.53118425 346.85045499 -25.52071323 351.03525244 -25.50801086 355.22042847 C-25.51907229 357.04159803 -25.51907229 357.04159803 -25.53035718 358.8995589 C-25.48181612 366.49936796 -25.25976455 374.01757929 -19.88378906 379.84155273 C-12.58991608 383.98579875 -5.39905664 383.69016513 2.79586792 383.66474915 C4.10223556 383.66857469 5.40860319 383.67240024 6.75455773 383.67634171 C10.36990074 383.68661162 13.98514446 383.68444248 17.60049558 383.68016112 C21.50379582 383.67769206 25.40707227 383.6867103 29.31036377 383.69419861 C36.95325269 383.70694268 44.59610648 383.70873966 52.23900424 383.70639835 C58.45205585 383.70461468 64.66509679 383.70636587 70.87814713 383.71062279 C71.76271579 383.71121798 72.64728445 383.71181317 73.55865822 383.71242639 C75.3557159 383.71363815 77.15277358 383.71485229 78.94983126 383.71606877 C95.79972481 383.72694321 112.64959834 383.72478228 129.49949302 383.71868392 C144.90919222 383.713515 160.3188282 383.72476973 175.72851489 383.74378214 C191.55686964 383.76316117 207.38519449 383.77141642 223.21356118 383.76765889 C232.09769593 383.76574692 240.98177688 383.76823395 249.86590195 383.78237343 C257.42917124 383.79428902 264.99235362 383.79569012 272.55562411 383.78358326 C276.4129518 383.77769579 280.27012051 383.77659142 284.12743759 383.78858566 C288.31261319 383.80144792 292.49741065 383.7909769 296.68258667 383.77827454 C298.50375624 383.78933596 298.50375624 383.78933596 300.3617171 383.80062085 C307.96152616 383.75207979 315.4797375 383.53002822 321.30371094 378.15405273 C324.58751206 372.37456277 325.15859449 366.61649107 325.11776733 360.08580017 C325.12073747 359.27550922 325.12370761 358.46521828 325.12676775 357.63037306 C325.1343737 354.92977849 325.12792784 352.22940361 325.12158203 349.52880859 C325.12433346 347.58679558 325.12801428 345.6447837 325.1325531 343.70277405 C325.14065211 339.52801428 325.14283686 335.35330803 325.14060593 331.17854118 C325.13776978 324.57711801 325.15213519 317.97580158 325.16958618 311.37440491 C325.21658721 292.60525097 325.24056078 273.83610472 325.24707031 255.06689453 C325.25081917 244.69534414 325.26883176 234.32391493 325.30216467 223.95241648 C325.32239261 217.38995108 325.32474246 210.82779789 325.3138845 204.26531398 C325.31127929 200.18417649 325.32527161 196.10322125 325.34396553 192.02213097 C325.34929212 190.12989719 325.34778277 188.23762995 325.33893013 186.34540939 C325.32781678 183.76161027 325.34123062 181.17904536 325.36068726 178.59532166 C325.3515626 177.84716578 325.34243794 177.0990099 325.33303678 176.32818264 C325.40791242 171.21628429 326.67958834 168.35833135 329.86621094 164.40405273 C333.68551266 160.7757161 336.749001 160.09404815 341.86621094 159.90405273 C346.98342088 160.09404815 350.04690922 160.7757161 353.86621094 164.40405273 C357.74180517 169.17416876 358.44218708 172.96554676 358.37414551 178.9413147 C358.38350545 180.21037267 358.38350545 180.21037267 358.39305449 181.50506818 C358.40897804 184.3331728 358.39638251 187.16041474 358.38378906 189.98852539 C358.3892107 192.01918032 358.3963336 194.04983131 358.4050293 196.08047485 C358.4232674 201.59324422 358.41619114 207.10571417 358.40351295 212.61848879 C358.3933796 218.39446089 358.40278034 224.1704075 358.40905762 229.94638062 C358.41633653 239.65253289 358.40674353 249.35856347 358.38769531 259.06469727 C358.36596296 270.26751357 358.3729506 281.47003825 358.39500093 292.67284739 C358.4131919 302.30197625 358.41569408 311.93101763 358.40524626 321.56015813 C358.39902691 327.30613119 358.398132 333.05196754 358.41139221 338.79793167 C358.42300253 344.20709897 358.41483051 349.61589331 358.39181519 355.0250206 C358.38655412 357.00342441 358.38799692 358.98185993 358.39686584 360.96025085 C358.4676553 378.36493574 355.75446531 391.00371135 343.55371094 404.15405273 C332.58333988 414.53672534 320.48498348 416.86021152 305.83670044 416.79173279 C304.43418575 416.7959122 303.03167445 416.80139304 301.62916934 416.8080526 C297.79832692 416.82244638 293.96770074 416.81828162 290.13684678 416.81088579 C285.99631142 416.8061413 281.85582199 416.81867527 277.71530151 416.8289032 C269.61259329 416.8460716 261.50996269 416.84693527 253.407241 416.84169029 C246.81909216 416.83764365 240.2309662 416.83909803 233.64281845 416.84443855 C232.23461358 416.84556119 232.23461358 416.84556119 230.79796012 416.8467065 C228.89058423 416.84823803 226.98320835 416.84977637 225.07583247 416.85132147 C207.20145995 416.86503947 189.32713124 416.85961378 171.45275973 416.84813625 C155.1140798 416.83820501 138.77551314 416.85114391 122.43685068 416.87507045 C105.6444801 416.89947539 88.85216224 416.90906586 72.05977428 416.90241772 C62.63846027 416.89892855 53.21723334 416.90113758 43.79593277 416.91866875 C35.77569358 416.93340818 27.75560281 416.93400345 19.73536648 416.91659784 C15.64672941 416.90809971 11.55835727 416.90590902 7.46973419 416.92124939 C3.72037549 416.93514222 -0.02849246 416.93027508 -3.77782311 416.91101015 C-5.76274812 416.9055012 -7.74769842 416.91948326 -9.7325753 416.93436426 C-24.36399402 416.81490717 -35.21956719 411.98571045 -45.88378906 402.09155273 C-56.26646167 391.12118168 -58.58994785 379.02282528 -58.52146912 364.37454224 C-58.52564853 362.97202755 -58.53112937 361.56951625 -58.53778893 360.16701114 C-58.55218271 356.33616871 -58.54801795 352.50554254 -58.54062212 348.67468858 C-58.53587763 344.53415322 -58.5484116 340.39366379 -58.55863953 336.25314331 C-58.57580793 328.15043509 -58.57667159 320.04780448 -58.57142662 311.9450828 C-58.56737997 305.35693396 -58.56883436 298.768808 -58.57417488 292.18066025 C-58.5749233 291.241857 -58.57567173 290.30305375 -58.57644283 289.33580192 C-58.57797435 287.42842603 -58.5795127 285.52105015 -58.58105779 283.61367427 C-58.5947758 265.73930175 -58.58935011 247.86497304 -58.57787258 229.99060152 C-58.56794134 213.6519216 -58.58088024 197.31335494 -58.60480677 180.97469248 C-58.62921171 164.1823219 -58.63880219 147.39000403 -58.63215405 130.59761608 C-58.62866488 121.17630206 -58.63087391 111.75507514 -58.64840508 102.33377457 C-58.66314451 94.31353538 -58.66373977 86.29344461 -58.64633416 78.27320828 C-58.63783604 74.18457121 -58.63564535 70.09619907 -58.65098572 66.00757599 C-58.66487855 62.25821729 -58.66001141 58.50934933 -58.64074648 54.76001869 C-58.63523753 52.77509367 -58.64921958 50.79014338 -58.66410059 48.8052665 C-58.54464349 34.17384778 -53.71544677 23.31827461 -43.82128906 12.65405273 C-30.92501356 0.44864913 -16.76263962 -0.04233993 0 0 Z " fill="#000000" transform="translate(74.1337890625,79.595947265625)"/>
<path d="M0 0 C1.31218506 -0.0112793 2.62437012 -0.02255859 3.97631836 -0.03417969 C5.41845926 -0.02640353 6.86059796 -0.01821092 8.30273438 -0.00964355 C9.83081732 -0.01506733 11.35889504 -0.02219143 12.88696289 -0.03088379 C17.02750517 -0.04908987 21.16764793 -0.042061 25.30819702 -0.02936745 C29.64557963 -0.01922564 33.98292852 -0.0286364 38.3203125 -0.03491211 C45.60357796 -0.04218508 52.88668107 -0.03261004 60.16992188 -0.0135498 C68.5849636 0.00821833 76.99961764 0.0011667 85.41464996 -0.02085543 C92.64541182 -0.03901944 99.87605711 -0.04156287 107.10683441 -0.03110075 C111.42293145 -0.0248713 115.73884638 -0.02401502 120.05493164 -0.0372467 C124.11312975 -0.04881923 128.17082905 -0.04075428 132.22897339 -0.01766968 C133.71645276 -0.01239002 135.20397427 -0.0138837 136.69143677 -0.02272034 C138.7252653 -0.03368693 140.75918579 -0.01748202 142.79296875 0 C143.93004272 0.0015081 145.0671167 0.0030162 146.23864746 0.00457001 C151.49744079 0.84283059 154.40174835 3.30347923 157.73973846 7.34521484 C159.61144718 10.91829749 159.89909809 13.09964646 159.90441895 17.1114502 C159.92133789 19.07972778 159.92133789 19.07972778 159.93859863 21.08776855 C159.93082247 22.52990945 159.92262986 23.97204815 159.9140625 25.41418457 C159.91948628 26.94226752 159.92661038 28.47034523 159.93530273 29.99841309 C159.95350881 34.13895536 159.94647994 38.27909813 159.93378639 42.41964722 C159.92364458 46.75702983 159.93305535 51.09437871 159.93933105 55.4317627 C159.94660403 62.71502816 159.93702898 69.99813127 159.91796875 77.28137207 C159.89620062 85.69641379 159.90325224 94.11106783 159.92527437 102.52610016 C159.94343838 109.75686201 159.94598182 116.9875073 159.9355197 124.21828461 C159.92929025 128.53438164 159.92843396 132.85029657 159.94166565 137.16638184 C159.95323817 141.22457995 159.94517322 145.28227924 159.92208862 149.34042358 C159.91680896 150.82790296 159.91830265 152.31542447 159.92713928 153.80288696 C159.93810588 155.83671549 159.92190096 157.87063599 159.90441895 159.90441895 C159.90215679 161.61002991 159.90215679 161.61002991 159.89984894 163.35009766 C159.10134917 168.35945317 156.50677709 171.4531565 152.89648438 174.88293457 C147.73148429 177.28097032 142.99625558 177.26174992 137.39648438 176.50793457 C132.43075398 174.20241688 129.9541915 171.30158831 127.39648438 166.50793457 C126.81158272 162.94474459 126.83240977 159.42575386 126.85058594 155.82092285 C126.84024826 154.7569075 126.82991058 153.69289215 126.81925964 152.59663391 C126.78983357 149.09035045 126.78833245 145.58464431 126.78710938 142.07824707 C126.77212768 139.64300434 126.75540056 137.20777178 126.73699951 134.77255249 C126.6933131 128.37092624 126.67332381 121.96943706 126.65826416 115.56768799 C126.63869794 109.03206269 126.59672728 102.49658552 126.55664062 95.96105957 C126.48132433 83.14340143 126.43028021 70.325766 126.39648438 57.50793457 C125.9134462 57.99173218 125.43040803 58.47552979 124.93273234 58.97398794 C96.32121867 87.63023118 67.70450572 116.2812729 39.0810058 144.92554381 C35.64625098 148.36280012 32.21153976 151.80009998 28.77685547 155.23742676 C28.09305393 155.92175292 27.40925239 156.60607908 26.70472959 157.3111424 C15.62424848 168.40033261 4.54730437 179.49304947 -6.52834287 190.58706741 C-17.8880693 201.96547883 -29.25157392 213.34010663 -40.61861491 224.71121085 C-47.63588689 231.73123079 -54.65017435 238.75420603 -61.66070572 245.78095759 C-66.46452305 250.59532453 -71.27199625 255.40602042 -76.08239231 260.21381401 C-78.86005662 262.99019387 -81.63604974 265.76819377 -84.40772438 268.55055428 C-86.94367276 271.09620845 -89.48416336 273.63723461 -92.02839383 276.17461057 C-93.38680006 277.53176666 -94.74025584 278.89387213 -96.09354711 280.25612867 C-96.89920889 281.05780835 -97.70487067 281.85948804 -98.53494644 282.68546104 C-99.22907521 283.38034925 -99.92320397 284.07523745 -100.63836694 284.79118288 C-105.36314128 288.91874046 -109.59305384 288.93909928 -115.68945312 288.82043457 C-120.99091664 288.25191301 -123.44324057 285.72927673 -126.97851562 282.00793457 C-129.32677288 276.95014971 -129.5744887 271.99107664 -128.60351562 266.50793457 C-125.23113106 260.51215039 -120.35415308 255.98564952 -115.50469971 251.16860962 C-114.57431562 250.23651668 -113.64393154 249.30442375 -112.68535399 248.34408557 C-110.11070852 245.7649787 -107.52988661 243.19213175 -104.94799447 240.62028217 C-102.16186384 237.84280115 -99.38152846 235.05952944 -96.60047913 232.27696228 C-91.78395729 227.45939255 -86.96379175 222.64549365 -82.14112091 217.83407974 C-75.16838425 210.87760804 -68.20118708 203.91560994 -61.23532268 196.9522575 C-49.93308935 185.6543997 -38.62639838 174.36101401 -27.31689453 163.07043457 C-16.33180221 152.1037047 -5.34881573 141.13487294 5.63134766 130.16320801 C6.30834476 129.48673635 6.98534186 128.8102647 7.68285403 128.1132939 C11.07919007 124.71956796 14.47548478 121.32580066 17.87175894 117.9320128 C46.04026199 89.78423784 74.21600377 61.64371775 102.39648438 33.50793457 C101.84025831 33.50646801 101.28403225 33.50500145 100.71095085 33.50349045 C87.16443302 33.46640702 73.61816819 33.40712026 60.07185173 33.32403183 C53.52087272 33.28451987 46.97002888 33.25234943 40.41894531 33.23693848 C34.09698013 33.22179671 27.77538649 33.18739445 21.45358658 33.13962555 C19.04149733 33.12478629 16.62935505 33.1168921 14.21722031 33.11605072 C10.83890909 33.11368709 7.46162965 33.08665401 4.08349609 33.05383301 C2.58700783 33.06137856 2.58700783 33.06137856 1.06028748 33.06907654 C-4.67526459 32.98284523 -8.07562399 32.3816631 -12.60351562 28.50793457 C-16.23185226 24.68863285 -16.91352021 21.62514451 -17.10351562 16.50793457 C-16.91352021 11.39072463 -16.23185226 8.32723629 -12.60351562 4.50793457 C-8.26453328 1.13836706 -5.48142721 0.00727002 0 0 Z " fill="#000000" transform="translate(336.603515625,15.4920654296875)"/>
</svg>
