<?xml version="1.0" encoding="UTF-8"?>
<svg version="1.1" xmlns="http://www.w3.org/2000/svg" width="512" height="512">
<path d="M0 0 C7.3585942 4.30157559 11.15404971 9.75645238 13.5 17.9375 C13.89700983 20.9771301 13.91039382 23.96999393 13.88768005 27.03244019 C13.89306559 27.91426724 13.89845113 28.79609429 13.90399987 29.70464337 C13.91823803 32.64161896 13.91118594 35.57814121 13.90405273 38.51513672 C13.90975849 40.62814698 13.91672354 42.74115416 13.92485046 44.85415649 C13.94277492 50.58148882 13.9416147 56.30866787 13.93590808 62.0360198 C13.93281499 66.82223203 13.93891008 71.60841488 13.94494683 76.39462292 C13.95898832 87.68872536 13.95743406 98.98275215 13.94604492 110.27685547 C13.93456588 121.91712932 13.94863678 133.55717271 13.9754414 145.19741619 C13.99761428 155.20191374 14.00423212 165.20633904 13.99836498 175.21085942 C13.99499782 181.18142982 13.99739462 187.15185252 14.01461601 193.12240219 C14.03010808 198.73840564 14.02610421 204.35406834 14.00731087 209.97005844 C14.00363119 212.0267124 14.00671526 214.08339173 14.01719666 216.14002228 C14.11962704 237.90681956 14.11962704 237.90681956 7.4921875 246.55859375 C0.47937811 252.57511841 -5.79255882 255.36482426 -15.125 254.875 C-23.44957475 253.7494237 -28.43870861 250.56736864 -33.95703125 244.328125 C-38.03121424 238.01571996 -38.94194482 232.15838602 -38.88768005 224.83583069 C-38.89306559 223.95329807 -38.89845113 223.07076546 -38.90399987 222.16148943 C-38.91823804 219.22217997 -38.91118596 216.2833235 -38.90405273 213.34399414 C-38.90975845 211.22936136 -38.91672348 209.11473167 -38.92485046 207.00010681 C-38.94277429 201.26870956 -38.94161495 195.53746548 -38.93590808 189.80604863 C-38.93281524 185.01725682 -38.93890972 180.22849438 -38.94494683 175.43970674 C-38.95898779 164.14085054 -38.95743418 152.84206996 -38.94604492 141.54321289 C-38.93456279 129.89496672 -38.94864209 118.24695076 -38.9754414 106.59873492 C-38.99760661 96.5891575 -39.00423394 86.5796523 -38.99836498 76.57005209 C-38.99499636 70.59560122 -38.99740444 64.62129794 -39.01461601 58.64686775 C-39.03009612 53.02840506 -39.02611746 47.41028316 -39.00731087 41.79183388 C-39.00362804 39.73314732 -39.00672447 37.67443546 -39.01719666 35.61577225 C-39.03042908 32.79884175 -39.01883906 29.9830358 -39.00120544 27.16615295 C-39.01081045 26.35738065 -39.02041546 25.54860835 -39.03031152 24.7153278 C-38.93614431 17.37139179 -36.35557055 11.77543142 -32.375 5.6875 C-23.46390683 -2.83615433 -11.42808858 -5.18050401 0 0 Z " fill="#000000" transform="translate(268.5,181.0625)"/>
<path d="M0 0 C5.81836969 5.27984855 9.4592553 10.79818833 10.27734375 18.66796875 C10.56182226 26.91784545 9.01655475 32.77235677 3.875 39.25 C-1.92338333 45.3738643 -7.57560088 47.20879711 -15.9375 47.5625 C-24.3074452 47.29162799 -30.66787457 44.83800535 -36.4375 38.6875 C-41.70915938 31.74324614 -43.03344934 24.61608346 -42 16 C-40.19630842 7.85933867 -35.92391198 2.55062139 -29 -2 C-19.75808722 -6.56133114 -8.42431599 -6.18020645 0 0 Z " fill="#000000" transform="translate(272,81)"/>
</svg>
