<?xml version="1.0" encoding="UTF-8"?>
<svg version="1.1" xmlns="http://www.w3.org/2000/svg" width="512" height="512">
<path d="M0 0 C1.20555794 -0.01051392 1.20555794 -0.01051392 2.43547058 -0.02124023 C5.08949435 -0.03883111 7.74244995 -0.02719405 10.39648438 -0.01367188 C12.24206751 -0.01636649 14.08764926 -0.02024865 15.93322754 -0.02526855 C19.8001864 -0.03116507 23.66677554 -0.02259578 27.53369141 -0.00390625 C32.49055662 0.01888347 37.44655555 0.0057612 42.40338898 -0.01819611 C46.2141167 -0.03264998 50.02463902 -0.02805 53.83537292 -0.01768494 C55.66302086 -0.01501651 57.49068744 -0.01829148 59.3183136 -0.02760315 C61.8728678 -0.03776214 64.42601906 -0.02227788 66.98046875 0 C67.73591476 -0.00809692 68.49136078 -0.01619385 69.2696991 -0.02453613 C72.75095371 0.03171155 74.63924455 0.24648871 77.43225098 2.40368652 C79.31555555 4.95897801 79.91539451 6.33220642 79.99023438 9.51757812 C78.80273438 12.64648437 78.80273438 12.64648437 76.99023438 16.08007812 C76.67642822 16.68779053 76.36262207 17.29550293 76.03930664 17.92163086 C74.43111672 20.99377304 72.73036306 23.98337222 70.89257812 26.92382812 C70.24417969 27.96539062 69.59578125 29.00695312 68.92773438 30.08007812 C68.31800781 31.00949219 67.70828125 31.93890625 67.08007812 32.89648438 C65.68422945 35.45313516 65.68422945 35.45313516 66.76171875 37.90209961 C67.91563895 40.35876635 69.15800039 42.66160583 70.55664062 44.98632812 C71.04197266 45.80488281 71.52730469 46.6234375 72.02734375 47.46679688 C73.04530125 49.16904079 74.06614331 50.86956297 75.08984375 52.56835938 C75.57388672 53.38691406 76.05792969 54.20546875 76.55664062 55.04882812 C76.99951416 55.78681641 77.4423877 56.52480469 77.89868164 57.28515625 C79.58583736 60.73569346 80.282572 63.40137993 79.30273438 67.14257812 C77.77427385 69.90836383 76.71569003 70.92400947 73.99023438 72.51757812 C70.85174561 72.87834167 70.85174561 72.87834167 67.11035156 72.8581543 C66.42701752 72.85859238 65.74368347 72.85903046 65.03964233 72.85948181 C62.78850398 72.85739734 60.53811708 72.83408361 58.28710938 72.81054688 C56.72341316 72.80494968 55.15971167 72.80068016 53.5960083 72.79768372 C49.48593551 72.7862446 45.37618217 72.75678569 41.26623535 72.72357178 C37.07011232 72.69285063 32.87393752 72.67917402 28.67773438 72.6640625 C20.44840497 72.63191482 12.21939625 72.57915474 3.99023438 72.51757812 C3.99023438 82.08757812 3.99023438 91.65757813 3.99023438 101.51757812 C9.72962402 101.48615723 9.72962402 101.48615723 15.58496094 101.45410156 C28.20967166 101.38790046 40.83437964 101.34346666 53.45921707 101.31032944 C61.11564222 101.28969922 68.771903 101.26157006 76.42822266 101.21582031 C83.10104791 101.17596635 89.77375413 101.15014865 96.44669509 101.14122415 C99.98042392 101.13600686 103.51381221 101.12373547 107.04743195 101.0946579 C110.99099639 101.06246982 114.9342269 101.0616178 118.87792969 101.06347656 C120.05109238 101.04909546 121.22425507 101.03471436 122.43296814 101.01989746 C124.04411247 101.02814545 124.04411247 101.02814545 125.68780518 101.03656006 C126.62065968 101.03287289 127.55351418 101.02918571 128.51463699 101.02538681 C131.76808487 101.67222817 132.93999942 102.96240736 134.99023438 105.51757812 C135.90852912 108.27246237 136.11401161 109.87690028 136.11048889 112.71269226 C136.11255089 113.99362259 136.11255089 113.99362259 136.11465454 115.3004303 C136.11105927 116.23406906 136.10746399 117.16770782 136.10375977 118.12963867 C136.10390579 119.11518738 136.10405182 120.10073608 136.10420227 121.1161499 C136.10350472 124.37888783 136.09571965 127.6415689 136.08789062 130.90429688 C136.08602589 133.16445382 136.08460225 135.42461118 136.08360291 137.68476868 C136.07978213 143.63763543 136.06995557 149.59047784 136.05889893 155.54333496 C136.04867537 161.61612621 136.04410326 167.68892138 136.0390625 173.76171875 C136.02833294 185.68034925 136.01126176 197.59896166 135.99023438 209.51757812 C136.95854187 209.50647507 137.92684937 209.49537201 138.92449951 209.4839325 C148.04715841 209.382601 157.16970323 209.30763431 166.29279709 209.25851727 C170.98319695 209.23241658 175.67314274 209.19701026 180.36328125 209.14038086 C184.88907588 209.08607738 189.41443361 209.05616114 193.94052887 209.04319191 C195.66776662 209.03394897 197.39498028 209.01589941 199.12203217 208.98892784 C201.54054028 208.95265786 203.9572405 208.94763165 206.37597656 208.94995117 C207.09095306 208.93197479 207.80592957 208.91399841 208.54257202 208.89547729 C211.85476824 208.92987696 213.63137927 209.21065641 216.17530823 211.38642883 C218.83115392 215.96835045 218.53072878 220.00829439 218.47125244 225.21723938 C218.47467014 226.30773643 218.47808784 227.39823348 218.48160911 228.5217759 C218.48820725 232.18250774 218.46617887 235.84250933 218.44433594 239.50317383 C218.44320788 242.12456749 218.44384049 244.74596242 218.44610596 247.36735535 C218.44820281 253.01442868 218.43565871 258.66131707 218.4131546 264.30834389 C218.3806388 272.47295235 218.37022803 280.63747144 218.36520264 288.80213764 C218.35644931 302.04888789 218.32983275 315.29553958 218.29199219 328.54223633 C218.25527305 341.40974433 218.22696082 354.27722557 218.20996094 367.14477539 C218.20891004 367.9380026 218.20785915 368.7312298 218.20677641 369.5484942 C218.20155624 373.52790381 218.19650141 377.50731361 218.1915288 381.48672354 C218.1500656 414.49708015 218.07961619 447.50731595 217.99023438 480.51757812 C219.24320312 480.47117187 220.49617188 480.42476563 221.78710938 480.37695312 C223.43812719 480.33942999 225.0891708 480.30303041 226.74023438 480.26757812 C227.56523437 480.2340625 228.39023437 480.20054687 229.24023438 480.16601562 C235.38217208 480.06695211 235.38217208 480.06695211 238.50976562 482.38476562 C240.28467374 484.94175727 240.91583359 486.39274524 240.99023438 489.51757812 C238.71312594 495.15613234 238.71312594 495.15613234 235.99023438 496.51757812 C233.4043504 496.6178515 230.84524758 496.65682358 228.25897408 496.6517992 C227.04168107 496.65532755 227.04168107 496.65532755 225.79979628 496.65892717 C223.05117956 496.66564111 220.30260985 496.66515823 217.5539856 496.66474915 C215.57520534 496.66804627 213.59642576 496.67177151 211.61764705 496.67589062 C206.15713177 496.68593576 200.69662747 496.68963144 195.23610425 496.69227993 C189.35597593 496.69617549 183.47585638 496.70575424 177.59573364 496.7144928 C164.05690716 496.73334178 150.51808 496.74351576 136.97924365 496.75195348 C130.2923424 496.75615746 123.60544204 496.76137974 116.91854156 496.76663801 C94.03920802 496.78452836 71.15987423 496.79952596 48.28053474 496.8069582 C46.84379039 496.80743296 45.40704603 496.80790885 43.97030168 496.80838586 C43.25779028 496.80862224 42.54527889 496.80885861 41.81117624 496.80910215 C38.20110317 496.81030338 34.5910301 496.81151882 30.98095703 496.81274414 C30.26452135 496.81298429 29.54808566 496.81322444 28.80993981 496.81347187 C5.57037208 496.8213685 -17.66914467 496.84480774 -40.90869013 496.87730008 C-65.46543987 496.91157156 -90.02215977 496.93130679 -114.57893384 496.93460244 C-117.27287937 496.93502 -119.9668249 496.93549956 -122.66077042 496.93602562 C-123.65579472 496.93621041 -123.65579472 496.93621041 -124.67092053 496.93639893 C-134.69861614 496.93858942 -144.72625625 496.95198327 -154.75393295 496.97106361 C-166.15474237 496.9927061 -177.55545866 497.00085291 -188.9562863 496.99109683 C-194.77748451 496.98653353 -200.59849031 496.98855571 -206.41966248 497.00785828 C-211.74295242 497.02535819 -217.06590773 497.02460029 -222.38920058 497.00896098 C-224.32056257 497.00656475 -226.25194694 497.01101151 -228.18327449 497.02278963 C-230.79820442 497.0377558 -233.41192495 497.0283432 -236.02682304 497.01256275 C-236.78582911 497.02278496 -237.54483517 497.03300717 -238.32684141 497.04353914 C-241.79842337 496.9974582 -243.6633381 496.78481525 -246.45010579 494.63507909 C-248.32339694 492.09177078 -248.93434264 490.68534332 -249.00976562 487.51757812 C-246.73265719 481.87902391 -246.73265719 481.87902391 -244.00976562 480.51757812 C-242.63428406 480.43449175 -241.25490766 480.41021797 -239.87695312 480.41992188 C-239.07128906 480.42314453 -238.265625 480.42636719 -237.43554688 480.4296875 C-236.59378906 480.43806641 -235.75203125 480.44644531 -234.88476562 480.45507812 C-234.03527344 480.45958984 -233.18578125 480.46410156 -232.31054688 480.46875 C-230.21025654 480.48054938 -228.11000232 480.49848506 -226.00976562 480.51757812 C-226.01128451 479.9566288 -226.01280339 479.39567947 -226.0143683 478.81773168 C-226.10385076 445.58264917 -226.17249673 412.34759682 -226.21402694 379.11242088 C-226.21902986 375.12320551 -226.22420714 371.13399039 -226.22949219 367.14477539 C-226.23054143 366.35058341 -226.23159067 365.55639144 -226.23267171 364.73813304 C-226.25008424 351.8730853 -226.28162659 339.00810895 -226.31837681 326.14310358 C-226.35576266 312.94566906 -226.37799648 299.74827197 -226.3861196 286.55078667 C-226.39161229 278.40502756 -226.40896986 270.25947021 -226.44143149 262.11377319 C-226.46504434 255.87111038 -226.46759142 249.62860187 -226.46219635 243.3859005 C-226.46329949 240.82240937 -226.47129162 238.25891082 -226.48658752 235.69546509 C-226.506413 232.20243899 -226.50173116 228.71028457 -226.49078369 225.21723938 C-226.50243506 224.19681134 -226.51408642 223.1763833 -226.52609086 222.1250332 C-226.48912811 217.77844893 -226.4077311 215.20415665 -224.19483948 211.38642883 C-221.09538573 208.73552698 -218.28740476 208.8520987 -214.39550781 208.94995117 C-213.6341452 208.94922104 -212.87278259 208.94849091 -212.08834839 208.94773865 C-209.57704902 208.95121633 -207.06761505 208.9900827 -204.55664062 209.02929688 C-202.8135886 209.03862444 -201.07052344 209.04574082 -199.32745361 209.05073547 C-194.74368993 209.06980992 -190.16072069 209.11891414 -185.57727051 209.17425537 C-180.89862821 209.22543847 -176.2198573 209.24824748 -171.54101562 209.2734375 C-162.36358358 209.32703279 -153.18674071 209.41235072 -144.00976562 209.51757812 C-144.01975838 207.63622917 -144.01975838 207.63622917 -144.029953 205.71687317 C-144.09074762 193.90139341 -144.13573041 182.08594536 -144.16520214 170.27034473 C-144.18086316 164.19570717 -144.20210968 158.1211958 -144.23608398 152.04663086 C-144.26866145 146.18519028 -144.28661536 140.32387115 -144.29439735 134.46234703 C-144.29994373 132.22521744 -144.31077431 129.98809456 -144.3269558 127.75101662 C-144.34870826 124.6194277 -144.35173341 121.48834167 -144.3503418 118.35668945 C-144.36112762 117.43024124 -144.37191345 116.50379303 -144.38302612 115.54927063 C-144.3536192 109.44038534 -143.4470402 105.9548527 -139.00976562 101.51757812 C-136.7802639 101.27148247 -136.7802639 101.27148247 -133.94784546 101.27706909 C-132.34082512 101.2729451 -132.34082512 101.2729451 -130.70133972 101.26873779 C-129.52098648 101.27592834 -128.34063324 101.2831189 -127.12451172 101.29052734 C-125.8855162 101.29023529 -124.64652069 101.28994324 -123.36997986 101.28964233 C-119.96721968 101.29079909 -116.56470051 101.30084742 -113.16198301 101.31479025 C-109.60788396 101.32727074 -106.05378189 101.32846598 -102.49966431 101.33084106 C-95.76712443 101.33706374 -89.0346493 101.35348516 -82.30213797 101.37354004 C-74.63840129 101.39587459 -66.97466156 101.40688631 -59.31090045 101.41693091 C-43.54381797 101.43785074 -27.77680014 101.47304196 -12.00976562 101.51757812 C-12.01864807 100.31123718 -12.02753052 99.10489624 -12.03668213 97.86199951 C-12.11771147 86.50243401 -12.17770396 75.14292703 -12.21701431 63.78313828 C-12.2379035 57.94270549 -12.26624585 52.10250571 -12.31152344 46.26220703 C-12.35493308 40.62769526 -12.3788927 34.99340783 -12.3892746 29.35874176 C-12.3966747 27.20729286 -12.4111251 25.05585646 -12.43268585 22.90450287 C-12.46165448 19.89472259 -12.46572431 16.88587345 -12.46386719 13.87597656 C-12.47824829 12.98333603 -12.49262939 12.0906955 -12.50744629 11.17100525 C-12.48268962 7.47158286 -12.40582742 5.1793056 -10.48199463 1.96502686 C-7.03118913 -0.05536204 -3.88829602 -0.04167503 0 0 Z M3.99023438 16.51757812 C3.99023438 29.38757813 3.99023438 42.25757813 3.99023438 55.51757812 C21.15023438 55.51757812 38.31023437 55.51757812 55.99023438 55.51757812 C52.54700276 48.53464301 52.54700276 48.53464301 48.61523438 41.83007812 C46.57666867 37.67454033 46.97019307 35.9936498 47.99023438 31.51757812 C49.15431267 28.93499115 50.5660769 26.55101458 52.05273438 24.14257812 C54.67344285 20.49352123 54.67344285 20.49352123 55.99023438 16.51757812 C38.83023438 16.51757812 21.67023438 16.51757812 3.99023438 16.51757812 Z M-127.00976562 118.51757812 C-127.00976562 148.54757813 -127.00976562 178.57757813 -127.00976562 209.51757812 C-45.82976562 209.51757812 35.35023438 209.51757812 118.99023438 209.51757812 C118.99023438 179.48757812 118.99023438 149.45757812 118.99023438 118.51757812 C37.81023437 118.51757812 -43.36976563 118.51757812 -127.00976562 118.51757812 Z M-209.00976562 226.51757812 C-209.00976562 310.33757812 -209.00976562 394.15757812 -209.00976562 480.51757812 C-160.16976562 480.51757812 -111.32976562 480.51757812 -61.00976562 480.51757812 C-60.79964406 443.83845877 -60.79964406 443.83845877 -60.62182617 407.15917969 C-60.57189941 400.06787109 -60.57189941 400.06787109 -60.54475403 396.7489624 C-60.52859579 394.42916977 -60.51831327 392.10933173 -60.51264954 389.78948975 C-60.50293669 386.27705576 -60.4746283 382.76521687 -60.44213867 379.25292969 C-60.44356463 378.21806553 -60.4449906 377.18320137 -60.44645977 376.11697769 C-60.43393075 375.17105633 -60.42140173 374.22513496 -60.40849304 373.25054932 C-60.40388408 372.42830997 -60.39927511 371.60607063 -60.39452648 370.75891495 C-59.90530995 367.90909539 -59.05689205 366.55071921 -57.00976562 364.51757812 C-54.99356079 364.01421356 -54.99356079 364.01421356 -52.64501953 364.00964355 C-51.75333069 363.99836426 -50.86164185 363.98708496 -49.94293213 363.97546387 C-48.96725281 363.98356079 -47.99157349 363.99165771 -46.98632812 364 C-45.95683044 363.99299072 -44.92733276 363.98598145 -43.86663818 363.97875977 C-40.45574149 363.96112124 -37.0456711 363.97282378 -33.63476562 363.98632812 C-31.26969238 363.98363491 -28.90462022 363.97975392 -26.53955078 363.97473145 C-21.57964551 363.96882843 -16.62002811 363.97742551 -11.66015625 363.99609375 C-5.2941293 364.01888334 1.07122316 364.00576461 7.43722534 363.98180389 C12.32191067 363.96736784 17.20643539 363.97194191 22.09112549 363.98231506 C24.43874185 363.9849884 26.78637268 363.98169139 29.13397217 363.97239685 C32.41197478 363.96226768 35.68887652 363.97768246 38.96679688 364 C39.9424762 363.99190308 40.91815552 363.98380615 41.92340088 363.97546387 C42.81508972 363.98674316 43.70677856 363.99802246 44.62548828 364.00964355 C45.4005069 364.01115166 46.17552551 364.01265976 46.97402954 364.01421356 C48.99023438 364.51757812 48.99023438 364.51757812 50.73811054 366.25351334 C52.16010757 368.82473938 52.37258674 370.32924008 52.38896179 373.25054932 C52.40775532 374.66943136 52.40775532 374.66943136 52.42692852 376.11697769 C52.42550256 377.15184185 52.4240766 378.18670601 52.42260742 379.25292969 C52.43288121 380.36357662 52.443155 381.47422356 52.45374012 382.61852646 C52.48363951 386.21514063 52.49317198 389.81148181 52.50195312 393.40820312 C52.51741556 395.62810221 52.53421176 397.84799241 52.55236816 400.06787109 C52.61033403 408.30100877 52.64246069 416.53431196 52.67773438 424.76757812 C52.78085937 443.16507813 52.88398438 461.56257813 52.99023438 480.51757812 C101.83023438 480.51757812 150.67023438 480.51757812 200.99023438 480.51757812 C200.99023438 396.69757813 200.99023438 312.87757813 200.99023438 226.51757812 C148.52023437 226.51757812 96.05023438 226.51757812 41.99023438 226.51757812 C41.81973419 252.99452127 41.81973419 252.99452127 41.69238281 279.47167969 C41.64697266 284.59521484 41.64697266 284.59521484 41.6206665 286.99456787 C41.60606262 288.66851108 41.59928142 290.34253372 41.59869385 292.01654053 C41.59627877 294.55420216 41.56896309 297.09050354 41.53613281 299.62792969 C41.54115688 300.37237461 41.54618095 301.11681953 41.55135727 301.88382339 C41.48222094 305.29243178 41.22180345 307.20354327 39.17486572 309.97943115 C35.97197345 312.23451142 33.80940345 312.06317371 29.99023438 311.51757812 C27.80560303 309.97943115 27.80560303 309.97943115 25.99023438 307.51757812 C25.58732801 304.75684265 25.42564622 302.3885641 25.44433594 299.62792969 C25.43399826 298.83730637 25.42366058 298.04668304 25.41300964 297.23210144 C25.38355796 294.62392802 25.38208201 292.01652983 25.38085938 289.40820312 C25.36587928 287.59786497 25.34915249 285.78754049 25.33074951 283.97723389 C25.28704445 279.2162819 25.26706994 274.45551427 25.25201416 269.69439697 C25.23245443 264.83456507 25.19048316 259.97493259 25.15039062 255.11523438 C25.0750541 245.58271001 25.02685509 236.05032994 24.99023438 226.51757812 C18.06023437 226.51757812 11.13023437 226.51757812 3.99023438 226.51757812 C3.97621582 231.03795776 3.97621582 231.03795776 3.96191406 235.6496582 C3.92818851 245.59232536 3.87266447 255.53478398 3.80633163 265.47728443 C3.76677601 271.50708437 3.73462721 277.5367365 3.71923828 283.56665039 C3.70412497 289.38287767 3.66977435 295.1986988 3.62192535 301.01474571 C3.60705648 303.23672651 3.59919023 305.45876528 3.59835052 307.68079567 C3.59599568 310.78674555 3.56903551 313.89155935 3.53613281 316.99731445 C3.54367836 318.38374649 3.54367836 318.38374649 3.55137634 319.79818726 C3.44928664 326.00260281 3.44928664 326.00260281 1.14361572 328.5891571 C-1.79019842 329.85405834 -3.8454533 329.91311717 -7.00976562 329.51757812 C-9.16314697 328.5891571 -9.16314697 328.5891571 -11.00976562 326.51757812 C-11.63984927 323.3557771 -11.57316123 320.21227392 -11.55566406 316.99731445 C-11.56600174 316.02151932 -11.57633942 315.04572418 -11.58699036 314.0403595 C-11.61652525 310.80994314 -11.61791981 307.58015041 -11.61914062 304.34960938 C-11.63411502 302.11186012 -11.65084059 299.87412195 -11.66925049 297.63639832 C-11.71301914 291.74272161 -11.73294426 285.84919401 -11.74798584 279.9553833 C-11.76752259 273.94282174 -11.80949642 267.93042202 -11.84960938 261.91796875 C-11.9250148 250.11786096 -11.97317068 238.31787018 -12.00976562 226.51757812 C-18.93976563 226.51757812 -25.86976563 226.51757812 -33.00976562 226.51757812 C-33.02378418 230.16675293 -33.02378418 230.16675293 -33.03808594 233.88964844 C-33.07184185 241.92445167 -33.1273829 249.95899767 -33.19366837 257.99359512 C-33.23319026 262.86537277 -33.26535556 267.73696839 -33.28076172 272.60888672 C-33.29589735 277.30994092 -33.33028754 282.01049486 -33.37807465 286.7113266 C-33.39292045 288.50543624 -33.40080847 290.29961729 -33.40164948 292.09378815 C-33.40401133 294.60571225 -33.43102603 297.11624498 -33.46386719 299.62792969 C-33.45632164 300.74247276 -33.45632164 300.74247276 -33.44862366 301.87953186 C-33.51767809 305.28959098 -33.77722231 307.20222208 -35.82513428 309.97943115 C-39.02802655 312.23451142 -41.19059655 312.06317371 -45.00976562 311.51757812 C-47.19439697 309.97943115 -47.19439697 309.97943115 -49.00976562 307.51757812 C-49.41274811 304.75632108 -49.5742979 302.38901013 -49.55566406 299.62792969 C-49.56605839 298.82456051 -49.57645271 298.02119133 -49.58716202 297.19347763 C-49.61625884 294.59817106 -49.61822962 292.0036566 -49.61914062 289.40820312 C-49.63313732 287.80385707 -49.64891448 286.19952553 -49.66650391 284.59521484 C-49.71917165 278.65282135 -49.73738215 272.71016286 -49.75976562 266.76757812 C-49.84226563 253.48507812 -49.92476562 240.20257813 -50.00976562 226.51757812 C-102.47976562 226.51757812 -154.94976562 226.51757812 -209.00976562 226.51757812 Z M-44.00976562 379.51757812 C-44.00976562 412.84757812 -44.00976562 446.17757812 -44.00976562 480.51757812 C-33.44976562 480.51757812 -22.88976562 480.51757812 -12.00976562 480.51757812 C-12.00976562 447.18757813 -12.00976562 413.85757813 -12.00976562 379.51757812 C-22.56976563 379.51757812 -33.12976563 379.51757812 -44.00976562 379.51757812 Z M3.99023438 379.51757812 C3.99023438 412.84757812 3.99023438 446.17757812 3.99023438 480.51757812 C14.55023438 480.51757812 25.11023438 480.51757812 35.99023438 480.51757812 C35.99023438 447.18757813 35.99023438 413.85757813 35.99023438 379.51757812 C25.43023437 379.51757812 14.87023437 379.51757812 3.99023438 379.51757812 Z " fill="#000000" transform="translate(260.009765625,7.482421875)"/>
<path d="M0 0 C1.42260384 -0.01270432 1.42260384 -0.01270432 2.87394714 -0.02566528 C6.00993244 -0.04907005 9.1454281 -0.05005661 12.28149414 -0.04882812 C14.46098528 -0.05592747 16.64047455 -0.06362614 18.81996155 -0.07189941 C23.38881628 -0.08535215 27.95749818 -0.08690933 32.52636719 -0.08105469 C38.38220853 -0.07515726 44.23722117 -0.1057489 50.09290218 -0.14617157 C54.59420746 -0.17201641 59.09531234 -0.17492889 63.59668159 -0.17127991 C65.75566249 -0.17297409 67.91465236 -0.18264519 70.07356071 -0.20042419 C73.09257407 -0.22255033 76.10989885 -0.21294384 79.12890625 -0.1953125 C80.02101807 -0.20857574 80.91312988 -0.22183899 81.83227539 -0.23550415 C83.07079506 -0.21869095 83.07079506 -0.21869095 84.33433533 -0.20153809 C85.40365752 -0.20260685 85.40365752 -0.20260685 86.49458218 -0.2036972 C89.96474191 0.81011805 91.44791542 2.58700955 93.62915039 5.41992188 C94.12248558 8.23014312 94.30719264 10.43476602 94.2640686 13.23864746 C94.27186856 14.01935026 94.27966851 14.80005305 94.28770483 15.60441351 C94.30762926 18.21722621 94.29185939 20.82858307 94.27612305 23.44140625 C94.28289899 25.31578929 94.291802 27.19016566 94.30267334 29.06452942 C94.32547593 34.15341563 94.3166263 39.24179526 94.30077791 44.33069038 C94.28812395 49.65484106 94.29985763 54.97894821 94.30770874 60.30310059 C94.31680676 69.24430127 94.30481333 78.1852955 94.28100586 87.12646484 C94.25379437 97.46548365 94.26260842 107.80400948 94.29013789 118.14301634 C94.31282355 127.01789938 94.31603167 135.89263397 94.30294454 144.76753664 C94.29514708 150.06899885 94.29411664 155.37022929 94.31062698 160.67167664 C94.32506451 165.6557442 94.31506298 170.63917584 94.2861557 175.62317467 C94.27954107 177.45293306 94.281449 179.28274491 94.29246902 181.11248207 C94.30612172 183.60944393 94.28901429 186.10436474 94.2640686 188.60119629 C94.28079902 189.68899077 94.28079902 189.68899077 94.29786742 190.79876089 C94.22396498 194.60873428 93.70847166 196.31693593 91.35747337 199.36933041 C88.64157808 201.4105813 87.64342456 202.04538998 84.34106445 202.04811096 C83.51682983 202.06076492 82.69259521 202.07341888 81.84338379 202.0864563 C80.95284302 202.0747641 80.06230225 202.0630719 79.14477539 202.05102539 C77.72195251 202.06175835 77.72195251 202.06175835 76.27038574 202.07270813 C73.13948187 202.08959672 70.01000952 202.07019102 66.87915039 202.04882812 C64.70108929 202.0496568 62.52302825 202.05211615 60.3449707 202.05613708 C55.78195351 202.05899521 51.21942714 202.04429193 46.65649414 202.0168457 C40.80857968 201.98276339 34.9615429 201.98878127 29.11358643 202.00750828 C24.61654348 202.01807859 20.11970463 202.00914006 15.62268066 201.99412346 C13.46651821 201.98894145 11.31033444 201.98942367 9.1541748 201.99566841 C6.14015903 202.00112082 3.12739817 201.98074384 0.11352539 201.95336914 C-0.77701538 201.95989502 -1.66755615 201.9664209 -2.58508301 201.97314453 C-6.62322209 201.91080412 -8.8570753 201.72228222 -12.40112305 199.63658142 C-15.99971072 195.58686007 -15.51599181 191.15072859 -15.50456238 185.94923401 C-15.50682793 185.19388695 -15.50909349 184.43853989 -15.5114277 183.66030353 C-15.51776083 181.12776821 -15.51693878 178.59528651 -15.51611328 176.06274414 C-15.51910517 174.2476291 -15.52250777 172.43251469 -15.52629089 170.61740112 C-15.53513134 165.68563797 -15.53746901 160.75389217 -15.53810668 155.82212186 C-15.53905583 151.70668699 -15.54273413 147.59125617 -15.54627877 143.47582287 C-15.55442326 133.76797813 -15.55686299 124.06014268 -15.55615234 114.35229492 C-15.55555131 104.33324778 -15.56610819 94.31425444 -15.58189601 84.29522091 C-15.59496375 75.6964046 -15.60033657 67.09760589 -15.59969693 58.49877971 C-15.59944175 53.36168619 -15.60230419 48.22464049 -15.61287498 43.08755684 C-15.62254324 38.25719236 -15.62264389 33.42692155 -15.61535835 28.5965538 C-15.61431098 26.82322363 -15.61668445 25.04988767 -15.62271881 23.27656746 C-15.63042003 20.85679872 -15.62580643 18.43735497 -15.61808777 16.01759338 C-15.62580311 14.96379426 -15.62580311 14.96379426 -15.63367432 13.88870627 C-15.59976101 9.08121913 -15.02123896 5.33506129 -11.83152771 1.63366699 C-7.97928844 -0.26647452 -4.23975275 -0.01389613 0 0 Z M1.62915039 17.41992188 C1.62915039 26.98992187 1.62915039 36.55992187 1.62915039 46.41992188 C11.19915039 46.41992188 20.76915039 46.41992188 30.62915039 46.41992188 C30.62915039 36.84992188 30.62915039 27.27992188 30.62915039 17.41992188 C21.05915039 17.41992188 11.48915039 17.41992188 1.62915039 17.41992188 Z M47.62915039 17.41992188 C47.62915039 26.98992187 47.62915039 36.55992187 47.62915039 46.41992188 C57.19915039 46.41992188 66.76915039 46.41992188 76.62915039 46.41992188 C76.62915039 36.84992188 76.62915039 27.27992188 76.62915039 17.41992188 C67.05915039 17.41992188 57.48915039 17.41992188 47.62915039 17.41992188 Z M1.62915039 63.41992188 C1.62915039 72.98992187 1.62915039 82.55992187 1.62915039 92.41992188 C11.19915039 92.41992188 20.76915039 92.41992188 30.62915039 92.41992188 C30.62915039 82.84992188 30.62915039 73.27992188 30.62915039 63.41992188 C21.05915039 63.41992188 11.48915039 63.41992188 1.62915039 63.41992188 Z M47.62915039 63.41992188 C47.62915039 72.98992187 47.62915039 82.55992187 47.62915039 92.41992188 C57.19915039 92.41992188 66.76915039 92.41992188 76.62915039 92.41992188 C76.62915039 82.84992188 76.62915039 73.27992188 76.62915039 63.41992188 C67.05915039 63.41992188 57.48915039 63.41992188 47.62915039 63.41992188 Z M1.62915039 109.41992188 C1.62915039 118.98992187 1.62915039 128.55992187 1.62915039 138.41992188 C11.19915039 138.41992188 20.76915039 138.41992188 30.62915039 138.41992188 C30.62915039 128.84992188 30.62915039 119.27992188 30.62915039 109.41992188 C21.05915039 109.41992188 11.48915039 109.41992188 1.62915039 109.41992188 Z M47.62915039 109.41992188 C47.62915039 118.98992187 47.62915039 128.55992187 47.62915039 138.41992188 C57.19915039 138.41992188 66.76915039 138.41992188 76.62915039 138.41992188 C76.62915039 128.84992188 76.62915039 119.27992188 76.62915039 109.41992188 C67.05915039 109.41992188 57.48915039 109.41992188 47.62915039 109.41992188 Z M1.62915039 155.41992188 C1.62915039 164.98992187 1.62915039 174.55992187 1.62915039 184.41992188 C11.19915039 184.41992188 20.76915039 184.41992188 30.62915039 184.41992188 C30.62915039 174.84992188 30.62915039 165.27992188 30.62915039 155.41992188 C21.05915039 155.41992188 11.48915039 155.41992188 1.62915039 155.41992188 Z M47.62915039 155.41992188 C47.62915039 164.98992187 47.62915039 174.55992187 47.62915039 184.41992188 C57.19915039 184.41992188 66.76915039 184.41992188 76.62915039 184.41992188 C76.62915039 174.84992188 76.62915039 165.27992188 76.62915039 155.41992188 C67.05915039 155.41992188 57.48915039 155.41992188 47.62915039 155.41992188 Z " fill="#000000" transform="translate(85.370849609375,259.580078125)"/>
<path d="M0 0 C0.82423462 -0.0112793 1.64846924 -0.02255859 2.49768066 -0.03417969 C3.38822144 -0.02608276 4.27876221 -0.01798584 5.19628906 -0.00964355 C6.61911194 -0.02015747 6.61911194 -0.02015747 8.07067871 -0.03088379 C11.20138962 -0.04846708 14.3311942 -0.03683954 17.46191406 -0.02331543 C19.63997572 -0.02601024 21.81803621 -0.02989257 23.99609375 -0.03491211 C28.55903588 -0.04080763 33.12166463 -0.03224222 37.68457031 -0.0135498 C43.53245997 0.00923947 49.37961531 -0.00388328 55.22747803 -0.02783966 C59.72450286 -0.042296 64.2213537 -0.03769233 68.71838379 -0.02732849 C70.87455329 -0.02466077 73.03073861 -0.02793255 75.18688965 -0.0372467 C78.20086493 -0.04740929 81.21365223 -0.0319146 84.22753906 -0.00964355 C85.11807983 -0.01774048 86.00862061 -0.0258374 86.92614746 -0.03417969 C88.16249939 -0.01726074 88.16249939 -0.01726074 89.42382812 0 C90.13541077 0.0015081 90.84699341 0.0030162 91.58013916 0.00457001 C94.85916908 0.77882974 96.42746107 2.03955538 98.71191406 4.50793457 C99.2149974 7.30250888 99.38914411 9.49483145 99.34683228 12.2890625 C99.35463223 13.07778354 99.36243218 13.86650458 99.3704685 14.67912626 C99.39043052 17.32500989 99.3746083 19.96946187 99.35888672 22.61535645 C99.36566099 24.51091859 99.37456305 26.40647415 99.38543701 28.30201721 C99.4082595 33.45287478 99.39938177 38.60323242 99.38354158 43.75409889 C99.37089791 49.14011627 99.38261843 54.52609035 99.39047241 59.91210938 C99.39957343 68.95763854 99.38756913 78.00296371 99.36376953 87.04846191 C99.33655747 97.5118779 99.34537131 107.97480679 99.37290156 118.43821096 C99.39557867 127.41581697 99.39879953 136.39327619 99.38570821 145.37090158 C99.37790604 150.73550306 99.37689322 156.09987545 99.39339066 161.46446228 C99.40781576 166.50760682 99.39784945 171.55012232 99.36891937 176.59319878 C99.36229808 178.44595227 99.36422399 180.29875855 99.3752327 182.15149117 C99.38885911 184.67731514 99.3718098 187.20111251 99.34683228 189.72680664 C99.35798588 190.46337982 99.36913949 191.19995299 99.38063109 191.95884657 C99.30976013 195.64293213 98.97800653 197.22041843 96.44023705 199.96250916 C93.76548953 201.47758739 92.43926823 202.00947833 89.42382812 202.01586914 C88.59959351 202.02714844 87.77535889 202.03842773 86.92614746 202.05004883 C86.03560669 202.0419519 85.14506592 202.03385498 84.22753906 202.0255127 C83.27899048 202.03252197 82.33044189 202.03953125 81.35314941 202.04675293 C78.22243851 202.06433622 75.09263393 202.05270868 71.96191406 202.03918457 C69.7838524 202.04187938 67.60579192 202.04576171 65.42773438 202.05078125 C60.86479224 202.05667677 56.3021635 202.04811136 51.73925781 202.02941895 C45.89136815 202.00662967 40.04421282 202.01975243 34.1963501 202.0437088 C29.69932526 202.05816514 25.20247442 202.05356147 20.70544434 202.04319763 C18.54927483 202.04052991 16.39308951 202.04380169 14.23693848 202.05311584 C11.22296319 202.06327843 8.2101759 202.04778374 5.19628906 202.0255127 C4.30574829 202.03360962 3.41520752 202.04170654 2.49768066 202.05004883 C1.67344604 202.03876953 0.84921143 202.02749023 0 202.01586914 C-0.71158264 202.01436104 -1.42316528 202.01285294 -2.15631104 202.01129913 C-5.43534095 201.2370394 -7.00363294 199.97631376 -9.28808594 197.50793457 C-9.79116928 194.71336027 -9.96531598 192.52103769 -9.92300415 189.72680664 C-9.9308041 188.9380856 -9.93860406 188.14936456 -9.94664037 187.33674288 C-9.96660239 184.69085925 -9.95078018 182.04640728 -9.93505859 179.4005127 C-9.94183287 177.50495055 -9.95073493 175.60939499 -9.96160889 173.71385193 C-9.98443137 168.56299437 -9.97555365 163.41263672 -9.95971346 158.26177025 C-9.94706978 152.87575287 -9.95879031 147.48977879 -9.96664429 142.10375977 C-9.97574531 133.0582306 -9.96374101 124.01290543 -9.93994141 114.96740723 C-9.91272935 104.50399124 -9.92154318 94.04106235 -9.94907343 83.57765818 C-9.97175055 74.60005217 -9.97497141 65.62259295 -9.96188009 56.64496756 C-9.95407791 51.28036608 -9.9530651 45.91599369 -9.96956253 40.55140686 C-9.98398764 35.50826232 -9.97402132 30.46574682 -9.94509125 25.42267036 C-9.93846996 23.56991687 -9.94039586 21.71711059 -9.95140457 19.86437798 C-9.96503099 17.338554 -9.94798167 14.81475663 -9.92300415 12.2890625 C-9.93415776 11.55248932 -9.94531137 10.81591615 -9.95680296 10.05702257 C-9.88593201 6.37293701 -9.5541784 4.79545071 -7.01640892 2.05335999 C-4.34166141 0.53828175 -3.01544011 0.00639081 0 0 Z M7.71191406 17.50793457 C7.71191406 27.07793457 7.71191406 36.64793457 7.71191406 46.50793457 C16.95191406 46.50793457 26.19191406 46.50793457 35.71191406 46.50793457 C35.71191406 36.93793457 35.71191406 27.36793457 35.71191406 17.50793457 C26.47191406 17.50793457 17.23191406 17.50793457 7.71191406 17.50793457 Z M52.71191406 17.50793457 C52.71191406 27.07793457 52.71191406 36.64793457 52.71191406 46.50793457 C62.28191406 46.50793457 71.85191406 46.50793457 81.71191406 46.50793457 C81.71191406 36.93793457 81.71191406 27.36793457 81.71191406 17.50793457 C72.14191406 17.50793457 62.57191406 17.50793457 52.71191406 17.50793457 Z M7.71191406 63.50793457 C7.71191406 73.07793457 7.71191406 82.64793457 7.71191406 92.50793457 C16.95191406 92.50793457 26.19191406 92.50793457 35.71191406 92.50793457 C35.71191406 82.93793457 35.71191406 73.36793457 35.71191406 63.50793457 C26.47191406 63.50793457 17.23191406 63.50793457 7.71191406 63.50793457 Z M52.71191406 63.50793457 C52.71191406 73.07793457 52.71191406 82.64793457 52.71191406 92.50793457 C62.28191406 92.50793457 71.85191406 92.50793457 81.71191406 92.50793457 C81.71191406 82.93793457 81.71191406 73.36793457 81.71191406 63.50793457 C72.14191406 63.50793457 62.57191406 63.50793457 52.71191406 63.50793457 Z M7.71191406 109.50793457 C7.71191406 119.07793457 7.71191406 128.64793457 7.71191406 138.50793457 C16.95191406 138.50793457 26.19191406 138.50793457 35.71191406 138.50793457 C35.71191406 128.93793457 35.71191406 119.36793457 35.71191406 109.50793457 C26.47191406 109.50793457 17.23191406 109.50793457 7.71191406 109.50793457 Z M52.71191406 109.50793457 C52.71191406 119.07793457 52.71191406 128.64793457 52.71191406 138.50793457 C62.28191406 138.50793457 71.85191406 138.50793457 81.71191406 138.50793457 C81.71191406 128.93793457 81.71191406 119.36793457 81.71191406 109.50793457 C72.14191406 109.50793457 62.57191406 109.50793457 52.71191406 109.50793457 Z M7.71191406 155.50793457 C7.71191406 165.07793457 7.71191406 174.64793457 7.71191406 184.50793457 C16.95191406 184.50793457 26.19191406 184.50793457 35.71191406 184.50793457 C35.71191406 174.93793457 35.71191406 165.36793457 35.71191406 155.50793457 C26.47191406 155.50793457 17.23191406 155.50793457 7.71191406 155.50793457 Z M52.71191406 155.50793457 C52.71191406 165.07793457 52.71191406 174.64793457 52.71191406 184.50793457 C62.28191406 184.50793457 71.85191406 184.50793457 81.71191406 184.50793457 C81.71191406 174.93793457 81.71191406 165.36793457 81.71191406 155.50793457 C72.14191406 155.50793457 62.57191406 155.50793457 52.71191406 155.50793457 Z " fill="#000000" transform="translate(338.2880859375,259.4920654296875)"/>
<path d="M0 0 C1.60186157 -0.01891296 1.60186157 -0.01891296 3.23608398 -0.03820801 C4.95807007 -0.02606262 4.95807007 -0.02606262 6.71484375 -0.01367188 C7.89828369 -0.01749878 9.08172363 -0.02132568 10.30102539 -0.02526855 C12.80258027 -0.02798997 15.30416349 -0.02061291 17.80566406 -0.00390625 C21.63801424 0.01749809 25.46848949 -0.00370232 29.30078125 -0.02929688 C31.73047289 -0.02665364 34.16016337 -0.02152876 36.58984375 -0.01367188 C37.73783447 -0.0217688 38.8858252 -0.02986572 40.06860352 -0.03820801 C41.13651123 -0.02559937 42.20441895 -0.01299072 43.3046875 0 C44.7122229 0.00477356 44.7122229 0.00477356 46.14819336 0.00964355 C49.43936619 0.67721546 50.60850144 1.89499843 52.65234375 4.51757812 C53.73883909 7.39253819 53.78765089 10.13491795 53.81347656 13.19091797 C53.82308411 14.11222504 53.83269165 15.0335321 53.84259033 15.98275757 C53.84684021 16.97135773 53.85109009 17.95995789 53.85546875 18.97851562 C53.86116882 20.0018399 53.8668689 21.02516418 53.8727417 22.07949829 C53.88218098 24.24309254 53.88872142 26.4067011 53.89257812 28.5703125 C53.90228709 31.87330266 53.93332242 35.17567134 53.96484375 38.47851562 C53.97137388 40.5826786 53.97662431 42.68684602 53.98046875 44.79101562 C53.99281555 45.77556732 54.00516235 46.76011902 54.0178833 47.77450562 C54.00078056 53.06080282 53.80565877 57.04222109 50.65234375 61.51757812 C47.61535409 63.43701044 45.24709492 63.77326181 41.68774414 63.79223633 C40.21084862 63.80653435 40.21084862 63.80653435 38.70411682 63.82112122 C37.64675827 63.82020981 36.58939972 63.8192984 35.5 63.81835938 C34.40771591 63.8226445 33.31543182 63.82692963 32.19004822 63.8313446 C29.88101901 63.83708525 27.57197172 63.83759013 25.26293945 63.83325195 C21.7316195 63.83009313 18.20113819 63.8535514 14.66992188 63.87890625 C12.42578231 63.88117938 10.18164049 63.88188268 7.9375 63.88085938 C6.88216568 63.89006912 5.82683136 63.89927887 4.73951721 63.9087677 C-4.48443741 63.85060103 -4.48443741 63.85060103 -8.34765625 60.51757812 C-9.6087436 57.99540343 -9.49517981 56.22017321 -9.5246582 53.39697266 C-9.53749344 52.32891388 -9.55032867 51.2608551 -9.56355286 50.16043091 C-9.57093979 49.00211761 -9.57832672 47.84380432 -9.5859375 46.65039062 C-9.59400925 45.46412079 -9.60208099 44.27785095 -9.61039734 43.05563354 C-9.62424582 40.54214951 -9.63496454 38.02864662 -9.64282227 35.51513672 C-9.66005441 31.66532963 -9.70393762 27.81637674 -9.74804688 23.96679688 C-9.75817172 21.52800112 -9.76668847 19.08919806 -9.7734375 16.65039062 C-9.79094559 15.49612579 -9.80845367 14.34186096 -9.82649231 13.15261841 C-9.82356674 12.07825531 -9.82064117 11.00389221 -9.81762695 9.89697266 C-9.82349319 8.95258331 -9.82935944 8.00819397 -9.83540344 7.03518677 C-8.75910657 1.47965644 -5.26463413 0.01785464 0 0 Z M7.65234375 17.51757812 C7.65234375 27.08757812 7.65234375 36.65757812 7.65234375 46.51757812 C17.22234375 46.51757812 26.79234375 46.51757812 36.65234375 46.51757812 C36.65234375 36.94757813 36.65234375 27.37757813 36.65234375 17.51757812 C27.08234375 17.51757812 17.51234375 17.51757812 7.65234375 17.51757812 Z " fill="#000000" transform="translate(311.34765625,139.482421875)"/>
<path d="M0 0 C1.60197487 -0.01902626 1.60197487 -0.01902626 3.23631287 -0.03843689 C4.38946487 -0.03550125 5.54261688 -0.03256561 6.73071289 -0.02954102 C8.50799522 -0.03740379 8.50799522 -0.03740379 10.32118225 -0.04542542 C12.82869686 -0.05185333 15.33624158 -0.05049874 17.84375 -0.04199219 C21.68487166 -0.03348822 25.5245041 -0.06222613 29.36547852 -0.09399414 C31.79972286 -0.09560631 34.23396984 -0.09502832 36.66821289 -0.09204102 C38.39490456 -0.10889198 38.39490456 -0.10889198 40.15647888 -0.12608337 C41.22761429 -0.11670242 42.29874969 -0.10732147 43.40234375 -0.09765625 C44.81440346 -0.097407 44.81440346 -0.097407 46.25498962 -0.09715271 C49.59456811 0.56947223 50.75963009 1.68014978 52.76586914 4.40405273 C53.26707458 6.90820312 53.26707458 6.90820312 53.26757812 9.75170898 C53.27695908 10.8196167 53.28634003 11.88752441 53.29600525 12.98779297 C53.28477127 14.13578369 53.27353729 15.28377441 53.26196289 16.46655273 C53.26341812 17.64999268 53.26487335 18.83343262 53.26637268 20.05273438 C53.26471302 22.55430565 53.25314443 25.05588706 53.23242188 27.55737305 C53.20347891 31.38951936 53.21181042 35.22028177 53.22485352 39.05249023 C53.21861588 41.48218447 53.21022475 43.91187433 53.19946289 46.34155273 C53.20239853 47.48954346 53.20533417 48.63753418 53.20835876 49.8203125 C53.1893325 51.42217407 53.1893325 51.42217407 53.16992188 53.05639648 C53.16451889 53.99475342 53.15911591 54.93311035 53.15354919 55.89990234 C52.69205039 58.88087184 51.84493734 60.24240352 49.76586914 62.40405273 C46.85260799 63.37513979 44.94887343 63.54127712 41.91479492 63.56518555 C40.93012238 63.57479309 39.94544983 63.58440063 38.93093872 63.59429932 C37.86841888 63.59854919 36.80589905 63.60279907 35.71118164 63.60717773 C34.07063309 63.61572784 34.07063309 63.61572784 32.39694214 63.62445068 C30.08193937 63.6339006 27.76692315 63.64043463 25.4519043 63.64428711 C21.9117893 63.65399536 18.37225417 63.68502056 14.83227539 63.71655273 C12.58358092 63.72308259 10.3348823 63.72833313 8.08618164 63.73217773 C7.02771027 63.74452454 5.96923889 63.75687134 4.87869263 63.76959229 C-4.66383436 63.74069346 -4.66383436 63.74069346 -8.23413086 60.40405273 C-11.18525208 55.79167489 -10.52144832 50.09657266 -10.49975586 44.81030273 C-10.50166931 43.78602173 -10.50358276 42.76174072 -10.5055542 41.7064209 C-10.50691291 39.54459385 -10.50323844 37.38275856 -10.49487305 35.22094727 C-10.48416926 31.9159102 -10.49477918 28.61141669 -10.50756836 25.30639648 C-10.50624671 23.2035307 -10.5036842 21.10066526 -10.49975586 18.99780273 C-10.50380432 18.01122681 -10.50785278 17.02465088 -10.51202393 16.00817871 C-10.47509935 10.59359681 -10.43788941 6.23616893 -6.98808289 1.80271912 C-4.59574216 -0.10502209 -3.03995318 0.01746248 0 0 Z M6.76586914 17.40405273 C6.76586914 26.97405273 6.76586914 36.54405273 6.76586914 46.40405273 C16.33586914 46.40405273 25.90586914 46.40405273 35.76586914 46.40405273 C35.76586914 36.83405273 35.76586914 27.26405273 35.76586914 17.40405273 C26.19586914 17.40405273 16.62586914 17.40405273 6.76586914 17.40405273 Z " fill="#000000" transform="translate(157.234130859375,139.595947265625)"/>
<path d="M0 0 C1.60186157 -0.01891296 1.60186157 -0.01891296 3.23608398 -0.03820801 C4.95807007 -0.02606262 4.95807007 -0.02606262 6.71484375 -0.01367188 C7.89828369 -0.01749878 9.08172363 -0.02132568 10.30102539 -0.02526855 C12.80258027 -0.02798997 15.30416349 -0.02061291 17.80566406 -0.00390625 C21.63801424 0.01749809 25.46848949 -0.00370232 29.30078125 -0.02929688 C31.73047289 -0.02665364 34.16016337 -0.02152876 36.58984375 -0.01367188 C37.73783447 -0.0217688 38.8858252 -0.02986572 40.06860352 -0.03820801 C41.13651123 -0.02559937 42.20441895 -0.01299072 43.3046875 0 C44.7122229 0.00477356 44.7122229 0.00477356 46.14819336 0.00964355 C49.47923061 0.68530145 50.6484732 1.79965201 52.65234375 4.51757812 C53.15354919 7.02172852 53.15354919 7.02172852 53.15405273 9.86523438 C53.16343369 10.93314209 53.17281464 12.0010498 53.18247986 13.10131836 C53.17124588 14.24930908 53.1600119 15.3972998 53.1484375 16.58007812 C53.14989273 17.76351807 53.15134796 18.94695801 53.15284729 20.16625977 C53.15118763 22.66783104 53.13961904 25.16941245 53.11889648 27.67089844 C53.08995352 31.50304475 53.09828503 35.33380716 53.11132812 39.16601562 C53.10509049 41.59570986 53.09669936 44.02539972 53.0859375 46.45507812 C53.08887314 47.60306885 53.09180878 48.75105957 53.09483337 49.93383789 C53.07580711 51.53569946 53.07580711 51.53569946 53.05639648 53.16992188 C53.0509935 54.10827881 53.04559052 55.04663574 53.0400238 56.01342773 C52.578525 58.99439724 51.73141195 60.35592891 49.65234375 62.51757812 C46.7390826 63.48866518 44.83534804 63.65480251 41.80126953 63.67871094 C40.81659698 63.68831848 39.83192444 63.69792603 38.81741333 63.70782471 C37.75489349 63.71207458 36.69237366 63.71632446 35.59765625 63.72070312 C33.9571077 63.72925323 33.9571077 63.72925323 32.28341675 63.73797607 C29.96841398 63.74742599 27.65339776 63.75396002 25.33837891 63.7578125 C21.79826391 63.76752075 18.25872878 63.79854595 14.71875 63.83007812 C12.47005553 63.83660798 10.22135691 63.84185852 7.97265625 63.84570312 C6.91418488 63.85804993 5.8557135 63.87039673 4.76516724 63.88311768 C-4.48910039 63.85509182 -4.48910039 63.85509182 -8.34765625 60.51757812 C-9.6087436 57.99540343 -9.49517981 56.22017321 -9.5246582 53.39697266 C-9.53749344 52.32891388 -9.55032867 51.2608551 -9.56355286 50.16043091 C-9.57093979 49.00211761 -9.57832672 47.84380432 -9.5859375 46.65039062 C-9.59400925 45.46412079 -9.60208099 44.27785095 -9.61039734 43.05563354 C-9.62424582 40.54214951 -9.63496454 38.02864662 -9.64282227 35.51513672 C-9.66005441 31.66532963 -9.70393762 27.81637674 -9.74804688 23.96679688 C-9.75817172 21.52800112 -9.76668847 19.08919806 -9.7734375 16.65039062 C-9.79094559 15.49612579 -9.80845367 14.34186096 -9.82649231 13.15261841 C-9.82356674 12.07825531 -9.82064117 11.00389221 -9.81762695 9.89697266 C-9.82349319 8.95258331 -9.82935944 8.00819397 -9.83540344 7.03518677 C-8.75910657 1.47965644 -5.26463413 0.01785464 0 0 Z M7.65234375 17.51757812 C7.65234375 27.08757812 7.65234375 36.65757812 7.65234375 46.51757812 C16.89234375 46.51757812 26.13234375 46.51757812 35.65234375 46.51757812 C35.65234375 36.94757813 35.65234375 27.37757813 35.65234375 17.51757812 C26.41234375 17.51757812 17.17234375 17.51757812 7.65234375 17.51757812 Z " fill="#000000" transform="translate(234.34765625,139.482421875)"/>
</svg>
