<?xml version="1.0" encoding="UTF-8"?>
<svg version="1.1" xmlns="http://www.w3.org/2000/svg" width="512" height="512">
<path d="M0 0 C3.45521463 2.88338388 6.75001871 5.88843359 10 9 C10.74636719 9.68320313 11.49273437 10.36640625 12.26171875 11.0703125 C18.88236958 17.33277804 23.97963336 24.44348262 29 32 C29.6290625 32.93328125 30.258125 33.8665625 30.90625 34.828125 C49.2364558 63.98981604 52.74134486 101.83430463 45.2578125 135.01171875 C44.84764887 136.67674909 44.42839377 138.33956662 44 140 C43.67854004 141.25611084 43.67854004 141.25611084 43.35058594 142.53759766 C33.96348137 178.13890909 15.87091213 210.92147301 -6.16064453 240.22363281 C-6.69432648 240.93384583 -7.22800842 241.64405884 -7.77786255 242.37579346 C-8.18116791 242.91178162 -8.58447327 243.44776978 -9 244 C-7.11865105 244.00213753 -7.11865105 244.00213753 -5.19929504 244.00431824 C6.61639019 244.02098232 18.43173077 244.0637382 30.24723339 244.13209057 C36.32185498 244.16639214 42.39622423 244.19147554 48.47094727 244.19555664 C54.33262427 244.19983269 60.19373171 244.22823866 66.05523109 244.27343178 C68.2923075 244.28642884 70.52945198 244.29070669 72.76656151 244.28615379 C75.89863077 244.28126372 79.02902517 244.30727107 82.16088867 244.34057617 C83.55056099 244.32763771 83.55056099 244.32763771 84.9683075 244.31443787 C89.38805791 244.39330631 91.36572073 244.50498141 94.94184875 247.29594421 C98.49689016 251.96665552 98.49689016 251.96665552 99.76953125 253.92431641 C100.25728027 254.66773285 100.7450293 255.41114929 101.24755859 256.17709351 C101.76398926 256.97716827 102.28041992 257.77724304 102.8125 258.6015625 C103.649021 259.88034775 103.649021 259.88034775 104.50244141 261.18496704 C105.70838474 263.02927656 106.91174532 264.87527691 108.11279297 266.72277832 C111.35362841 271.70666336 114.61463206 276.6773167 117.875 281.6484375 C118.54684326 282.67356445 119.21868652 283.69869141 119.91088867 284.75488281 C125.64968974 293.49789307 131.47492578 302.18017609 137.34106445 310.83813477 C139.78311828 314.4424875 142.2076829 318.05764753 144.61791992 321.68334961 C150.01896896 329.78739328 155.4824423 337.73333774 161.48828125 345.40234375 C175.4187432 363.55367195 178.65919654 378.07459356 177.12890625 400.984375 C177.08268127 401.73699112 177.0364563 402.48960724 176.98883057 403.26502991 C176.69335396 406.36943636 176.26757573 408.61547786 174.47280121 411.19467497 C170.99009246 413.73730608 167.79748609 413.55212636 163.64782715 413.50336456 C162.79346982 413.50917833 161.93911249 413.51499209 161.05886555 413.52098203 C158.17633135 413.53565972 155.29463833 413.52166066 152.41210938 413.50793457 C150.33260409 413.51254041 148.25310205 413.51889118 146.17360687 413.52684355 C140.44388556 413.54360347 134.71442937 413.53526025 128.98470688 413.52289867 C122.8114819 413.51387771 116.63830369 413.5278032 110.46508789 413.53881836 C99.06561315 413.55560886 87.66624697 413.55410901 76.26677489 413.54317249 C65.73667871 413.53311935 55.20661367 413.53047921 44.67651367 413.53526306 C43.97865035 413.5355686 43.28078703 413.53587414 42.56177634 413.53618894 C39.7290851 413.53743425 36.89639388 413.53870784 34.06370267 413.540028 C7.4784206 413.55227032 -19.10680737 413.54116014 -45.69208109 413.51964041 C-69.32339555 413.50065727 -92.9546238 413.50235576 -116.5859375 413.52148438 C-143.12187778 413.54289226 -169.65777024 413.55140218 -196.19371796 413.53903532 C-199.02131652 413.53775241 -201.84891509 413.53650105 -204.67651367 413.53526306 C-205.37276582 413.53494675 -206.06901797 413.53463044 -206.78636867 413.53430455 C-217.31112411 413.52975025 -227.83584504 413.53508395 -238.3605957 413.54518127 C-250.3249731 413.55660237 -262.28924863 413.5534069 -274.25362206 413.5320583 C-280.36240802 413.52151871 -286.47101865 413.51747552 -292.57980347 413.53065491 C-298.16578634 413.54252444 -303.75143043 413.53610639 -309.33738232 413.5147447 C-311.36423499 413.51025548 -313.39111596 413.51259643 -315.41795063 413.52224785 C-318.16165651 413.53431639 -320.90418405 413.52203461 -323.64782715 413.50336456 C-324.84323514 413.51741156 -324.84323514 413.51741156 -326.06279278 413.53174233 C-329.56730823 413.48369447 -331.60632186 413.29023984 -334.46486664 411.18277311 C-340.61734862 402.4346913 -338.66325674 384.79717081 -337.31054688 374.75634766 C-334.17680051 358.13312016 -321.02159081 343.71557941 -311.11425781 330.55224609 C-305.08017051 322.49197131 -299.55808764 314.09094184 -293.99023438 305.70565796 C-291.02676423 301.25789422 -288.02253478 296.83784165 -285.0234375 292.4140625 C-280.28510232 285.41115304 -275.58489316 278.38403929 -270.9140625 271.3359375 C-270.35106949 270.48719055 -269.78807648 269.6384436 -269.20802307 268.76397705 C-266.54376071 264.74629132 -263.88452113 260.72542581 -261.2331543 256.69921875 C-260.29753749 255.28634296 -259.36175647 253.87357588 -258.42578125 252.4609375 C-258.00330109 251.81530853 -257.58082092 251.16967957 -257.14553833 250.50448608 C-254.22696676 246.11348338 -254.22696676 246.11348338 -252 245 C-250.64460339 244.89692817 -249.28439916 244.85358659 -247.92514038 244.84178162 C-246.64627205 244.82709839 -246.64627205 244.82709839 -245.34156799 244.81211853 C-244.40433395 244.80636307 -243.46709991 244.8006076 -242.50146484 244.79467773 C-241.51606216 244.78477814 -240.53065948 244.77487854 -239.51539612 244.76467896 C-236.24726797 244.73300597 -232.97912526 244.70828361 -229.7109375 244.68359375 C-227.44934707 244.66302923 -225.18776054 244.6420329 -222.92617798 244.62062073 C-216.96511986 244.56534821 -211.00402675 244.5159618 -205.04290771 244.46777344 C-198.9634692 244.41759619 -192.88408166 244.36189044 -186.8046875 244.30664062 C-174.86983519 244.19899571 -162.93493867 244.09756483 -151 244 C-151.75522446 242.97505936 -152.51044891 241.95011871 -153.28855896 240.89411926 C-154.28935073 239.53337528 -155.29008522 238.17258916 -156.29077148 236.81176758 C-156.78737022 236.13813423 -157.28396896 235.46450089 -157.79561615 234.77045441 C-161.40722365 229.8556828 -164.84521608 224.87086924 -168.0625 219.6875 C-168.5572583 218.89537109 -169.0520166 218.10324219 -169.56176758 217.28710938 C-195.98688453 174.58703251 -217.4316501 122.61593629 -205.83837891 71.57495117 C-199.8231038 47.85256014 -187.9070339 27.53978217 -171 10 C-170.01773438 8.92298828 -170.01773438 8.92298828 -169.015625 7.82421875 C-163.11677885 1.53463707 -156.13883693 -3.23469978 -149 -8 C-148.06542969 -8.63035156 -147.13085938 -9.26070312 -146.16796875 -9.91015625 C-101.51354417 -37.95492362 -40.6570982 -32.25220595 0 0 Z M-157 20 C-157.61359375 20.52851562 -158.2271875 21.05703125 -158.859375 21.6015625 C-173.16324385 34.88372643 -182.81049171 53.42391919 -188 72 C-188.3196875 73.06347656 -188.639375 74.12695312 -188.96875 75.22265625 C-193.95704974 94.9680094 -192.38986466 117.50436793 -187 137 C-186.81808105 137.68094727 -186.63616211 138.36189453 -186.44873047 139.06347656 C-185.16378222 143.78299159 -183.65116762 148.39677749 -182 153 C-181.73767578 153.73589355 -181.47535156 154.47178711 -181.20507812 155.22998047 C-165.14073556 199.46257267 -136.30710768 237.91239372 -104.60546875 272.17578125 C-102.08567906 274.9071275 -99.60118243 277.66663139 -97.125 280.4375 C-94.17139552 283.72626527 -91.16823671 286.91513794 -88 290 C-86.72782824 291.2694935 -85.45706567 292.54040027 -84.1875 293.8125 C-83.58292969 294.41707031 -82.97835937 295.02164062 -82.35546875 295.64453125 C-81.90816406 296.09183594 -81.46085937 296.53914063 -81 297 C-77.76951252 295.5800745 -75.61757512 293.86380613 -73.13671875 291.3671875 C-72.41419922 290.64273437 -71.69167969 289.91828125 -70.94726562 289.171875 C-70.20154297 288.41390625 -69.45582031 287.6559375 -68.6875 286.875 C-67.95337891 286.14023437 -67.21925781 285.40546875 -66.46289062 284.6484375 C-62.33792816 280.4905339 -58.38094778 276.23556445 -54.55688477 271.79980469 C-52.46450411 269.38095096 -50.29510329 267.03661855 -48.125 264.6875 C-43.68216232 259.80438111 -39.42415863 254.81633413 -35.31494141 249.64941406 C-34.38152345 248.47856896 -33.44318119 247.31164205 -32.50146484 246.14746094 C-0.14179998 206.08684166 31.20262535 155.71926217 31.25 102.5625 C31.25067474 101.88637665 31.25134949 101.2102533 31.25204468 100.51364136 C31.23638168 90.65692921 30.85677841 81.50339591 28 72 C27.6596875 70.78183594 27.319375 69.56367188 26.96875 68.30859375 C18.34952961 39.91758063 -2.01397165 16.11006064 -28 2 C-71.6018141 -20.8684161 -120.71873545 -11.60349145 -157 20 Z M-248.36425781 266.265625 C-249.93404961 269.09277533 -249.93404961 269.09277533 -251 272 C-251.38436218 272.94327148 -251.76872437 273.88654297 -252.16473389 274.85839844 C-252.4403717 275.56512695 -252.71600952 276.27185547 -253 277 C-251.11510864 277.02187378 -251.11510864 277.02187378 -249.19213867 277.04418945 C-244.53462108 277.10211604 -239.87758984 277.17934911 -235.22045898 277.26245117 C-233.20393765 277.2957271 -231.18732258 277.32375068 -229.1706543 277.34643555 C-226.273519 277.37993256 -223.37724482 277.43224544 -220.48046875 277.48828125 C-219.57725388 277.49467117 -218.674039 277.5010611 -217.74345398 277.50764465 C-216.90280899 277.52743881 -216.062164 277.54723297 -215.19604492 277.56762695 C-214.45658127 277.57873001 -213.71711761 277.58983307 -212.95524597 277.60127258 C-210.41978266 278.11832197 -209.52917716 278.93366978 -208 281 C-207.36795451 287.01054363 -208.47455508 291.09606194 -211.26171875 296.453125 C-211.77514832 297.48809616 -211.77514832 297.48809616 -212.2989502 298.54397583 C-213.4146131 300.78655102 -214.55116165 303.0178419 -215.6875 305.25 C-216.86060007 307.59866432 -218.02777211 309.95021381 -219.19465637 312.30197144 C-219.98291753 313.88986599 -220.77295351 315.47688069 -221.56474304 317.0630188 C-225.2418441 324.43875983 -228.74058918 331.8894561 -232.1875 339.375 C-232.69047607 340.46458008 -233.19345215 341.55416016 -233.71166992 342.67675781 C-235.14370887 345.78331003 -236.57188808 348.89164054 -238 352 C-239.98 356.29 -241.96 360.58 -244 365 C-135.76 365 -27.52 365 84 365 C81.03 358.4 78.06 351.8 75 345 C74.02564423 340.12822117 73.83143754 339.10885519 76 335 C78.50934299 333.7453285 80.28377355 333.84126442 83.09228516 333.79467773 C84.68370834 333.7647599 84.68370834 333.7647599 86.30728149 333.73423767 C87.45626923 333.71752518 88.60525696 333.70081268 89.7890625 333.68359375 C90.96262299 333.66281265 92.13618347 333.64203156 93.3453064 333.62062073 C97.10514304 333.55508017 100.86505122 333.49621924 104.625 333.4375 C107.16927832 333.39431908 109.71354933 333.35070493 112.2578125 333.30664062 C118.50513207 333.19939418 124.75252326 333.0976362 131 333 C130.29423828 331.89591797 130.29423828 331.89591797 129.57421875 330.76953125 C128.95160156 329.79371094 128.32898438 328.81789063 127.6875 327.8125 C127.07261719 326.84957031 126.45773437 325.88664062 125.82421875 324.89453125 C124 322 124 322 122.62435913 319.16999817 C121.17749709 316.74915154 121.17749709 316.74915154 118.43301392 316.41459656 C117.40662811 316.43206436 116.38024231 316.44953217 115.32275391 316.4675293 C113.57546494 316.47679695 113.57546494 316.47679695 111.7928772 316.48625183 C109.90380142 316.52979546 109.90380142 316.52979546 107.9765625 316.57421875 C106.00032999 316.5801042 104.02409608 316.58594374 102.04785728 316.58907032 C97.17142494 316.60492508 92.29565532 316.6755621 87.41992188 316.75610352 C84.68444101 316.79941223 81.95026756 316.82133279 79.21444702 316.82124329 C76.63771292 316.82319647 74.06074396 316.85856508 71.48501587 316.93058777 C63.04355987 316.90696043 63.04355987 316.90696043 60.20085144 314.43635559 C58.8482478 312.34504691 57.91296308 310.31469264 57 308 C56.358898 306.72266256 55.7119956 305.44821701 55.05883789 304.17700195 C54.44156139 302.8665393 53.82965846 301.55353444 53.22265625 300.23828125 C52.88882431 299.52576706 52.55499237 298.81325287 52.21104431 298.07914734 C51.15670874 295.82581238 50.10950528 293.5692487 49.0625 291.3125 C48.36569932 289.82074628 47.66843665 288.32920826 46.97070312 286.83789062 C42.95172279 278.23857224 38.97118329 269.62147929 35 261 C27.66388207 260.64979382 20.3296087 260.38466002 12.9867754 260.22281742 C9.57514282 260.14505703 6.1692895 260.04002416 2.76098633 259.8684082 C-13.34388767 258.39172265 -13.34388767 258.39172265 -27.61254883 264.234375 C-30.51002051 267.2871876 -32.79749798 270.58341056 -34.9120636 274.21362305 C-36.42826098 276.70319878 -38.31708127 278.76118992 -40.3125 280.875 C-42.22638823 282.68755834 -42.22638823 282.68755834 -43 285 C-42.36772995 285.00364563 -41.7354599 285.00729126 -41.08403015 285.01104736 C-34.51405845 285.0527987 -27.94479015 285.12209209 -21.37524414 285.20751953 C-18.92219064 285.23577715 -16.46904528 285.25696769 -14.01586914 285.27099609 C-10.49317221 285.29235872 -6.97158548 285.33897652 -3.44921875 285.390625 C-1.79910042 285.39246796 -1.79910042 285.39246796 -0.11564636 285.39434814 C0.90518539 285.41406677 1.92601715 285.4337854 2.9777832 285.45410156 C3.87713089 285.46298401 4.77647858 285.47186646 5.70307922 285.48101807 C8 286 8 286 9.72949219 287.79664612 C10.89549547 289.81876502 11.69164363 291.56947582 12.3503418 293.79956055 C12.57034348 294.53099777 12.79034515 295.262435 13.01701355 296.01603699 C13.24214127 296.79836197 13.46726898 297.58068695 13.69921875 298.38671875 C13.9391304 299.2031636 14.17904205 300.01960846 14.42622375 300.86079407 C14.93046157 302.58685275 15.43029995 304.31420194 15.92602539 306.04272461 C16.68110787 308.66529866 17.45775986 311.2808006 18.23632812 313.89648438 C18.7252881 315.5803436 19.21295965 317.26457759 19.69921875 318.94921875 C20.04601936 320.10752449 20.04601936 320.10752449 20.39982605 321.28923035 C21.83317794 326.37601326 23.01430243 331.72704316 22 337 C20.96772289 338.59766102 20.96772289 338.59766102 19 340 C16.30420458 340.29473648 13.83920712 340.40470783 11.14257812 340.38095093 C10.33358818 340.3856309 9.52459824 340.39031087 8.69109344 340.39513266 C5.97098056 340.40713156 3.25136694 340.39760645 0.53125 340.38818359 C-1.41504206 340.39224712 -3.36133182 340.39758777 -5.30761719 340.40411377 C-10.60091785 340.41781917 -15.89404359 340.41247542 -21.18734741 340.40297651 C-26.71930422 340.3953966 -32.25124575 340.40242087 -37.78320312 340.40713501 C-47.07424619 340.41259743 -56.36521778 340.40538818 -65.65625 340.39111328 C-76.40755186 340.37478586 -87.15868306 340.38007402 -97.90998077 340.3965925 C-107.13040887 340.4101935 -116.35078551 340.41213381 -125.5712204 340.40427649 C-131.08274636 340.39959234 -136.59419204 340.39899545 -142.10571289 340.40888596 C-147.28658054 340.41753318 -152.46722755 340.41157484 -157.64807129 340.39420319 C-159.55285271 340.39022632 -161.45765261 340.39139278 -163.36242676 340.39799118 C-165.95606378 340.40614953 -168.54898699 340.39595474 -171.14257812 340.38095093 C-171.902201 340.38764309 -172.66182388 340.39433526 -173.44446564 340.40123022 C-178.51726305 340.34403261 -178.51726305 340.34403261 -180.96772289 338.59766102 C-183.36180218 334.8923312 -182.35544302 329.90454263 -181.58187866 325.75961304 C-181.01651695 323.46699154 -180.37648179 321.21126106 -179.69921875 318.94921875 C-179.46217728 318.12799026 -179.2251358 317.30676178 -178.98091125 316.46064758 C-178.4814273 314.74054633 -177.97607584 313.02213884 -177.46508789 311.30541992 C-176.68563862 308.68123326 -175.92849336 306.05133006 -175.17382812 303.41992188 C-174.68359594 301.74180593 -174.19210338 300.06405755 -173.69921875 298.38671875 C-173.47409103 297.60439377 -173.24896332 296.82206879 -173.01701355 296.01603699 C-172.79701187 295.28459976 -172.57701019 294.55316254 -172.3503418 293.79956055 C-172.16158981 293.16052292 -171.97283783 292.52148529 -171.77836609 291.86308289 C-170.78955002 289.49627075 -169.78598601 287.85533352 -168 286 C-165.70307922 285.48101807 -165.70307922 285.48101807 -162.9777832 285.45410156 C-161.95695145 285.43438293 -160.93611969 285.41466431 -159.88435364 285.39434814 C-158.78427475 285.39311951 -157.68419586 285.39189087 -156.55078125 285.390625 C-155.4230278 285.37408875 -154.29527435 285.35755249 -153.13334656 285.34051514 C-149.5263432 285.29187542 -145.9197619 285.270628 -142.3125 285.25 C-139.86911921 285.22185381 -137.42575821 285.1919283 -134.98242188 285.16015625 C-128.98835829 285.08611219 -122.99441418 285.03456342 -117 285 C-117.94362214 283.7282759 -118.88914355 282.45796094 -119.83544922 281.18823242 C-120.62494461 280.12689339 -120.62494461 280.12689339 -121.4303894 279.04411316 C-123.52601363 276.31496934 -125.7792523 273.83105357 -128.125 271.3125 C-132.89874357 266.17440529 -132.89874357 266.17440529 -134.51934814 263.38305664 C-138.31912015 259.73277742 -141.96568125 260.25414292 -147.05761719 260.2578125 C-148.07922943 260.23941315 -149.10084167 260.22101379 -150.15341187 260.20205688 C-153.53484826 260.14941359 -156.91505957 260.13482421 -160.296875 260.125 C-162.64854405 260.10639438 -165.00020836 260.08718018 -167.35186768 260.06738281 C-172.28481494 260.03291102 -177.21732914 260.01967152 -182.15039062 260.01855469 C-188.46434518 260.01347802 -194.77503235 259.93489985 -201.08814621 259.8374939 C-205.94738297 259.77430451 -210.80583417 259.76107452 -215.66544342 259.76165771 C-217.99231047 259.75392166 -220.31919091 259.72824884 -222.64565277 259.68414307 C-237.11992983 258.73205528 -237.11992983 258.73205528 -248.36425781 266.265625 Z M54 261 C56.57576503 269.83260422 60.64006226 277.83430629 64.6875 286.0625 C67.100625 290.991875 69.51375 295.92125 72 301 C84.21 301 96.42 301 109 301 C107.62355756 297.5588939 106.66436256 295.24893294 104.67749023 292.32714844 C104.22039169 291.65004822 103.76329315 290.972948 103.29234314 290.27532959 C102.55788719 289.20318207 102.55788719 289.20318207 101.80859375 288.109375 C101.30328629 287.36415588 100.79797882 286.61893677 100.27735901 285.85113525 C98.66849268 283.48105094 97.05296187 281.11559222 95.4375 278.75 C94.34659426 277.14350815 93.2560949 275.53674026 92.16601562 273.9296875 C91.13057172 272.40600299 90.09477671 270.88255701 89.05859375 269.359375 C88.56693222 268.63651306 88.07527069 267.91365112 87.56871033 267.16888428 C85.47094828 263.93534886 85.47094828 263.93534886 83 261 C80.85441173 260.91224395 78.70595579 260.89304781 76.55859375 260.90234375 C75.25341797 260.90556641 73.94824219 260.90878906 72.60351562 260.91210938 C71.2148431 260.92046599 69.82617123 260.92893095 68.4375 260.9375 C67.04492344 260.94251334 65.65234519 260.94707653 64.25976562 260.95117188 C60.8398013 260.96300566 57.41992156 260.9794912 54 261 Z M-290.88134766 331.40722656 C-294.7098781 338.38869058 -299.09197723 344.93627512 -303.62640381 351.4727478 C-305.47394372 354.14375639 -307.27869031 356.841913 -309.08203125 359.54296875 C-309.65155518 360.38883545 -310.2210791 361.23470215 -310.80786133 362.10620117 C-312.08878871 363.76808363 -312.08878871 363.76808363 -312 365 C-295.83 365 -279.66 365 -263 365 C-256.60964429 352.23827328 -256.60964429 352.23827328 -250.30859375 339.43359375 C-249.91479019 338.62616226 -249.52098663 337.81873077 -249.11524963 336.98683167 C-248.29752767 335.30953882 -247.48021845 333.63204469 -246.66333008 331.9543457 C-245.43658185 329.43561488 -244.20761329 326.91797564 -242.97851562 324.40039062 C-239.25046678 316.75553216 -235.54124989 309.10162063 -231.91015625 301.41015625 C-231.61257919 300.78628525 -231.31500214 300.16241425 -231.00840759 299.51963806 C-229.47760137 296.39452801 -229.47760137 296.39452801 -229 293 C-264.36515946 284.31882619 -274.96168007 302.1476984 -290.88134766 331.40722656 Z M-157 301 C-159.31 308.92 -161.62 316.84 -164 325 C-108.56 325 -53.12 325 4 325 C1.69 317.08 -0.62 309.16 -3 301 C-10.76010362 300.74628459 -18.50564106 300.52779007 -26.26660156 300.39575195 C-28.90121388 300.34068927 -31.53549398 300.26581155 -34.16894531 300.17016602 C-50.51368325 298.80966527 -50.51368325 298.80966527 -65.00946045 304.78886414 C-67.21443293 307.03747527 -69.09899543 309.49306677 -71 312 C-74.19022451 314.90151225 -75.50470999 315.91068541 -79.8125 316.6875 C-86.05213197 316.34864358 -89.95569716 311.26897545 -93.90391541 306.88684082 C-98.07237102 302.59806505 -101.1083358 300.48671825 -107.16235352 300.09179688 C-109.48492297 300.09304938 -111.80776072 300.13742427 -114.12890625 300.21875 C-115.35915024 300.23006958 -116.58939423 300.24138916 -117.85691833 300.25305176 C-121.76040794 300.29759553 -125.66013336 300.39793329 -129.5625 300.5 C-132.21934726 300.54469781 -134.87615918 300.57665077 -137.53320312 300.609375 C-144.02472809 300.69044306 -150.50818604 300.84700144 -157 301 Z M96 349 C96.406273 350.35732116 96.8257279 351.71069689 97.25 353.0625 C97.48203125 353.81660156 97.7140625 354.57070313 97.953125 355.34765625 C99.28608804 358.72482753 101.19866194 361.8476584 103 365 C119.17 365 135.34 365 152 365 C150.35 362.03 148.7 359.06 147 356 C146.28948486 354.67347412 145.57896973 353.34694824 144.84692383 351.98022461 C143.24074261 349.82142327 142.40878097 349.10908229 139.78695679 348.40945435 C136.97906644 348.18705344 134.26395834 348.21267815 131.44921875 348.31640625 C129.92830376 348.3312632 129.92830376 348.3312632 128.37666321 348.34642029 C125.14545636 348.38553464 121.91767576 348.47335359 118.6875 348.5625 C116.49418977 348.59761756 114.30082616 348.62955578 112.10742188 348.65820312 C106.73711682 348.73528562 101.36880315 348.85234273 96 349 Z M-320 381 C-320 386.28 -320 391.56 -320 397 C-161.6 397 -3.2 397 160 397 C160 391.72 160 386.44 160 381 C1.6 381 -156.8 381 -320 381 Z " fill="#000000" transform="translate(336,63)"/>
<path d="M0 0 C3.58477597 2.22837425 4.28048038 4.74101895 5.375 8.625 C6.50279467 12.46600763 6.50279467 12.46600763 9.9375 14.6875 C13.31161633 15.03179758 14.27753778 14.91560346 17 13 C18.2406677 10.44265286 18.2406677 10.44265286 19.0625 7.5 C20.68412348 2.21058434 20.68412348 2.21058434 24 0 C30.93716338 -0.66068223 30.93716338 -0.66068223 34.3125 1.4375 C35.95801042 3.93623805 36.57327721 5.78002943 37.375 8.625 C38.50279467 12.46600763 38.50279467 12.46600763 41.9375 14.6875 C45.31161633 15.03179758 46.27753778 14.91560346 49 13 C50.2406677 10.44265286 50.2406677 10.44265286 51.0625 7.5 C52.68412348 2.21058434 52.68412348 2.21058434 56 0 C62.53651999 -0.99709627 62.53651999 -0.99709627 65.82177734 1.24121094 C66.72597412 2.07313965 66.72597412 2.07313965 67.6484375 2.921875 C68.3405835 3.55665771 69.03272949 4.19144043 69.74584961 4.84545898 C73.8639985 8.78162968 77.91867437 12.77505433 81.9375 16.8125 C83.23010742 18.09930664 83.23010742 18.09930664 84.54882812 19.41210938 C85.36673828 20.23130859 86.18464844 21.05050781 87.02734375 21.89453125 C87.76718506 22.63550049 88.50702637 23.37646973 89.26928711 24.13989258 C92.05555813 27.13447558 92.50712279 29.66979418 92.4921875 33.76953125 C91.68049966 37.44789439 89.31415225 39.61342169 86.7265625 42.23828125 C84.80743322 44.0871075 84.80743322 44.0871075 83 47 C83.99 47.825 84.98 48.65 86 49.5 C89.72417104 53.2090013 91.98597143 57.28444286 94.3125 61.9375 C94.64958984 62.60523438 94.98667969 63.27296875 95.33398438 63.9609375 C101.3765931 76.4856174 102.21953166 91.70275248 98.375 105.0625 C97.63548568 107.0617387 96.84546142 109.0432088 96 111 C95.61070312 111.928125 95.22140625 112.85625 94.8203125 113.8125 C88.1309121 127.74545232 76.24147569 136.72956084 62 142 C56.04513555 143.81928255 50.0267036 144.59466533 43.85546875 145.33984375 C40.80616941 146.04481172 39.76712655 146.46480865 38 149 C37.22183281 151.16779795 37.22183281 151.16779795 36.6875 153.5 C35.59682942 156.96415059 35.20699786 157.83534261 32.25 160.1875 C28.03320165 161.24169959 25.92405263 160.85096822 22 159 C19.98590904 155.94413786 19.07290991 153.29163965 18.1875 149.75 C17.26931874 146.75218292 17.26931874 146.75218292 14.33984375 145.87890625 C10.99052252 144.99750593 7.81678538 144.54750284 4.375 144.1875 C-10.98213446 142.09996539 -24.33950529 134.09500141 -34 122 C-43.34550299 107.13023219 -46.4549607 91.58597569 -43.3125 74.1953125 C-40.25234036 63.56125774 -35.40925221 54.28967721 -27 47 C-27.39832031 46.54109375 -27.79664063 46.0821875 -28.20703125 45.609375 C-29.30013696 44.34339369 -30.38581397 43.07096856 -31.46484375 41.79296875 C-32.56057809 40.51321795 -33.70338601 39.27316779 -34.875 38.0625 C-36.70873273 34.70065666 -36.91822271 31.63975261 -36 28 C-34.75268555 26.18432617 -34.75268555 26.18432617 -33.07421875 24.35546875 C-32.12289062 23.31640381 -32.12289062 23.31640381 -31.15234375 22.25634766 C-27.22020966 18.13420799 -23.22499102 14.08137077 -19.1875 10.0625 C-18.32962891 9.20076172 -17.47175781 8.33902344 -16.58789062 7.45117188 C-15.76869141 6.63326172 -14.94949219 5.81535156 -14.10546875 4.97265625 C-13.36449951 4.23281494 -12.62353027 3.49297363 -11.86010742 2.73071289 C-8.32490726 -0.55856837 -4.6461618 -0.62810935 0 0 Z M-8 24 C-10.31 26.31 -12.62 28.62 -15 31 C-13.36828607 34.26342786 -12.33620432 35.86431686 -9.9375 38.375 C-7.202454 41.51225864 -5.90641514 43.6950966 -6 48 C-8.00879406 51.98497782 -10.56229318 54.66695449 -13.8125 57.6875 C-22.6444472 66.3518336 -27.25109323 75.21063476 -27.375 87.75 C-27.3136243 99.06532893 -23.8739548 107.75183744 -16 116 C-6.71814383 124.86075116 3.06335311 127.05440826 15.53515625 128.421875 C18.74080644 128.95675237 20.82983642 129.66484107 23.625 131.25 C26.79109927 133.35520959 26.79109927 133.35520959 29.6875 132.375 C30.450625 131.92125 31.21375 131.4675 32 131 C35.84437685 129.13583991 39.50175445 128.55702183 43.68798828 128.01293945 C56.56372061 126.33650351 66.03797802 122.83594764 75 113 C82.4419516 102.83305114 84.22086123 92.39907914 83 80 C80.63891531 68.53389411 73.27555879 60.84800291 64.8203125 53.23828125 C62.56394976 50.46382664 62.21318092 48.53880321 62 45 C63.85023951 39.77579433 67.03418695 36.70142551 71 33 C69.44499019 29.18315774 66.96404505 26.80804268 64 24 C61.24417449 25.30507155 58.85334522 26.7960199 56.375 28.5625 C50.53672181 32.23041455 44.36166836 32.72057947 37.6875 31.25 C34 30 34 30 31.3125 28.25 C29.03415972 26.67620315 29.03415972 26.67620315 26.4375 27.6875 C25.00146299 28.4607507 23.5688538 29.24053419 22.14453125 30.03515625 C15.62667914 32.96759609 8.56044061 32.29615421 2 30 C-1.25 28 -1.25 28 -4 26 C-5.32 25.34 -6.64 24.68 -8 24 Z " fill="#000000" transform="translate(228,104)"/>
<path d="M0 0 C5.82485779 3.51996782 10.54466582 8.98962934 12.5625 15.5 C13.36682536 23.32814332 13.69342741 31.12909846 8.5625 37.5 C2.60980677 43.63566536 -2.29402448 46.78336118 -10.8515625 47.4609375 C-17.92287096 47.56775485 -24.03593387 45.03407692 -29.4375 40.5 C-34.29447946 35.08969377 -36.03963779 28.6615197 -36.4375 21.5 C-35.77558706 12.88162339 -31.72480143 7.32801887 -25.31640625 1.796875 C-18.36691105 -2.99986597 -7.67893419 -3.40282182 0 0 Z M-16.8125 17.0625 C-19.0371142 20.3994213 -18.93780235 22.56905293 -18.4375 26.5 C-16.90359879 28.92194927 -15.74341626 29.38729401 -13.0625 30.375 C-9.64612965 30.5376843 -8.13736096 29.52489572 -5.4375 27.5 C-4.01708179 24.65916359 -4.12297728 22.64522722 -4.4375 19.5 C-5.9375 17 -5.9375 17 -8.4375 15.5 C-12.07382575 14.89394571 -13.72064769 15.02838664 -16.8125 17.0625 Z " fill="#000000" transform="translate(267.4375,161.5)"/>
</svg>
