<?xml version="1.0" encoding="UTF-8"?>
<svg version="1.1" xmlns="http://www.w3.org/2000/svg" width="2500" height="1992">
<path d="M0 0 C2.57544198 -0.00313692 5.15088264 -0.00758622 7.72632039 -0.0132131 C13.30034375 -0.02329655 18.87427874 -0.02246727 24.44830382 -0.01416247 C32.79280538 -0.00178651 41.13723648 -0.00695282 49.48173981 -0.01531039 C63.70962666 -0.02905607 77.93748124 -0.02868698 92.16537094 -0.02046776 C106.57157926 -0.01219637 120.97776637 -0.01048708 135.38397598 -0.01667976 C136.29594444 -0.01706728 137.2079129 -0.0174548 138.14751677 -0.01785406 C141.86219238 -0.01945398 145.57686796 -0.02110012 149.29154352 -0.02280489 C183.84320571 -0.03865035 218.39485369 -0.03975897 252.94651794 -0.03136253 C254.48044224 -0.03098995 254.48044224 -0.03098995 256.04535491 -0.03060985 C257.58174967 -0.03023666 257.58174967 -0.03023666 259.14918271 -0.02985594 C290.37620551 -0.0222811 321.60322244 -0.02033468 352.83024597 -0.02392387 C354.9227861 -0.02415631 357.01532624 -0.02438778 359.10786637 -0.02461828 C367.51729211 -0.02554972 375.92671786 -0.02650572 384.33614359 -0.02749758 C407.84276836 -0.03024836 431.34939315 -0.03196034 454.85601807 -0.03285599 C456.46156211 -0.03291739 456.46156211 -0.03291739 458.09954138 -0.03298004 C492.1968855 -0.03420755 526.29422757 -0.03082888 560.39157104 -0.02430725 C561.49719918 -0.0240965 562.60282732 -0.02388576 563.74195934 -0.02366862 C581.69571153 -0.02023394 599.64946369 -0.01657547 617.60321583 -0.0128981 C688.80622772 0.00167048 760.00922268 0.00099428 831.2122345 -0.01358986 C849.15701292 -0.01725354 867.10179135 -0.02088674 885.04656982 -0.02430725 C886.70404379 -0.02462427 886.70404379 -0.02462427 888.39500207 -0.02494769 C922.45737592 -0.03141795 956.51974836 -0.03415874 990.5821228 -0.03285599 C992.18648216 -0.03279486 992.18648216 -0.03279486 993.82325281 -0.03273249 C1017.30392911 -0.03179499 1040.78460527 -0.02989393 1064.26528142 -0.02712448 C1072.66710915 -0.02613709 1081.06893689 -0.02519784 1089.47076463 -0.02427235 C1091.5608473 -0.02404018 1093.65092997 -0.02380399 1095.74101264 -0.02356376 C1126.95827289 -0.01998555 1158.17552653 -0.02302732 1189.39278596 -0.03060985 C1190.41540216 -0.03085823 1191.43801836 -0.03110662 1192.49162292 -0.03136253 C1193.51234581 -0.03161058 1194.5330687 -0.03185863 1195.58472258 -0.03211419 C1230.03838866 -0.04039526 1264.49203771 -0.03733203 1298.94570136 -0.0215203 C1302.64852252 -0.0198633 1306.35134369 -0.01825318 1310.05416489 -0.01667976 C1310.96287654 -0.01628914 1311.87158819 -0.01589852 1312.80783656 -0.01549607 C1327.17265695 -0.00958841 1341.5374561 -0.01368845 1355.90227457 -0.02198678 C1370.04105425 -0.02993996 1384.17979824 -0.02710544 1398.31857342 -0.01294452 C1406.5976272 -0.00496785 1414.8765829 -0.00505426 1423.1556319 -0.01738931 C1429.31868938 -0.02564316 1435.48163609 -0.01808566 1441.64468227 -0.00462049 C1444.11004184 -0.00161764 1446.57541411 -0.0035477 1449.04076351 -0.0112383 C1469.13014373 -0.06942215 1489.06518529 1.29200813 1508.65657043 6.00252342 C1509.71738831 6.25340721 1510.77820618 6.504291 1511.87117004 6.76277733 C1562.40387907 19.25333848 1609.97462592 49.95054811 1641.71907043 91.37752342 C1642.23727356 92.04638573 1642.75547668 92.71524803 1643.28938293 93.40437889 C1655.78350129 109.61036288 1666.1039711 126.8212448 1674.71907043 145.37752342 C1675.04471985 146.07716209 1675.37036926 146.77680077 1675.70588684 147.49764061 C1693.3567546 186.00080119 1698.08571697 225.73272158 1697.85599518 267.55788684 C1697.83567959 271.76927605 1697.82893819 275.98068612 1697.82112122 280.19211388 C1697.79724183 291.79635848 1697.75356126 303.40051084 1697.70866394 315.00469017 C1697.65796287 328.13806265 1697.61470945 341.27140915 1697.59407043 354.40486717 C1697.59268515 355.25131145 1697.59129986 356.09775572 1697.5898726 356.96984982 C1697.55265523 382.70039952 1697.90436778 408.35085143 1699.56895256 434.03688049 C1699.73562941 436.63571152 1699.89432978 439.23496191 1700.05197144 441.83435631 C1700.85404172 455.06648741 1700.85404172 455.06648741 1701.81672668 468.28767967 C1701.92102745 469.61485764 1701.92102745 469.61485764 1702.0274353 470.96884727 C1708.95514714 557.5593298 1722.80366013 644.2110252 1814.71907043 844.37752342 C1815.4834845 845.35334373 1816.24789856 846.32916405 1817.03547668 847.33455467 C1830.29386654 864.01131392 1845.47482286 878.87081645 1862.71907043 891.37752342 C1863.25773743 891.77262108 1863.79640442 892.16771873 1864.35139465 892.57478905 C1896.7583453 916.08401653 1933.63223612 926.51449827 1972.71907043 932.37752342 C1972.71907043 974.61752342 1972.71907043 1016.85752342 1972.71907043 1060.37752342 C1962.81907043 1062.02752342 1952.91907043 1063.67752342 1942.71907043 1065.37752342 C1935.58920281 1067.19020163 1928.66393855 1069.03237827 1921.71907043 1071.37752342 C1920.87650696 1071.65934471 1920.03394348 1071.941166 1919.16584778 1072.23152733 C1900.31682034 1078.66370911 1881.7723366 1087.50186161 1865.71907043 1099.37752342 C1864.69297668 1100.13291405 1863.66688293 1100.88830467 1862.60969543 1101.66658592 C1847.72505728 1112.80152203 1833.61713999 1125.04738354 1821.71907043 1139.37752342 C1821.30995422 1139.86752831 1820.90083801 1140.35753319 1820.47932434 1140.8623867 C1806.33962788 1157.88360873 1794.26931871 1175.93859416 1783.71907043 1195.37752342 C1783.23228821 1196.26214256 1782.74550598 1197.1467617 1782.24397278 1198.05818748 C1768.69702651 1222.75960451 1757.94738751 1248.78401265 1748.71907043 1275.37752342 C1748.3162384 1276.53671288 1747.91340637 1277.69590233 1747.49836731 1278.89021873 C1734.78453905 1315.91345079 1725.97451439 1353.94918738 1718.71907043 1392.37752342 C1718.57231873 1393.15102135 1718.42556702 1393.92451927 1718.27436829 1394.72145653 C1708.3560254 1447.1634494 1703.1845688 1500.4297619 1699.88898659 1553.65793991 C1699.73663815 1556.09634431 1699.57929552 1558.53435717 1699.42016602 1560.97232628 C1697.77088554 1586.67914053 1697.56493652 1612.35606867 1697.62922668 1638.10408592 C1697.63119678 1638.94588087 1697.63316689 1639.78767582 1697.63519669 1640.65497971 C1697.67101025 1655.56263902 1697.73318346 1670.47019754 1697.80848694 1685.37770653 C1697.85737874 1695.07931041 1697.89923783 1704.78083315 1697.91999525 1714.48254335 C1697.92946084 1718.62101846 1697.94466901 1722.75927551 1697.97513008 1726.89765358 C1698.14404501 1750.21399667 1697.71908348 1773.53901966 1692.09407043 1796.31502342 C1691.84101135 1797.36673729 1691.58795227 1798.41845116 1691.32722473 1799.50203514 C1681.19388782 1840.14961203 1662.72660572 1878.05217241 1634.71907043 1909.37752342 C1633.98430481 1910.22185936 1633.24953918 1911.0661953 1632.49250793 1911.93611717 C1591.32850334 1958.71339512 1533.73070739 1987.14835673 1471.71907043 1992.37752342 C1462.9650523 1992.85072623 1454.20189071 1992.78238516 1445.43814087 1992.75504684 C1442.86269888 1992.75818377 1440.28725823 1992.76263306 1437.71182048 1992.76825994 C1432.13779712 1992.7783434 1426.56386213 1992.77751412 1420.98983705 1992.76920931 C1412.64533549 1992.75683335 1404.30090439 1992.76199966 1395.95640105 1992.77035724 C1381.72851421 1992.78410292 1367.50065963 1992.78373383 1353.27276993 1992.7755146 C1338.86656161 1992.76724322 1324.46037449 1992.76553393 1310.05416489 1992.77172661 C1309.14219643 1992.77211413 1308.23022797 1992.77250164 1307.2906241 1992.7729009 C1303.57594849 1992.77450083 1299.86127291 1992.77614697 1296.14659735 1992.77785173 C1261.59493516 1992.79369719 1227.04328717 1992.79480582 1192.49162292 1992.78640938 C1190.95769863 1992.7860368 1190.95769863 1992.7860368 1189.39278596 1992.78565669 C1187.8563912 1992.78528351 1187.8563912 1992.78528351 1186.28895816 1992.78490279 C1155.06193536 1992.77732794 1123.83491843 1992.77538152 1092.6078949 1992.77897072 C1090.51535477 1992.77920316 1088.42281463 1992.77943463 1086.3302745 1992.77966513 C1077.92084875 1992.78059656 1069.51142301 1992.78155256 1061.10199727 1992.78254442 C1037.59537251 1992.7852952 1014.08874772 1992.78700718 990.5821228 1992.78790283 C988.97657876 1992.78796424 988.97657876 1992.78796424 987.33859949 1992.78802688 C953.24125537 1992.78925439 919.1439133 1992.78587572 885.04656982 1992.7793541 C883.94094169 1992.77914335 882.83531355 1992.7789326 881.69618153 1992.77871547 C863.74242934 1992.77528078 845.78867718 1992.77162232 827.83492504 1992.76794495 C756.63191315 1992.75337637 685.42891819 1992.75405257 614.22590637 1992.7686367 C596.28112795 1992.77230039 578.33634952 1992.77593359 560.39157104 1992.7793541 C558.73409708 1992.77967111 558.73409708 1992.77967111 557.0431388 1992.77999453 C522.98076495 1992.78646479 488.91839251 1992.78920559 454.85601807 1992.78790283 C453.78644516 1992.78786208 452.71687226 1992.78782133 451.61488806 1992.78777934 C428.13421175 1992.78684183 404.6535356 1992.78494077 381.17285945 1992.78217132 C372.77103171 1992.78118393 364.36920398 1992.78024469 355.96737624 1992.77931919 C353.87729357 1992.77908702 351.7872109 1992.77885083 349.69712823 1992.7786106 C318.47986797 1992.77503239 287.26261434 1992.77807416 256.04535491 1992.78565669 C255.02273871 1992.78590508 254.00012251 1992.78615346 252.94651794 1992.78640938 C251.41543361 1992.78678145 251.41543361 1992.78678145 249.85341829 1992.78716104 C215.39975221 1992.7954421 180.94610316 1992.79237888 146.49243951 1992.77656715 C142.78961835 1992.77491015 139.08679718 1992.77330003 135.38397598 1992.77172661 C134.47526433 1992.77133599 133.56655268 1992.77094537 132.63030431 1992.77054291 C118.26548392 1992.76463525 103.90068477 1992.7687353 89.53586629 1992.77703363 C75.39708661 1992.7849868 61.25834262 1992.78215229 47.11956745 1992.76799136 C38.84051366 1992.7600147 30.56155797 1992.7601011 22.28250897 1992.77243615 C16.11945149 1992.78069001 9.95650478 1992.7731325 3.7934586 1992.75966733 C1.32809902 1992.75666449 -1.13727324 1992.75859454 -3.60262264 1992.76628514 C-23.59313135 1992.82418264 -43.53274162 1991.636083 -62.96842957 1986.62752342 C-64.00129089 1986.3671328 -65.03415222 1986.10674217 -66.09831238 1985.83846092 C-69.16766549 1985.0463698 -72.225498 1984.22159338 -75.28092957 1983.37752342 C-76.16280945 1983.1358242 -77.04468933 1982.89412498 -77.95329285 1982.64510155 C-107.24194175 1974.3682404 -134.99554975 1958.80811383 -158.28092957 1939.37752342 C-158.85117859 1938.90878807 -159.42142761 1938.44005272 -160.00895691 1937.95711327 C-173.00067527 1927.26039336 -184.96098003 1915.70273299 -195.28092957 1902.37752342 C-196.46042175 1900.90605858 -196.46042175 1900.90605858 -197.66374207 1899.40486717 C-247.84361197 1836.37284655 -253.18100209 1765.64230627 -251.63713074 1688.57723045 C-249.67939711 1589.7699404 -254.77871908 1489.56288179 -287.28092957 1328.37752342 C-287.58820984 1327.18062889 -287.89549011 1325.98373436 -288.21208191 1324.7505703 C-298.80021676 1283.78517166 -313.24541144 1244.1792209 -332.28092957 1206.37752342 C-332.90813904 1205.11343651 -332.90813904 1205.11343651 -333.54801941 1203.82381248 C-342.40321441 1186.02789947 -352.89256952 1168.94176442 -365.28092957 1153.37752342 C-365.908703 1152.5705703 -366.53647644 1151.76361717 -367.18327332 1150.93221092 C-379.51400255 1135.24772507 -392.52756648 1120.69577817 -408.28092957 1108.37752342 C-409.22967957 1107.60021873 -410.17842957 1106.82291405 -411.15592957 1106.02205467 C-444.77782839 1079.04734247 -485.17233573 1066.39303683 -527.28092957 1060.37752342 C-527.28092957 1018.13752342 -527.28092957 975.89752342 -527.28092957 932.37752342 C-512.43092957 929.90252342 -512.43092957 929.90252342 -497.28092957 927.37752342 C-490.15106194 925.56484521 -483.22579768 923.72266857 -476.28092957 921.37752342 C-475.43836609 921.09570213 -474.59580261 920.81388084 -473.72770691 920.52351952 C-454.87867947 914.09133774 -436.33419573 905.25318523 -420.28092957 893.37752342 C-419.25483582 892.6221328 -418.22874207 891.86674217 -417.17155457 891.08846092 C-401.8869097 879.65486602 -387.40651885 867.14427724 -375.50749207 852.15486717 C-374.04006635 850.32444668 -372.53504887 848.52345184 -370.99186707 846.75642967 C-362.7631878 837.30819045 -356.03493186 826.90674334 -349.28092957 816.37752342 C-348.64888611 815.39791649 -348.64888611 815.39791649 -348.0040741 814.39851952 C-302.24960221 742.87862268 -281.38591705 655.29591029 -268.28092957 572.37752342 C-268.14964661 571.54986473 -268.01836365 570.72220604 -267.88310242 569.86946678 C-257.39761669 503.4581751 -252.94152124 436.24292211 -251.65592957 369.06502342 C-251.63528442 367.98762901 -251.61463928 366.9102346 -251.59336853 365.80019188 C-251.18243725 343.61882682 -251.24280848 321.47633335 -251.70927429 299.29643822 C-251.9010254 289.98009478 -252.06110662 280.66310695 -252.22697449 271.34627342 C-252.27428093 268.74334902 -252.32472033 266.14051527 -252.37663269 263.53767967 C-253.19380551 221.09145 -246.05518427 179.70048102 -227.28092957 141.37752342 C-226.67208923 140.13108055 -226.67208923 140.13108055 -226.0509491 138.85945702 C-217.28606482 121.11526713 -206.79212957 104.71459401 -194.28092957 89.37752342 C-193.8278241 88.82145409 -193.37471863 88.26538475 -192.90788269 87.69246483 C-182.2119413 74.67466785 -170.60817746 62.71992407 -157.28092957 52.37752342 C-156.34635925 51.61439842 -155.41178894 50.85127342 -154.44889832 50.06502342 C-110.04204978 14.49394064 -56.0633296 -0.17488828 0 0 Z M372.61750793 481.76814842 C365.65352167 491.19175536 362.59634319 500.73120372 362.59141994 512.40551913 C362.58976916 513.09362451 362.58811838 513.78172988 362.58641758 514.49068694 C362.58209841 516.79999494 362.58489207 519.10923898 362.58764267 521.41854858 C362.58599276 523.09664084 362.58390637 524.77473271 362.58142257 526.45282394 C362.57584963 531.08422324 362.57652948 535.71560407 362.57820016 540.34700565 C362.5789303 545.37812577 362.57391056 550.40924063 362.56962514 555.44035852 C362.56203833 565.42795794 362.55985173 575.41555201 362.55929608 585.40315401 C362.55838312 597.36252677 362.55171762 609.32189457 362.54494926 621.28126519 C362.52926183 649.50164226 362.52320008 677.72201881 362.51854223 705.94239919 C362.51615921 720.29922906 362.51245578 734.65605846 362.50850513 749.01288796 C362.49584068 795.06180063 362.48505667 841.11071328 362.48166468 887.15962765 C362.48150244 889.3605887 362.48133688 891.56154974 362.48117029 893.76251079 C362.48083649 898.17659112 362.48050601 902.59067146 362.48017573 907.0047518 C362.47978883 912.1725948 362.47939923 917.3404378 362.47900467 922.5082808 C362.47889225 923.98736069 362.47878083 925.46644059 362.47867042 926.94552049 C362.47512076 974.45140754 362.46004142 1021.95727947 362.43673267 1069.46316076 C362.41999107 1103.59828731 362.40451603 1137.73341101 362.39999771 1171.86854172 C362.39990423 1172.57054343 362.39981074 1173.27254514 362.39971442 1173.99581962 C362.39769537 1189.40653845 362.39653933 1204.81725722 362.39618584 1220.22797617 C362.39604966 1225.74226596 362.39584067 1231.25655574 362.39559258 1236.77084553 C362.39553102 1238.14266887 362.3954727 1239.51449221 362.39541763 1240.88631555 C362.39449785 1262.74501986 362.38452999 1284.60370837 362.36996015 1306.46240748 C362.35493678 1329.0920497 362.35075547 1351.72167439 362.35905311 1374.35132106 C362.36351567 1387.39961784 362.3596237 1400.44784991 362.3438146 1413.49613822 C362.33408373 1422.20886917 362.33522473 1430.92155465 362.34525083 1439.63428516 C362.35065648 1444.60068828 362.35130913 1449.5669669 362.33874211 1454.53335984 C362.32739888 1459.05378483 362.32993232 1463.57398408 362.34340918 1468.09440128 C362.34583951 1469.71728282 362.34327214 1471.34018177 362.3350127 1472.96304411 C362.27002194 1486.63446681 363.78332487 1497.88877649 371.71907043 1509.37752342 C372.29657043 1510.26439842 372.87407043 1511.15127342 373.46907043 1512.06502342 C382.31740871 1521.15914888 393.13999881 1525.6210969 405.79328632 1525.87530136 C408.93007713 1525.9090455 412.06522306 1525.89272952 415.20205688 1525.87199974 C416.95573853 1525.87518109 418.70941771 1525.8801134 420.46309012 1525.88663256 C425.25612347 1525.8993971 430.04881624 1525.88737179 434.84182703 1525.871104 C440.02222709 1525.8578987 445.20259065 1525.86785866 450.38299561 1525.87486839 C460.52653306 1525.88493688 470.66993977 1525.87368525 480.81346098 1525.85516779 C492.65181562 1525.83433977 504.4901424 1525.83454193 516.32851192 1525.83551295 C537.47996577 1525.83651385 558.63135913 1525.81820843 579.78279114 1525.78914452 C600.24797163 1525.76103854 620.71309887 1525.74680017 641.17829895 1525.74812889 C642.43605288 1525.7482088 643.6938068 1525.74828872 644.98967449 1525.74837105 C646.2453683 1525.74845176 647.50106211 1525.74853247 648.79480726 1525.74861562 C672.15396849 1525.7500017 695.51310733 1525.73816993 718.87226126 1525.72030919 C727.09629719 1525.71431425 735.32032896 1525.7121545 743.54436684 1525.71124458 C753.60138136 1525.70986862 763.65835817 1525.70078073 773.71535674 1525.68257897 C778.83309195 1525.67345094 783.95077954 1525.66721104 789.06852341 1525.66976738 C817.08470169 1525.68062367 845.02587468 1525.30052095 872.84407043 1521.56502342 C873.48819885 1521.48071068 874.13232727 1521.39639793 874.79597473 1521.30953026 C960.95983452 1510.02034863 1051.06109761 1478.8018972 1106.71907043 1408.37752342 C1107.44481262 1407.5190078 1108.17055481 1406.66049217 1108.91828918 1405.77596092 C1146.4400019 1361.37854169 1166.64382234 1299.48539573 1166.92219543 1241.68221092 C1166.92925507 1240.69976906 1166.9363147 1239.71732719 1166.94358826 1238.70511436 C1167.24670259 1208.90451009 1167.24670259 1208.90451009 1163.71907043 1179.37752342 C1163.52571106 1178.32016991 1163.33235168 1177.26281639 1163.13313293 1176.17342186 C1154.58236302 1130.68807634 1134.69174707 1088.10052907 1102.71907043 1054.37752342 C1101.6511336 1053.11125547 1100.58834339 1051.8406231 1099.53157043 1050.56502342 C1058.60533862 1003.81944396 989.93604706 973.96420067 928.71907043 968.37752342 C926.04375132 968.29900491 923.39646442 968.32337388 920.71907043 968.37752342 C921.04907043 966.06752342 921.37907043 963.75752342 921.71907043 961.37752342 C922.39147766 961.23766014 923.06388489 961.09779686 923.75666809 960.9536953 C966.17265671 951.99672877 1003.84651702 934.06781192 1035.71907043 904.37752342 C1037.11051709 903.16414123 1038.50615683 901.9555454 1039.90657043 900.75252342 C1047.3421411 894.23896352 1053.55427548 887.10077854 1059.71907043 879.37752342 C1060.58407032 878.32601309 1061.44997759 877.27524862 1062.31672668 876.22517967 C1102.09780813 827.51718888 1118.66729598 765.07513004 1112.94978333 702.9158535 C1107.85811937 655.84679252 1091.61181824 609.79472541 1060.71907043 573.37752342 C1059.75481477 572.21144681 1058.79129094 571.0447647 1057.82844543 569.87752342 C1047.83428136 557.87597749 1037.06956825 546.96813345 1024.71907043 537.37752342 C1023.21086731 536.1786953 1023.21086731 536.1786953 1021.67219543 534.95564842 C973.13389909 496.6320051 912.90419965 477.32823931 852.09407043 470.12752342 C851.39253845 470.04425804 850.69100647 469.96099266 849.96821594 469.87520409 C833.92470487 467.99910652 817.99600163 467.22753641 801.85499573 467.2303524 C800.10907259 467.2270437 798.3631502 467.22331606 796.61722875 467.21921092 C791.86508037 467.2092993 787.11294462 467.20549195 782.36078739 467.20282161 C777.21831806 467.19888664 772.07585844 467.18931168 766.93339539 467.18060875 C754.54688067 467.16094674 742.16036527 467.15079699 729.77383888 467.14188096 C723.93172203 467.13748627 718.08960607 467.13212302 712.24748993 467.12689209 C692.81859907 467.10989968 673.38970875 467.09540253 653.96081161 467.08814335 C648.93166351 467.08623372 643.9025154 467.08431333 638.87336731 467.08235741 C637.62352363 467.08187367 636.37367994 467.08138993 635.08596221 467.08089153 C614.80956455 467.07257925 594.53322564 467.04721327 574.25685367 467.01477673 C553.4143393 466.98170714 532.57185483 466.96369519 511.72931409 466.96049911 C500.03666097 466.9583353 488.34409387 466.94960395 476.65146637 466.92403793 C466.70269022 466.90233344 456.75402106 466.89427982 446.80522391 466.90400472 C441.73227489 466.90854837 436.65954668 466.9066586 431.58662796 466.88724327 C426.93825016 466.86960626 422.2902542 466.87061367 417.64187232 466.88614056 C415.96515831 466.88851562 414.28841781 466.8841984 412.61174425 466.87231191 C397.01259534 466.76861836 383.39593473 469.50718708 372.61750793 481.76814842 Z " fill="#7851B3" transform="translate(527.2809295654297,-0.37752342224121094)"/>
<path d="M0 0 C39.620625 -0.04125 79.24125 -0.0825 120.0625 -0.125 C132.5187915 -0.14320801 144.97508301 -0.16141602 157.80883789 -0.18017578 C173.15710449 -0.18920898 173.15710449 -0.18920898 180.36888123 -0.19088745 C185.34753749 -0.19273184 190.32615002 -0.20015015 195.30479431 -0.21115112 C250.11414077 -0.32694386 250.11414077 -0.32694386 275 2 C276.28768233 2.11956511 276.28768233 2.11956511 277.60137844 2.24154568 C281.97747729 2.65832528 286.3317831 3.15711657 290.6875 3.75 C291.94747803 3.91846436 293.20745605 4.08692871 294.50561523 4.26049805 C338.40080346 10.41607913 385.01008053 23.80813403 417.921875 55.0625 C420.01054606 57.06886162 420.01054606 57.06886162 422.49609375 58.93359375 C443.92851222 76.62119028 456.88133127 107.31023874 462 134 C462.14808105 134.74072754 462.29616211 135.48145508 462.44873047 136.24462891 C470.99968377 180.89551639 465.03751699 232.29129847 439.4453125 270.5078125 C409.4397416 313.84399557 360.38035904 334.77988129 310 344 C272.22146668 350.54010398 234.40431436 350.28488179 196.20113373 350.20256042 C189.9631481 350.19101479 183.72517908 350.19062585 177.48718262 350.18920898 C159.34561211 350.17879032 141.20405506 350.15086794 123.0625 350.125 C82.451875 350.08375 41.84125 350.0425 0 350 C0 234.5 0 119 0 0 Z " fill="#7851B3" transform="translate(1058,1042)"/>
<path d="M0 0 C58.595625 -0.061875 58.595625 -0.061875 118.375 -0.125 C130.6679834 -0.14320801 142.9609668 -0.16141602 155.62646484 -0.18017578 C170.7434082 -0.18920898 170.7434082 -0.18920898 177.84072876 -0.19088745 C182.75293824 -0.19273599 187.66510363 -0.20017147 192.57730103 -0.21115112 C198.87518448 -0.22503796 205.17300534 -0.22895162 211.47090268 -0.22614455 C213.76218113 -0.22673009 216.05346215 -0.23059485 218.34472728 -0.23843026 C274.44381212 -0.42110249 334.94107063 8.33238257 376.96484375 48.93359375 C385.40552185 57.3316287 392.16672876 66.62432756 398 77 C398.60714844 78.07765625 399.21429687 79.1553125 399.83984375 80.265625 C410.63880197 100.58751574 415.38508748 124.11456011 416 147 C416.03996094 148.0003125 416.07992188 149.000625 416.12109375 150.03125 C417.02327728 191.21327453 404.36227362 228.94296838 376 259 C375.33871094 259.72574219 374.67742187 260.45148438 373.99609375 261.19921875 C362.89405099 272.93325635 349.27530393 281.6496481 335 289 C334.36610352 289.33451172 333.73220703 289.66902344 333.07910156 290.01367188 C277.47879414 319.10388881 212.09846829 318.18695947 151.05526733 318.10128021 C146.2485956 318.09549001 141.44192918 318.09531201 136.63525391 318.09460449 C122.67349947 318.08940348 108.7117494 318.07544239 94.75 318.0625 C63.4825 318.041875 32.215 318.02125 0 318 C0 213.06 0 108.12 0 0 Z " fill="#7951B3" transform="translate(1058,600)"/>
</svg>
