<?xml version="1.0" encoding="UTF-8"?>
<svg version="1.1" xmlns="http://www.w3.org/2000/svg" width="512" height="512">
<path d="M0 0 C1.01790619 0.00215515 2.03581238 0.0043103 3.08456421 0.00653076 C17.69363523 0.05620146 32.02575853 0.30709809 46.375 3.3125 C47.34985352 3.51117676 48.32470703 3.70985352 49.32910156 3.91455078 C97.7109774 14.03517194 141.69928269 35.9516877 177.375 70.3125 C178.3640332 71.26068604 178.3640332 71.26068604 179.37304688 72.22802734 C188.86130305 81.37247479 197.6012044 90.66984009 205.375 101.3125 C206.23306152 102.46355017 207.09113451 103.61459177 207.94921875 104.765625 C213.98736829 112.95680614 219.34595521 121.47054105 224.375 130.3125 C224.73948242 130.94430176 225.10396484 131.57610352 225.47949219 132.22705078 C247.08534998 169.97532572 256.85198095 212.74189997 256.6875 255.9375 C256.68534485 256.95540619 256.6831897 257.97331238 256.68096924 259.02206421 C256.63129854 273.63113523 256.38040191 287.96325853 253.375 302.3125 C253.07698486 303.77478027 253.07698486 303.77478027 252.77294922 305.26660156 C242.65232806 353.6484774 220.7358123 397.63678269 186.375 433.3125 C185.74287598 433.97185547 185.11075195 434.63121094 184.45947266 435.31054688 C175.31502521 444.79880305 166.01765991 453.5387044 155.375 461.3125 C154.22394983 462.17056152 153.07290823 463.02863451 151.921875 463.88671875 C143.73224019 469.92427396 135.22961724 475.30707302 126.375 480.3125 C125.66778809 480.7146875 124.96057617 481.116875 124.23193359 481.53125 C101.09654164 494.5566741 75.92537591 503.30551461 49.9375 508.625 C49.21860596 508.77235596 48.49971191 508.91971191 47.7590332 509.0715332 C33.08339502 511.86090125 18.55831162 512.66142619 3.64770508 512.62817383 C0.70811513 512.6250221 -2.2304558 512.64854926 -5.16992188 512.67382812 C-18.54306192 512.71848737 -31.43916711 511.51301542 -44.625 509.3125 C-46.33055054 509.03031616 -46.33055054 509.03031616 -48.07055664 508.74243164 C-91.33802759 500.97044532 -132.38793216 480.98345309 -165.625 452.3125 C-166.37007813 451.67828125 -167.11515625 451.0440625 -167.8828125 450.390625 C-181.38779833 438.57948485 -194.05918743 425.82889772 -204.625 411.3125 C-205.48149066 410.16255169 -206.33826433 409.01281411 -207.1953125 407.86328125 C-213.23534209 399.67315742 -218.61867614 391.16870382 -223.625 382.3125 C-224.0271875 381.60528809 -224.429375 380.89807617 -224.84375 380.16943359 C-237.8691741 357.03404164 -246.61801461 331.86287591 -251.9375 305.875 C-252.08485596 305.15610596 -252.23221191 304.43721191 -252.3840332 303.6965332 C-255.35789088 288.05024391 -255.99800362 272.57681954 -255.9375 256.6875 C-255.93534485 255.66959381 -255.9331897 254.65168762 -255.93096924 253.60293579 C-255.88129854 238.99386477 -255.63040191 224.66174147 -252.625 210.3125 C-252.42632324 209.33764648 -252.22764648 208.36279297 -252.02294922 207.35839844 C-241.90232806 158.9765226 -219.9858123 114.98821731 -185.625 79.3125 C-184.99287598 78.65314453 -184.36075195 77.99378906 -183.70947266 77.31445312 C-174.56502521 67.82619695 -165.26765991 59.0862956 -154.625 51.3125 C-153.47394983 50.45443848 -152.32290823 49.59636549 -151.171875 48.73828125 C-142.98224019 42.70072604 -134.47961724 37.31792698 -125.625 32.3125 C-124.91778809 31.9103125 -124.21057617 31.508125 -123.48193359 31.09375 C-100.34654164 18.0683259 -75.17537591 9.31948539 -49.1875 4 C-48.46860596 3.85264404 -47.74971191 3.70528809 -47.0090332 3.5534668 C-31.36274391 0.57960912 -15.88931954 -0.06050362 0 0 Z " fill="#F15233" transform="translate(255.625,-0.3125)"/>
<path d="M0 0 C8.52559259 3.80702562 19.58212791 0.06548301 28.10546875 -2.61328125 C30.41546875 -3.27328125 32.72546875 -3.93328125 35.10546875 -4.61328125 C35.10546875 4.95671875 35.10546875 14.52671875 35.10546875 24.38671875 C31.47546875 25.37671875 27.84546875 26.36671875 24.10546875 27.38671875 C24.43546875 28.37671875 24.76546875 29.36671875 25.10546875 30.38671875 C26.42451422 44.48881749 25.59670935 56.90954457 17.23046875 68.76171875 C16.20688188 69.98540531 15.1655251 71.1944858 14.10546875 72.38671875 C13.64011719 72.97839844 13.17476563 73.57007813 12.6953125 74.1796875 C6.54738512 81.30247805 -3.85574154 85.86654174 -13.01953125 87.51171875 C-17.64038904 88.55513825 -19.32011965 89.40053304 -21.89453125 93.38671875 C-22.70536554 97.85354692 -22.84565124 101.81530312 -20.45703125 105.76171875 C-13.91333845 109.9113776 -7.18337253 111.90853602 0.29833984 113.82080078 C11.76040482 116.80030679 23.32968412 120.19049805 30.04296875 130.57421875 C34.82804748 138.79806593 34.41132214 150.27874028 32.72314453 159.46777344 C30.70920294 167.08493914 26.80268381 173.0472358 21.10546875 178.38671875 C20.32171875 179.12921875 19.53796875 179.87171875 18.73046875 180.63671875 C3.54266427 190.76192174 -17.81079933 191.86188979 -35.38671875 188.6953125 C-48.56202509 185.47558017 -59.04355242 179.88419996 -66.2734375 168.1484375 C-70.3462229 159.70485801 -70.30653733 148.43512376 -67.89453125 139.44921875 C-64.3124528 130.75936176 -57.41432562 125.5994185 -49.3125 121.3828125 C-46.89453125 120.38671875 -46.89453125 120.38671875 -43.89453125 120.38671875 C-43.89453125 119.72671875 -43.89453125 119.06671875 -43.89453125 118.38671875 C-44.4978125 118.13277344 -45.10109375 117.87882812 -45.72265625 117.6171875 C-49.79194117 115.3117473 -51.41862779 111.71525774 -52.89453125 107.38671875 C-53.91943648 99.20499667 -54.05821336 91.17277396 -48.89453125 84.38671875 C-46.64453125 81.88671875 -46.64453125 81.88671875 -44.89453125 80.38671875 C-45.57515625 80.18046875 -46.25578125 79.97421875 -46.95703125 79.76171875 C-57.39482279 74.87594399 -62.10209364 65.0003253 -66.1328125 54.7109375 C-69.79265445 43.54372745 -68.39554499 32.07835754 -63.89453125 21.38671875 C-57.70025662 9.91458273 -47.41023407 0.72973896 -34.953125 -3.23046875 C-23.56223804 -6.29321184 -10.41972646 -5.80748587 0 0 Z " fill="#FEFDFD" transform="translate(207.89453125,194.61328125)"/>
<path d="M0 0 C10.23 0 20.46 0 31 0 C30.67 7.92 30.34 15.84 30 24 C39.57 24 49.14 24 59 24 C59 32.58 59 41.16 59 50 C49.43 50 39.86 50 30 50 C30.06773181 57.41780071 30.13828415 64.83465976 30.2355423 72.25198364 C30.28004679 75.70670319 30.31951314 79.16130584 30.34643555 82.61621094 C30.37762537 86.58814233 30.43240877 90.55958622 30.48828125 94.53125 C30.49467117 95.75863892 30.5010611 96.98602783 30.50764465 98.25061035 C30.6209782 104.89574456 31.23036733 109.945598 34 116 C34.33 116.99 34.66 117.98 35 119 C42.98321328 121.96568614 51.17105543 119.1351667 59 117 C59 126.24 59 135.48 59 145 C46.67259901 149.48269127 32.19687668 153.21452354 19.25 148.3125 C12.19628299 144.840087 7.30642736 140.16970614 4 133 C0.51520228 122.20142688 -0.56308726 112.09677883 -0.390625 100.78125 C-0.38313519 99.30196918 -0.37745529 97.82267822 -0.37347412 96.34338379 C-0.35843252 92.50953214 -0.31934619 88.67631771 -0.2746582 84.8427124 C-0.23323234 80.90694797 -0.21536372 76.97107733 -0.1953125 73.03515625 C-0.1528225 65.35645105 -0.08265913 57.67839711 0 50 C-6.435 50.495 -6.435 50.495 -13 51 C-13 42.09 -13 33.18 -13 24 C-8.71 24 -4.42 24 0 24 C0 16.08 0 8.16 0 0 Z " fill="#FEFEFE" transform="translate(314,168)"/>
<path d="M0 0 C9.9 0 19.8 0 30 0 C30 40.92 30 81.84 30 124 C20.1 124 10.2 124 0 124 C0 83.08 0 42.16 0 0 Z " fill="#FEFEFE" transform="translate(257,192)"/>
<path d="M0 0 C5.57600818 3.05745616 8.9043884 8.65066519 10.875 14.5625 C11.61549988 21.39694968 11.00132112 26.94008585 6.875 32.5625 C3.51300723 36.14756338 -0.23592009 39.51484002 -5.125 40.5625 C-11.18624667 40.64151066 -15.40406789 39.54906489 -20.125 35.5625 C-26.28813516 29.21128795 -27.55409078 24.77806817 -27.46484375 15.86328125 C-26.88117998 10.19436298 -24.57501062 6.70156835 -20.33984375 3.00390625 C-13.99369199 -1.75233912 -7.36958148 -3.1119154 0 0 Z " fill="#FEFCFB" transform="translate(280.125,129.4375)"/>
<path d="M0 0 C6.10112153 2.14669091 8.70749644 5.64579708 11.75 11.1875 C14.42053688 17.95188188 13.54177954 25.32806933 11.0546875 32.01953125 C8.82026146 36.21528681 5.49427541 38.5019082 1 40 C-6.17869498 40.69729362 -11.16818134 40.37386399 -17 36 C-21.18687616 31.6687488 -22.13775187 26.54507442 -22.375 20.6875 C-22.23919274 14.44885411 -20.81930145 9.00629594 -16.46875 4.3671875 C-11.05613508 -0.27598706 -6.91977749 -0.58551963 0 0 Z " fill="#F15537" transform="translate(192,216)"/>
<path d="M0 0 C3.47498973 2.11357601 5.94579378 4.45703043 7.8046875 8.09765625 C8.86956149 12.84418761 8.28250309 16.14202507 6.1171875 20.47265625 C2.2823007 24.825771 -1.60114129 26.77241052 -7.32666016 27.29052734 C-28.30940107 28.03109467 -28.30940107 28.03109467 -35.1953125 22.09765625 C-38.31681291 17.87444982 -38.84314712 14.28033318 -38.1953125 9.09765625 C-35.51013392 4.11089603 -32.81500838 1.15884845 -27.58203125 -0.9609375 C-19.45000228 -3.22139769 -7.90570265 -3.30686006 0 0 Z " fill="#F15436" transform="translate(205.1953125,331.90234375)"/>
</svg>
