<?xml version="1.0" encoding="UTF-8"?>
<svg version="1.1" xmlns="http://www.w3.org/2000/svg" width="48" height="48">
<path d="M0 0 C11.22 0 22.44 0 34 0 C34 7.78714687 33.92327516 15.3366675 33.25 23.0625 C33.1571875 24.44598633 33.1571875 24.44598633 33.0625 25.85742188 C32.98515625 26.74107422 32.9078125 27.62472656 32.828125 28.53515625 C32.7652832 29.322854 32.70244141 30.11055176 32.63769531 30.92211914 C31.77501743 33.73308829 30.48253037 34.50546714 28 36 C19.50160466 39.10518291 12.15482096 38.68828002 4 35 C1.63428734 32.63428734 1.66670303 31.87218812 1.3671875 28.6328125 C1.28339844 27.7459375 1.19960937 26.8590625 1.11328125 25.9453125 C1.03464844 25.01460937 0.95601563 24.08390625 0.875 23.125 C0.78863281 22.23296875 0.70226562 21.3409375 0.61328125 20.421875 C-0.00793584 13.53918406 0 6.97111572 0 0 Z " fill="#EA7F01" transform="translate(7,5)"/>
<path d="M0 0 C5.94 0 11.88 0 18 0 C18 1.32 18 2.64 18 4 C13.38 4 8.76 4 4 4 C4 5.32 4 6.64 4 8 C8.29 8 12.58 8 17 8 C17 11.96 17 15.92 17 20 C6.42857143 22.57142857 6.42857143 22.57142857 1 20 C1 18.02 1 16.04 1 14 C2.32 14 3.64 14 5 14 C5 14.99 5 15.98 5 17 C7.64 17 10.28 17 13 17 C13 15.35 13 13.7 13 12 C8.71 12 4.42 12 0 12 C0 8.04 0 4.08 0 0 Z " fill="#D5DBE0" transform="translate(15,13)"/>
<path d="M0 0 C4.29 0 8.58 0 13 0 C14.38491685 5.53966739 13.61505376 10.43112071 13 16.0625 C12.86658203 17.71475586 12.86658203 17.71475586 12.73046875 19.40039062 C11.85702097 27.2566215 11.85702097 27.2566215 9.39819336 29.3894043 C7.52734375 30.203125 7.52734375 30.203125 4 31 C3.195625 31.226875 2.39125 31.45375 1.5625 31.6875 C1.046875 31.790625 0.53125 31.89375 0 32 C0 30.35 0 28.7 0 27 C3.08809695 25.23537317 4.23312136 25 8 25 C8 21.04 8 17.08 8 13 C5.36 12.67 2.72 12.34 0 12 C0 11.34 0 10.68 0 10 C3.3 10 6.6 10 10 10 C10 8.02 10 6.04 10 4 C6.7 4 3.4 4 0 4 C0 2.68 0 1.36 0 0 Z " fill="#EE9606" transform="translate(24,8)"/>
<path d="M0 0 C2.64 0 5.28 0 8 0 C8 3.96 8 7.92 8 12 C-2.57142857 14.57142857 -2.57142857 14.57142857 -8 12 C-8 10.02 -8 8.04 -8 6 C-6.68 6 -5.36 6 -4 6 C-4 6.99 -4 7.98 -4 9 C-1.36 9 1.28 9 4 9 C4 7.35 4 5.7 4 4 C2.68 4 1.36 4 0 4 C0 2.68 0 1.36 0 0 Z " fill="#FDFBF8" transform="translate(24,21)"/>
<path d="M0 0 C6.6 0 13.2 0 20 0 C20 1.98 20 3.96 20 6 C16.7 6 13.4 6 10 6 C10 6.66 10 7.32 10 8 C12.97 8 15.94 8 19 8 C19 8.33 19 8.66 19 9 C14.38 9 9.76 9 5 9 C5 7.68 5 6.36 5 5 C9.62 5 14.24 5 19 5 C19 3.68 19 2.36 19 1 C13.06 1 7.12 1 1 1 C1 3.97 1 6.94 1 10 C0.67 10 0.34 10 0 10 C0 6.7 0 3.4 0 0 Z " fill="#DC8606" transform="translate(14,12)"/>
<path d="M0 0 C4.29 0 8.58 0 13 0 C13 1.65 13 3.3 13 5 C7.25 6.125 7.25 6.125 5 5 C5 4.01 5 3.02 5 2 C3.68 2 2.36 2 1 2 C0.67 3.32 0.34 4.64 0 6 C0 4.02 0 2.04 0 0 Z " fill="#DC7806" transform="translate(15,25)"/>
<path d="M0 0 C1.32 0 2.64 0 4 0 C4 0.99 4 1.98 4 3 C5.32 3.33 6.64 3.66 8 4 C8 5.32 8 6.64 8 8 C5.36 7.34 2.72 6.68 0 6 C0 4.02 0 2.04 0 0 Z " fill="#D5D9DB" transform="translate(16,27)"/>
<path d="M0 0 C2.97 0 5.94 0 9 0 C9 1.32 9 2.64 9 4 C6.03 4 3.06 4 0 4 C0 2.68 0 1.36 0 0 Z " fill="#FEFEFE" transform="translate(24,13)"/>
<path d="M0 0 C1.32 0 2.64 0 4 0 C4 0.66 4 1.32 4 2 C6.97 2 9.94 2 13 2 C13 2.33 13 2.66 13 3 C8.71 3 4.42 3 0 3 C0 2.01 0 1.02 0 0 Z " fill="#E18401" transform="translate(20,18)"/>
<path d="M0 0 C1.32 0 2.64 0 4 0 C4 1.32 4 2.64 4 4 C2.02 4.33 0.04 4.66 -2 5 C-1.34 4.67 -0.68 4.34 0 4 C0 2.68 0 1.36 0 0 Z " fill="#E89819" transform="translate(24,26)"/>
</svg>
